<?xml version="1.0" encoding="UTF-8"?>
<svg xmlns="http://www.w3.org/2000/svg" xmlns:xlink="http://www.w3.org/1999/xlink" version="1.2" >
<font id="Austin News Text Semibold">
<font-face  font-family="Austin News Text" units-per-em="1000" ascent="807" descent="-193" font-style="normal" font-weight="600" font-stretch="normal" cap-height="698" x-height="505" underline-position="-100" underline-thickness="50" />
<missing-glyph  horiz-adv-x="500" />
<glyph glyph-name="space" unicode="&#x20;" horiz-adv-x="220" />
<glyph glyph-name="exclam" unicode="&#x21;" horiz-adv-x="296" d="M149 712 C94 712 58 677 58 621 C58 571 70 526 89 431 C108 322 121 245 128 201 L168 201 C176 245 189 322 207 431 C227 526 239 571 239 621 C239 677 203 712 149 712 Z M229 67 C229 110 197 147 149 147 C99 147 67 110 67 67 C67 22 99 -13 149 -13 C197 -13 229 22 229 67 Z " />
<glyph glyph-name="quotedbl" unicode="&#x22;" horiz-adv-x="423" d="M238 648 C238 626 247 588 256 548 L285 421 L327 421 L356 548 C365 588 375 626 375 648 C375 691 347 717 307 717 C265 717 238 691 238 648 Z M117 717 C75 717 48 691 48 648 C48 626 57 588 66 548 L95 421 L137 421 L166 548 C175 588 185 626 185 648 C185 691 157 717 117 717 Z " />
<glyph glyph-name="numbersign" unicode="&#x23;" horiz-adv-x="625" d="M383 258 L222 258 L252 430 L414 430 Z M337 0 L382 0 L421 218 L563 218 L563 258 L428 258 L458 430 L602 430 L602 470 L465 470 L502 677 L458 677 L421 470 L259 470 L296 677 L252 677 L215 470 L66 470 L66 430 L208 430 L177 258 L27 258 L27 218 L170 218 L131 0 L176 0 L215 218 L376 218 Z " />
<glyph glyph-name="dollar" unicode="&#x24;" horiz-adv-x="534" d="M157 561 C157 610 195 646 256 651 L256 444 C196 473 157 502 157 561 Z M397 122 C397 70 359 36 297 28 L297 246 C373 210 397 188 397 122 Z M297 -111 L297 -12 C419 0 506 83 506 194 C506 321 425 363 304 421 L304 650 C341 645 371 629 371 592 C371 586 368 570 368 564 C368 519 390 491 434 491 C464 491 492 511 492 555 C492 621 420 681 304 690 L304 779 L256 779 L256 691 C143 684 49 608 49 498 C49 364 149 312 245 270 L249 268 L249 27 C194 30 155 52 155 87 C155 95 163 115 163 131 C163 177 140 203 97 203 C61 203 35 174 35 134 C35 60 123 -7 249 -13 L249 -111 Z " />
<glyph glyph-name="percent" unicode="&#x25;" horiz-adv-x="805" d="M627 671 L590 694 L177 8 L215 -16 Z M366 508 C366 618 293 691 202 691 C111 691 39 618 39 508 C39 397 111 324 202 324 C293 324 366 397 366 508 Z M202 659 C243 659 262 626 262 508 C262 389 243 355 202 355 C162 355 143 390 143 508 C143 625 162 659 202 659 Z M438 170 C438 59 511 -14 603 -14 C693 -14 766 59 766 170 C766 281 693 354 603 354 C511 354 438 281 438 170 Z M603 19 C562 19 543 51 543 170 C543 289 562 322 603 322 C642 322 661 287 661 170 C661 53 642 19 603 19 Z " />
<glyph glyph-name="ampersand" unicode="&#x26;" horiz-adv-x="766" d="M577 -14 C665 -14 738 32 758 67 L738 94 C726 81 699 68 674 68 C645 68 619 82 597 114 C589 126 578 142 565 159 C585 197 604 244 615 277 C633 330 643 355 651 368 C663 385 673 396 690 407 C705 415 718 417 734 419 L734 457 L506 457 L506 419 C521 418 536 416 549 409 C567 396 576 379 576 355 C576 329 572 304 566 281 C558 255 548 228 534 203 L428 353 C412 376 391 404 373 429 C428 465 505 527 505 595 C505 665 459 712 352 712 C242 712 154 649 154 546 C154 507 166 464 190 427 L218 384 C137 338 30 272 30 169 C30 62 106 -14 244 -14 C330 -14 400 17 444 56 C477 9 517 -14 577 -14 Z M321 56 C245 56 175 102 175 209 C175 283 200 310 242 347 L301 262 C333 215 388 137 420 91 C396 71 361 56 321 56 Z M281 603 C281 651 313 673 353 673 C399 673 421 646 421 597 C421 532 390 495 349 462 C311 515 281 559 281 603 Z " />
<glyph glyph-name="quotesingle" unicode="&#x27;" horiz-adv-x="233" d="M117 717 C75 717 48 691 48 648 C48 626 57 588 66 548 L95 421 L137 421 L166 548 C175 588 185 626 185 648 C185 691 157 717 117 717 Z " />
<glyph glyph-name="parenleft" unicode="&#x28;" horiz-adv-x="338" d="M323 -91 C239 12 195 133 195 314 C195 496 239 617 323 720 L295 749 C182 658 61 523 61 314 C61 106 182 -30 295 -121 Z " />
<glyph glyph-name="parenright" unicode="&#x29;" horiz-adv-x="338" d="M15 -91 L44 -121 C156 -30 277 106 277 314 C277 523 156 658 44 749 L15 720 C99 617 143 496 143 314 C143 133 99 12 15 -91 Z " />
<glyph glyph-name="asterisk" unicode="&#x2a;" horiz-adv-x="461" d="M364 309 C387 326 390 352 373 376 C357 397 297 443 263 482 C312 491 384 493 408 501 C436 510 448 534 440 559 C431 585 408 597 380 588 C355 580 295 538 250 518 C254 566 275 637 276 664 C276 693 257 712 231 712 C203 712 185 693 185 664 C185 638 205 567 211 518 C166 538 105 580 81 588 C53 597 29 585 20 559 C13 534 25 510 52 501 C77 493 149 491 197 482 C164 443 103 397 87 376 C70 352 74 326 96 309 C118 294 144 299 161 322 C177 344 203 417 230 462 C257 418 283 344 299 322 C316 299 343 294 364 309 Z " />
<glyph glyph-name="plus" unicode="&#x2b;" horiz-adv-x="474" d="M436 280 L436 328 L262 328 L262 503 L214 503 L214 328 L38 328 L38 280 L214 280 L214 105 L262 105 L262 280 Z " />
<glyph glyph-name="comma" unicode="&#x2c;" horiz-adv-x="285" d="M230 56 C230 120 188 155 137 155 C97 155 56 126 56 77 C56 28 86 4 130 -5 C142 -8 148 -15 148 -30 C148 -60 104 -100 38 -126 L50 -159 C149 -128 230 -49 230 56 Z " />
<glyph glyph-name="hyphen" unicode="&#x2d;" horiz-adv-x="358" d="M293 268 L293 363 L65 363 L65 268 Z " />
<glyph glyph-name="period" unicode="&#x2e;" horiz-adv-x="285" d="M143 -13 C194 -13 227 24 227 71 C227 116 194 155 143 155 C90 155 58 116 58 71 C58 24 90 -13 143 -13 Z " />
<glyph glyph-name="slash" unicode="&#x2f;" horiz-adv-x="405" d="M403 746 L347 768 L-22 -163 L33 -185 Z " />
<glyph glyph-name="zero" unicode="0" horiz-adv-x="676" d="M43 338 C43 126 173 -13 338 -13 C503 -13 634 126 634 338 C634 551 503 691 338 691 C173 691 43 551 43 338 Z M468 338 C468 108 428 28 338 28 C249 28 209 108 209 338 C209 569 249 650 338 650 C428 650 468 569 468 338 Z " />
<glyph glyph-name="one" unicode="1" horiz-adv-x="390" d="M369 0 L369 37 C352 39 334 44 323 48 C307 56 293 64 284 87 C280 102 278 126 278 155 L278 575 C278 602 280 660 280 675 C280 682 278 685 271 685 C261 685 214 681 188 677 C128 670 58 666 27 664 L27 627 C50 624 85 617 99 611 C110 605 120 597 123 574 C124 557 126 523 126 505 L126 155 C126 126 124 102 119 87 C111 64 96 56 80 48 C70 44 51 39 34 37 L34 0 Z " />
<glyph glyph-name="two" unicode="2" horiz-adv-x="584" d="M246 649 C318 649 359 616 359 517 C359 347 201 205 92 98 L12 24 L22 0 L491 0 L557 241 L515 241 C504 217 488 191 465 168 C440 143 416 123 350 123 L169 123 L169 130 C230 171 272 200 311 228 C396 290 523 375 523 510 C523 620 435 691 276 691 C139 691 40 621 40 522 C40 478 70 442 117 442 C164 442 192 473 192 507 C192 527 188 536 182 547 C171 568 162 580 162 594 C162 625 197 649 246 649 Z " />
<glyph glyph-name="three" unicode="3" horiz-adv-x="570" d="M275 691 C140 691 53 625 53 542 C53 500 79 467 122 467 C164 467 189 494 189 529 C189 548 184 563 178 575 C172 588 165 598 165 607 C165 632 208 648 253 648 C324 648 345 620 345 549 C345 459 304 416 216 364 L146 324 L166 290 L206 313 C224 322 250 334 276 334 C350 334 383 303 383 222 C383 90 333 27 228 27 C190 27 154 38 146 54 C140 64 139 75 140 92 C146 107 150 125 150 145 C150 187 131 217 85 217 C41 217 14 186 14 138 C14 64 98 -14 227 -14 C423 -14 542 93 542 207 C542 319 437 383 288 365 L287 371 C396 417 492 465 492 554 C492 642 422 691 275 691 Z " />
<glyph glyph-name="four" unicode="4" horiz-adv-x="623" d="M67 253 L277 539 L287 539 L287 253 Z M527 38 C511 40 494 44 483 49 C467 56 452 65 445 88 C439 103 438 126 438 155 L438 212 L460 212 C499 212 518 205 532 188 C548 169 555 137 558 110 L598 110 L598 355 L558 355 C554 328 548 297 532 278 C518 261 499 253 460 253 L438 253 L438 572 C438 605 440 656 440 671 C440 674 438 676 435 676 L330 676 L14 252 L14 212 L287 212 L287 155 C287 127 285 103 279 88 C272 65 257 56 241 49 C230 44 214 40 198 38 L198 0 L527 0 Z " />
<glyph glyph-name="five" unicode="5" horiz-adv-x="555" d="M213 27 C180 27 156 33 147 51 C140 59 134 68 136 88 C138 107 140 121 140 138 C140 173 125 210 76 210 C39 210 10 181 10 133 C10 60 90 -13 221 -13 C389 -13 520 67 520 217 C520 337 444 419 289 419 C223 419 179 402 149 375 L145 376 L182 533 C216 527 255 521 294 521 C425 521 488 591 512 717 L483 726 C468 693 436 647 345 647 C280 647 249 658 203 676 L170 676 L84 302 L127 293 C143 333 188 374 244 374 C324 374 360 335 360 217 C360 89 306 27 213 27 Z " />
<glyph glyph-name="six" unicode="6" horiz-adv-x="610" d="M576 563 C576 628 530 691 394 691 C243 691 42 553 42 282 C42 117 139 -13 311 -13 C455 -13 570 78 570 218 C570 361 478 435 349 435 C289 435 238 410 216 370 L206 370 C216 523 287 650 395 650 C432 650 457 636 457 620 C457 612 455 604 451 588 C448 578 445 570 445 554 C445 515 469 491 510 491 C553 491 576 520 576 563 Z M309 383 C368 383 414 367 414 209 C414 52 369 28 310 28 C255 28 205 46 205 204 C205 350 257 383 309 383 Z " />
<glyph glyph-name="seven" unicode="7" horiz-adv-x="514" d="M515 658 L515 677 L172 677 C129 677 113 695 105 714 L71 714 L26 464 L63 464 C75 492 94 523 121 537 C147 550 171 552 209 552 L416 552 L416 548 C363 464 292 373 240 292 C199 227 136 135 136 62 C136 14 165 -14 211 -14 C259 -14 286 18 294 95 C314 293 365 379 515 658 Z " />
<glyph glyph-name="eight" unicode="8" horiz-adv-x="575" d="M285 -13 C450 -13 544 80 544 208 C544 314 465 363 399 391 C462 422 515 471 515 537 C515 640 439 691 297 691 C169 691 58 620 58 493 C58 390 117 339 178 309 C112 285 40 232 40 153 C40 43 148 -13 285 -13 Z M181 557 C181 616 226 650 297 650 C383 650 428 621 428 536 C428 479 401 436 356 409 C227 460 181 491 181 557 Z M285 28 C199 28 132 54 132 156 C132 229 168 267 217 292 C386 222 425 211 425 125 C425 54 370 28 285 28 Z " />
<glyph glyph-name="nine" unicode="9" horiz-adv-x="607" d="M299 288 C241 288 196 311 196 463 C196 621 240 649 298 649 C353 649 403 627 403 469 C403 323 352 288 299 288 Z M45 112 C45 49 95 -13 230 -13 C402 -13 568 111 568 391 C568 556 475 691 298 691 C148 691 45 595 45 455 C45 312 134 233 263 233 C323 233 373 260 394 298 L403 298 C398 138 343 28 229 28 C186 28 163 38 163 57 C163 68 165 72 169 87 C172 97 175 106 175 121 C175 158 152 185 111 185 C71 185 45 155 45 112 Z " />
<glyph glyph-name="colon" unicode="&#x3a;" horiz-adv-x="285" d="M143 352 C194 352 227 390 227 437 C227 482 194 521 143 521 C90 521 58 482 58 437 C58 390 90 352 143 352 Z M143 -13 C194 -13 227 24 227 71 C227 116 194 155 143 155 C90 155 58 116 58 71 C58 24 90 -13 143 -13 Z " />
<glyph glyph-name="semicolon" unicode="&#x3b;" horiz-adv-x="297" d="M154 352 C205 352 238 390 238 437 C238 482 205 521 154 521 C101 521 69 482 69 437 C69 390 101 352 154 352 Z M242 56 C242 120 201 155 149 155 C109 155 69 126 69 77 C69 28 98 4 142 -5 C154 -8 160 -15 160 -30 C160 -60 117 -100 50 -126 L62 -159 C161 -128 242 -49 242 56 Z " />
<glyph glyph-name="less" unicode="&#x3c;" horiz-adv-x="474" d="M392 121 L392 176 L117 304 L392 432 L392 487 L59 325 L59 283 Z " />
<glyph glyph-name="equal" unicode="&#x3d;" horiz-adv-x="474" d="M429 373 L429 420 L46 420 L46 373 Z M429 183 L429 229 L46 229 L46 183 Z " />
<glyph glyph-name="greater" unicode="&#x3e;" horiz-adv-x="474" d="M416 283 L416 325 L83 487 L83 432 L358 304 L83 177 L83 121 Z " />
<glyph glyph-name="question" unicode="&#x3f;" horiz-adv-x="478" d="M446 507 C446 599 398 655 336 686 C301 704 256 712 203 712 C103 712 22 664 22 607 C22 567 48 542 86 542 C136 542 152 579 162 622 C169 655 182 676 207 676 C255 676 291 634 291 563 C291 441 253 349 164 349 L113 349 L113 203 L155 203 L155 309 L202 309 C304 309 446 374 446 507 Z M220 67 C220 110 188 147 140 147 C90 147 58 110 58 67 C58 22 90 -13 140 -13 C188 -13 220 22 220 67 Z " />
<glyph glyph-name="at" unicode="&#x40;" horiz-adv-x="905" d="M883 320 C883 504 761 634 521 634 C293 634 32 477 32 182 C32 -54 217 -177 463 -177 C609 -177 733 -130 802 -79 L786 -50 C717 -99 595 -144 462 -144 C252 -144 108 -33 108 187 C108 431 296 601 522 601 C734 601 847 491 847 320 C847 179 757 53 661 53 C641 53 632 66 632 88 C632 113 645 172 676 261 C702 342 721 405 738 457 L618 457 C610 442 604 429 595 410 L584 410 C581 442 555 467 512 467 C358 467 220 286 220 140 C220 38 283 5 338 5 C381 5 420 24 452 58 C475 82 487 102 505 133 L513 133 C510 120 508 105 508 90 C508 40 541 5 604 5 C767 5 883 153 883 320 Z M557 376 C557 349 548 312 534 272 C525 244 514 215 499 184 C481 150 472 130 447 96 C429 74 410 57 390 57 C372 57 358 70 358 107 C358 153 389 285 439 365 C470 415 495 430 522 430 C545 430 557 414 557 376 Z " />
<glyph glyph-name="A" unicode="A" horiz-adv-x="722" d="M289 499 L300 499 L384 260 L204 260 Z M237 38 C220 39 204 42 192 47 C172 56 158 71 158 101 C158 124 166 152 176 180 L189 216 L399 216 L409 188 C423 148 434 120 434 94 C434 61 418 54 397 46 C386 42 373 40 355 38 L355 0 L717 0 L717 38 C705 40 694 44 682 49 C663 59 648 71 634 91 C620 113 604 146 590 184 L406 702 L316 702 L125 187 C108 143 96 112 84 92 C71 72 60 61 44 52 C30 44 16 40 -2 38 L-2 0 L237 0 Z " />
<glyph glyph-name="B" unicode="B" horiz-adv-x="708" d="M28 0 L432 0 C557 0 676 65 676 196 C676 311 576 358 449 371 L449 379 C484 385 506 391 528 401 C591 428 637 463 637 540 C637 666 511 698 373 698 L28 698 L28 660 C43 659 55 657 66 654 C90 646 105 635 116 606 C124 585 127 559 127 508 L127 191 C127 140 124 113 116 92 C105 63 90 52 66 45 C55 41 43 39 28 38 Z M288 392 L288 636 C288 643 290 648 293 652 C297 656 305 657 314 657 L370 657 C442 657 484 629 484 540 C484 496 476 449 456 424 C438 403 413 392 362 392 Z M376 41 C345 41 320 48 307 64 C292 81 288 114 288 153 L288 350 L365 350 C413 350 453 343 478 316 C503 288 510 241 510 196 C510 132 502 101 479 73 C459 52 430 41 392 41 Z " />
<glyph glyph-name="C" unicode="C" horiz-adv-x="692" d="M388 669 C462 669 497 644 533 598 C560 565 584 518 599 455 L639 455 L639 697 L609 697 L580 642 L574 642 C543 678 485 712 382 712 C192 712 33 565 33 349 C33 138 163 -15 380 -15 C528 -15 614 71 655 189 L619 203 C575 92 498 43 412 43 C359 43 326 55 297 77 C252 111 204 168 204 349 C204 544 252 613 304 646 C328 662 360 669 388 669 Z " />
<glyph glyph-name="D" unicode="D" horiz-adv-x="776" d="M28 698 L28 660 C43 659 55 657 66 654 C90 646 105 635 116 606 C124 585 127 559 127 507 L127 191 C127 140 124 113 116 92 C105 63 90 52 66 45 C55 41 43 39 28 38 L28 0 L393 0 C461 0 531 20 574 44 C672 98 740 195 740 350 C740 510 664 605 568 656 C523 679 457 698 369 698 Z M575 348 C575 214 548 140 503 91 C470 55 426 41 386 41 L374 41 C344 41 320 46 307 62 C292 79 288 111 288 150 L288 632 C288 641 290 647 294 651 C299 656 306 657 314 657 L367 657 C408 657 464 647 497 613 C541 569 575 488 575 348 Z " />
<glyph glyph-name="E" unicode="E" horiz-adv-x="678" d="M648 230 L611 230 C588 185 561 133 513 91 C479 62 449 41 389 41 L372 41 C342 41 319 46 306 62 C291 79 288 108 288 147 L288 339 L320 339 C373 339 397 332 413 313 C439 284 445 257 449 221 L486 221 L486 499 L449 499 C445 464 440 438 414 409 C398 390 374 381 320 381 L288 381 L288 610 C288 626 289 636 296 645 C304 655 318 657 330 657 L369 657 C442 657 480 641 510 615 C550 580 568 546 591 494 L629 494 L593 698 L28 698 L28 660 C43 659 55 657 66 654 C90 646 105 635 116 606 C124 585 127 559 127 507 L127 191 C127 140 124 113 116 92 C105 63 90 52 66 45 C55 41 43 39 28 38 L28 0 L607 0 Z " />
<glyph glyph-name="F" unicode="F" horiz-adv-x="637" d="M391 38 C377 39 359 41 348 45 C324 52 309 63 298 92 C290 113 287 140 287 191 L287 347 L309 347 C363 347 380 339 398 320 C423 291 429 264 433 229 L471 229 L471 506 L433 506 C429 471 424 445 399 416 C382 397 363 389 309 389 L287 389 L287 610 C287 626 288 637 296 646 C303 655 315 657 329 657 L358 657 C434 657 463 636 492 608 C531 574 557 529 582 475 L618 475 L586 698 L28 698 L28 660 C43 659 55 657 66 654 C90 646 105 635 116 606 C124 585 127 559 127 507 L127 191 C127 140 124 113 116 92 C105 63 90 52 66 45 C55 41 43 39 28 38 L28 0 L391 0 Z " />
<glyph glyph-name="G" unicode="G" horiz-adv-x="764" d="M502 174 L502 137 C502 94 495 70 484 58 C469 41 447 28 390 28 C350 28 324 38 298 54 C243 88 207 157 207 349 C207 543 257 609 304 642 C332 661 363 670 393 670 C471 669 503 649 542 603 C576 562 594 514 610 442 L647 442 L647 689 L617 689 L592 641 L585 641 C561 669 504 712 393 712 C203 712 34 565 34 349 C34 134 181 -15 390 -15 C451 -15 519 0 558 9 C604 21 632 34 652 43 L652 146 C652 193 653 232 663 252 C674 276 686 283 710 291 C720 294 732 295 746 296 L746 334 L407 334 L407 296 C423 296 435 294 446 291 C469 282 479 277 489 254 C500 233 502 212 502 174 Z " />
<glyph glyph-name="H" unicode="H" horiz-adv-x="835" d="M381 38 C368 39 356 41 344 46 C321 55 309 67 299 91 C291 112 288 135 288 187 L288 333 L547 333 L547 187 C547 135 544 112 536 91 C526 67 514 55 491 46 C480 41 468 39 455 38 L455 0 L808 0 L808 38 C793 39 781 41 769 45 C746 52 730 63 720 92 C711 113 708 140 708 191 L708 507 C708 559 711 585 720 606 C730 635 746 646 769 654 C781 658 793 659 808 660 L808 698 L455 698 L455 660 C469 659 480 657 491 653 C514 643 526 632 536 608 C544 586 547 563 547 511 L547 377 L288 377 L288 511 C288 563 291 586 299 608 C309 632 322 643 344 653 C355 657 367 659 381 660 L381 698 L28 698 L28 660 C43 659 54 658 66 654 C90 647 105 635 116 606 C124 585 127 559 127 507 L127 191 C127 140 124 113 116 92 C105 63 90 52 66 45 C55 41 43 39 28 38 L28 0 L381 0 Z " />
<glyph glyph-name="I" unicode="I" horiz-adv-x="415" d="M288 507 C288 559 291 585 299 606 C310 635 326 647 349 654 C360 657 372 659 387 660 L387 698 L28 698 L28 660 C43 659 55 657 66 654 C91 647 105 635 116 606 C124 585 127 559 127 507 L127 191 C127 140 124 113 116 92 C105 63 90 53 66 45 C55 41 43 39 28 38 L28 0 L387 0 L387 38 C372 39 360 41 349 45 C326 53 310 63 299 92 C291 113 288 140 288 191 Z " />
<glyph glyph-name="J" unicode="J" horiz-adv-x="510" d="M241 507 L241 173 C241 125 241 90 230 63 C219 38 202 29 180 29 C166 29 151 36 147 51 C144 60 146 77 150 96 C152 115 150 128 147 144 C142 179 119 202 78 202 C33 202 -3 171 -3 116 C-3 78 16 48 41 26 C71 0 126 -15 168 -15 C236 -15 294 4 332 39 C367 72 401 130 401 234 L401 507 C401 559 404 585 413 606 C423 635 438 646 462 654 C473 657 486 659 501 660 L501 698 L142 698 L142 660 C157 659 169 657 181 654 C204 646 219 635 230 606 C238 585 241 559 241 507 Z " />
<glyph glyph-name="K" unicode="K" horiz-adv-x="762" d="M386 38 C371 39 358 41 346 45 C323 52 308 63 297 92 C289 113 286 140 286 191 L286 305 C290 311 305 326 309 330 C325 345 344 358 365 358 C402 358 419 344 434 315 C455 278 459 226 465 155 C471 84 496 21 516 0 L750 0 L750 38 C735 40 706 49 691 59 C668 76 649 93 636 185 C628 251 601 310 562 348 C527 382 483 400 398 404 L398 411 L525 535 C576 588 599 609 629 628 C654 643 690 656 713 660 L713 698 L446 698 L446 660 C461 659 476 657 486 653 C502 646 513 638 513 616 C513 588 491 566 446 520 L286 360 L286 507 C286 559 289 585 297 606 C308 635 323 646 346 654 C358 657 371 659 386 660 L386 698 L25 698 L25 660 C40 659 53 657 64 654 C87 646 103 635 113 606 C121 585 125 559 125 507 L125 191 C125 140 121 113 113 92 C103 63 87 52 64 45 C53 41 40 39 25 38 L25 0 L386 0 Z " />
<glyph glyph-name="L" unicode="L" horiz-adv-x="656" d="M28 0 L605 0 L643 239 L605 239 C581 185 556 140 506 91 C474 59 446 41 386 41 L371 41 C341 41 319 46 306 62 C291 79 287 108 287 147 L287 508 C287 559 290 585 298 606 C309 635 325 646 348 654 C359 657 371 659 386 660 L386 698 L28 698 L28 660 C43 659 55 657 66 654 C90 646 105 635 116 606 C124 585 127 559 127 507 L127 191 C127 140 124 113 116 92 C105 63 90 52 66 45 C55 41 43 39 28 38 Z " />
<glyph glyph-name="M" unicode="M" horiz-adv-x="952" d="M924 698 L641 698 L487 243 L480 243 L325 698 L26 698 L26 660 C40 659 56 657 67 654 C90 648 106 635 117 606 C125 585 127 554 127 508 L127 178 C127 116 121 96 109 77 C96 59 81 50 65 45 C53 42 41 40 26 38 L26 0 L280 0 L280 38 C263 40 254 42 240 46 C221 52 209 59 197 79 C185 96 181 116 181 178 L181 570 L191 570 L395 -3 L460 -3 L654 575 L664 575 L664 190 C664 139 661 113 653 92 C642 63 627 52 604 44 C592 41 577 39 563 38 L563 0 L924 0 L924 38 C909 39 896 41 886 44 C862 52 847 63 836 92 C827 113 825 139 825 190 L825 508 C825 559 827 585 836 606 C847 635 862 647 886 654 C896 657 909 659 924 660 Z " />
<glyph glyph-name="N" unicode="N" horiz-adv-x="781" d="M669 -5 L669 519 C669 581 674 601 686 619 C698 638 710 646 729 652 C742 656 752 658 769 660 L769 698 L513 698 L513 660 C528 658 542 656 554 652 C570 648 586 639 598 621 C611 602 616 581 616 519 L616 245 L607 245 L302 698 L24 698 L24 660 C38 659 49 656 60 652 C88 638 105 623 119 595 C135 563 141 524 141 443 L141 178 C141 116 135 96 122 77 C110 59 95 50 78 45 C67 42 54 40 40 38 L40 0 L294 0 L294 38 C277 40 268 42 254 46 C235 52 223 59 211 79 C199 96 194 116 194 178 L194 549 L203 549 L581 -5 Z " />
<glyph glyph-name="O" unicode="O" horiz-adv-x="753" d="M376 712 C181 712 32 565 32 349 C32 133 181 -15 376 -15 C572 -15 721 133 721 349 C721 565 572 712 376 712 Z M376 28 C346 28 319 35 294 51 C244 85 204 154 204 349 C204 544 244 613 294 646 C319 663 346 669 376 669 C407 669 434 663 459 646 C509 613 549 544 549 349 C549 154 509 85 459 51 C434 35 407 28 376 28 Z " />
<glyph glyph-name="P" unicode="P" horiz-adv-x="659" d="M388 38 C373 39 360 41 349 45 C326 52 310 63 299 92 C291 113 288 140 288 191 L288 300 L335 300 C447 300 512 324 553 347 C602 374 640 436 640 508 C640 635 545 698 383 698 L28 698 L28 660 C43 659 56 658 67 654 C90 647 106 636 116 607 C124 585 128 559 128 508 L128 191 C128 140 124 113 116 92 C106 63 90 52 67 45 C56 41 43 39 28 38 L28 0 L388 0 Z M288 631 C288 642 291 647 294 650 C298 655 307 657 320 657 L358 657 C445 657 479 603 479 507 C479 456 472 416 454 391 C434 361 396 343 333 343 L288 343 Z " />
<glyph glyph-name="Q" unicode="Q" horiz-adv-x="751" d="M588 -146 C662 -146 713 -117 739 -92 L717 -62 C697 -79 678 -88 649 -88 C602 -88 580 -49 554 32 C655 92 721 206 721 349 C721 565 572 712 376 712 C181 712 32 565 32 349 C32 133 181 -15 376 -15 C388 -15 401 -14 412 -13 C440 -98 486 -146 588 -146 Z M354 213 C291 213 249 189 221 155 C210 198 204 260 204 349 C204 544 244 613 294 647 C319 663 346 670 376 670 C407 670 434 663 459 647 C509 613 549 544 549 349 C549 232 537 164 519 121 C485 173 425 213 354 213 Z M376 28 C346 28 312 34 287 51 C267 64 250 81 237 110 C253 135 279 152 309 152 C359 152 377 116 400 29 C392 28 384 28 376 28 Z " />
<glyph glyph-name="R" unicode="R" horiz-adv-x="748" d="M361 657 C434 657 468 615 468 519 C468 474 462 436 444 407 C426 380 401 368 342 368 L285 368 L285 635 C285 644 286 649 290 652 C293 656 298 657 307 657 Z M384 38 C370 39 357 41 345 44 C322 51 306 63 295 92 C287 113 285 137 285 183 L285 326 L341 326 C380 326 410 322 432 293 C460 256 461 213 471 136 C477 76 495 26 517 0 L742 0 L742 38 C716 40 698 47 685 57 C662 76 645 105 630 195 C619 262 585 292 552 312 C527 327 495 337 454 342 L454 352 C498 360 526 371 549 382 C602 408 642 448 642 519 C642 643 533 698 394 698 L28 698 L28 660 C42 659 53 657 64 654 C87 647 103 635 114 606 C122 585 124 562 124 515 L124 183 C124 137 122 113 114 92 C103 63 87 51 64 44 C53 41 42 39 28 38 L28 0 L384 0 Z " />
<glyph glyph-name="S" unicode="S" horiz-adv-x="586" d="M554 208 C554 349 438 393 328 443 C244 481 185 501 185 582 C185 635 220 672 289 672 C349 672 382 651 412 612 C440 575 465 529 481 478 L517 478 L503 699 L469 699 L442 657 L434 657 C404 689 368 712 289 712 C159 712 52 633 52 513 C52 364 162 316 260 273 C372 224 422 199 422 127 C422 67 384 26 301 26 C197 26 114 137 78 250 L39 250 L46 4 L79 4 L113 57 L122 57 C156 18 226 -15 301 -15 C438 -15 554 64 554 208 Z " />
<glyph glyph-name="T" unicode="T" horiz-adv-x="710" d="M436 183 L436 656 L455 656 C499 656 533 645 573 604 C611 567 632 531 657 479 L693 479 L668 698 L41 698 L17 479 L54 479 C78 533 95 566 135 604 C178 645 210 656 254 656 L275 656 L275 183 C275 137 273 113 264 92 C253 63 237 51 214 44 C204 41 192 39 178 38 L178 0 L531 0 L531 38 C518 39 507 41 495 44 C473 51 456 63 446 92 C437 113 436 137 436 183 Z " />
<glyph glyph-name="U" unicode="U" horiz-adv-x="770" d="M660 238 L660 519 C660 582 664 602 676 619 C689 639 701 646 720 652 C733 656 743 658 760 660 L760 698 L504 698 L504 660 C519 658 533 656 545 653 C562 647 577 639 589 621 C602 602 607 582 607 519 L607 232 C607 182 601 136 582 102 C556 55 504 35 429 35 C362 35 312 54 285 119 C273 149 268 183 268 223 L268 516 C268 562 270 585 279 606 C290 635 306 647 329 654 C340 657 351 659 365 660 L365 698 L11 698 L11 660 C24 659 36 657 47 654 C70 647 86 635 97 606 C106 585 107 562 107 515 L107 262 C107 205 115 141 133 104 C175 15 277 -14 392 -14 C529 -14 595 29 624 77 C650 120 660 172 660 238 Z " />
<glyph glyph-name="V" unicode="V" horiz-adv-x="722" d="M317 510 C305 545 293 578 293 605 C293 637 309 646 330 652 C340 655 360 658 379 660 L379 698 L5 698 L5 660 C17 658 32 654 44 649 C62 641 76 630 93 608 C108 587 122 556 134 518 L317 -5 L409 -5 L592 511 C608 556 620 585 633 606 C646 627 659 637 673 646 C687 655 704 658 722 660 L722 698 L477 698 L477 660 C496 659 514 657 527 652 C548 644 561 629 561 599 C561 576 551 544 542 517 L432 201 L422 201 Z " />
<glyph glyph-name="W" unicode="W" horiz-adv-x="1100" d="M709 -5 L800 -5 L971 511 C986 557 999 590 1011 608 C1025 629 1037 639 1050 646 C1064 654 1081 658 1099 660 L1099 698 L857 698 L857 660 C875 659 893 657 906 652 C926 644 938 631 938 602 C938 580 932 555 920 517 L822 213 L813 213 L719 510 C708 547 698 582 698 609 C698 639 712 647 733 653 C743 656 761 659 780 660 L780 698 L421 698 L421 660 C434 659 446 657 458 652 C476 646 487 638 503 614 C513 599 521 580 530 552 L417 213 L408 213 L314 510 C302 554 292 582 292 609 C292 636 305 646 325 652 C335 655 350 659 368 660 L368 698 L7 698 L7 660 C21 659 35 655 47 649 C65 641 78 631 95 609 C110 588 124 556 138 514 L305 -5 L395 -5 L551 465 L559 465 Z " />
<glyph glyph-name="X" unicode="X" horiz-adv-x="734" d="M266 0 L266 38 C250 40 235 42 225 46 C206 54 193 66 193 89 C193 113 205 131 228 164 L313 278 L321 278 L390 169 C415 129 426 110 426 89 C426 56 398 44 354 38 L354 0 L730 0 L730 38 C656 51 629 99 578 179 L448 384 L552 524 C586 570 605 596 621 611 C634 625 648 635 667 646 C680 652 698 659 708 660 L708 698 L460 698 L460 660 C475 658 490 656 500 652 C519 645 532 632 532 609 C532 584 520 563 497 532 L424 434 L416 434 L347 542 C328 573 316 591 316 612 C316 643 343 655 395 660 L395 698 L14 698 L14 660 C88 648 109 609 162 527 L288 329 L173 174 C141 131 118 103 104 89 C88 72 75 62 56 52 C39 44 25 40 13 38 L13 0 Z " />
<glyph glyph-name="Y" unicode="Y" horiz-adv-x="671" d="M253 293 L253 191 C253 140 251 113 242 92 C231 63 215 52 192 45 C180 41 169 39 154 38 L154 0 L513 0 L513 38 C498 39 487 40 474 45 C452 53 436 63 425 92 C417 113 414 140 414 191 L414 293 L542 528 C585 611 613 650 678 660 L678 698 L451 698 L451 660 C462 659 481 657 491 653 C510 646 519 637 519 615 C519 592 515 573 489 526 L398 361 L390 361 L290 545 C260 601 258 637 296 652 C306 656 323 658 341 660 L341 698 L-7 698 L-7 660 C42 651 66 636 105 561 Z " />
<glyph glyph-name="Z" unicode="Z" horiz-adv-x="654" d="M616 698 L92 698 L58 486 L96 486 C125 544 165 594 202 620 C234 645 269 657 342 657 L432 657 L32 27 L32 0 L578 0 L634 240 L594 240 C568 190 536 131 470 83 C427 51 386 41 304 41 L233 41 L616 671 Z " />
<glyph glyph-name="bracketleft" unicode="&#x5b;" horiz-adv-x="373" d="M363 -120 L363 -82 L227 -82 L227 712 L363 712 L363 750 L95 750 L95 -120 Z " />
<glyph glyph-name="backslash" unicode="&#x5c;" horiz-adv-x="405" d="M2 746 L372 -185 L427 -163 L58 768 Z " />
<glyph glyph-name="bracketright" unicode="&#x5d;" horiz-adv-x="373" d="M278 750 L10 750 L10 712 L146 712 L146 -82 L10 -82 L10 -120 L278 -120 Z " />
<glyph glyph-name="asciicircum" unicode="&#x5e;" horiz-adv-x="431" d="M216 653 L313 456 L371 456 L241 707 L190 707 L60 456 L118 456 Z " />
<glyph glyph-name="underscore" unicode="&#x5f;" horiz-adv-x="305" d="M310 -176 L310 -120 L-5 -120 L-5 -176 Z " />
<glyph glyph-name="grave" unicode="&#x60;" horiz-adv-x="460" d="M331 596 C279 647 256 670 223 701 C191 732 168 752 135 752 C107 752 83 733 83 699 C83 667 106 646 143 630 C184 613 236 594 312 566 Z " />
<glyph glyph-name="a" unicode="a" horiz-adv-x="546" d="M535 17 L524 49 C516 45 503 42 494 42 C479 42 469 47 463 56 C456 67 453 81 453 136 L454 403 C454 494 377 522 253 522 C166 522 104 493 74 459 C61 445 52 427 52 404 C52 372 76 349 113 349 C151 349 171 372 178 404 C185 433 193 453 201 462 C211 471 225 482 250 482 C288 482 303 463 303 417 L302 323 C290 303 263 288 193 270 C133 253 95 239 65 211 C42 189 27 156 27 117 C27 29 94 -12 170 -12 C246 -12 293 32 309 66 L320 66 C323 33 337 15 350 5 C362 -4 382 -12 424 -12 C482 -12 520 7 535 17 Z M302 280 L301 102 C290 71 261 54 230 54 C200 54 170 72 170 135 C170 172 183 196 195 212 C206 226 227 237 249 248 C273 260 293 270 302 280 Z " />
<glyph glyph-name="b" unicode="b" horiz-adv-x="624" d="M223 756 L5 756 L5 721 C23 720 37 717 48 710 C59 703 66 694 71 681 C76 669 78 642 78 615 L78 119 C78 89 75 34 72 0 L108 0 L165 69 L178 69 C210 20 280 -11 331 -11 C464 -11 595 75 595 256 C595 456 480 522 380 522 C313 522 270 500 239 454 L229 454 L229 644 C229 692 231 721 232 747 C232 753 229 756 223 756 Z M336 467 C395 467 436 417 436 255 C436 102 404 30 328 30 C300 30 268 41 251 68 C235 94 229 116 229 174 L229 334 C229 384 245 415 261 433 C283 459 308 467 336 467 Z " />
<glyph glyph-name="c" unicode="c" horiz-adv-x="523" d="M300 483 C335 483 352 468 363 423 C375 374 391 343 437 343 C472 343 495 363 495 406 C495 430 488 450 467 471 C444 495 400 522 300 522 C172 522 29 435 29 256 C29 153 71 83 130 38 C170 6 225 -12 286 -12 C417 -12 481 60 506 146 L472 158 C450 99 417 41 317 41 C290 41 267 50 246 66 C212 94 188 146 188 256 C189 370 209 428 238 458 C252 474 273 483 300 483 Z " />
<glyph glyph-name="d" unicode="d" horiz-adv-x="627" d="M391 156 C391 96 353 40 296 40 C237 40 188 95 188 255 C188 403 236 477 300 477 C328 477 351 468 368 446 C387 421 391 393 391 355 Z M615 0 L615 35 C602 36 588 40 578 44 C564 51 555 63 549 80 C544 94 542 115 542 141 L542 629 C542 677 545 723 546 747 C546 753 544 756 537 756 L311 756 L311 721 C327 720 346 716 357 710 C368 703 377 694 382 681 C388 668 391 648 391 622 L391 478 L383 478 C365 500 337 522 273 522 C153 522 29 430 29 255 C29 83 133 -12 246 -12 C317 -12 371 21 393 72 L404 72 L404 30 C404 21 403 15 405 6 C407 2 410 0 416 0 Z " />
<glyph glyph-name="e" unicode="e" horiz-adv-x="543" d="M514 141 L483 154 C462 98 421 36 326 36 C288 36 262 48 240 69 C208 100 191 156 191 264 L509 264 C510 273 512 299 512 321 C512 421 440 522 287 522 C162 522 30 430 30 256 C30 163 65 87 126 41 C169 9 227 -12 293 -12 C421 -12 487 56 514 141 Z M233 459 C248 475 270 482 290 482 C319 482 336 473 348 459 C366 435 370 405 370 345 C370 314 360 303 338 303 L192 303 C195 401 213 437 233 459 Z " />
<glyph glyph-name="f" unicode="f" horiz-adv-x="366" d="M326 0 L326 35 C314 36 291 41 282 45 C267 52 258 63 252 81 C247 95 245 123 245 143 L245 461 L370 461 L370 509 L245 509 L245 650 C245 676 246 692 255 705 C262 715 270 721 284 721 C301 721 307 711 311 701 C315 689 316 681 319 666 C323 649 328 634 336 620 C348 603 365 591 394 591 C435 591 456 618 456 653 C456 685 441 718 404 738 C379 751 350 759 290 759 C234 759 198 745 163 719 C131 693 94 646 94 563 L94 509 L22 509 L22 461 L94 461 L94 143 C94 116 93 95 88 81 C82 63 73 52 58 44 C50 40 34 36 22 35 L22 0 Z " />
<glyph glyph-name="g" unicode="g" horiz-adv-x="601" d="M183 353 C183 452 217 484 261 484 C306 484 342 452 342 352 C342 253 304 222 259 222 C215 222 183 253 183 353 Z M554 -17 C554 95 493 119 380 119 C335 119 216 113 188 113 C151 113 130 126 130 150 C130 175 160 187 187 187 C203 187 228 184 260 184 C369 184 478 234 478 353 C478 364 477 373 475 383 C472 398 467 411 467 424 C467 446 479 461 491 461 C504 461 509 453 519 437 C529 421 544 406 567 406 C595 406 618 422 618 461 C618 501 590 525 546 525 C498 525 456 502 441 458 L430 458 C391 504 331 522 262 522 C152 522 47 469 47 353 C47 280 87 237 141 212 L141 203 C91 192 45 159 45 103 C45 51 79 10 144 -1 L144 -11 C69 -21 11 -46 11 -99 C11 -167 91 -204 238 -204 C402 -204 554 -147 554 -17 Z M466 -68 C466 -136 368 -165 244 -165 C164 -165 105 -148 105 -99 C105 -41 169 -27 220 -22 C255 -18 328 -16 374 -16 C437 -17 466 -22 466 -68 Z " />
<glyph glyph-name="h" unicode="h" horiz-adv-x="660" d="M307 35 C296 36 284 40 276 43 C259 51 253 63 249 84 C246 99 245 120 245 143 L245 312 C245 349 255 383 270 405 C290 433 321 448 354 448 C377 448 391 444 402 434 C414 422 420 404 420 375 L420 143 C420 120 420 99 417 84 C412 63 408 52 390 43 C382 39 369 36 358 35 L358 0 L642 0 L642 35 C630 36 615 40 607 44 C591 53 583 62 577 81 C572 95 571 116 571 143 L571 381 C571 429 556 462 528 487 C504 508 468 522 419 522 C374 522 339 510 308 488 C284 472 272 456 257 438 L245 438 L245 747 C245 753 243 756 236 756 L21 756 L21 721 C37 719 53 715 65 708 C74 703 83 693 89 680 C93 667 94 641 94 617 L94 143 C94 116 93 95 89 81 C83 63 74 52 59 44 C50 40 35 36 23 35 L23 0 L307 0 Z " />
<glyph glyph-name="i" unicode="i" horiz-adv-x="334" d="M172 584 C222 584 257 621 257 668 C257 714 221 752 172 752 C122 752 86 714 86 668 C86 621 122 584 172 584 Z M244 407 C244 450 246 476 247 499 C247 506 245 509 239 509 L21 509 L21 473 C37 470 52 465 64 458 C75 452 83 444 88 430 C93 417 93 391 93 367 L93 143 C93 116 92 95 88 81 C82 63 73 52 58 44 C49 40 35 36 23 35 L23 0 L316 0 L316 35 C304 36 289 40 281 44 C265 52 257 63 251 81 C246 95 244 116 244 143 Z " />
<glyph glyph-name="j" unicode="j" horiz-adv-x="312" d="M94 -50 C94 -98 90 -120 79 -140 C69 -159 56 -168 35 -168 C17 -168 6 -161 6 -146 C6 -139 8 -133 11 -125 C15 -114 17 -107 17 -94 C17 -60 -8 -36 -51 -36 C-91 -36 -120 -61 -120 -103 C-120 -135 -105 -161 -76 -180 C-49 -199 -14 -204 25 -204 C97 -204 133 -178 156 -160 C197 -128 245 -75 245 48 L245 408 L248 500 C248 506 246 509 240 509 L20 509 L20 473 C37 470 52 465 65 458 C74 453 83 443 88 430 C93 417 94 391 94 368 Z M170 584 C220 584 256 621 256 668 C256 714 220 752 170 752 C120 752 84 714 84 668 C84 621 120 584 170 584 Z " />
<glyph glyph-name="k" unicode="k" horiz-adv-x="641" d="M315 35 C302 36 289 40 281 44 C266 52 258 63 252 80 C246 95 245 116 245 143 L245 220 L306 270 C349 257 365 216 376 162 C395 72 411 20 431 0 L635 0 L635 35 C599 40 584 48 571 67 C552 95 533 140 519 204 C505 265 444 304 357 312 L436 375 C481 411 510 433 531 445 C558 461 578 468 598 473 L598 509 L341 509 L341 473 C357 472 375 469 385 464 C401 457 408 449 408 430 C408 406 384 384 348 353 L245 268 L245 649 C245 688 247 724 248 746 C248 753 246 756 240 756 L21 756 L21 721 C37 719 53 716 65 708 C74 703 83 693 89 680 C93 667 94 642 94 617 L94 143 C94 116 93 95 89 80 C83 63 73 52 59 44 C50 40 37 36 25 35 L25 0 L315 0 Z " />
<glyph glyph-name="l" unicode="l" horiz-adv-x="336" d="M244 649 C244 688 246 724 246 746 C246 753 244 756 238 756 L19 756 L19 721 C36 719 52 716 64 708 C73 703 82 693 87 680 C92 667 93 642 93 617 L93 143 C93 116 92 95 87 81 C81 63 73 52 57 44 C49 40 36 36 24 35 L24 0 L313 0 L313 35 C301 36 288 40 279 44 C264 52 257 63 251 81 C245 95 244 116 244 143 Z " />
<glyph glyph-name="m" unicode="m" horiz-adv-x="969" d="M307 35 C296 36 285 39 276 43 C260 52 254 64 249 84 C246 99 245 120 245 143 L245 318 C245 350 255 382 270 403 C290 432 316 449 349 449 C372 449 382 445 394 435 C406 423 411 407 411 378 L411 143 C411 120 411 99 407 84 C403 64 398 52 381 43 C373 39 361 36 350 35 L350 0 L624 0 L624 35 C613 36 602 39 594 43 C577 52 570 64 566 84 C563 99 563 120 563 143 L563 318 C563 350 571 382 587 403 C606 432 633 449 666 449 C689 449 699 445 710 435 C723 423 728 407 728 378 L728 143 C728 120 727 99 724 84 C720 64 714 52 697 43 C689 39 677 36 666 35 L666 0 L951 0 L951 35 C938 36 924 40 915 44 C900 53 891 63 886 81 C880 95 879 116 879 143 L879 379 C879 427 865 459 837 485 C814 508 780 521 728 521 C683 521 652 510 622 489 C598 473 578 452 563 427 L554 427 C548 450 537 469 519 485 C496 508 463 521 411 521 C366 521 333 509 303 486 C281 469 264 450 248 426 L238 426 C238 442 241 491 241 499 C241 506 239 509 232 509 L21 509 L21 474 C37 470 54 465 65 458 C76 452 84 444 89 430 C94 416 94 391 94 367 L94 143 C94 116 93 95 89 81 C83 63 74 52 59 44 C50 40 35 36 23 35 L23 0 L307 0 Z " />
<glyph glyph-name="n" unicode="n" horiz-adv-x="660" d="M571 143 L571 381 C571 429 556 462 528 487 C504 508 468 522 419 522 C374 522 340 509 308 488 C283 472 264 452 248 427 L236 427 C237 443 238 491 239 499 C239 506 237 509 230 509 L21 509 L21 473 C37 470 54 465 65 458 C75 452 83 443 89 430 C93 417 94 391 94 367 L94 143 C94 116 93 95 89 81 C83 63 74 52 59 44 C50 40 35 36 23 35 L23 0 L307 0 L307 35 C296 36 284 39 276 43 C260 52 253 63 249 84 C246 99 245 120 245 143 L245 312 C245 349 255 383 270 405 C290 433 321 448 354 448 C377 448 391 444 402 434 C414 422 420 404 420 375 L420 143 C420 120 420 99 417 84 C412 63 408 52 390 43 C382 39 369 36 358 35 L358 0 L642 0 L642 35 C630 36 615 41 607 44 C592 52 583 62 577 81 C572 95 571 116 571 143 Z " />
<glyph glyph-name="o" unicode="o" horiz-adv-x="591" d="M29 256 C29 90 153 -12 295 -12 C438 -12 562 90 562 256 C562 422 438 522 295 522 C153 522 29 422 29 256 Z M190 256 C190 381 206 434 239 463 C254 476 275 482 295 482 C316 482 336 476 352 463 C385 434 402 381 402 256 C402 131 385 78 352 48 C337 36 316 29 295 29 C274 29 254 36 239 48 C206 77 190 131 190 256 Z " />
<glyph glyph-name="p" unicode="p" horiz-adv-x="635" d="M447 254 C447 101 414 31 340 31 C313 31 287 43 268 71 C250 96 243 129 243 183 L243 320 C243 369 260 411 275 429 C298 458 318 468 348 468 C406 468 447 416 447 254 Z M90 -56 C90 -82 89 -103 84 -118 C78 -135 70 -146 55 -154 C46 -158 29 -162 17 -163 L17 -197 L323 -197 L323 -163 C305 -162 289 -158 280 -154 C264 -145 256 -135 250 -118 C245 -103 243 -82 243 -56 L243 26 L250 26 C274 3 314 -12 355 -12 C487 -12 607 73 607 255 C607 450 492 522 392 522 C325 522 277 493 247 446 L237 446 C237 446 238 491 239 500 C239 506 237 509 230 509 L17 509 L17 473 C33 471 49 465 61 459 C70 453 79 443 84 430 C89 418 90 391 90 365 Z " />
<glyph glyph-name="q" unicode="q" horiz-adv-x="628" d="M447 435 C419 482 364 522 284 522 C160 522 29 430 29 256 C29 83 125 -12 250 -12 C319 -12 371 17 396 60 L405 60 L405 -56 C405 -82 404 -103 399 -118 C393 -135 385 -147 370 -154 C359 -159 339 -162 324 -163 L324 -197 L623 -197 L623 -163 C611 -162 598 -158 588 -154 C573 -146 564 -135 558 -118 C553 -103 552 -82 552 -56 L552 371 C552 410 557 483 561 519 L522 519 L458 435 Z M395 157 C395 127 386 99 369 78 C353 58 330 45 302 45 C242 45 192 95 192 256 C192 411 241 476 306 476 C337 476 356 466 372 446 C392 420 395 394 395 356 Z " />
<glyph glyph-name="r" unicode="r" horiz-adv-x="481" d="M245 408 L234 408 C235 424 238 491 238 499 C238 506 236 509 229 509 L20 509 L20 473 C36 470 57 465 69 457 C79 451 86 442 89 425 C92 411 92 388 92 370 L92 143 C92 116 91 95 86 81 C80 63 72 52 56 44 C48 40 32 36 20 35 L20 0 L321 0 L321 35 C307 36 289 40 278 44 C264 50 256 63 250 81 C244 95 243 116 243 143 L243 241 C243 274 245 311 246 320 C253 391 293 436 316 436 C328 436 336 433 343 413 C356 378 373 361 413 361 C451 361 481 388 481 433 C481 465 469 487 457 499 C440 514 416 521 389 521 C350 521 322 506 303 491 C283 474 265 455 245 408 Z " />
<glyph glyph-name="s" unicode="s" horiz-adv-x="469" d="M441 160 C441 264 362 299 270 333 C184 364 156 381 156 425 C156 465 187 485 230 485 C264 485 291 473 313 454 C341 430 361 393 377 356 L410 356 L404 510 L375 510 L360 471 L352 471 C335 495 293 522 230 522 C120 522 41 459 41 368 C41 249 118 222 200 191 C289 158 324 140 324 89 C324 47 294 26 243 26 C159 26 104 98 68 193 L33 193 L40 3 L70 3 L91 49 L102 49 C133 15 184 -12 241 -12 C362 -12 441 53 441 160 Z " />
<glyph glyph-name="t" unicode="t" horiz-adv-x="394" d="M367 84 C349 65 324 53 293 53 C247 53 234 78 234 120 L234 461 L363 461 L363 509 L234 509 L234 688 L194 688 C159 572 104 519 8 498 L8 461 L83 461 L83 120 C83 74 91 40 120 19 C147 -2 181 -12 234 -12 C306 -12 357 12 390 54 Z " />
<glyph glyph-name="u" unicode="u" horiz-adv-x="658" d="M562 142 L562 405 C562 449 564 476 565 499 C565 506 563 509 556 509 L336 509 L336 473 C354 472 369 468 382 461 C391 455 400 446 405 432 C410 419 411 394 411 369 L411 216 C411 188 411 173 407 151 C404 123 392 100 377 84 C359 61 337 50 312 50 C287 50 270 57 256 75 C243 90 240 114 240 148 L240 405 C240 449 241 476 242 499 C242 506 240 509 234 509 L15 509 L15 473 C31 472 48 468 59 461 C69 455 76 447 82 432 C87 419 88 394 88 369 L88 151 C88 97 101 59 130 30 C158 0 207 -12 256 -12 C298 -12 333 -2 362 19 C386 37 397 54 412 81 L421 81 C421 81 422 15 422 11 C422 3 425 0 432 0 L637 0 L637 35 C624 36 609 40 599 45 C584 51 575 64 569 81 C564 95 562 116 562 142 Z " />
<glyph glyph-name="v" unicode="v" horiz-adv-x="583" d="M579 473 L579 509 L390 509 L390 473 C403 473 421 470 433 464 C445 457 453 448 453 428 C453 409 449 393 433 351 L354 147 L344 147 L268 354 C257 387 248 409 248 430 C248 450 259 459 269 465 C277 470 294 472 315 473 L315 509 L3 509 L3 473 C14 473 28 470 40 462 C54 453 58 446 71 423 C77 411 87 393 105 347 L244 -3 L339 -3 L479 350 C499 398 507 419 517 434 C527 450 535 457 545 463 C559 470 569 472 579 473 Z " />
<glyph glyph-name="w" unicode="w" horiz-adv-x="878" d="M562 -3 L651 -3 L780 350 C795 395 805 420 816 435 C826 450 835 457 843 462 C855 469 867 472 877 473 L877 509 L698 509 L698 473 C714 472 724 470 733 465 C744 458 752 449 752 429 C752 409 749 393 735 351 L665 162 L655 162 L595 354 C586 384 579 407 579 428 C579 448 586 458 598 465 C607 470 617 472 634 473 L634 509 L344 509 L344 473 C354 472 365 471 376 463 C388 456 395 445 405 421 C407 418 419 387 423 378 L342 162 L332 162 L269 354 C259 382 251 408 251 429 C251 449 258 458 269 465 C277 470 293 472 304 473 L304 509 L4 509 L4 473 C14 472 30 470 42 462 C56 453 62 444 75 421 C81 410 91 384 107 342 L236 -3 L325 -3 L445 321 L451 321 Z " />
<glyph glyph-name="x" unicode="x" horiz-adv-x="566" d="M216 0 L216 35 C201 37 191 40 181 45 C170 50 159 60 159 75 C159 91 167 105 193 140 L234 194 L242 194 L297 115 C311 94 321 81 321 67 C321 54 311 45 300 41 C290 38 281 36 267 35 L267 0 L563 0 L563 35 C549 37 531 44 520 51 C502 63 482 92 455 132 L351 283 L402 349 C441 404 458 434 496 458 C507 464 525 471 542 474 L542 509 L345 509 L345 473 C360 471 371 469 380 465 C391 459 397 453 397 437 C397 420 390 405 363 367 L332 324 L323 324 L274 396 C261 416 253 429 253 443 C253 457 260 462 271 467 C281 471 290 472 303 473 L303 509 L12 509 L12 473 C28 471 42 465 53 458 C70 446 88 418 114 379 L213 236 L151 155 C111 104 90 74 54 52 C42 45 29 38 11 35 L11 0 Z " />
<glyph glyph-name="y" unicode="y" horiz-adv-x="564" d="M309 -32 L463 350 C480 393 492 419 503 435 C512 449 522 457 531 462 C542 469 555 472 565 473 L565 509 L381 509 L381 473 C393 472 408 471 419 465 C431 459 439 448 439 428 C439 405 435 390 419 350 L347 171 L336 171 L267 353 C256 381 247 407 247 429 C247 449 256 459 268 465 C278 469 298 472 309 473 L309 509 L5 509 L5 473 C15 472 31 469 42 462 C55 454 61 445 74 421 C80 408 90 383 107 342 L244 13 C248 3 252 -7 252 -22 C252 -34 247 -55 238 -74 C225 -104 206 -133 183 -133 C173 -133 166 -131 160 -125 C156 -120 152 -113 147 -103 C133 -76 116 -60 81 -60 C45 -60 21 -91 21 -123 C21 -173 64 -203 120 -203 C177 -203 211 -182 239 -152 C264 -125 279 -107 309 -32 Z " />
<glyph glyph-name="z" unicode="z" horiz-adv-x="522" d="M497 192 L462 192 C445 155 424 119 396 87 C365 52 338 35 290 35 L207 35 L207 39 L484 484 L484 509 L69 509 L37 329 L72 329 C92 374 115 410 138 432 C159 453 184 472 223 472 L306 472 L306 467 L23 22 L23 0 L470 0 Z " />
<glyph glyph-name="braceleft" unicode="&#x7b;" horiz-adv-x="404" d="M391 -121 L391 -82 C330 -75 278 -62 278 28 C278 62 289 126 289 158 C289 248 225 296 119 312 L119 317 C225 333 289 381 289 471 C289 503 278 567 278 601 C278 691 330 704 391 711 L391 750 C246 746 145 698 145 577 C145 538 162 466 162 439 C162 387 144 363 109 347 C93 338 64 333 40 332 L40 297 C64 296 93 291 109 282 C144 266 162 242 162 190 C162 163 145 91 145 52 C145 -69 246 -117 391 -121 Z " />
<glyph glyph-name="bar" unicode="&#x7c;" horiz-adv-x="226" d="M143 -179 L143 766 L83 766 L83 -179 Z " />
<glyph glyph-name="braceright" unicode="&#x7d;" horiz-adv-x="404" d="M12 -121 C158 -117 259 -69 259 52 C259 91 242 163 242 190 C242 242 260 266 294 282 C311 291 340 296 364 297 L364 332 C340 333 311 338 294 347 C260 363 242 387 242 439 C242 466 259 538 259 577 C259 698 158 746 12 750 L12 711 C74 704 126 691 126 601 C126 567 115 503 115 471 C115 381 179 333 284 317 L284 312 C179 296 115 248 115 158 C115 126 126 62 126 28 C126 -62 74 -75 12 -82 Z " />
<glyph glyph-name="asciitilde" unicode="&#x7e;" horiz-adv-x="434" d="M399 387 L359 399 C346 361 319 343 286 343 C242 343 211 368 155 368 C89 368 50 294 35 229 L74 217 C87 255 111 273 144 273 C197 273 227 248 280 248 C346 248 383 322 399 387 Z " />
<glyph glyph-name="uni00A0" unicode="&#xa0;" horiz-adv-x="220" />
<glyph glyph-name="exclamdown" unicode="&#xa1;" horiz-adv-x="296" d="M229 442 C229 487 197 523 147 523 C99 523 67 487 67 442 C67 399 99 362 147 362 C197 362 229 399 229 442 Z M147 -203 C203 -203 239 -167 239 -112 C239 -61 226 -16 207 79 C188 187 175 265 168 308 L128 308 C120 265 107 187 89 79 C70 -16 57 -61 57 -112 C57 -168 93 -203 147 -203 Z " />
<glyph glyph-name="cent" unicode="&#xa2;" horiz-adv-x="531" d="M250 66 C216 94 192 146 192 256 C192 370 212 428 241 458 C252 470 268 478 287 481 L287 47 C273 51 261 58 250 66 Z M514 146 L480 158 C458 100 426 43 330 41 L330 480 C351 474 363 457 371 423 C383 374 399 343 445 343 C480 343 503 363 503 406 C503 430 496 450 475 471 C454 493 415 518 330 522 L330 618 L287 618 L287 521 C164 512 33 425 33 256 C33 153 75 83 133 38 C172 7 228 -11 287 -12 L287 -95 L330 -95 L330 -10 C436 3 492 69 514 146 Z " />
<glyph glyph-name="sterling" unicode="&#xa3;" horiz-adv-x="715" d="M479 -27 C608 -27 657 60 673 195 L638 201 C618 143 591 117 501 117 C458 117 405 130 355 144 C370 181 382 230 389 279 L555 279 L555 321 L393 321 C401 413 397 497 410 563 C421 623 461 650 511 650 C563 650 599 629 599 570 C599 509 575 483 533 483 C506 483 484 499 471 526 L439 506 C457 466 493 441 545 441 C616 441 683 482 683 565 C683 645 621 691 514 691 C384 691 236 578 226 370 C225 352 225 336 226 321 L121 321 L121 279 L229 279 C236 230 247 196 254 169 C221 177 188 184 161 184 C73 184 11 138 11 78 C11 20 55 -15 133 -15 C200 -15 251 9 289 44 C338 11 412 -27 479 -27 Z M134 26 C89 26 60 39 60 78 C60 112 80 131 119 131 C159 131 206 104 242 78 C219 38 178 26 134 26 Z " />
<glyph glyph-name="currency" unicode="&#xa4;" horiz-adv-x="500" />
<glyph glyph-name="yen" unicode="&#xa5;" horiz-adv-x="648" d="M485 37 C469 39 452 43 441 48 C425 55 411 63 403 87 C398 102 396 125 396 154 L396 192 L562 192 L562 234 L396 234 L396 297 L562 297 L562 340 L415 340 L511 509 C560 595 593 632 648 641 L648 677 L423 677 L423 641 C434 640 453 638 464 634 C482 627 492 620 492 598 C492 575 484 553 460 510 L378 371 L373 371 L284 530 C256 586 248 620 286 633 C296 637 310 639 331 641 L331 677 L5 677 L5 641 C47 633 71 620 106 553 L225 340 L79 340 L79 297 L245 297 L245 234 L79 234 L79 192 L245 192 L245 154 C245 126 244 102 238 87 C231 63 216 55 200 48 C190 43 172 39 156 37 L156 0 L485 0 Z " />
<glyph glyph-name="brokenbar" unicode="&#xa6;" horiz-adv-x="214" d="M143 361 L143 766 L83 766 L83 361 Z M143 -179 L143 226 L83 226 L83 -179 Z " />
<glyph glyph-name="section" unicode="&#xa7;" horiz-adv-x="562" d="M295 195 C188 264 132 290 132 359 C132 398 147 424 172 437 C200 410 235 388 268 367 C392 289 435 262 435 193 C435 167 418 137 398 122 C368 151 330 173 295 195 Z M259 -205 C365 -205 459 -123 459 -15 C459 30 445 66 423 95 C487 126 539 203 539 270 C539 380 472 424 358 495 C298 532 221 570 221 644 C221 694 256 720 300 720 C338 720 352 706 358 689 C364 674 364 657 369 640 C377 617 395 595 428 595 C463 595 481 619 481 652 C481 710 420 759 300 759 C194 759 109 688 109 579 C109 530 124 493 148 463 C89 436 29 380 29 292 C29 182 92 138 206 67 C266 30 347 -5 347 -84 C347 -134 309 -165 259 -165 C220 -165 208 -149 200 -130 C194 -115 195 -97 189 -80 C181 -58 165 -36 132 -36 C98 -36 78 -60 78 -93 C78 -151 135 -205 259 -205 Z " />
<glyph glyph-name="dieresis" unicode="&#xa8;" horiz-adv-x="460" d="M130 598 C166 598 195 624 195 663 C195 702 166 728 130 728 C94 728 65 702 65 663 C65 624 94 598 130 598 Z M330 598 C366 598 395 624 395 663 C395 702 366 728 330 728 C294 728 266 702 266 663 C266 624 294 598 330 598 Z " />
<glyph glyph-name="copyright" unicode="&#xa9;" horiz-adv-x="976" d="M488 722 C247 722 48 534 48 283 C48 32 247 -157 488 -157 C730 -157 929 31 929 282 C929 533 730 722 488 722 Z M488 683 C710 683 880 513 880 282 C880 53 710 -117 488 -117 C267 -117 97 53 97 283 C97 513 267 683 488 683 Z M719 209 L683 221 C652 131 607 74 524 74 C485 74 453 89 430 117 C402 150 384 200 384 289 C385 394 409 445 442 479 C461 499 487 510 515 510 C568 510 597 486 621 452 C645 417 658 375 670 325 L707 325 L707 531 L679 531 L659 494 L650 494 C623 523 590 548 506 548 C357 548 223 445 223 286 C223 200 255 133 306 85 C349 46 409 20 495 20 C632 20 694 117 719 209 Z " />
<glyph glyph-name="ordfeminine" unicode="&#xaa;" horiz-adv-x="418" d="M131 357 C188 357 219 384 235 414 L243 414 C246 391 254 378 266 369 C277 361 293 357 318 357 C364 357 392 369 404 376 L397 402 C391 400 384 398 375 398 C368 398 362 399 357 405 C351 411 349 421 349 448 L349 644 C349 715 281 733 194 733 C137 733 86 715 65 688 C57 677 51 663 51 649 C51 624 67 605 97 605 C128 605 143 624 149 649 C154 673 157 684 162 692 C168 700 177 704 191 704 C223 704 233 689 233 653 L233 604 C219 586 203 575 146 558 C108 548 78 533 60 513 C47 498 35 482 35 452 C35 385 82 357 131 357 Z M234 564 L234 461 C231 428 211 409 185 409 C164 409 148 423 148 464 C148 491 151 500 159 512 C166 522 174 529 184 534 C202 544 222 555 234 564 Z " />
<glyph glyph-name="guillemotleft" unicode="&#xab;" horiz-adv-x="447" d="M221 279 L221 243 L394 104 L423 131 L321 261 L423 391 L394 418 Z M28 279 L28 243 L201 104 L230 131 L129 261 L230 391 L201 418 Z " />
<glyph glyph-name="registered" unicode="&#xae;" horiz-adv-x="614" d="M579 440 C579 592 461 711 307 711 C153 711 35 592 35 440 C35 287 153 168 307 168 C461 168 579 287 579 440 Z M80 440 C80 570 172 671 307 671 C442 671 534 570 534 440 C534 308 442 208 307 208 C172 208 80 308 80 440 Z M342 523 C342 487 329 468 297 468 L274 468 L274 569 L305 569 C329 569 342 559 342 523 Z M476 305 L476 328 C467 328 454 332 447 336 C434 342 428 346 421 384 C410 435 394 448 344 452 L344 457 C395 465 422 486 422 525 C422 571 388 597 321 597 L160 597 L160 573 C165 573 178 571 183 569 C191 566 193 561 195 553 C197 546 197 534 197 517 L197 383 C197 367 197 355 195 348 C193 341 191 334 183 331 C178 329 165 328 160 328 L160 305 L312 305 L312 328 C306 328 293 329 288 331 C281 334 279 341 277 348 C275 355 274 368 274 383 L274 442 L291 442 C312 442 320 439 329 427 C337 415 340 404 344 373 C347 348 355 317 365 305 Z " />
<glyph glyph-name="macron" unicode="&#xaf;" horiz-adv-x="460" d="M360 606 L360 670 L99 670 L99 606 Z " />
<glyph glyph-name="degree" unicode="&#xb0;" horiz-adv-x="319" d="M284 569 C284 640 231 693 159 693 C87 693 35 640 35 569 C35 498 87 446 159 446 C231 446 284 498 284 569 Z M235 569 C235 520 207 487 159 487 C111 487 84 520 84 569 C84 618 111 651 159 651 C207 651 235 618 235 569 Z " />
<glyph glyph-name="acute" unicode="&#xb4;" horiz-adv-x="430" d="M99 596 L118 566 C194 594 246 613 288 630 C324 646 347 667 347 699 C347 733 323 752 295 752 C262 752 239 732 207 701 C174 670 151 647 99 596 Z " />
<glyph glyph-name="mu" unicode="&#xb5;" horiz-adv-x="500" />
<glyph glyph-name="paragraph" unicode="&#xb6;" horiz-adv-x="623" d="M608 660 L608 698 L307 698 C131 698 40 584 40 460 C40 337 123 222 300 222 L331 222 L331 -110 L376 -110 L376 660 L476 660 L476 -110 L521 -110 L521 660 Z " />
<glyph glyph-name="periodcentered" unicode="&#xb7;" horiz-adv-x="300" d="M67 278 C67 231 100 193 153 193 C204 193 237 231 237 278 C237 322 204 361 153 361 C100 361 67 322 67 278 Z " />
<glyph glyph-name="cedilla" unicode="&#xb8;" horiz-adv-x="460" d="M333 -119 C333 -68 292 -42 233 -42 C217 -42 192 -47 181 -52 L206 7 L163 7 L132 -71 L166 -91 C175 -84 187 -80 202 -80 C225 -80 240 -92 240 -123 C240 -158 216 -169 180 -169 C158 -169 129 -160 111 -148 L95 -180 C116 -193 150 -205 197 -205 C272 -205 333 -180 333 -119 Z " />
<glyph glyph-name="ordmasculine" unicode="&#xba;" horiz-adv-x="463" d="M423 546 C423 667 333 733 232 733 C130 733 40 667 40 546 C40 424 130 358 232 358 C333 358 423 424 423 546 Z M301 545 C301 462 291 419 267 400 C257 392 245 388 232 388 C218 388 207 392 197 400 C173 419 163 462 163 545 C163 628 173 673 197 691 C207 699 218 704 232 704 C245 704 257 699 267 691 C291 673 301 628 301 545 Z " />
<glyph glyph-name="guillemotright" unicode="&#xbb;" horiz-adv-x="447" d="M419 279 L246 418 L218 391 L319 261 L217 131 L246 104 L419 243 Z M226 279 L54 418 L25 391 L126 261 L24 131 L54 104 L226 243 Z " />
<glyph glyph-name="onequarter" unicode="&#xbc;" horiz-adv-x="882" d="M294 270 L294 300 C278 302 264 305 256 308 C242 316 236 322 230 341 C227 353 226 375 226 391 L226 616 C226 652 228 705 228 717 C228 727 224 729 215 729 C208 729 170 717 147 712 C106 702 63 696 23 694 L23 664 C40 662 63 660 73 656 C84 651 91 645 95 629 C98 617 98 604 98 579 L98 391 C98 375 97 353 93 341 C89 323 81 315 68 308 C60 305 46 302 29 300 L29 270 Z M697 701 L655 728 L167 -4 L208 -31 Z M493 177 L613 335 L619 335 L619 177 Z M815 30 C799 32 785 35 777 38 C763 46 757 52 751 71 C748 83 747 105 747 121 L747 142 L758 142 C788 142 800 136 809 123 C819 111 825 91 827 72 L859 72 L859 247 L827 247 C825 231 821 211 809 196 C798 183 788 177 758 177 L747 177 L747 379 C747 400 748 427 748 438 C748 447 744 451 737 451 L659 451 L447 176 L447 142 L619 142 L619 121 C619 105 618 83 615 71 C610 53 603 45 589 38 C582 35 568 32 550 30 L550 0 L815 0 Z " />
<glyph glyph-name="onehalf" unicode="&#xbd;" horiz-adv-x="915" d="M856 0 C862 25 890 145 895 162 L862 162 C857 151 850 137 833 120 C815 102 799 94 757 94 L651 94 L651 101 C712 136 747 158 783 185 C839 228 878 267 878 335 C878 410 812 457 707 457 C618 457 523 415 523 335 C523 299 547 273 583 273 C619 273 639 293 639 322 C639 339 636 347 630 359 C625 369 620 376 620 387 C620 403 638 419 674 419 C721 419 745 391 745 336 C745 226 695 185 613 113 L522 39 L529 0 Z M294 270 L294 300 C278 302 264 305 256 308 C242 316 236 322 230 341 C227 353 226 375 226 391 L226 616 C226 652 228 705 228 717 C228 727 224 729 215 729 C208 729 170 717 147 712 C106 702 63 696 23 694 L23 664 C40 662 63 660 73 656 C84 651 91 645 95 629 C98 617 98 604 98 579 L98 391 C98 375 97 353 93 341 C89 323 81 315 68 308 C60 305 46 302 29 300 L29 270 Z M697 701 L655 728 L167 -4 L208 -31 Z " />
<glyph glyph-name="threequarters" unicode="&#xbe;" horiz-adv-x="927" d="M742 701 L700 728 L212 -4 L253 -31 Z M190 693 C232 693 256 672 256 632 C256 575 226 555 163 519 L118 491 L136 462 L153 473 C167 481 182 487 202 487 C245 487 260 460 260 411 C260 335 233 296 167 296 C135 296 118 307 118 327 C118 337 124 347 125 354 C129 365 128 374 126 387 C122 407 107 423 79 423 C47 423 26 400 26 368 C26 301 90 262 173 262 C315 262 390 326 390 409 C390 490 319 519 234 516 L234 521 C316 548 371 578 371 635 C371 697 308 729 207 729 C129 729 49 688 49 620 C49 586 70 562 102 562 C134 562 153 581 153 607 C153 623 151 632 146 641 C142 652 136 658 136 668 C136 681 153 693 190 693 Z M538 177 L658 335 L664 335 L664 177 Z M860 30 C844 32 830 35 822 38 C808 46 802 52 796 71 C793 83 792 105 792 121 L792 142 L803 142 C833 142 845 136 854 123 C864 111 870 91 872 72 L904 72 L904 247 L872 247 C870 231 866 211 854 196 C843 183 833 177 803 177 L792 177 L792 379 C792 400 793 427 793 438 C793 447 789 451 782 451 L704 451 L492 176 L492 142 L664 142 L664 121 C664 105 663 83 660 71 C655 53 648 45 634 38 C627 35 613 32 595 30 L595 0 L860 0 Z " />
<glyph glyph-name="questiondown" unicode="&#xbf;" horiz-adv-x="478" d="M257 443 C257 400 289 363 338 363 C388 363 419 400 419 443 C419 488 388 523 338 523 C289 523 257 488 257 443 Z M32 3 C32 -89 80 -145 141 -176 C176 -194 222 -203 274 -203 C374 -203 456 -154 456 -97 C456 -57 430 -32 392 -32 C341 -32 325 -69 316 -112 C308 -145 295 -167 271 -167 C223 -167 187 -124 187 -53 C187 69 225 160 314 160 L365 160 L365 307 L322 307 L322 201 L275 201 C174 201 32 136 32 3 Z " />
<glyph glyph-name="Agrave" unicode="&#xc0;" horiz-adv-x="722" d="M289 499 L300 499 L384 260 L204 260 Z M237 38 C220 39 204 42 192 47 C172 56 158 71 158 101 C158 124 166 152 176 180 L189 216 L399 216 L409 188 C423 148 434 120 434 94 C434 61 418 54 397 46 C386 42 373 40 355 38 L355 0 L717 0 L717 38 C705 40 694 44 682 49 C663 59 648 71 634 91 C620 113 604 146 590 184 L406 702 L316 702 L125 187 C108 143 96 112 84 92 C71 72 60 61 44 52 C30 44 16 40 -2 38 L-2 0 L237 0 Z M473 787 C420 824 394 842 354 868 C317 892 296 908 263 908 C233 908 207 884 207 850 C207 807 248 792 279 785 C328 775 381 767 462 755 Z " />
<glyph glyph-name="Aacute" unicode="&#xc1;" horiz-adv-x="722" d="M289 499 L300 499 L384 260 L204 260 Z M237 38 C220 39 204 42 192 47 C172 56 158 71 158 101 C158 124 166 152 176 180 L189 216 L399 216 L409 188 C423 148 434 120 434 94 C434 61 418 54 397 46 C386 42 373 40 355 38 L355 0 L717 0 L717 38 C705 40 694 44 682 49 C663 59 648 71 634 91 C620 113 604 146 590 184 L406 702 L316 702 L125 187 C108 143 96 112 84 92 C71 72 60 61 44 52 C30 44 16 40 -2 38 L-2 0 L237 0 Z M247 787 L258 755 C339 767 392 775 441 785 C472 792 513 807 513 850 C513 884 487 908 457 908 C424 908 403 892 366 868 C325 842 299 824 247 787 Z " />
<glyph glyph-name="Acircumflex" unicode="&#xc2;" horiz-adv-x="722" d="M289 499 L300 499 L384 260 L204 260 Z M237 38 C220 39 204 42 192 47 C172 56 158 71 158 101 C158 124 166 152 176 180 L189 216 L399 216 L409 188 C423 148 434 120 434 94 C434 61 418 54 397 46 C386 42 373 40 355 38 L355 0 L717 0 L717 38 C705 40 694 44 682 49 C663 59 648 71 634 91 C620 113 604 146 590 184 L406 702 L316 702 L125 187 C108 143 96 112 84 92 C71 72 60 61 44 52 C30 44 16 40 -2 38 L-2 0 L237 0 Z M508 783 L394 893 L321 893 L208 783 L229 754 L358 813 L486 754 Z " />
<glyph glyph-name="Atilde" unicode="&#xc3;" horiz-adv-x="722" d="M289 499 L300 499 L384 260 L204 260 Z M237 38 C220 39 204 42 192 47 C172 56 158 71 158 101 C158 124 166 152 176 180 L189 216 L399 216 L409 188 C423 148 434 120 434 94 C434 61 418 54 397 46 C386 42 373 40 355 38 L355 0 L717 0 L717 38 C705 40 694 44 682 49 C663 59 648 71 634 91 C620 113 604 146 590 184 L406 702 L316 702 L125 187 C108 143 96 112 84 92 C71 72 60 61 44 52 C30 44 16 40 -2 38 L-2 0 L237 0 Z M533 881 L499 891 C489 859 473 849 438 849 C397 849 351 874 305 874 C247 874 213 807 199 752 L232 742 C244 771 266 782 291 782 C330 782 378 758 423 758 C485 758 518 821 533 881 Z " />
<glyph glyph-name="Adieresis" unicode="&#xc4;" horiz-adv-x="722" d="M289 499 L300 499 L384 260 L204 260 Z M237 38 C220 39 204 42 192 47 C172 56 158 71 158 101 C158 124 166 152 176 180 L189 216 L399 216 L409 188 C423 148 434 120 434 94 C434 61 418 54 397 46 C386 42 373 40 355 38 L355 0 L717 0 L717 38 C705 40 694 44 682 49 C663 59 648 71 634 91 C620 113 604 146 590 184 L406 702 L316 702 L125 187 C108 143 96 112 84 92 C71 72 60 61 44 52 C30 44 16 40 -2 38 L-2 0 L237 0 Z M259 750 C296 750 326 776 326 817 C326 858 296 885 259 885 C221 885 192 858 192 817 C192 776 221 750 259 750 Z M470 750 C507 750 537 776 537 817 C537 858 507 885 470 885 C432 885 403 858 403 817 C403 776 432 750 470 750 Z " />
<glyph glyph-name="Aring" unicode="&#xc5;" horiz-adv-x="722" d="M289 499 L300 499 L384 260 L204 260 Z M237 38 C220 39 204 42 192 47 C172 56 158 71 158 101 C158 124 166 152 176 180 L189 216 L399 216 L409 188 C423 148 434 120 434 94 C434 61 418 54 397 46 C386 42 373 40 355 38 L355 0 L717 0 L717 38 C705 40 694 44 682 49 C663 59 648 71 634 91 C620 113 604 146 590 184 L406 702 L316 702 L125 187 C108 143 96 112 84 92 C71 72 60 61 44 52 C30 44 16 40 -2 38 L-2 0 L237 0 Z M455 832 C455 888 412 925 361 925 C311 925 267 888 267 832 C267 777 311 740 361 740 C412 740 455 777 455 832 Z M306 832 C306 869 328 892 361 892 C395 892 417 869 417 832 C417 797 395 772 361 772 C328 772 306 797 306 832 Z " />
<glyph glyph-name="AE" unicode="&#xc6;" horiz-adv-x="978" d="M218 38 C202 39 188 42 176 46 C155 54 142 66 142 95 C142 117 155 147 172 177 L219 259 L437 259 L437 191 C437 140 434 113 425 92 C415 63 399 52 376 45 C365 41 352 39 337 38 L337 0 L907 0 L948 230 L911 230 C888 185 861 133 813 91 C779 62 748 41 699 41 L682 41 C652 41 629 46 616 62 C601 79 598 108 598 147 L598 339 L630 339 C683 339 707 332 723 313 C749 284 755 257 759 221 L796 221 L796 499 L759 499 C755 464 750 438 724 409 C708 390 684 381 630 381 L598 381 L598 610 C598 626 599 636 606 645 C614 655 628 657 640 657 L669 657 C742 657 780 641 810 615 C850 580 868 546 891 494 L929 494 L893 698 L337 698 L337 660 C352 659 365 657 376 654 L392 648 L123 187 C96 140 76 111 61 93 C46 74 34 63 19 54 C4 46 -12 40 -30 38 L-30 0 L218 0 Z M437 623 L437 303 L244 303 L429 623 Z " />
<glyph glyph-name="Ccedilla" unicode="&#xc7;" horiz-adv-x="692" d="M493 -129 C493 -78 452 -52 393 -52 C377 -52 352 -57 341 -62 L361 -14 C367 -15 373 -15 380 -15 C528 -15 614 71 655 189 L619 203 C575 92 498 43 412 43 C359 43 326 55 297 77 C252 111 204 168 204 349 C204 544 252 613 304 646 C328 662 360 669 388 669 C462 669 497 644 533 598 C560 565 584 518 599 455 L639 455 L639 697 L609 697 L580 642 L574 642 C543 678 485 712 382 712 C192 712 33 565 33 349 C33 158 139 14 320 -11 L292 -81 L326 -101 C335 -94 347 -90 362 -90 C385 -90 400 -102 400 -133 C400 -168 376 -179 340 -179 C318 -179 289 -170 271 -158 L255 -190 C276 -203 310 -215 357 -215 C432 -215 493 -190 493 -129 Z " />
<glyph glyph-name="Egrave" unicode="&#xc8;" horiz-adv-x="678" d="M648 230 L611 230 C588 185 561 133 513 91 C479 62 449 41 389 41 L372 41 C342 41 319 46 306 62 C291 79 288 108 288 147 L288 339 L320 339 C373 339 397 332 413 313 C439 284 445 257 449 221 L486 221 L486 499 L449 499 C445 464 440 438 414 409 C398 390 374 381 320 381 L288 381 L288 610 C288 626 289 636 296 645 C304 655 318 657 330 657 L369 657 C442 657 480 641 510 615 C550 580 568 546 591 494 L629 494 L593 698 L28 698 L28 660 C43 659 55 657 66 654 C90 646 105 635 116 606 C124 585 127 559 127 507 L127 191 C127 140 124 113 116 92 C105 63 90 52 66 45 C55 41 43 39 28 38 L28 0 L607 0 Z M475 787 C422 824 396 842 356 868 C319 892 298 908 265 908 C235 908 209 884 209 850 C209 807 250 792 281 785 C330 775 383 767 464 755 Z " />
<glyph glyph-name="Eacute" unicode="&#xc9;" horiz-adv-x="678" d="M648 230 L611 230 C588 185 561 133 513 91 C479 62 449 41 389 41 L372 41 C342 41 319 46 306 62 C291 79 288 108 288 147 L288 339 L320 339 C373 339 397 332 413 313 C439 284 445 257 449 221 L486 221 L486 499 L449 499 C445 464 440 438 414 409 C398 390 374 381 320 381 L288 381 L288 610 C288 626 289 636 296 645 C304 655 318 657 330 657 L369 657 C442 657 480 641 510 615 C550 580 568 546 591 494 L629 494 L593 698 L28 698 L28 660 C43 659 55 657 66 654 C90 646 105 635 116 606 C124 585 127 559 127 507 L127 191 C127 140 124 113 116 92 C105 63 90 52 66 45 C55 41 43 39 28 38 L28 0 L607 0 Z M245 787 L256 755 C337 767 390 775 439 785 C470 792 511 807 511 850 C511 884 485 908 455 908 C422 908 401 892 364 868 C323 842 297 824 245 787 Z " />
<glyph glyph-name="Ecircumflex" unicode="&#xca;" horiz-adv-x="678" d="M648 230 L611 230 C588 185 561 133 513 91 C479 62 449 41 389 41 L372 41 C342 41 319 46 306 62 C291 79 288 108 288 147 L288 339 L320 339 C373 339 397 332 413 313 C439 284 445 257 449 221 L486 221 L486 499 L449 499 C445 464 440 438 414 409 C398 390 374 381 320 381 L288 381 L288 610 C288 626 289 636 296 645 C304 655 318 657 330 657 L369 657 C442 657 480 641 510 615 C550 580 568 546 591 494 L629 494 L593 698 L28 698 L28 660 C43 659 55 657 66 654 C90 646 105 635 116 606 C124 585 127 559 127 507 L127 191 C127 140 124 113 116 92 C105 63 90 52 66 45 C55 41 43 39 28 38 L28 0 L607 0 Z M491 783 L377 893 L304 893 L191 783 L212 754 L341 813 L469 754 Z " />
<glyph glyph-name="Edieresis" unicode="&#xcb;" horiz-adv-x="678" d="M648 230 L611 230 C588 185 561 133 513 91 C479 62 449 41 389 41 L372 41 C342 41 319 46 306 62 C291 79 288 108 288 147 L288 339 L320 339 C373 339 397 332 413 313 C439 284 445 257 449 221 L486 221 L486 499 L449 499 C445 464 440 438 414 409 C398 390 374 381 320 381 L288 381 L288 610 C288 626 289 636 296 645 C304 655 318 657 330 657 L369 657 C442 657 480 641 510 615 C550 580 568 546 591 494 L629 494 L593 698 L28 698 L28 660 C43 659 55 657 66 654 C90 646 105 635 116 606 C124 585 127 559 127 507 L127 191 C127 140 124 113 116 92 C105 63 90 52 66 45 C55 41 43 39 28 38 L28 0 L607 0 Z M229 750 C266 750 296 776 296 817 C296 858 266 885 229 885 C191 885 162 858 162 817 C162 776 191 750 229 750 Z M440 750 C477 750 507 776 507 817 C507 858 477 885 440 885 C402 885 373 858 373 817 C373 776 402 750 440 750 Z " />
<glyph glyph-name="Igrave" unicode="&#xcc;" horiz-adv-x="415" d="M288 507 C288 559 291 585 299 606 C310 635 326 647 349 654 C360 657 372 659 387 660 L387 698 L28 698 L28 660 C43 659 55 657 66 654 C91 647 105 635 116 606 C124 585 127 559 127 507 L127 191 C127 140 124 113 116 92 C105 63 90 53 66 45 C55 41 43 39 28 38 L28 0 L387 0 L387 38 C372 39 360 41 349 45 C326 53 310 63 299 92 C291 113 288 140 288 191 Z M342 787 C289 824 263 842 223 868 C186 892 165 908 132 908 C102 908 76 884 76 850 C76 807 117 792 148 785 C197 775 250 767 331 755 Z " />
<glyph glyph-name="Iacute" unicode="&#xcd;" horiz-adv-x="415" d="M288 507 C288 559 291 585 299 606 C310 635 326 647 349 654 C360 657 372 659 387 660 L387 698 L28 698 L28 660 C43 659 55 657 66 654 C91 647 105 635 116 606 C124 585 127 559 127 507 L127 191 C127 140 124 113 116 92 C105 63 90 53 66 45 C55 41 43 39 28 38 L28 0 L387 0 L387 38 C372 39 360 41 349 45 C326 53 310 63 299 92 C291 113 288 140 288 191 Z M88 787 L99 755 C180 767 233 775 282 785 C313 792 354 807 354 850 C354 884 328 908 298 908 C265 908 244 892 207 868 C166 842 140 824 88 787 Z " />
<glyph glyph-name="Icircumflex" unicode="&#xce;" horiz-adv-x="415" d="M288 507 C288 559 291 585 299 606 C310 635 326 647 349 654 C360 657 372 659 387 660 L387 698 L28 698 L28 660 C43 659 55 657 66 654 C91 647 105 635 116 606 C124 585 127 559 127 507 L127 191 C127 140 124 113 116 92 C105 63 90 53 66 45 C55 41 43 39 28 38 L28 0 L387 0 L387 38 C372 39 360 41 349 45 C326 53 310 63 299 92 C291 113 288 140 288 191 Z M361 783 L247 893 L174 893 L61 783 L82 754 L211 813 L339 754 Z " />
<glyph glyph-name="Idieresis" unicode="&#xcf;" horiz-adv-x="415" d="M288 507 C288 559 291 585 299 606 C310 635 326 647 349 654 C360 657 372 659 387 660 L387 698 L28 698 L28 660 C43 659 55 657 66 654 C91 647 105 635 116 606 C124 585 127 559 127 507 L127 191 C127 140 124 113 116 92 C105 63 90 53 66 45 C55 41 43 39 28 38 L28 0 L387 0 L387 38 C372 39 360 41 349 45 C326 53 310 63 299 92 C291 113 288 140 288 191 Z M103 750 C140 750 170 776 170 817 C170 858 140 885 103 885 C65 885 36 858 36 817 C36 776 65 750 103 750 Z M314 750 C351 750 381 776 381 817 C381 858 351 885 314 885 C276 885 247 858 247 817 C247 776 276 750 314 750 Z " />
<glyph glyph-name="Eth" unicode="&#xd0;" horiz-adv-x="776" d="M28 330 L127 330 L127 191 C127 140 124 113 116 92 C105 63 90 52 66 45 C55 41 43 39 28 38 L28 0 L393 0 C461 0 531 20 574 44 C672 98 740 195 740 350 C740 510 664 605 568 656 C523 679 457 698 369 698 L28 698 L28 660 C43 659 55 657 66 654 C90 646 105 635 116 606 C124 585 127 559 127 507 L127 373 L28 373 Z M575 348 C575 214 548 140 503 91 C470 55 426 41 386 41 L374 41 C344 41 320 46 307 62 C292 79 288 111 288 150 L288 330 L435 330 L435 373 L288 373 L288 632 C288 641 290 647 294 651 C299 656 306 657 314 657 L367 657 C408 657 464 647 497 613 C541 569 575 488 575 348 Z " />
<glyph glyph-name="Ntilde" unicode="&#xd1;" horiz-adv-x="781" d="M669 -5 L669 519 C669 581 674 601 686 619 C698 638 710 646 729 652 C742 656 752 658 769 660 L769 698 L513 698 L513 660 C528 658 542 656 554 652 C570 648 586 639 598 621 C611 602 616 581 616 519 L616 245 L607 245 L302 698 L24 698 L24 660 C38 659 49 656 60 652 C88 638 105 623 119 595 C135 563 141 524 141 443 L141 178 C141 116 135 96 122 77 C110 59 95 50 78 45 C67 42 54 40 40 38 L40 0 L294 0 L294 38 C277 40 268 42 254 46 C235 52 223 59 211 79 C199 96 194 116 194 178 L194 549 L203 549 L581 -5 Z M594 881 L560 891 C550 859 534 849 499 849 C458 849 412 874 366 874 C308 874 274 807 260 752 L293 742 C305 771 327 782 352 782 C391 782 439 758 484 758 C546 758 579 821 594 881 Z " />
<glyph glyph-name="Ograve" unicode="&#xd2;" horiz-adv-x="753" d="M376 712 C181 712 32 565 32 349 C32 133 181 -15 376 -15 C572 -15 721 133 721 349 C721 565 572 712 376 712 Z M376 28 C346 28 319 35 294 51 C244 85 204 154 204 349 C204 544 244 613 294 646 C319 663 346 669 376 669 C407 669 434 663 459 646 C509 613 549 544 549 349 C549 154 509 85 459 51 C434 35 407 28 376 28 Z M517 787 C464 824 438 842 398 868 C361 892 340 908 307 908 C277 908 251 884 251 850 C251 807 292 792 323 785 C372 775 425 767 506 755 Z " />
<glyph glyph-name="Oacute" unicode="&#xd3;" horiz-adv-x="753" d="M376 712 C181 712 32 565 32 349 C32 133 181 -15 376 -15 C572 -15 721 133 721 349 C721 565 572 712 376 712 Z M376 28 C346 28 319 35 294 51 C244 85 204 154 204 349 C204 544 244 613 294 646 C319 663 346 669 376 669 C407 669 434 663 459 646 C509 613 549 544 549 349 C549 154 509 85 459 51 C434 35 407 28 376 28 Z M266 787 L277 755 C358 767 411 775 460 785 C491 792 532 807 532 850 C532 884 506 908 476 908 C443 908 422 892 385 868 C344 842 318 824 266 787 Z " />
<glyph glyph-name="Ocircumflex" unicode="&#xd4;" horiz-adv-x="753" d="M376 712 C181 712 32 565 32 349 C32 133 181 -15 376 -15 C572 -15 721 133 721 349 C721 565 572 712 376 712 Z M376 28 C346 28 319 35 294 51 C244 85 204 154 204 349 C204 544 244 613 294 646 C319 663 346 669 376 669 C407 669 434 663 459 646 C509 613 549 544 549 349 C549 154 509 85 459 51 C434 35 407 28 376 28 Z M525 783 L411 893 L338 893 L225 783 L246 754 L375 813 L503 754 Z " />
<glyph glyph-name="Otilde" unicode="&#xd5;" horiz-adv-x="753" d="M376 712 C181 712 32 565 32 349 C32 133 181 -15 376 -15 C572 -15 721 133 721 349 C721 565 572 712 376 712 Z M376 28 C346 28 319 35 294 51 C244 85 204 154 204 349 C204 544 244 613 294 646 C319 663 346 669 376 669 C407 669 434 663 459 646 C509 613 549 544 549 349 C549 154 509 85 459 51 C434 35 407 28 376 28 Z M550 881 L516 891 C506 859 490 849 455 849 C414 849 368 874 322 874 C264 874 230 807 216 752 L249 742 C261 771 283 782 308 782 C347 782 395 758 440 758 C502 758 535 821 550 881 Z " />
<glyph glyph-name="Odieresis" unicode="&#xd6;" horiz-adv-x="753" d="M376 712 C181 712 32 565 32 349 C32 133 181 -15 376 -15 C572 -15 721 133 721 349 C721 565 572 712 376 712 Z M376 28 C346 28 319 35 294 51 C244 85 204 154 204 349 C204 544 244 613 294 646 C319 663 346 669 376 669 C407 669 434 663 459 646 C509 613 549 544 549 349 C549 154 509 85 459 51 C434 35 407 28 376 28 Z M267 750 C304 750 334 776 334 817 C334 858 304 885 267 885 C229 885 200 858 200 817 C200 776 229 750 267 750 Z M478 750 C515 750 545 776 545 817 C545 858 515 885 478 885 C440 885 411 858 411 817 C411 776 440 750 478 750 Z " />
<glyph glyph-name="multiply" unicode="&#xd7;" horiz-adv-x="474" d="M382 125 L416 160 L271 304 L416 449 L382 483 L237 338 L92 483 L58 449 L203 304 L58 159 L92 125 L237 270 Z " />
<glyph glyph-name="Oslash" unicode="&#xd8;" horiz-adv-x="753" d="M204 349 C204 544 244 613 294 646 C319 663 346 669 376 669 C407 669 434 663 459 646 C474 636 487 624 500 605 L223 163 C211 207 204 267 204 349 Z M376 28 C346 28 319 35 294 51 C275 64 257 82 243 110 L523 558 C539 512 549 446 549 349 C549 154 509 85 459 51 C434 35 407 28 376 28 Z M376 -15 C572 -15 721 133 721 349 C721 480 666 585 580 648 L636 738 L597 761 L541 672 C493 698 437 712 376 712 C181 712 32 565 32 349 C32 226 81 124 159 60 L98 -37 L137 -59 L195 34 C247 2 309 -15 376 -15 Z " />
<glyph glyph-name="Ugrave" unicode="&#xd9;" horiz-adv-x="770" d="M660 238 L660 519 C660 582 664 602 676 619 C689 639 701 646 720 652 C733 656 743 658 760 660 L760 698 L504 698 L504 660 C519 658 533 656 545 653 C562 647 577 639 589 621 C602 602 607 582 607 519 L607 232 C607 182 601 136 582 102 C556 55 504 35 429 35 C362 35 312 54 285 119 C273 149 268 183 268 223 L268 516 C268 562 270 585 279 606 C290 635 306 647 329 654 C340 657 351 659 365 660 L365 698 L11 698 L11 660 C24 659 36 657 47 654 C70 647 86 635 97 606 C106 585 107 562 107 515 L107 262 C107 205 115 141 133 104 C175 15 277 -14 392 -14 C529 -14 595 29 624 77 C650 120 660 172 660 238 Z M541 787 C488 824 462 842 422 868 C385 892 364 908 331 908 C301 908 275 884 275 850 C275 807 316 792 347 785 C396 775 449 767 530 755 Z " />
<glyph glyph-name="Uacute" unicode="&#xda;" horiz-adv-x="770" d="M660 238 L660 519 C660 582 664 602 676 619 C689 639 701 646 720 652 C733 656 743 658 760 660 L760 698 L504 698 L504 660 C519 658 533 656 545 653 C562 647 577 639 589 621 C602 602 607 582 607 519 L607 232 C607 182 601 136 582 102 C556 55 504 35 429 35 C362 35 312 54 285 119 C273 149 268 183 268 223 L268 516 C268 562 270 585 279 606 C290 635 306 647 329 654 C340 657 351 659 365 660 L365 698 L11 698 L11 660 C24 659 36 657 47 654 C70 647 86 635 97 606 C106 585 107 562 107 515 L107 262 C107 205 115 141 133 104 C175 15 277 -14 392 -14 C529 -14 595 29 624 77 C650 120 660 172 660 238 Z M316 787 L327 755 C408 767 461 775 510 785 C541 792 582 807 582 850 C582 884 556 908 526 908 C493 908 472 892 435 868 C394 842 368 824 316 787 Z " />
<glyph glyph-name="Ucircumflex" unicode="&#xdb;" horiz-adv-x="770" d="M660 238 L660 519 C660 582 664 602 676 619 C689 639 701 646 720 652 C733 656 743 658 760 660 L760 698 L504 698 L504 660 C519 658 533 656 545 653 C562 647 577 639 589 621 C602 602 607 582 607 519 L607 232 C607 182 601 136 582 102 C556 55 504 35 429 35 C362 35 312 54 285 119 C273 149 268 183 268 223 L268 516 C268 562 270 585 279 606 C290 635 306 647 329 654 C340 657 351 659 365 660 L365 698 L11 698 L11 660 C24 659 36 657 47 654 C70 647 86 635 97 606 C106 585 107 562 107 515 L107 262 C107 205 115 141 133 104 C175 15 277 -14 392 -14 C529 -14 595 29 624 77 C650 120 660 172 660 238 Z M565 783 L451 893 L378 893 L265 783 L286 754 L415 813 L543 754 Z " />
<glyph glyph-name="Udieresis" unicode="&#xdc;" horiz-adv-x="770" d="M660 238 L660 519 C660 582 664 602 676 619 C689 639 701 646 720 652 C733 656 743 658 760 660 L760 698 L504 698 L504 660 C519 658 533 656 545 653 C562 647 577 639 589 621 C602 602 607 582 607 519 L607 232 C607 182 601 136 582 102 C556 55 504 35 429 35 C362 35 312 54 285 119 C273 149 268 183 268 223 L268 516 C268 562 270 585 279 606 C290 635 306 647 329 654 C340 657 351 659 365 660 L365 698 L11 698 L11 660 C24 659 36 657 47 654 C70 647 86 635 97 606 C106 585 107 562 107 515 L107 262 C107 205 115 141 133 104 C175 15 277 -14 392 -14 C529 -14 595 29 624 77 C650 120 660 172 660 238 Z M294 750 C331 750 361 776 361 817 C361 858 331 885 294 885 C256 885 227 858 227 817 C227 776 256 750 294 750 Z M505 750 C542 750 572 776 572 817 C572 858 542 885 505 885 C467 885 438 858 438 817 C438 776 467 750 505 750 Z " />
<glyph glyph-name="Yacute" unicode="&#xdd;" horiz-adv-x="671" d="M253 293 L253 191 C253 140 251 113 242 92 C231 63 215 52 192 45 C180 41 169 39 154 38 L154 0 L513 0 L513 38 C498 39 487 40 474 45 C452 53 436 63 425 92 C417 113 414 140 414 191 L414 293 L542 528 C585 611 613 650 678 660 L678 698 L451 698 L451 660 C462 659 481 657 491 653 C510 646 519 637 519 615 C519 592 515 573 489 526 L398 361 L390 361 L290 545 C260 601 258 637 296 652 C306 656 323 658 341 660 L341 698 L-7 698 L-7 660 C42 651 66 636 105 561 Z M271 787 L282 755 C363 767 416 775 465 785 C496 792 537 807 537 850 C537 884 511 908 481 908 C448 908 427 892 390 868 C349 842 323 824 271 787 Z " />
<glyph glyph-name="Thorn" unicode="&#xde;" horiz-adv-x="636" d="M387 38 C372 39 360 41 349 45 C326 53 310 63 299 92 C292 111 289 134 288 176 L332 176 C439 176 502 194 541 217 C589 246 620 296 620 366 C620 489 519 541 367 541 L289 541 C290 572 293 590 299 606 C310 635 326 647 349 654 C360 657 372 659 387 660 L387 698 L28 698 L28 660 C43 659 55 657 66 654 C91 647 105 635 116 606 C124 585 127 559 127 507 L127 191 C127 140 124 113 116 92 C105 63 90 53 66 45 C55 41 43 39 28 38 L28 0 L387 0 Z M288 461 C288 476 291 484 296 489 C301 495 309 498 321 498 L349 498 C429 498 464 458 464 365 C464 313 457 284 441 262 C417 229 385 220 334 220 L288 220 Z " />
<glyph glyph-name="germandbls" unicode="&#xdf;" horiz-adv-x="715" d="M697 160 C697 257 635 285 556 326 C467 372 440 385 440 433 C440 464 457 479 489 502 C536 535 608 560 608 631 C608 715 511 759 369 759 C308 759 241 746 188 714 C132 681 93 627 93 548 L93 509 L22 509 L22 461 L94 461 L94 143 C94 116 93 95 88 81 C82 63 73 52 58 44 C50 40 34 36 22 35 L22 0 L313 0 L313 35 C301 37 285 40 277 44 C263 52 256 62 252 78 C247 92 245 110 245 133 L245 581 C245 689 305 720 369 720 C444 720 481 684 481 622 C481 567 464 538 430 511 C384 474 329 437 329 361 C329 266 398 227 470 189 C547 148 579 132 579 89 C579 52 559 26 509 26 C444 26 398 90 367 188 L334 188 L341 3 L371 3 L387 47 L396 47 C417 14 458 -12 509 -12 C630 -12 697 59 697 160 Z " />
<glyph glyph-name="agrave" unicode="&#xe0;" horiz-adv-x="546" d="M535 17 L524 49 C516 45 503 42 494 42 C479 42 469 47 463 56 C456 67 453 81 453 136 L454 403 C454 494 377 522 253 522 C166 522 104 493 74 459 C61 445 52 427 52 404 C52 372 76 349 113 349 C151 349 171 372 178 404 C185 433 193 453 201 462 C211 471 225 482 250 482 C288 482 303 463 303 417 L302 323 C290 303 263 288 193 270 C133 253 95 239 65 211 C42 189 27 156 27 117 C27 29 94 -12 170 -12 C246 -12 293 32 309 66 L320 66 C323 33 337 15 350 5 C362 -4 382 -12 424 -12 C482 -12 520 7 535 17 Z M302 280 L301 102 C290 71 261 54 230 54 C200 54 170 72 170 135 C170 172 183 196 195 212 C206 226 227 237 249 248 C273 260 293 270 302 280 Z M376 596 C324 647 301 670 268 701 C236 732 213 752 180 752 C152 752 128 733 128 699 C128 667 151 646 188 630 C229 613 281 594 357 566 Z " />
<glyph glyph-name="aacute" unicode="&#xe1;" horiz-adv-x="546" d="M535 17 L524 49 C516 45 503 42 494 42 C479 42 469 47 463 56 C456 67 453 81 453 136 L454 403 C454 494 377 522 253 522 C166 522 104 493 74 459 C61 445 52 427 52 404 C52 372 76 349 113 349 C151 349 171 372 178 404 C185 433 193 453 201 462 C211 471 225 482 250 482 C288 482 303 463 303 417 L302 323 C290 303 263 288 193 270 C133 253 95 239 65 211 C42 189 27 156 27 117 C27 29 94 -12 170 -12 C246 -12 293 32 309 66 L320 66 C323 33 337 15 350 5 C362 -4 382 -12 424 -12 C482 -12 520 7 535 17 Z M302 280 L301 102 C290 71 261 54 230 54 C200 54 170 72 170 135 C170 172 183 196 195 212 C206 226 227 237 249 248 C273 260 293 270 302 280 Z M154 596 L173 566 C249 594 301 613 343 630 C379 646 402 667 402 699 C402 733 378 752 350 752 C317 752 294 732 262 701 C229 670 206 647 154 596 Z " />
<glyph glyph-name="acircumflex" unicode="&#xe2;" horiz-adv-x="546" d="M535 17 L524 49 C516 45 503 42 494 42 C479 42 469 47 463 56 C456 67 453 81 453 136 L454 403 C454 494 377 522 253 522 C166 522 104 493 74 459 C61 445 52 427 52 404 C52 372 76 349 113 349 C151 349 171 372 178 404 C185 433 193 453 201 462 C211 471 225 482 250 482 C288 482 303 463 303 417 L302 323 C290 303 263 288 193 270 C133 253 95 239 65 211 C42 189 27 156 27 117 C27 29 94 -12 170 -12 C246 -12 293 32 309 66 L320 66 C323 33 337 15 350 5 C362 -4 382 -12 424 -12 C482 -12 520 7 535 17 Z M302 280 L301 102 C290 71 261 54 230 54 C200 54 170 72 170 135 C170 172 183 196 195 212 C206 226 227 237 249 248 C273 260 293 270 302 280 Z M404 587 L284 727 L217 727 L98 587 L127 561 L251 646 L374 561 Z " />
<glyph glyph-name="atilde" unicode="&#xe3;" horiz-adv-x="546" d="M535 17 L524 49 C516 45 503 42 494 42 C479 42 469 47 463 56 C456 67 453 81 453 136 L454 403 C454 494 377 522 253 522 C166 522 104 493 74 459 C61 445 52 427 52 404 C52 372 76 349 113 349 C151 349 171 372 178 404 C185 433 193 453 201 462 C211 471 225 482 250 482 C288 482 303 463 303 417 L302 323 C290 303 263 288 193 270 C133 253 95 239 65 211 C42 189 27 156 27 117 C27 29 94 -12 170 -12 C246 -12 293 32 309 66 L320 66 C323 33 337 15 350 5 C362 -4 382 -12 424 -12 C482 -12 520 7 535 17 Z M302 280 L301 102 C290 71 261 54 230 54 C200 54 170 72 170 135 C170 172 183 196 195 212 C206 226 227 237 249 248 C273 260 293 270 302 280 Z M427 715 L394 725 C383 693 363 683 328 683 C287 683 245 708 199 708 C141 708 108 641 93 586 L127 576 C139 605 161 616 185 616 C224 616 273 592 317 592 C379 592 412 655 427 715 Z " />
<glyph glyph-name="adieresis" unicode="&#xe4;" horiz-adv-x="546" d="M535 17 L524 49 C516 45 503 42 494 42 C479 42 469 47 463 56 C456 67 453 81 453 136 L454 403 C454 494 377 522 253 522 C166 522 104 493 74 459 C61 445 52 427 52 404 C52 372 76 349 113 349 C151 349 171 372 178 404 C185 433 193 453 201 462 C211 471 225 482 250 482 C288 482 303 463 303 417 L302 323 C290 303 263 288 193 270 C133 253 95 239 65 211 C42 189 27 156 27 117 C27 29 94 -12 170 -12 C246 -12 293 32 309 66 L320 66 C323 33 337 15 350 5 C362 -4 382 -12 424 -12 C482 -12 520 7 535 17 Z M302 280 L301 102 C290 71 261 54 230 54 C200 54 170 72 170 135 C170 172 183 196 195 212 C206 226 227 237 249 248 C273 260 293 270 302 280 Z M157 588 C193 588 222 614 222 653 C222 692 193 718 157 718 C121 718 92 692 92 653 C92 614 121 588 157 588 Z M357 588 C393 588 422 614 422 653 C422 692 393 718 357 718 C321 718 293 692 293 653 C293 614 321 588 357 588 Z " />
<glyph glyph-name="aring" unicode="&#xe5;" horiz-adv-x="546" d="M535 17 L524 49 C516 45 503 42 494 42 C479 42 469 47 463 56 C456 67 453 81 453 136 L454 403 C454 494 377 522 253 522 C166 522 104 493 74 459 C61 445 52 427 52 404 C52 372 76 349 113 349 C151 349 171 372 178 404 C185 433 193 453 201 462 C211 471 225 482 250 482 C288 482 303 463 303 417 L302 323 C290 303 263 288 193 270 C133 253 95 239 65 211 C42 189 27 156 27 117 C27 29 94 -12 170 -12 C246 -12 293 32 309 66 L320 66 C323 33 337 15 350 5 C362 -4 382 -12 424 -12 C482 -12 520 7 535 17 Z M302 280 L301 102 C290 71 261 54 230 54 C200 54 170 72 170 135 C170 172 183 196 195 212 C206 226 227 237 249 248 C273 260 293 270 302 280 Z M352 658 C352 717 308 755 255 755 C203 755 158 717 158 658 C158 600 203 563 255 563 C308 563 352 600 352 658 Z M197 658 C197 698 220 722 255 722 C290 722 313 698 313 658 C313 619 290 595 255 595 C220 595 197 619 197 658 Z " />
<glyph glyph-name="ae" unicode="&#xe6;" horiz-adv-x="800" d="M553 -12 C681 -12 744 56 772 141 L740 154 C719 98 678 36 587 36 C549 36 526 49 505 70 C473 100 457 155 455 263 L764 263 C765 273 767 298 767 320 C767 421 698 522 546 522 C499 522 440 502 407 467 L397 467 C367 501 320 522 254 522 C169 522 103 494 72 459 C61 446 52 429 52 405 C52 374 75 350 111 350 C149 350 171 372 177 404 C184 433 192 453 200 463 C210 472 225 483 251 483 C286 483 302 465 302 419 C302 410 301 330 301 324 C289 303 262 288 192 270 C133 254 95 240 65 211 C41 190 27 157 27 118 C27 30 97 -11 168 -11 C245 -11 306 24 333 105 L340 105 C354 79 366 62 389 44 C427 15 485 -12 553 -12 Z M626 344 C626 314 617 302 591 302 L456 302 C460 396 474 437 494 462 C509 478 529 485 549 485 C576 485 591 477 603 462 C621 438 626 403 626 344 Z M302 279 L302 116 C290 81 261 55 229 55 C198 55 171 74 171 136 C171 171 182 195 193 211 C204 225 225 236 247 247 C270 259 293 269 302 279 Z " />
<glyph glyph-name="ccedilla" unicode="&#xe7;" horiz-adv-x="523" d="M428 -119 C428 -68 387 -42 328 -42 C312 -42 287 -47 276 -52 L293 -12 C419 -9 481 61 506 146 L472 158 C450 99 417 41 317 41 C290 41 267 50 246 66 C212 94 188 146 188 256 C189 370 209 428 238 458 C252 474 273 483 300 483 C335 483 352 468 363 423 C375 374 391 343 437 343 C472 343 495 363 495 406 C495 430 488 450 467 471 C444 495 400 522 300 522 C172 522 29 435 29 256 C29 153 71 83 130 38 C162 12 204 -4 251 -10 L227 -71 L261 -91 C270 -84 282 -80 297 -80 C320 -80 335 -92 335 -123 C335 -158 311 -169 275 -169 C253 -169 224 -160 206 -148 L190 -180 C211 -193 245 -205 292 -205 C367 -205 428 -180 428 -119 Z " />
<glyph glyph-name="egrave" unicode="&#xe8;" horiz-adv-x="543" d="M514 141 L483 154 C462 98 421 36 326 36 C288 36 262 48 240 69 C208 100 191 156 191 264 L509 264 C510 273 512 299 512 321 C512 421 440 522 287 522 C162 522 30 430 30 256 C30 163 65 87 126 41 C169 9 227 -12 293 -12 C421 -12 487 56 514 141 Z M233 459 C248 475 270 482 290 482 C319 482 336 473 348 459 C366 435 370 405 370 345 C370 314 360 303 338 303 L192 303 C195 401 213 437 233 459 Z M402 596 C350 647 327 670 294 701 C262 732 239 752 206 752 C178 752 154 733 154 699 C154 667 177 646 214 630 C255 613 307 594 383 566 Z " />
<glyph glyph-name="eacute" unicode="&#xe9;" horiz-adv-x="543" d="M514 141 L483 154 C462 98 421 36 326 36 C288 36 262 48 240 69 C208 100 191 156 191 264 L509 264 C510 273 512 299 512 321 C512 421 440 522 287 522 C162 522 30 430 30 256 C30 163 65 87 126 41 C169 9 227 -12 293 -12 C421 -12 487 56 514 141 Z M233 459 C248 475 270 482 290 482 C319 482 336 473 348 459 C366 435 370 405 370 345 C370 314 360 303 338 303 L192 303 C195 401 213 437 233 459 Z M172 596 L191 566 C267 594 319 613 361 630 C397 646 420 667 420 699 C420 733 396 752 368 752 C335 752 312 732 280 701 C247 670 224 647 172 596 Z " />
<glyph glyph-name="ecircumflex" unicode="&#xea;" horiz-adv-x="543" d="M514 141 L483 154 C462 98 421 36 326 36 C288 36 262 48 240 69 C208 100 191 156 191 264 L509 264 C510 273 512 299 512 321 C512 421 440 522 287 522 C162 522 30 430 30 256 C30 163 65 87 126 41 C169 9 227 -12 293 -12 C421 -12 487 56 514 141 Z M233 459 C248 475 270 482 290 482 C319 482 336 473 348 459 C366 435 370 405 370 345 C370 314 360 303 338 303 L192 303 C195 401 213 437 233 459 Z M440 587 L320 727 L253 727 L134 587 L163 561 L287 646 L410 561 Z " />
<glyph glyph-name="edieresis" unicode="&#xeb;" horiz-adv-x="543" d="M514 141 L483 154 C462 98 421 36 326 36 C288 36 262 48 240 69 C208 100 191 156 191 264 L509 264 C510 273 512 299 512 321 C512 421 440 522 287 522 C162 522 30 430 30 256 C30 163 65 87 126 41 C169 9 227 -12 293 -12 C421 -12 487 56 514 141 Z M233 459 C248 475 270 482 290 482 C319 482 336 473 348 459 C366 435 370 405 370 345 C370 314 360 303 338 303 L192 303 C195 401 213 437 233 459 Z M181 588 C217 588 246 614 246 653 C246 692 217 718 181 718 C145 718 116 692 116 653 C116 614 145 588 181 588 Z M381 588 C417 588 446 614 446 653 C446 692 417 718 381 718 C345 718 317 692 317 653 C317 614 345 588 381 588 Z " />
<glyph glyph-name="igrave" unicode="&#xec;" horiz-adv-x="334" d="M244 407 C244 450 246 476 247 499 C247 506 245 509 239 509 L21 509 L21 473 C37 470 52 465 64 458 C75 452 83 444 88 430 C93 417 93 391 93 367 L93 143 C93 116 92 95 88 81 C82 63 73 52 58 44 C49 40 35 36 23 35 L23 0 L316 0 L316 35 C304 36 289 40 281 44 C265 52 257 63 251 81 C246 95 244 116 244 143 Z M272 596 C220 647 197 670 164 701 C132 732 109 752 76 752 C48 752 24 733 24 699 C24 667 47 646 84 630 C125 613 177 594 253 566 Z " />
<glyph glyph-name="iacute" unicode="&#xed;" horiz-adv-x="334" d="M244 407 C244 450 246 476 247 499 C247 506 245 509 239 509 L21 509 L21 473 C37 470 52 465 64 458 C75 452 83 444 88 430 C93 417 93 391 93 367 L93 143 C93 116 92 95 88 81 C82 63 73 52 58 44 C49 40 35 36 23 35 L23 0 L316 0 L316 35 C304 36 289 40 281 44 C265 52 257 63 251 81 C246 95 244 116 244 143 Z M23 596 L42 566 C118 594 170 613 212 630 C248 646 271 667 271 699 C271 733 247 752 219 752 C186 752 163 732 131 701 C98 670 75 647 23 596 Z " />
<glyph glyph-name="icircumflex" unicode="&#xee;" horiz-adv-x="334" d="M244 407 C244 450 246 476 247 499 C247 506 245 509 239 509 L21 509 L21 473 C37 470 52 465 64 458 C75 452 83 444 88 430 C93 417 93 391 93 367 L93 143 C93 116 92 95 88 81 C82 63 73 52 58 44 C49 40 35 36 23 35 L23 0 L316 0 L316 35 C304 36 289 40 281 44 C265 52 257 63 251 81 C246 95 244 116 244 143 Z M300 587 L180 727 L113 727 L-6 587 L23 561 L147 646 L270 561 Z " />
<glyph glyph-name="idieresis" unicode="&#xef;" horiz-adv-x="334" d="M244 407 C244 450 246 476 247 499 C247 506 245 509 239 509 L21 509 L21 473 C37 470 52 465 64 458 C75 452 83 444 88 430 C93 417 93 391 93 367 L93 143 C93 116 92 95 88 81 C82 63 73 52 58 44 C49 40 35 36 23 35 L23 0 L316 0 L316 35 C304 36 289 40 281 44 C265 52 257 63 251 81 C246 95 244 116 244 143 Z M46 588 C82 588 111 614 111 653 C111 692 82 718 46 718 C10 718 -19 692 -19 653 C-19 614 10 588 46 588 Z M246 588 C282 588 311 614 311 653 C311 692 282 718 246 718 C210 718 182 692 182 653 C182 614 210 588 246 588 Z " />
<glyph glyph-name="eth" unicode="&#xf0;" horiz-adv-x="589" d="M293 -12 C440 -12 561 106 561 291 C561 464 482 577 388 651 L501 705 L491 745 L350 678 C295 716 237 742 189 761 L155 743 C208 715 251 684 285 647 L176 596 L186 556 L312 616 C339 580 359 541 374 497 L369 497 C347 517 314 522 284 522 C147 522 28 422 28 256 C28 90 147 -12 293 -12 Z M401 260 C400 144 384 86 356 54 C339 34 315 29 293 29 C273 29 249 35 232 54 C203 86 189 139 189 256 C189 372 203 427 232 458 C249 475 272 482 293 482 C317 482 341 476 359 456 C387 424 402 377 401 260 Z " />
<glyph glyph-name="ntilde" unicode="&#xf1;" horiz-adv-x="660" d="M571 143 L571 381 C571 429 556 462 528 487 C504 508 468 522 419 522 C374 522 340 509 308 488 C283 472 264 452 248 427 L236 427 C237 443 238 491 239 499 C239 506 237 509 230 509 L21 509 L21 473 C37 470 54 465 65 458 C75 452 83 443 89 430 C93 417 94 391 94 367 L94 143 C94 116 93 95 89 81 C83 63 74 52 59 44 C50 40 35 36 23 35 L23 0 L307 0 L307 35 C296 36 284 39 276 43 C260 52 253 63 249 84 C246 99 245 120 245 143 L245 312 C245 349 255 383 270 405 C290 433 321 448 354 448 C377 448 391 444 402 434 C414 422 420 404 420 375 L420 143 C420 120 420 99 417 84 C412 63 408 52 390 43 C382 39 369 36 358 35 L358 0 L642 0 L642 35 C630 36 615 41 607 44 C592 52 583 62 577 81 C572 95 571 116 571 143 Z M496 720 L463 730 C452 698 432 688 397 688 C356 688 314 713 268 713 C210 713 177 646 162 591 L196 581 C208 610 230 621 254 621 C293 621 342 597 386 597 C448 597 481 660 496 720 Z " />
<glyph glyph-name="ograve" unicode="&#xf2;" horiz-adv-x="591" d="M29 256 C29 90 153 -12 295 -12 C438 -12 562 90 562 256 C562 422 438 522 295 522 C153 522 29 422 29 256 Z M190 256 C190 381 206 434 239 463 C254 476 275 482 295 482 C316 482 336 476 352 463 C385 434 402 381 402 256 C402 131 385 78 352 48 C337 36 316 29 295 29 C274 29 254 36 239 48 C206 77 190 131 190 256 Z M413 596 C361 647 338 670 305 701 C273 732 250 752 217 752 C189 752 165 733 165 699 C165 667 188 646 225 630 C266 613 318 594 394 566 Z " />
<glyph glyph-name="oacute" unicode="&#xf3;" horiz-adv-x="591" d="M29 256 C29 90 153 -12 295 -12 C438 -12 562 90 562 256 C562 422 438 522 295 522 C153 522 29 422 29 256 Z M190 256 C190 381 206 434 239 463 C254 476 275 482 295 482 C316 482 336 476 352 463 C385 434 402 381 402 256 C402 131 385 78 352 48 C337 36 316 29 295 29 C274 29 254 36 239 48 C206 77 190 131 190 256 Z M168 596 L187 566 C263 594 315 613 357 630 C393 646 416 667 416 699 C416 733 392 752 364 752 C331 752 308 732 276 701 C243 670 220 647 168 596 Z " />
<glyph glyph-name="ocircumflex" unicode="&#xf4;" horiz-adv-x="591" d="M29 256 C29 90 153 -12 295 -12 C438 -12 562 90 562 256 C562 422 438 522 295 522 C153 522 29 422 29 256 Z M190 256 C190 381 206 434 239 463 C254 476 275 482 295 482 C316 482 336 476 352 463 C385 434 402 381 402 256 C402 131 385 78 352 48 C337 36 316 29 295 29 C274 29 254 36 239 48 C206 77 190 131 190 256 Z M448 587 L328 727 L261 727 L142 587 L171 561 L295 646 L418 561 Z " />
<glyph glyph-name="otilde" unicode="&#xf5;" horiz-adv-x="591" d="M29 256 C29 90 153 -12 295 -12 C438 -12 562 90 562 256 C562 422 438 522 295 522 C153 522 29 422 29 256 Z M190 256 C190 381 206 434 239 463 C254 476 275 482 295 482 C316 482 336 476 352 463 C385 434 402 381 402 256 C402 131 385 78 352 48 C337 36 316 29 295 29 C274 29 254 36 239 48 C206 77 190 131 190 256 Z M465 720 L432 730 C421 698 401 688 366 688 C325 688 283 713 237 713 C179 713 146 646 131 591 L165 581 C177 610 199 621 223 621 C262 621 311 597 355 597 C417 597 450 660 465 720 Z " />
<glyph glyph-name="odieresis" unicode="&#xf6;" horiz-adv-x="591" d="M29 256 C29 90 153 -12 295 -12 C438 -12 562 90 562 256 C562 422 438 522 295 522 C153 522 29 422 29 256 Z M190 256 C190 381 206 434 239 463 C254 476 275 482 295 482 C316 482 336 476 352 463 C385 434 402 381 402 256 C402 131 385 78 352 48 C337 36 316 29 295 29 C274 29 254 36 239 48 C206 77 190 131 190 256 Z M186 588 C222 588 251 614 251 653 C251 692 222 718 186 718 C150 718 121 692 121 653 C121 614 150 588 186 588 Z M386 588 C422 588 451 614 451 653 C451 692 422 718 386 718 C350 718 322 692 322 653 C322 614 350 588 386 588 Z " />
<glyph glyph-name="divide" unicode="&#xf7;" horiz-adv-x="474" d="M306 449 C306 487 277 517 239 517 C201 517 172 487 172 449 C172 413 201 383 239 383 C277 383 306 413 306 449 Z M436 280 L436 328 L38 328 L38 280 Z M306 158 C306 195 277 224 239 224 C201 224 172 195 172 158 C172 121 201 91 239 91 C277 91 306 121 306 158 Z " />
<glyph glyph-name="oslash" unicode="&#xf8;" horiz-adv-x="591" d="M190 256 C190 381 206 434 239 463 C254 476 275 482 295 482 C316 482 336 476 352 463 C358 458 364 451 369 444 L204 110 C195 143 190 189 190 256 Z M295 29 C274 29 254 36 239 48 C234 52 230 56 226 62 L390 393 C398 361 402 317 402 256 C402 131 385 78 352 48 C337 36 316 29 295 29 Z M295 -12 C438 -12 562 90 562 256 C562 363 510 443 435 486 L480 576 L442 593 L398 503 C366 516 331 522 295 522 C153 522 29 422 29 256 C29 147 83 65 160 22 L116 -68 L154 -85 L198 5 C229 -6 261 -12 295 -12 Z " />
<glyph glyph-name="ugrave" unicode="&#xf9;" horiz-adv-x="658" d="M562 142 L562 405 C562 449 564 476 565 499 C565 506 563 509 556 509 L336 509 L336 473 C354 472 369 468 382 461 C391 455 400 446 405 432 C410 419 411 394 411 369 L411 216 C411 188 411 173 407 151 C404 123 392 100 377 84 C359 61 337 50 312 50 C287 50 270 57 256 75 C243 90 240 114 240 148 L240 405 C240 449 241 476 242 499 C242 506 240 509 234 509 L15 509 L15 473 C31 472 48 468 59 461 C69 455 76 447 82 432 C87 419 88 394 88 369 L88 151 C88 97 101 59 130 30 C158 0 207 -12 256 -12 C298 -12 333 -2 362 19 C386 37 397 54 412 81 L421 81 C421 81 422 15 422 11 C422 3 425 0 432 0 L637 0 L637 35 C624 36 609 40 599 45 C584 51 575 64 569 81 C564 95 562 116 562 142 Z M412 596 C360 647 337 670 304 701 C272 732 249 752 216 752 C188 752 164 733 164 699 C164 667 187 646 224 630 C265 613 317 594 393 566 Z " />
<glyph glyph-name="uacute" unicode="&#xfa;" horiz-adv-x="658" d="M562 142 L562 405 C562 449 564 476 565 499 C565 506 563 509 556 509 L336 509 L336 473 C354 472 369 468 382 461 C391 455 400 446 405 432 C410 419 411 394 411 369 L411 216 C411 188 411 173 407 151 C404 123 392 100 377 84 C359 61 337 50 312 50 C287 50 270 57 256 75 C243 90 240 114 240 148 L240 405 C240 449 241 476 242 499 C242 506 240 509 234 509 L15 509 L15 473 C31 472 48 468 59 461 C69 455 76 447 82 432 C87 419 88 394 88 369 L88 151 C88 97 101 59 130 30 C158 0 207 -12 256 -12 C298 -12 333 -2 362 19 C386 37 397 54 412 81 L421 81 C421 81 422 15 422 11 C422 3 425 0 432 0 L637 0 L637 35 C624 36 609 40 599 45 C584 51 575 64 569 81 C564 95 562 116 562 142 Z M202 596 L221 566 C297 594 349 613 391 630 C427 646 450 667 450 699 C450 733 426 752 398 752 C365 752 342 732 310 701 C277 670 254 647 202 596 Z " />
<glyph glyph-name="ucircumflex" unicode="&#xfb;" horiz-adv-x="658" d="M562 142 L562 405 C562 449 564 476 565 499 C565 506 563 509 556 509 L336 509 L336 473 C354 472 369 468 382 461 C391 455 400 446 405 432 C410 419 411 394 411 369 L411 216 C411 188 411 173 407 151 C404 123 392 100 377 84 C359 61 337 50 312 50 C287 50 270 57 256 75 C243 90 240 114 240 148 L240 405 C240 449 241 476 242 499 C242 506 240 509 234 509 L15 509 L15 473 C31 472 48 468 59 461 C69 455 76 447 82 432 C87 419 88 394 88 369 L88 151 C88 97 101 59 130 30 C158 0 207 -12 256 -12 C298 -12 333 -2 362 19 C386 37 397 54 412 81 L421 81 C421 81 422 15 422 11 C422 3 425 0 432 0 L637 0 L637 35 C624 36 609 40 599 45 C584 51 575 64 569 81 C564 95 562 116 562 142 Z M455 587 L335 727 L268 727 L149 587 L178 561 L302 646 L425 561 Z " />
<glyph glyph-name="udieresis" unicode="&#xfc;" horiz-adv-x="658" d="M562 142 L562 405 C562 449 564 476 565 499 C565 506 563 509 556 509 L336 509 L336 473 C354 472 369 468 382 461 C391 455 400 446 405 432 C410 419 411 394 411 369 L411 216 C411 188 411 173 407 151 C404 123 392 100 377 84 C359 61 337 50 312 50 C287 50 270 57 256 75 C243 90 240 114 240 148 L240 405 C240 449 241 476 242 499 C242 506 240 509 234 509 L15 509 L15 473 C31 472 48 468 59 461 C69 455 76 447 82 432 C87 419 88 394 88 369 L88 151 C88 97 101 59 130 30 C158 0 207 -12 256 -12 C298 -12 333 -2 362 19 C386 37 397 54 412 81 L421 81 C421 81 422 15 422 11 C422 3 425 0 432 0 L637 0 L637 35 C624 36 609 40 599 45 C584 51 575 64 569 81 C564 95 562 116 562 142 Z M196 588 C232 588 261 614 261 653 C261 692 232 718 196 718 C160 718 131 692 131 653 C131 614 160 588 196 588 Z M396 588 C432 588 461 614 461 653 C461 692 432 718 396 718 C360 718 332 692 332 653 C332 614 360 588 396 588 Z " />
<glyph glyph-name="yacute" unicode="&#xfd;" horiz-adv-x="564" d="M309 -32 L463 350 C480 393 492 419 503 435 C512 449 522 457 531 462 C542 469 555 472 565 473 L565 509 L381 509 L381 473 C393 472 408 471 419 465 C431 459 439 448 439 428 C439 405 435 390 419 350 L347 171 L336 171 L267 353 C256 381 247 407 247 429 C247 449 256 459 268 465 C278 469 298 472 309 473 L309 509 L5 509 L5 473 C15 472 31 469 42 462 C55 454 61 445 74 421 C80 408 90 383 107 342 L244 13 C248 3 252 -7 252 -22 C252 -34 247 -55 238 -74 C225 -104 206 -133 183 -133 C173 -133 166 -131 160 -125 C156 -120 152 -113 147 -103 C133 -76 116 -60 81 -60 C45 -60 21 -91 21 -123 C21 -173 64 -203 120 -203 C177 -203 211 -182 239 -152 C264 -125 279 -107 309 -32 Z M203 596 L222 566 C298 594 350 613 392 630 C428 646 451 667 451 699 C451 733 427 752 399 752 C366 752 343 732 311 701 C278 670 255 647 203 596 Z " />
<glyph glyph-name="thorn" unicode="&#xfe;" horiz-adv-x="629" d="M439 254 C439 101 406 31 332 31 C305 31 279 43 260 71 C242 96 235 129 235 183 L235 320 C235 369 252 412 267 430 C290 459 310 467 340 467 C398 467 439 416 439 254 Z M315 -163 C297 -162 281 -158 272 -154 C256 -145 248 -135 242 -118 C237 -103 235 -82 235 -56 L235 26 L243 26 C266 3 306 -12 347 -12 C479 -12 599 73 599 255 C599 450 484 522 384 522 C317 522 274 503 244 455 L235 455 L235 747 C235 754 233 756 226 756 L8 756 L8 721 C25 718 41 712 53 706 C62 700 71 690 76 677 C81 665 82 638 82 612 L82 -56 C82 -82 81 -103 76 -118 C70 -135 62 -146 47 -154 C38 -158 20 -162 8 -163 L8 -197 L315 -197 Z " />
<glyph glyph-name="ydieresis" unicode="&#xff;" horiz-adv-x="564" d="M309 -32 L463 350 C480 393 492 419 503 435 C512 449 522 457 531 462 C542 469 555 472 565 473 L565 509 L381 509 L381 473 C393 472 408 471 419 465 C431 459 439 448 439 428 C439 405 435 390 419 350 L347 171 L336 171 L267 353 C256 381 247 407 247 429 C247 449 256 459 268 465 C278 469 298 472 309 473 L309 509 L5 509 L5 473 C15 472 31 469 42 462 C55 454 61 445 74 421 C80 408 90 383 107 342 L244 13 C248 3 252 -7 252 -22 C252 -34 247 -55 238 -74 C225 -104 206 -133 183 -133 C173 -133 166 -131 160 -125 C156 -120 152 -113 147 -103 C133 -76 116 -60 81 -60 C45 -60 21 -91 21 -123 C21 -173 64 -203 120 -203 C177 -203 211 -182 239 -152 C264 -125 279 -107 309 -32 Z M203 588 C239 588 268 614 268 653 C268 692 239 718 203 718 C167 718 138 692 138 653 C138 614 167 588 203 588 Z M403 588 C439 588 468 614 468 653 C468 692 439 718 403 718 C367 718 339 692 339 653 C339 614 367 588 403 588 Z " />
<glyph glyph-name="dotlessi" unicode="&#x131;" horiz-adv-x="334" d="M244 407 C244 450 246 476 247 499 C247 506 245 509 239 509 L21 509 L21 473 C37 470 52 465 64 458 C75 452 83 444 88 430 C93 417 93 391 93 367 L93 143 C93 116 92 95 88 81 C82 63 73 52 58 44 C49 40 35 36 23 35 L23 0 L316 0 L316 35 C304 36 289 40 281 44 C265 52 257 63 251 81 C246 95 244 116 244 143 Z " />
<glyph glyph-name="Lslash" unicode="&#x141;" horiz-adv-x="656" d="M24 232 L127 274 L127 191 C127 140 124 113 116 92 C105 63 90 52 66 45 C55 41 43 39 28 38 L28 0 L605 0 L643 239 L605 239 C581 185 556 140 506 91 C474 59 446 41 386 41 L371 41 C341 41 319 46 306 62 C291 79 287 108 287 147 L287 339 L458 410 L458 459 L287 388 L287 508 C287 559 290 585 298 606 C309 635 325 646 348 654 C359 657 371 659 386 660 L386 698 L28 698 L28 660 C43 659 55 657 66 654 C90 646 105 635 116 606 C124 585 127 559 127 507 L127 323 L24 281 Z " />
<glyph glyph-name="lslash" unicode="&#x142;" horiz-adv-x="335" d="M244 649 C244 688 246 724 246 746 C246 753 244 756 238 756 L19 756 L19 721 C36 719 52 716 64 708 C73 703 82 693 87 680 C92 667 93 642 93 617 L93 349 L11 305 L11 250 L93 294 L93 143 C93 116 92 95 87 81 C81 63 73 52 57 44 C49 40 36 36 24 35 L24 0 L313 0 L313 35 C301 36 288 40 279 44 C264 52 257 63 251 81 C245 95 244 116 244 143 L244 376 L320 417 L320 472 L244 431 Z " />
<glyph glyph-name="OE" unicode="&#x152;" horiz-adv-x="1039" d="M371 659 C477 659 502 583 502 349 C502 95 467 39 371 39 C342 39 313 44 288 62 C234 101 204 160 204 349 C204 528 235 593 285 632 C310 651 339 659 371 659 Z M1010 230 L974 230 C950 183 915 128 872 92 C837 62 811 42 751 42 L738 42 C709 42 687 47 673 63 C659 80 656 109 656 148 L656 340 L690 340 C742 340 764 332 781 313 C806 284 812 257 816 221 L852 221 L852 499 L816 499 C812 464 807 438 782 409 C765 389 743 381 690 381 L656 381 L656 609 C656 625 657 636 664 646 C671 655 685 656 697 656 L735 656 C807 656 841 641 869 615 C909 580 931 546 954 494 L991 494 L956 698 L372 698 C175 698 32 570 32 349 C32 128 175 0 372 0 L970 0 Z " />
<glyph glyph-name="oe" unicode="&#x153;" horiz-adv-x="902" d="M873 141 L842 154 C821 98 780 36 685 36 C647 36 621 48 599 69 C567 100 555 155 555 264 L863 264 C864 273 866 299 866 321 C866 421 799 522 646 522 C584 522 522 489 478 433 L472 433 C431 489 368 522 293 522 C151 522 32 422 32 256 C32 90 151 -12 293 -12 C367 -12 429 22 471 77 L477 77 C485 68 492 59 501 51 C538 16 586 -12 657 -12 C780 -12 846 56 873 141 Z M592 459 C607 475 629 482 649 482 C678 482 695 473 707 459 C725 435 724 405 724 345 C724 314 714 303 692 303 L555 303 C558 401 572 437 592 459 Z M192 256 C192 381 204 434 237 463 C252 476 273 482 293 482 C313 482 334 476 349 463 C382 434 394 381 394 256 C394 131 382 78 349 48 C334 36 314 29 293 29 C272 29 252 36 237 48 C203 77 192 131 192 256 Z " />
<glyph glyph-name="Scaron" unicode="&#x160;" horiz-adv-x="586" d="M554 208 C554 349 438 393 328 443 C244 481 185 501 185 582 C185 635 220 672 289 672 C349 672 382 651 412 612 C440 575 465 529 481 478 L517 478 L503 699 L469 699 L442 657 L434 657 C404 689 368 712 289 712 C159 712 52 633 52 513 C52 364 162 316 260 273 C372 224 422 199 422 127 C422 67 384 26 301 26 C197 26 114 137 78 250 L39 250 L46 4 L79 4 L113 57 L122 57 C156 18 226 -15 301 -15 C438 -15 554 64 554 208 Z M437 863 L415 893 L287 834 L158 893 L137 863 L250 754 L323 754 Z " />
<glyph glyph-name="scaron" unicode="&#x161;" horiz-adv-x="469" d="M441 160 C441 264 362 299 270 333 C184 364 156 381 156 425 C156 465 187 485 230 485 C264 485 291 473 313 454 C341 430 361 393 377 356 L410 356 L404 510 L375 510 L360 471 L352 471 C335 495 293 522 230 522 C120 522 41 459 41 368 C41 249 118 222 200 191 C289 158 324 140 324 89 C324 47 294 26 243 26 C159 26 104 98 68 193 L33 193 L40 3 L70 3 L91 49 L102 49 C133 15 184 -12 241 -12 C362 -12 441 53 441 160 Z M379 701 L349 727 L226 641 L102 727 L73 701 L192 561 L259 561 Z " />
<glyph glyph-name="Ydieresis" unicode="&#x178;" horiz-adv-x="671" d="M253 293 L253 191 C253 140 251 113 242 92 C231 63 215 52 192 45 C180 41 169 39 154 38 L154 0 L513 0 L513 38 C498 39 487 40 474 45 C452 53 436 63 425 92 C417 113 414 140 414 191 L414 293 L542 528 C585 611 613 650 678 660 L678 698 L451 698 L451 660 C462 659 481 657 491 653 C510 646 519 637 519 615 C519 592 515 573 489 526 L398 361 L390 361 L290 545 C260 601 258 637 296 652 C306 656 323 658 341 660 L341 698 L-7 698 L-7 660 C42 651 66 636 105 561 Z M272 750 C309 750 339 776 339 817 C339 858 309 885 272 885 C234 885 205 858 205 817 C205 776 234 750 272 750 Z M483 750 C520 750 550 776 550 817 C550 858 520 885 483 885 C445 885 416 858 416 817 C416 776 445 750 483 750 Z " />
<glyph glyph-name="Zcaron" unicode="&#x17d;" horiz-adv-x="654" d="M616 698 L92 698 L58 486 L96 486 C125 544 165 594 202 620 C234 645 269 657 342 657 L432 657 L32 27 L32 0 L578 0 L634 240 L594 240 C568 190 536 131 470 83 C427 51 386 41 304 41 L233 41 L616 671 Z M500 868 L478 898 L350 839 L221 898 L200 868 L313 759 L386 759 Z " />
<glyph glyph-name="zcaron" unicode="&#x17e;" horiz-adv-x="522" d="M497 192 L462 192 C445 155 424 119 396 87 C365 52 338 35 290 35 L207 35 L207 39 L484 484 L484 509 L69 509 L37 329 L72 329 C92 374 115 410 138 432 C159 453 184 472 223 472 L306 472 L306 467 L23 22 L23 0 L470 0 Z M430 696 L400 722 L277 636 L153 722 L124 696 L243 556 L310 556 Z " />
<glyph glyph-name="uni0192" unicode="&#x192;" horiz-adv-x="538" d="M25 -182 C137 -182 218 -108 253 27 C284 143 314 299 333 403 L440 403 L450 446 L341 446 C361 541 375 592 393 627 C404 649 418 655 430 655 C443 655 451 649 452 636 C453 621 446 605 446 589 C446 559 463 530 506 530 C544 530 572 551 572 594 C572 658 513 691 432 691 C326 691 226 600 185 446 L92 446 L82 403 L175 403 C142 246 116 61 74 -93 C63 -138 47 -149 25 -149 C9 -149 2 -141 0 -127 C-1 -110 2 -100 1 -83 C0 -50 -20 -26 -57 -26 C-89 -26 -118 -46 -118 -89 C-118 -144 -63 -182 25 -182 Z " />
<glyph glyph-name="circumflex" unicode="&#x2c6;" horiz-adv-x="460" d="M383 593 L263 733 L196 733 L77 593 L106 567 L230 652 L353 567 Z " />
<glyph glyph-name="caron" unicode="&#x2c7;" horiz-adv-x="460" d="M383 702 L353 728 L230 642 L106 728 L77 702 L196 562 L263 562 Z " />
<glyph glyph-name="breve" unicode="&#x2d8;" horiz-adv-x="460" d="M230 567 C306 567 356 624 364 711 L326 721 C307 667 278 651 229 651 C182 651 154 667 134 721 L96 711 C104 624 154 567 230 567 Z " />
<glyph glyph-name="dotaccent" unicode="&#x2d9;" horiz-adv-x="460" d="M230 584 C279 584 313 620 313 665 C313 710 278 747 230 747 C182 747 147 710 147 665 C147 620 182 584 230 584 Z " />
<glyph glyph-name="ring" unicode="&#x2da;" horiz-adv-x="460" d="M327 658 C327 717 283 755 230 755 C178 755 133 717 133 658 C133 600 178 563 230 563 C283 563 327 600 327 658 Z M172 658 C172 698 195 722 230 722 C265 722 288 698 288 658 C288 619 265 595 230 595 C195 595 172 619 172 658 Z " />
<glyph glyph-name="ogonek" unicode="&#x2db;" horiz-adv-x="460" d="M327 -216 L327 -176 C276 -172 241 -151 241 -111 C241 -65 262 -35 302 0 L254 0 C176 -30 128 -68 128 -124 C128 -190 210 -222 327 -216 Z " />
<glyph glyph-name="tilde" unicode="&#x2dc;" horiz-adv-x="460" d="M397 715 L364 725 C353 693 333 683 298 683 C257 683 215 708 169 708 C111 708 78 641 63 586 L97 576 C109 605 131 616 155 616 C194 616 243 592 287 592 C349 592 382 655 397 715 Z " />
<glyph glyph-name="hungarumlaut" unicode="&#x2dd;" horiz-adv-x="460" d="M188 774 C155 774 135 752 122 720 C107 685 87 631 62 568 L92 550 C146 603 169 629 195 656 C218 680 234 698 234 728 C234 753 217 774 188 774 Z M369 774 C336 774 317 752 303 720 L244 568 L274 550 C328 603 350 629 376 656 C399 680 415 698 415 728 C415 753 399 774 369 774 Z " />
<glyph glyph-name="endash" unicode="&#x2013;" horiz-adv-x="500" d="M460 286 L460 349 L40 349 L40 286 Z " />
<glyph glyph-name="emdash" unicode="&#x2014;" horiz-adv-x="930" d="M890 286 L890 349 L40 349 L40 286 Z " />
<glyph glyph-name="quoteleft" unicode="&#x2018;" horiz-adv-x="268" d="M50 512 C50 453 87 417 140 417 C185 417 216 450 216 491 C216 535 191 557 149 570 C136 574 132 581 132 592 C132 622 175 655 238 681 L225 712 C129 680 50 613 50 512 Z " />
<glyph glyph-name="quoteright" unicode="&#x2019;" horiz-adv-x="268" d="M226 617 C226 677 189 712 135 712 C91 712 59 680 59 638 C59 594 85 573 126 560 C139 556 144 549 144 537 C144 507 101 474 37 448 L50 417 C146 449 226 516 226 617 Z " />
<glyph glyph-name="quotesinglbase" unicode="&#x201a;" horiz-adv-x="276" d="M223 39 C223 98 187 134 133 134 C89 134 57 101 57 60 C57 16 83 -6 124 -19 C137 -23 141 -30 141 -41 C141 -71 99 -105 35 -130 L48 -162 C144 -130 223 -62 223 39 Z " />
<glyph glyph-name="quotedblleft" unicode="&#x201c;" horiz-adv-x="483" d="M265 512 C265 453 301 417 355 417 C400 417 431 450 431 491 C431 535 406 557 364 570 C351 574 347 581 347 592 C347 622 390 655 453 681 L440 712 C344 680 265 613 265 512 Z M50 512 C50 453 87 417 140 417 C185 417 216 450 216 491 C216 535 191 557 149 570 C136 574 132 581 132 592 C132 622 175 655 238 681 L225 712 C129 680 50 613 50 512 Z " />
<glyph glyph-name="quotedblright" unicode="&#x201d;" horiz-adv-x="483" d="M441 617 C441 677 404 712 350 712 C306 712 274 680 274 638 C274 594 300 573 341 560 C354 556 359 549 359 537 C359 507 316 474 252 448 L265 417 C361 449 441 516 441 617 Z M226 617 C226 677 189 712 135 712 C91 712 59 680 59 638 C59 594 85 573 126 560 C139 556 144 549 144 537 C144 507 101 474 37 448 L50 417 C146 449 226 516 226 617 Z " />
<glyph glyph-name="quotedblbase" unicode="&#x201e;" horiz-adv-x="485" d="M432 38 C432 98 396 134 342 134 C297 134 266 101 266 59 C266 15 291 -6 333 -19 C346 -23 350 -30 350 -42 C350 -72 307 -105 244 -131 L257 -162 C353 -130 432 -63 432 38 Z M223 38 C223 98 187 134 133 134 C89 134 57 101 57 59 C57 15 83 -6 124 -19 C137 -23 141 -30 141 -42 C141 -72 99 -105 35 -131 L48 -162 C144 -130 223 -63 223 38 Z " />
<glyph glyph-name="dagger" unicode="&#x2020;" horiz-adv-x="521" d="M285 -162 L338 381 L290 448 C321 437 352 429 398 429 C445 429 497 460 497 524 C497 557 477 584 440 584 C407 584 388 562 388 534 C388 524 392 515 396 508 C400 501 407 494 407 486 C407 479 401 474 385 474 C351 474 331 480 293 491 C295 555 324 584 324 652 C324 685 297 713 260 713 C223 713 196 685 196 652 C196 584 224 555 227 491 C190 480 170 474 137 474 C121 474 115 479 115 486 C115 494 122 501 126 508 C130 515 134 524 134 534 C134 562 115 584 82 584 C45 584 25 557 25 524 C25 460 77 429 123 429 C169 429 200 437 231 448 L183 381 L236 -162 Z " />
<glyph glyph-name="daggerdbl" unicode="&#x2021;" horiz-adv-x="527" d="M287 298 L341 403 L293 457 C324 447 355 438 401 438 C447 438 499 470 499 534 C499 567 479 594 442 594 C409 594 390 572 390 544 C390 534 394 525 398 518 C402 511 409 504 409 496 C409 489 403 484 387 484 C354 484 333 490 296 501 C298 559 327 584 327 652 C327 685 300 713 263 713 C226 713 199 685 199 652 C199 584 227 559 230 501 C192 490 173 484 140 484 C124 484 118 489 118 496 C118 504 125 511 129 518 C133 525 137 534 137 544 C137 572 118 594 84 594 C47 594 28 567 28 534 C28 470 79 438 126 438 C172 438 203 447 234 457 L185 403 L238 298 Z M287 253 L238 253 L185 148 L234 94 C203 104 172 113 126 113 C79 113 28 81 28 17 C28 -16 47 -43 84 -43 C118 -43 137 -21 137 7 C137 17 133 26 129 33 C125 40 118 47 118 55 C118 62 124 67 140 67 C173 67 192 61 230 50 C227 -8 199 -33 199 -101 C199 -134 226 -162 263 -162 C300 -162 327 -134 327 -101 C327 -33 298 -8 296 50 C333 61 354 67 387 67 C403 67 409 62 409 55 C409 47 402 40 398 33 C394 26 390 17 390 7 C390 -21 409 -43 442 -43 C479 -43 499 -16 499 17 C499 81 447 113 401 113 C355 113 324 104 293 94 L341 148 Z " />
<glyph glyph-name="bullet" unicode="&#x2022;" horiz-adv-x="436" d="M218 455 C148 455 88 396 88 325 C88 254 148 196 218 196 C289 196 349 254 349 325 C349 396 290 455 218 455 Z " />
<glyph glyph-name="ellipsis" unicode="&#x2026;" horiz-adv-x="960" d="M165 -13 C216 -13 250 24 250 71 C250 116 216 155 165 155 C113 155 80 116 80 71 C80 24 113 -13 165 -13 Z M480 -13 C531 -13 565 24 565 71 C565 116 531 155 480 155 C428 155 395 116 395 71 C395 24 428 -13 480 -13 Z M795 -13 C846 -13 880 24 880 71 C880 116 846 155 795 155 C743 155 710 116 710 71 C710 24 743 -13 795 -13 Z " />
<glyph glyph-name="perthousand" unicode="&#x2030;" horiz-adv-x="1183" d="M629 671 L591 694 L179 8 L217 -16 Z M368 508 C368 618 294 691 204 691 C115 691 41 618 41 508 C41 397 115 324 204 324 C294 324 368 397 368 508 Z M204 663 C245 663 265 626 265 508 C265 389 245 352 204 352 C164 352 144 390 144 508 C144 625 164 663 204 663 Z M985 354 C895 354 820 281 820 170 C820 60 895 -13 985 -13 C1074 -13 1148 60 1148 170 C1148 281 1074 354 985 354 Z M605 354 C515 354 440 281 440 170 C440 60 515 -13 605 -13 C694 -13 768 60 768 170 C768 281 694 354 605 354 Z M1044 170 C1044 53 1024 15 985 15 C944 15 924 52 924 170 C924 289 944 326 985 326 C1024 326 1044 288 1044 170 Z M664 170 C664 53 644 15 605 15 C564 15 544 52 544 170 C544 289 564 326 605 326 C644 326 664 288 664 170 Z " />
<glyph glyph-name="guilsinglleft" unicode="&#x2039;" horiz-adv-x="254" d="M28 279 L28 243 L201 104 L230 131 L129 261 L230 391 L201 418 Z " />
<glyph glyph-name="guilsinglright" unicode="&#x203a;" horiz-adv-x="254" d="M226 279 L54 418 L25 391 L126 261 L24 131 L54 104 L226 243 Z " />
<glyph glyph-name="fraction" unicode="&#x2044;" horiz-adv-x="322" d="M426 701 L384 728 L-104 -4 L-63 -31 Z " />
<glyph glyph-name="Euro" unicode="&#x20ac;" horiz-adv-x="632" d="M615 215 L572 225 C541 90 491 40 413 40 C320 40 276 114 264 250 L383 250 L383 292 L261 292 C260 307 260 323 260 339 C260 355 260 370 261 385 L430 385 L430 427 L263 427 C276 586 327 654 400 654 C452 654 480 639 480 604 C480 594 478 587 474 570 C471 558 469 549 469 537 C469 497 492 465 538 465 C579 465 609 494 609 540 C609 625 536 691 400 691 C236 691 134 572 105 427 L20 427 L20 385 L98 385 C97 370 96 354 96 339 C96 323 97 307 98 292 L20 292 L20 250 L103 250 C132 83 241 -13 376 -13 C532 -13 589 85 615 215 Z " />
<glyph glyph-name="trademark" unicode="&#x2122;" horiz-adv-x="822" d="M338 756 L37 756 L25 644 L53 644 C58 660 68 690 87 709 C102 724 115 731 128 731 L146 731 L146 553 C146 530 144 518 141 508 C139 501 134 495 123 491 C117 489 107 488 97 487 L97 459 L279 459 L279 487 C269 488 260 489 253 491 C241 495 236 501 233 508 C230 518 229 530 229 553 L229 731 L248 731 C264 731 274 726 290 709 C312 685 318 660 322 644 L350 644 Z M800 459 L800 488 C790 488 784 490 778 492 C767 495 763 500 760 507 C756 516 755 528 755 554 L755 656 C755 685 756 699 760 708 C763 716 767 721 777 724 C783 726 790 727 800 728 L800 756 L642 756 L590 570 L584 570 L532 756 L372 756 L372 728 C380 727 388 726 395 723 C406 718 409 714 412 706 C415 698 417 685 417 657 L417 557 C417 529 416 515 412 507 C409 500 406 495 395 491 C388 489 381 488 371 488 L371 459 L494 459 L494 488 C484 488 477 489 471 491 C460 495 456 499 453 507 C450 515 448 529 448 557 L448 710 L456 710 L529 457 L590 457 L663 709 L671 709 L671 554 C671 528 669 516 666 507 C664 500 656 495 644 491 C637 489 631 489 621 488 L621 459 Z " />
<glyph glyph-name="minus" unicode="&#x2212;" horiz-adv-x="474" d="M436 280 L436 328 L38 328 L38 280 Z " />
<glyph glyph-name="Dcroat" unicode="&#x110;" horiz-adv-x="776" d="M28 330 L127 330 L127 191 C127 140 124 113 116 92 C105 63 90 52 66 45 C55 41 43 39 28 38 L28 0 L393 0 C461 0 531 20 574 44 C672 98 740 195 740 350 C740 510 664 605 568 656 C523 679 457 698 369 698 L28 698 L28 660 C43 659 55 657 66 654 C90 646 105 635 116 606 C124 585 127 559 127 507 L127 373 L28 373 Z M575 348 C575 214 548 140 503 91 C470 55 426 41 386 41 L374 41 C344 41 320 46 307 62 C292 79 288 111 288 150 L288 330 L435 330 L435 373 L288 373 L288 632 C288 641 290 647 294 651 C299 656 306 657 314 657 L367 657 C408 657 464 647 497 613 C541 569 575 488 575 348 Z " />
<glyph glyph-name="Eng" unicode="&#x14a;" horiz-adv-x="781" d="M478 -202 C541 -202 582 -182 612 -153 C638 -128 668 -77 668 -12 L668 519 C668 581 673 601 685 619 C697 638 709 646 728 652 C741 656 751 658 768 660 L768 698 L512 698 L512 660 C527 658 541 656 553 652 C569 648 585 639 597 621 C610 602 615 581 615 519 L615 277 L606 277 L301 698 L23 698 L23 660 C37 659 48 656 59 652 C87 638 104 623 118 595 C134 563 140 524 140 443 L140 178 C140 116 134 96 121 77 C109 59 94 50 78 45 C66 42 53 40 39 38 L39 0 L293 0 L293 38 C276 40 267 42 253 46 C234 52 222 59 210 79 C198 96 193 116 193 178 L193 549 L202 549 L615 -1 L615 -11 C615 -64 598 -102 571 -129 C552 -148 521 -158 492 -158 C478 -158 467 -152 463 -139 C460 -130 461 -118 461 -108 C464 -91 463 -74 459 -58 C454 -23 431 2 390 2 C355 2 315 -22 315 -77 C315 -115 332 -144 357 -166 C386 -192 431 -202 478 -202 Z " />
<glyph glyph-name="IJ" unicode="&#x132;" horiz-adv-x="925" d="M288 507 C288 559 291 585 299 606 C310 635 326 647 349 654 C360 657 372 659 387 660 L387 698 L28 698 L28 660 C43 659 55 657 66 654 C91 647 105 635 116 606 C124 585 127 559 127 507 L127 191 C127 140 124 113 116 92 C105 63 90 53 66 45 C55 41 43 39 28 38 L28 0 L387 0 L387 38 C372 39 360 41 349 45 C326 53 310 63 299 92 C291 113 288 140 288 191 Z M656 507 L656 173 C656 125 656 90 645 63 C634 38 617 29 595 29 C581 29 566 36 562 51 C559 60 561 77 565 96 C567 115 565 128 562 144 C557 179 534 202 493 202 C448 202 412 171 412 116 C412 78 431 48 456 26 C486 0 541 -15 583 -15 C651 -15 709 4 747 39 C782 72 816 130 816 234 L816 507 C816 559 819 585 828 606 C838 635 853 646 877 654 C888 657 901 659 916 660 L916 698 L557 698 L557 660 C572 659 584 657 596 654 C619 646 634 635 645 606 C653 585 656 559 656 507 Z " />
<glyph glyph-name="dcroat" unicode="&#x111;" horiz-adv-x="627" d="M243 595 L391 595 L391 478 L383 478 C365 500 337 522 273 522 C153 522 29 430 29 255 C29 83 133 -12 246 -12 C317 -12 371 21 393 72 L404 72 L404 30 C404 21 403 15 405 6 C407 2 410 0 416 0 L615 0 L615 35 C602 36 588 40 578 44 C564 51 555 63 549 80 C544 94 542 115 542 141 L542 595 L622 595 L622 640 L542 640 C542 684 545 725 546 747 C546 753 544 756 537 756 L311 756 L311 721 C327 720 346 716 357 710 C368 703 377 694 382 681 C386 671 389 657 390 640 L243 640 Z M391 156 C391 96 353 40 296 40 C237 40 188 95 188 255 C188 403 236 477 300 477 C328 477 351 468 368 446 C387 421 391 393 391 355 Z " />
<glyph glyph-name="eng" unicode="&#x14b;" horiz-adv-x="631" d="M420 -50 C420 -98 416 -120 405 -140 C394 -159 382 -168 360 -168 C343 -168 332 -161 332 -146 C332 -139 334 -133 337 -125 C341 -114 343 -107 343 -94 C343 -60 318 -36 274 -36 C235 -36 206 -61 206 -103 C206 -135 221 -161 250 -180 C277 -199 312 -204 351 -204 C423 -204 459 -178 482 -160 C523 -128 571 -75 571 48 L571 380 C571 428 556 461 528 486 C504 507 468 521 419 521 C374 521 340 508 308 487 C283 471 264 451 248 426 L236 426 C237 442 238 491 239 499 C239 506 237 509 230 509 L21 509 L21 473 C37 470 54 465 65 458 C75 452 83 443 89 430 C93 417 94 391 94 367 L94 143 C94 116 93 95 89 81 C83 63 74 52 59 44 C50 40 35 36 23 35 L23 0 L307 0 L307 35 C296 36 284 39 276 43 C260 52 253 63 249 84 C246 99 245 120 245 143 L245 311 C245 348 255 382 270 404 C290 432 321 447 354 447 C377 447 391 443 402 433 C414 421 420 403 420 374 Z " />
<glyph glyph-name="ij" unicode="&#x133;" horiz-adv-x="616" d="M398 -50 C398 -98 394 -120 383 -140 C373 -159 360 -168 339 -168 C321 -168 310 -161 310 -146 C310 -139 312 -133 315 -125 C319 -114 321 -107 321 -94 C321 -60 296 -36 253 -36 C213 -36 184 -61 184 -103 C184 -135 199 -161 228 -180 C255 -199 290 -204 329 -204 C401 -204 437 -178 460 -160 C501 -128 549 -75 549 48 L549 408 L552 500 C552 506 550 509 544 509 L324 509 L324 473 C341 470 356 465 369 458 C378 453 387 443 392 430 C397 417 398 391 398 368 Z M244 407 C244 450 246 476 247 499 C247 506 245 509 239 509 L21 509 L21 473 C37 470 52 465 64 458 C75 452 83 444 88 430 C93 417 93 391 93 367 L93 143 C93 116 92 95 88 81 C82 63 73 52 58 44 C49 40 35 36 23 35 L23 0 L316 0 L316 35 C304 36 289 40 281 44 C265 52 257 63 251 81 C246 95 244 116 244 143 Z M474 584 C524 584 560 621 560 668 C560 714 524 752 474 752 C424 752 388 714 388 668 C388 621 424 584 474 584 Z M172 584 C222 584 257 621 257 668 C257 714 221 752 172 752 C122 752 86 714 86 668 C86 621 122 584 172 584 Z " />
<glyph glyph-name="Abreve" unicode="&#x102;" horiz-adv-x="722" d="M289 499 L300 499 L384 260 L204 260 Z M237 38 C220 39 204 42 192 47 C172 56 158 71 158 101 C158 124 166 152 176 180 L189 216 L399 216 L409 188 C423 148 434 120 434 94 C434 61 418 54 397 46 C386 42 373 40 355 38 L355 0 L717 0 L717 38 C705 40 694 44 682 49 C663 59 648 71 634 91 C620 113 604 146 590 184 L406 702 L316 702 L125 187 C108 143 96 112 84 92 C71 72 60 61 44 52 C30 44 16 40 -2 38 L-2 0 L237 0 Z M361 753 C437 753 490 805 500 891 L463 901 C443 853 409 835 360 835 C313 835 279 853 259 901 L222 891 C233 805 285 753 361 753 Z " />
<glyph glyph-name="Amacron" unicode="&#x100;" horiz-adv-x="722" d="M289 499 L300 499 L384 260 L204 260 Z M237 38 C220 39 204 42 192 47 C172 56 158 71 158 101 C158 124 166 152 176 180 L189 216 L399 216 L409 188 C423 148 434 120 434 94 C434 61 418 54 397 46 C386 42 373 40 355 38 L355 0 L717 0 L717 38 C705 40 694 44 682 49 C663 59 648 71 634 91 C620 113 604 146 590 184 L406 702 L316 702 L125 187 C108 143 96 112 84 92 C71 72 60 61 44 52 C30 44 16 40 -2 38 L-2 0 L237 0 Z M495 776 L495 842 L228 842 L228 776 Z " />
<glyph glyph-name="Aogonek" unicode="&#x104;" horiz-adv-x="722" d="M449 77 C454 63 459 44 459 32 C459 4 440 -14 414 -29 C372 -54 348 -85 348 -124 C348 -190 431 -222 548 -216 L548 -176 C493 -171 461 -151 461 -108 C461 -74 469 -43 495 -22 C512 -8 537 0 566 0 L717 0 L717 38 C705 40 694 44 682 49 C663 59 648 71 634 91 C620 113 604 146 590 184 L406 702 L316 702 L125 187 C108 143 96 112 84 92 C71 72 60 61 44 52 C30 44 16 40 -2 38 L-2 0 L237 0 L237 38 C220 39 204 42 192 47 C172 56 158 71 158 101 C158 124 166 152 176 180 L190 216 L399 216 Z M289 499 L300 499 L384 260 L205 260 Z " />
<glyph glyph-name="Aringacute" unicode="&#x1fa;" horiz-adv-x="722" d="M289 499 L300 499 L384 260 L204 260 Z M237 38 C220 39 204 42 192 47 C172 56 158 71 158 101 C158 124 166 152 176 180 L189 216 L399 216 L409 188 C423 148 434 120 434 94 C434 61 418 54 397 46 C386 42 373 40 355 38 L355 0 L717 0 L717 38 C705 40 694 44 682 49 C663 59 648 71 634 91 C620 113 604 146 590 184 L406 702 L316 702 L125 187 C108 143 96 112 84 92 C71 72 60 61 44 52 C30 44 16 40 -2 38 L-2 0 L237 0 Z M461 829 C461 885 418 922 367 922 C317 922 273 885 273 829 C273 774 317 737 367 737 C418 737 461 774 461 829 Z M312 829 C312 866 334 889 367 889 C401 889 423 866 423 829 C423 794 401 769 367 769 C334 769 312 794 312 829 Z M239 977 L250 945 C331 957 384 965 433 975 C464 982 505 997 505 1040 C505 1074 479 1098 449 1098 C416 1098 395 1082 358 1058 C317 1032 291 1014 239 977 Z " />
<glyph glyph-name="AEacute" unicode="&#x1fc;" horiz-adv-x="978" d="M218 38 C202 39 188 42 176 46 C155 54 142 66 142 95 C142 117 155 147 172 177 L219 259 L437 259 L437 191 C437 140 434 113 425 92 C415 63 399 52 376 45 C365 41 352 39 337 38 L337 0 L907 0 L948 230 L911 230 C888 185 861 133 813 91 C779 62 748 41 699 41 L682 41 C652 41 629 46 616 62 C601 79 598 108 598 147 L598 339 L630 339 C683 339 707 332 723 313 C749 284 755 257 759 221 L796 221 L796 499 L759 499 C755 464 750 438 724 409 C708 390 684 381 630 381 L598 381 L598 610 C598 626 599 636 606 645 C614 655 628 657 640 657 L669 657 C742 657 780 641 810 615 C850 580 868 546 891 494 L929 494 L893 698 L337 698 L337 660 C352 659 365 657 376 654 L392 648 L123 187 C96 140 76 111 61 93 C46 74 34 63 19 54 C4 46 -12 40 -30 38 L-30 0 L218 0 Z M437 623 L437 303 L244 303 L429 623 Z M532 787 L543 755 C624 767 677 775 726 785 C757 792 798 807 798 850 C798 884 772 908 742 908 C709 908 688 892 651 868 C610 842 584 824 532 787 Z " />
<glyph glyph-name="Cacute" unicode="&#x106;" horiz-adv-x="692" d="M388 669 C462 669 497 644 533 598 C560 565 584 518 599 455 L639 455 L639 697 L609 697 L580 642 L574 642 C543 678 485 712 382 712 C192 712 33 565 33 349 C33 138 163 -15 380 -15 C528 -15 614 71 655 189 L619 203 C575 92 498 43 412 43 C359 43 326 55 297 77 C252 111 204 168 204 349 C204 544 252 613 304 646 C328 662 360 669 388 669 Z M264 787 L275 755 C356 767 409 775 458 785 C489 792 530 807 530 850 C530 884 504 908 474 908 C441 908 420 892 383 868 C342 842 316 824 264 787 Z " />
<glyph glyph-name="Ccaron" unicode="&#x10c;" horiz-adv-x="692" d="M388 669 C462 669 497 644 533 598 C560 565 584 518 599 455 L639 455 L639 697 L609 697 L580 642 L574 642 C543 678 485 712 382 712 C192 712 33 565 33 349 C33 138 163 -15 380 -15 C528 -15 614 71 655 189 L619 203 C575 92 498 43 412 43 C359 43 326 55 297 77 C252 111 204 168 204 349 C204 544 252 613 304 646 C328 662 360 669 388 669 Z M529 863 L507 893 L379 834 L250 893 L229 863 L342 754 L415 754 Z " />
<glyph glyph-name="Ccircumflex" unicode="&#x108;" horiz-adv-x="692" d="M388 669 C462 669 497 644 533 598 C560 565 584 518 599 455 L639 455 L639 697 L609 697 L580 642 L574 642 C543 678 485 712 382 712 C192 712 33 565 33 349 C33 138 163 -15 380 -15 C528 -15 614 71 655 189 L619 203 C575 92 498 43 412 43 C359 43 326 55 297 77 C252 111 204 168 204 349 C204 544 252 613 304 646 C328 662 360 669 388 669 Z M529 783 L415 893 L342 893 L229 783 L250 754 L379 813 L507 754 Z " />
<glyph glyph-name="Cdotaccent" unicode="&#x10a;" horiz-adv-x="692" d="M388 669 C462 669 497 644 533 598 C560 565 584 518 599 455 L639 455 L639 697 L609 697 L580 642 L574 642 C543 678 485 712 382 712 C192 712 33 565 33 349 C33 138 163 -15 380 -15 C528 -15 614 71 655 189 L619 203 C575 92 498 43 412 43 C359 43 326 55 297 77 C252 111 204 168 204 349 C204 544 252 613 304 646 C328 662 360 669 388 669 Z M383 748 C432 748 467 784 467 829 C467 875 432 912 383 912 C335 912 299 875 299 829 C299 784 334 748 383 748 Z " />
<glyph glyph-name="Dcaron" unicode="&#x10e;" horiz-adv-x="776" d="M28 698 L28 660 C43 659 55 657 66 654 C90 646 105 635 116 606 C124 585 127 559 127 507 L127 191 C127 140 124 113 116 92 C105 63 90 52 66 45 C55 41 43 39 28 38 L28 0 L393 0 C461 0 531 20 574 44 C672 98 740 195 740 350 C740 510 664 605 568 656 C523 679 457 698 369 698 Z M575 348 C575 214 548 140 503 91 C470 55 426 41 386 41 L374 41 C344 41 320 46 307 62 C292 79 288 111 288 150 L288 632 C288 641 290 647 294 651 C299 656 306 657 314 657 L367 657 C408 657 464 647 497 613 C541 569 575 488 575 348 Z M509 863 L487 893 L359 834 L230 893 L209 863 L322 754 L395 754 Z " />
<glyph glyph-name="Ebreve" unicode="&#x114;" horiz-adv-x="678" d="M648 230 L611 230 C588 185 561 133 513 91 C479 62 449 41 389 41 L372 41 C342 41 319 46 306 62 C291 79 288 108 288 147 L288 339 L320 339 C373 339 397 332 413 313 C439 284 445 257 449 221 L486 221 L486 499 L449 499 C445 464 440 438 414 409 C398 390 374 381 320 381 L288 381 L288 610 C288 626 289 636 296 645 C304 655 318 657 330 657 L369 657 C442 657 480 641 510 615 C550 580 568 546 591 494 L629 494 L593 698 L28 698 L28 660 C43 659 55 657 66 654 C90 646 105 635 116 606 C124 585 127 559 127 507 L127 191 C127 140 124 113 116 92 C105 63 90 52 66 45 C55 41 43 39 28 38 L28 0 L607 0 Z M350 753 C426 753 479 805 489 891 L452 901 C432 853 398 835 349 835 C302 835 268 853 248 901 L211 891 C222 805 274 753 350 753 Z " />
<glyph glyph-name="Ecaron" unicode="&#x11a;" horiz-adv-x="678" d="M648 230 L611 230 C588 185 561 133 513 91 C479 62 449 41 389 41 L372 41 C342 41 319 46 306 62 C291 79 288 108 288 147 L288 339 L320 339 C373 339 397 332 413 313 C439 284 445 257 449 221 L486 221 L486 499 L449 499 C445 464 440 438 414 409 C398 390 374 381 320 381 L288 381 L288 610 C288 626 289 636 296 645 C304 655 318 657 330 657 L369 657 C442 657 480 641 510 615 C550 580 568 546 591 494 L629 494 L593 698 L28 698 L28 660 C43 659 55 657 66 654 C90 646 105 635 116 606 C124 585 127 559 127 507 L127 191 C127 140 124 113 116 92 C105 63 90 52 66 45 C55 41 43 39 28 38 L28 0 L607 0 Z M491 863 L469 893 L341 834 L212 893 L191 863 L304 754 L377 754 Z " />
<glyph glyph-name="Edotaccent" unicode="&#x116;" horiz-adv-x="678" d="M648 230 L611 230 C588 185 561 133 513 91 C479 62 449 41 389 41 L372 41 C342 41 319 46 306 62 C291 79 288 108 288 147 L288 339 L320 339 C373 339 397 332 413 313 C439 284 445 257 449 221 L486 221 L486 499 L449 499 C445 464 440 438 414 409 C398 390 374 381 320 381 L288 381 L288 610 C288 626 289 636 296 645 C304 655 318 657 330 657 L369 657 C442 657 480 641 510 615 C550 580 568 546 591 494 L629 494 L593 698 L28 698 L28 660 C43 659 55 657 66 654 C90 646 105 635 116 606 C124 585 127 559 127 507 L127 191 C127 140 124 113 116 92 C105 63 90 52 66 45 C55 41 43 39 28 38 L28 0 L607 0 Z M348 748 C397 748 432 784 432 829 C432 875 397 912 348 912 C300 912 264 875 264 829 C264 784 299 748 348 748 Z " />
<glyph glyph-name="Emacron" unicode="&#x112;" horiz-adv-x="678" d="M648 230 L611 230 C588 185 561 133 513 91 C479 62 449 41 389 41 L372 41 C342 41 319 46 306 62 C291 79 288 108 288 147 L288 339 L320 339 C373 339 397 332 413 313 C439 284 445 257 449 221 L486 221 L486 499 L449 499 C445 464 440 438 414 409 C398 390 374 381 320 381 L288 381 L288 610 C288 626 289 636 296 645 C304 655 318 657 330 657 L369 657 C442 657 480 641 510 615 C550 580 568 546 591 494 L629 494 L593 698 L28 698 L28 660 C43 659 55 657 66 654 C90 646 105 635 116 606 C124 585 127 559 127 507 L127 191 C127 140 124 113 116 92 C105 63 90 52 66 45 C55 41 43 39 28 38 L28 0 L607 0 Z M483 776 L483 842 L216 842 L216 776 Z " />
<glyph glyph-name="Eogonek" unicode="&#x118;" horiz-adv-x="678" d="M489 0 C411 -30 362 -68 362 -124 C362 -190 445 -222 562 -216 L562 -176 C511 -172 476 -151 476 -111 C476 -65 497 -35 537 0 L607 0 L648 230 L611 230 C588 185 561 133 513 91 C479 62 449 41 389 41 L372 41 C342 41 319 46 306 62 C291 79 288 108 288 147 L288 339 L320 339 C373 339 397 332 413 313 C439 284 445 257 449 221 L486 221 L486 499 L449 499 C445 464 440 438 414 409 C398 390 374 381 320 381 L288 381 L288 610 C288 626 289 636 296 645 C304 655 318 657 330 657 L369 657 C442 657 480 641 510 615 C550 580 568 546 591 494 L629 494 L593 698 L28 698 L28 660 C43 659 55 657 66 654 C90 646 105 635 116 606 C124 585 127 559 127 507 L127 191 C127 140 124 113 116 92 C105 63 90 52 66 45 C55 41 43 39 28 38 L28 0 Z " />
<glyph glyph-name="Gbreve" unicode="&#x11e;" horiz-adv-x="764" d="M502 174 L502 137 C502 94 495 70 484 58 C469 41 447 28 390 28 C350 28 324 38 298 54 C243 88 207 157 207 349 C207 543 257 609 304 642 C332 661 363 670 393 670 C471 669 503 649 542 603 C576 562 594 514 610 442 L647 442 L647 689 L617 689 L592 641 L585 641 C561 669 504 712 393 712 C203 712 34 565 34 349 C34 134 181 -15 390 -15 C451 -15 519 0 558 9 C604 21 632 34 652 43 L652 146 C652 193 653 232 663 252 C674 276 686 283 710 291 C720 294 732 295 746 296 L746 334 L407 334 L407 296 C423 296 435 294 446 291 C469 282 479 277 489 254 C500 233 502 212 502 174 Z M405 753 C481 753 534 805 544 891 L507 901 C487 853 453 835 404 835 C357 835 323 853 303 901 L266 891 C277 805 329 753 405 753 Z " />
<glyph glyph-name="Gcircumflex" unicode="&#x11c;" horiz-adv-x="764" d="M502 174 L502 137 C502 94 495 70 484 58 C469 41 447 28 390 28 C350 28 324 38 298 54 C243 88 207 157 207 349 C207 543 257 609 304 642 C332 661 363 670 393 670 C471 669 503 649 542 603 C576 562 594 514 610 442 L647 442 L647 689 L617 689 L592 641 L585 641 C561 669 504 712 393 712 C203 712 34 565 34 349 C34 134 181 -15 390 -15 C451 -15 519 0 558 9 C604 21 632 34 652 43 L652 146 C652 193 653 232 663 252 C674 276 686 283 710 291 C720 294 732 295 746 296 L746 334 L407 334 L407 296 C423 296 435 294 446 291 C469 282 479 277 489 254 C500 233 502 212 502 174 Z M556 783 L442 893 L369 893 L256 783 L277 754 L406 813 L534 754 Z " />
<glyph glyph-name="uni0122" unicode="&#x122;" horiz-adv-x="764" d="M502 174 L502 137 C502 94 495 70 484 58 C469 41 447 28 390 28 C350 28 324 38 298 54 C243 88 207 157 207 349 C207 543 257 609 304 642 C332 661 363 670 393 670 C471 669 503 649 542 603 C576 562 594 514 610 442 L647 442 L647 689 L617 689 L592 641 L585 641 C561 669 504 712 393 712 C203 712 34 565 34 349 C34 134 181 -15 390 -15 C451 -15 519 0 558 9 C604 21 632 34 652 43 L652 146 C652 193 653 232 663 252 C674 276 686 283 710 291 C720 294 732 295 746 296 L746 334 L407 334 L407 296 C423 296 435 294 446 291 C469 282 479 277 489 254 C500 233 502 212 502 174 Z M464 -129 C464 -79 435 -49 388 -49 C347 -49 323 -80 323 -112 C323 -148 345 -167 381 -178 C389 -181 393 -184 393 -192 C393 -218 354 -237 306 -256 L319 -289 C401 -260 464 -207 464 -129 Z " />
<glyph glyph-name="Gdotaccent" unicode="&#x120;" horiz-adv-x="764" d="M502 174 L502 137 C502 94 495 70 484 58 C469 41 447 28 390 28 C350 28 324 38 298 54 C243 88 207 157 207 349 C207 543 257 609 304 642 C332 661 363 670 393 670 C471 669 503 649 542 603 C576 562 594 514 610 442 L647 442 L647 689 L617 689 L592 641 L585 641 C561 669 504 712 393 712 C203 712 34 565 34 349 C34 134 181 -15 390 -15 C451 -15 519 0 558 9 C604 21 632 34 652 43 L652 146 C652 193 653 232 663 252 C674 276 686 283 710 291 C720 294 732 295 746 296 L746 334 L407 334 L407 296 C423 296 435 294 446 291 C469 282 479 277 489 254 C500 233 502 212 502 174 Z M409 748 C458 748 493 784 493 829 C493 875 458 912 409 912 C361 912 325 875 325 829 C325 784 360 748 409 748 Z " />
<glyph glyph-name="Hbar" unicode="&#x126;" horiz-adv-x="840" d="M22 471 L130 471 L130 191 C130 140 127 113 119 92 C108 63 93 52 69 45 C58 41 46 39 31 38 L31 0 L384 0 L384 38 C371 39 359 41 347 46 C324 55 312 67 302 91 C294 112 291 135 291 187 L291 333 L550 333 L550 187 C550 135 547 112 539 91 C529 67 517 55 494 46 C483 41 471 39 458 38 L458 0 L811 0 L811 38 C796 39 784 41 772 45 C749 52 733 63 723 92 C714 113 711 140 711 191 L711 471 L818 471 L818 514 L711 514 C711 561 714 586 723 606 C733 635 749 646 772 654 C784 658 796 659 811 660 L811 698 L458 698 L458 660 C472 659 483 657 494 653 C517 643 529 632 539 608 C547 586 550 563 550 514 L291 514 C291 563 294 586 302 608 C312 632 325 643 347 653 C358 657 370 659 384 660 L384 698 L31 698 L31 660 C46 659 57 658 69 654 C93 647 108 635 119 606 C126 586 129 561 130 514 L22 514 Z M291 377 L291 471 L550 471 L550 377 Z " />
<glyph glyph-name="Hcircumflex" unicode="&#x124;" horiz-adv-x="835" d="M381 38 C368 39 356 41 344 46 C321 55 309 67 299 91 C291 112 288 135 288 187 L288 333 L547 333 L547 187 C547 135 544 112 536 91 C526 67 514 55 491 46 C480 41 468 39 455 38 L455 0 L808 0 L808 38 C793 39 781 41 769 45 C746 52 730 63 720 92 C711 113 708 140 708 191 L708 507 C708 559 711 585 720 606 C730 635 746 646 769 654 C781 658 793 659 808 660 L808 698 L455 698 L455 660 C469 659 480 657 491 653 C514 643 526 632 536 608 C544 586 547 563 547 511 L547 377 L288 377 L288 511 C288 563 291 586 299 608 C309 632 322 643 344 653 C355 657 367 659 381 660 L381 698 L28 698 L28 660 C43 659 54 658 66 654 C90 647 105 635 116 606 C124 585 127 559 127 507 L127 191 C127 140 124 113 116 92 C105 63 90 52 66 45 C55 41 43 39 28 38 L28 0 L381 0 Z M567 783 L453 893 L380 893 L267 783 L288 754 L417 813 L545 754 Z " />
<glyph glyph-name="Ibreve" unicode="&#x12c;" horiz-adv-x="415" d="M288 507 C288 559 291 585 299 606 C310 635 326 647 349 654 C360 657 372 659 387 660 L387 698 L28 698 L28 660 C43 659 55 657 66 654 C91 647 105 635 116 606 C124 585 127 559 127 507 L127 191 C127 140 124 113 116 92 C105 63 90 53 66 45 C55 41 43 39 28 38 L28 0 L387 0 L387 38 C372 39 360 41 349 45 C326 53 310 63 299 92 C291 113 288 140 288 191 Z M208 753 C284 753 337 805 347 891 L310 901 C290 853 256 835 207 835 C160 835 126 853 106 901 L69 891 C80 805 132 753 208 753 Z " />
<glyph glyph-name="Idotaccent" unicode="&#x130;" horiz-adv-x="415" d="M288 507 C288 559 291 585 299 606 C310 635 326 647 349 654 C360 657 372 659 387 660 L387 698 L28 698 L28 660 C43 659 55 657 66 654 C91 647 105 635 116 606 C124 585 127 559 127 507 L127 191 C127 140 124 113 116 92 C105 63 90 53 66 45 C55 41 43 39 28 38 L28 0 L387 0 L387 38 C372 39 360 41 349 45 C326 53 310 63 299 92 C291 113 288 140 288 191 Z M208 748 C257 748 292 784 292 829 C292 875 257 912 208 912 C160 912 124 875 124 829 C124 784 159 748 208 748 Z " />
<glyph glyph-name="Imacron" unicode="&#x12a;" horiz-adv-x="415" d="M288 507 C288 559 291 585 299 606 C310 635 326 647 349 654 C360 657 372 659 387 660 L387 698 L28 698 L28 660 C43 659 55 657 66 654 C91 647 105 635 116 606 C124 585 127 559 127 507 L127 191 C127 140 124 113 116 92 C105 63 90 53 66 45 C55 41 43 39 28 38 L28 0 L387 0 L387 38 C372 39 360 41 349 45 C326 53 310 63 299 92 C291 113 288 140 288 191 Z M342 776 L342 842 L75 842 L75 776 Z " />
<glyph glyph-name="Iogonek" unicode="&#x12e;" horiz-adv-x="415" d="M244 0 C167 -30 118 -68 118 -124 C118 -190 201 -222 318 -216 L318 -176 C267 -172 231 -151 231 -111 C231 -65 253 -35 293 0 L387 0 L387 38 C372 39 360 41 349 45 C326 53 310 63 299 92 C291 113 288 140 288 191 L288 507 C288 559 291 585 299 606 C310 635 326 647 349 654 C360 657 372 659 387 660 L387 698 L28 698 L28 660 C43 659 55 657 66 654 C91 647 105 635 116 606 C124 585 127 559 127 507 L127 191 C127 140 124 113 116 92 C105 63 90 53 66 45 C55 41 43 39 28 38 L28 0 Z " />
<glyph glyph-name="Itilde" unicode="&#x128;" horiz-adv-x="415" d="M288 507 C288 559 291 585 299 606 C310 635 326 647 349 654 C360 657 372 659 387 660 L387 698 L28 698 L28 660 C43 659 55 657 66 654 C91 647 105 635 116 606 C124 585 127 559 127 507 L127 191 C127 140 124 113 116 92 C105 63 90 53 66 45 C55 41 43 39 28 38 L28 0 L387 0 L387 38 C372 39 360 41 349 45 C326 53 310 63 299 92 C291 113 288 140 288 191 Z M382 881 L348 891 C338 859 322 849 287 849 C246 849 200 874 154 874 C96 874 62 807 48 752 L81 742 C93 771 115 782 140 782 C179 782 227 758 272 758 C334 758 367 821 382 881 Z " />
<glyph glyph-name="Jcircumflex" unicode="&#x134;" horiz-adv-x="510" d="M241 507 L241 173 C241 125 241 90 230 63 C219 38 202 29 180 29 C166 29 151 36 147 51 C144 60 146 77 150 96 C152 115 150 128 147 144 C142 179 119 202 78 202 C33 202 -3 171 -3 116 C-3 78 16 48 41 26 C71 0 126 -15 168 -15 C236 -15 294 4 332 39 C367 72 401 130 401 234 L401 507 C401 559 404 585 413 606 C423 635 438 646 462 654 C473 657 486 659 501 660 L501 698 L142 698 L142 660 C157 659 169 657 181 654 C204 646 219 635 230 606 C238 585 241 559 241 507 Z M472 783 L358 893 L285 893 L172 783 L193 754 L322 813 L450 754 Z " />
<glyph glyph-name="uni0136" unicode="&#x136;" horiz-adv-x="762" d="M386 38 C371 39 358 41 346 45 C323 52 308 63 297 92 C289 113 286 140 286 191 L286 305 C290 311 305 326 309 330 C325 345 344 358 365 358 C402 358 419 344 434 315 C455 278 459 226 465 155 C471 84 496 21 516 0 L750 0 L750 38 C735 40 706 49 691 59 C668 76 649 93 636 185 C628 251 601 310 562 348 C527 382 483 400 398 404 L398 411 L525 535 C576 588 599 609 629 628 C654 643 690 656 713 660 L713 698 L446 698 L446 660 C461 659 476 657 486 653 C502 646 513 638 513 616 C513 588 491 566 446 520 L286 360 L286 507 C286 559 289 585 297 606 C308 635 323 646 346 654 C358 657 371 659 386 660 L386 698 L25 698 L25 660 C40 659 53 657 64 654 C87 646 103 635 113 606 C121 585 125 559 125 507 L125 191 C125 140 121 113 113 92 C103 63 87 52 64 45 C53 41 40 39 25 38 L25 0 L386 0 Z M516 -124 C516 -74 487 -44 440 -44 C399 -44 375 -75 375 -107 C375 -143 397 -162 433 -173 C441 -176 445 -179 445 -187 C445 -213 406 -232 358 -251 L371 -284 C453 -255 516 -202 516 -124 Z " />
<glyph glyph-name="Lacute" unicode="&#x139;" horiz-adv-x="656" d="M28 0 L605 0 L643 239 L605 239 C581 185 556 140 506 91 C474 59 446 41 386 41 L371 41 C341 41 319 46 306 62 C291 79 287 108 287 147 L287 508 C287 559 290 585 298 606 C309 635 325 646 348 654 C359 657 371 659 386 660 L386 698 L28 698 L28 660 C43 659 55 657 66 654 C90 646 105 635 116 606 C124 585 127 559 127 507 L127 191 C127 140 124 113 116 92 C105 63 90 52 66 45 C55 41 43 39 28 38 Z M94 787 L105 755 C186 767 239 775 288 785 C319 792 360 807 360 850 C360 884 334 908 304 908 C271 908 250 892 213 868 C172 842 146 824 94 787 Z " />
<glyph glyph-name="Lcaron" unicode="&#x13d;" horiz-adv-x="656" d="M28 0 L605 0 L643 239 L605 239 C581 185 556 140 506 91 C474 59 446 41 386 41 L371 41 C341 41 319 46 306 62 C291 79 287 108 287 147 L287 508 C287 559 290 585 298 606 C309 635 325 646 348 654 C359 657 371 659 386 660 L386 698 L28 698 L28 660 C43 659 55 657 66 654 C90 646 105 635 116 606 C124 585 127 559 127 507 L127 191 C127 140 124 113 116 92 C105 63 90 52 66 45 C55 41 43 39 28 38 Z M450 504 L490 504 C521 573 552 645 583 718 L476 718 Z " />
<glyph glyph-name="uni013B" unicode="&#x13b;" horiz-adv-x="656" d="M28 0 L605 0 L643 239 L605 239 C581 185 556 140 506 91 C474 59 446 41 386 41 L371 41 C341 41 319 46 306 62 C291 79 287 108 287 147 L287 508 C287 559 290 585 298 606 C309 635 325 646 348 654 C359 657 371 659 386 660 L386 698 L28 698 L28 660 C43 659 55 657 66 654 C90 646 105 635 116 606 C124 585 127 559 127 507 L127 191 C127 140 124 113 116 92 C105 63 90 52 66 45 C55 41 43 39 28 38 Z M407 -124 C407 -74 378 -44 331 -44 C290 -44 266 -75 266 -107 C266 -143 288 -162 324 -173 C332 -176 336 -179 336 -187 C336 -213 297 -232 249 -251 L262 -284 C344 -255 407 -202 407 -124 Z " />
<glyph glyph-name="Ldot" unicode="&#x13f;" horiz-adv-x="656" d="M576 377 C576 419 545 451 501 451 C457 451 426 419 426 377 C426 336 457 303 501 303 C545 303 576 336 576 377 Z M28 0 L605 0 L643 239 L605 239 C581 185 556 140 506 91 C474 59 446 41 386 41 L371 41 C341 41 319 46 306 62 C291 79 287 108 287 147 L287 508 C287 559 290 585 298 606 C309 635 325 646 348 654 C359 657 371 659 386 660 L386 698 L28 698 L28 660 C43 659 55 657 66 654 C90 646 105 635 116 606 C124 585 127 559 127 507 L127 191 C127 140 124 113 116 92 C105 63 90 52 66 45 C55 41 43 39 28 38 Z " />
<glyph glyph-name="Nacute" unicode="&#x143;" horiz-adv-x="781" d="M669 -5 L669 519 C669 581 674 601 686 619 C698 638 710 646 729 652 C742 656 752 658 769 660 L769 698 L513 698 L513 660 C528 658 542 656 554 652 C570 648 586 639 598 621 C611 602 616 581 616 519 L616 245 L607 245 L302 698 L24 698 L24 660 C38 659 49 656 60 652 C88 638 105 623 119 595 C135 563 141 524 141 443 L141 178 C141 116 135 96 122 77 C110 59 95 50 78 45 C67 42 54 40 40 38 L40 0 L294 0 L294 38 C277 40 268 42 254 46 C235 52 223 59 211 79 C199 96 194 116 194 178 L194 549 L203 549 L581 -5 Z M319 787 L330 755 C411 767 464 775 513 785 C544 792 585 807 585 850 C585 884 559 908 529 908 C496 908 475 892 438 868 C397 842 371 824 319 787 Z " />
<glyph glyph-name="Ncaron" unicode="&#x147;" horiz-adv-x="781" d="M669 -5 L669 519 C669 581 674 601 686 619 C698 638 710 646 729 652 C742 656 752 658 769 660 L769 698 L513 698 L513 660 C528 658 542 656 554 652 C570 648 586 639 598 621 C611 602 616 581 616 519 L616 245 L607 245 L302 698 L24 698 L24 660 C38 659 49 656 60 652 C88 638 105 623 119 595 C135 563 141 524 141 443 L141 178 C141 116 135 96 122 77 C110 59 95 50 78 45 C67 42 54 40 40 38 L40 0 L294 0 L294 38 C277 40 268 42 254 46 C235 52 223 59 211 79 C199 96 194 116 194 178 L194 549 L203 549 L581 -5 Z M559 863 L537 893 L409 834 L280 893 L259 863 L372 754 L445 754 Z " />
<glyph glyph-name="uni0145" unicode="&#x145;" horiz-adv-x="781" d="M669 -5 L669 519 C669 581 674 601 686 619 C698 638 710 646 729 652 C742 656 752 658 769 660 L769 698 L513 698 L513 660 C528 658 542 656 554 652 C570 648 586 639 598 621 C611 602 616 581 616 519 L616 245 L607 245 L302 698 L24 698 L24 660 C38 659 49 656 60 652 C88 638 105 623 119 595 C135 563 141 524 141 443 L141 178 C141 116 135 96 122 77 C110 59 95 50 78 45 C67 42 54 40 40 38 L40 0 L294 0 L294 38 C277 40 268 42 254 46 C235 52 223 59 211 79 C199 96 194 116 194 178 L194 549 L203 549 L581 -5 Z M462 -124 C462 -74 433 -44 386 -44 C345 -44 321 -75 321 -107 C321 -143 343 -162 379 -173 C387 -176 391 -179 391 -187 C391 -213 352 -232 304 -251 L317 -284 C399 -255 462 -202 462 -124 Z " />
<glyph glyph-name="Obreve" unicode="&#x14e;" horiz-adv-x="753" d="M376 712 C181 712 32 565 32 349 C32 133 181 -15 376 -15 C572 -15 721 133 721 349 C721 565 572 712 376 712 Z M376 28 C346 28 319 35 294 51 C244 85 204 154 204 349 C204 544 244 613 294 646 C319 663 346 669 376 669 C407 669 434 663 459 646 C509 613 549 544 549 349 C549 154 509 85 459 51 C434 35 407 28 376 28 Z M374 753 C450 753 503 805 513 891 L476 901 C456 853 422 835 373 835 C326 835 292 853 272 901 L235 891 C246 805 298 753 374 753 Z " />
<glyph glyph-name="Ohungarumlaut" unicode="&#x150;" horiz-adv-x="753" d="M376 712 C181 712 32 565 32 349 C32 133 181 -15 376 -15 C572 -15 721 133 721 349 C721 565 572 712 376 712 Z M376 28 C346 28 319 35 294 51 C244 85 204 154 204 349 C204 544 244 613 294 646 C319 663 346 669 376 669 C407 669 434 663 459 646 C509 613 549 544 549 349 C549 154 509 85 459 51 C434 35 407 28 376 28 Z M379 946 C346 946 326 925 311 894 C295 858 274 809 246 748 L287 748 C340 795 358 810 384 834 C407 857 423 874 423 904 C423 929 406 946 379 946 Z M559 946 C526 946 506 925 491 894 C475 858 454 809 426 748 L467 748 C520 795 538 810 564 834 C587 857 603 874 603 904 C603 929 586 946 559 946 Z " />
<glyph glyph-name="Omacron" unicode="&#x14c;" horiz-adv-x="753" d="M376 712 C181 712 32 565 32 349 C32 133 181 -15 376 -15 C572 -15 721 133 721 349 C721 565 572 712 376 712 Z M376 28 C346 28 319 35 294 51 C244 85 204 154 204 349 C204 544 244 613 294 646 C319 663 346 669 376 669 C407 669 434 663 459 646 C509 613 549 544 549 349 C549 154 509 85 459 51 C434 35 407 28 376 28 Z M509 776 L509 842 L242 842 L242 776 Z " />
<glyph glyph-name="Oslashacute" unicode="&#x1fe;" horiz-adv-x="753" d="M204 349 C204 544 244 613 294 646 C319 663 346 669 376 669 C407 669 434 663 459 646 C474 636 487 624 500 605 L223 163 C211 207 204 267 204 349 Z M376 28 C346 28 319 35 294 51 C275 64 257 82 243 110 L523 558 C539 512 549 446 549 349 C549 154 509 85 459 51 C434 35 407 28 376 28 Z M376 -15 C572 -15 721 133 721 349 C721 480 666 585 580 648 L636 738 L597 761 L541 672 C493 698 437 712 376 712 C181 712 32 565 32 349 C32 226 81 124 159 60 L98 -37 L137 -59 L195 34 C247 2 309 -15 376 -15 Z M259 787 L270 755 C351 767 404 775 453 785 C484 792 525 807 525 850 C525 884 499 908 469 908 C436 908 415 892 378 868 C337 842 311 824 259 787 Z " />
<glyph glyph-name="Racute" unicode="&#x154;" horiz-adv-x="748" d="M361 657 C434 657 468 615 468 519 C468 474 462 436 444 407 C426 380 401 368 342 368 L285 368 L285 635 C285 644 286 649 290 652 C293 656 298 657 307 657 Z M384 38 C370 39 357 41 345 44 C322 51 306 63 295 92 C287 113 285 137 285 183 L285 326 L341 326 C380 326 410 322 432 293 C460 256 461 213 471 136 C477 76 495 26 517 0 L742 0 L742 38 C716 40 698 47 685 57 C662 76 645 105 630 195 C619 262 585 292 552 312 C527 327 495 337 454 342 L454 352 C498 360 526 371 549 382 C602 408 642 448 642 519 C642 643 533 698 394 698 L28 698 L28 660 C42 659 53 657 64 654 C87 647 103 635 114 606 C122 585 124 562 124 515 L124 183 C124 137 122 113 114 92 C103 63 87 51 64 44 C53 41 42 39 28 38 L28 0 L384 0 Z M207 787 L218 755 C299 767 352 775 401 785 C432 792 473 807 473 850 C473 884 447 908 417 908 C384 908 363 892 326 868 C285 842 259 824 207 787 Z " />
<glyph glyph-name="Rcaron" unicode="&#x158;" horiz-adv-x="748" d="M361 657 C434 657 468 615 468 519 C468 474 462 436 444 407 C426 380 401 368 342 368 L285 368 L285 635 C285 644 286 649 290 652 C293 656 298 657 307 657 Z M384 38 C370 39 357 41 345 44 C322 51 306 63 295 92 C287 113 285 137 285 183 L285 326 L341 326 C380 326 410 322 432 293 C460 256 461 213 471 136 C477 76 495 26 517 0 L742 0 L742 38 C716 40 698 47 685 57 C662 76 645 105 630 195 C619 262 585 292 552 312 C527 327 495 337 454 342 L454 352 C498 360 526 371 549 382 C602 408 642 448 642 519 C642 643 533 698 394 698 L28 698 L28 660 C42 659 53 657 64 654 C87 647 103 635 114 606 C122 585 124 562 124 515 L124 183 C124 137 122 113 114 92 C103 63 87 51 64 44 C53 41 42 39 28 38 L28 0 L384 0 Z M499 863 L477 893 L349 834 L220 893 L199 863 L312 754 L385 754 Z " />
<glyph glyph-name="uni0156" unicode="&#x156;" horiz-adv-x="748" d="M361 657 C434 657 468 615 468 519 C468 474 462 436 444 407 C426 380 401 368 342 368 L285 368 L285 635 C285 644 286 649 290 652 C293 656 298 657 307 657 Z M384 38 C370 39 357 41 345 44 C322 51 306 63 295 92 C287 113 285 137 285 183 L285 326 L341 326 C380 326 410 322 432 293 C460 256 461 213 471 136 C477 76 495 26 517 0 L742 0 L742 38 C716 40 698 47 685 57 C662 76 645 105 630 195 C619 262 585 292 552 312 C527 327 495 337 454 342 L454 352 C498 360 526 371 549 382 C602 408 642 448 642 519 C642 643 533 698 394 698 L28 698 L28 660 C42 659 53 657 64 654 C87 647 103 635 114 606 C122 585 124 562 124 515 L124 183 C124 137 122 113 114 92 C103 63 87 51 64 44 C53 41 42 39 28 38 L28 0 L384 0 Z M506 -124 C506 -74 477 -44 430 -44 C389 -44 365 -75 365 -107 C365 -143 387 -162 423 -173 C431 -176 435 -179 435 -187 C435 -213 396 -232 348 -251 L361 -284 C443 -255 506 -202 506 -124 Z " />
<glyph glyph-name="Sacute" unicode="&#x15a;" horiz-adv-x="586" d="M554 208 C554 349 438 393 328 443 C244 481 185 501 185 582 C185 635 220 672 289 672 C349 672 382 651 412 612 C440 575 465 529 481 478 L517 478 L503 699 L469 699 L442 657 L434 657 C404 689 368 712 289 712 C159 712 52 633 52 513 C52 364 162 316 260 273 C372 224 422 199 422 127 C422 67 384 26 301 26 C197 26 114 137 78 250 L39 250 L46 4 L79 4 L113 57 L122 57 C156 18 226 -15 301 -15 C438 -15 554 64 554 208 Z M167 787 L178 755 C259 767 312 775 361 785 C392 792 433 807 433 850 C433 884 407 908 377 908 C344 908 323 892 286 868 C245 842 219 824 167 787 Z " />
<glyph glyph-name="uni015E" unicode="&#x15e;" horiz-adv-x="586" d="M427 -129 C427 -78 386 -52 327 -52 C311 -52 286 -57 275 -62 L295 -15 L301 -15 C438 -15 554 64 554 208 C554 349 438 393 328 443 C244 481 185 501 185 582 C185 635 220 672 289 672 C349 672 382 651 412 612 C440 575 465 529 481 478 L517 478 L503 699 L469 699 L442 657 L434 657 C404 689 368 712 289 712 C159 712 52 633 52 513 C52 364 162 316 260 273 C372 224 422 199 422 127 C422 67 384 26 301 26 C197 26 114 137 78 250 L39 250 L46 4 L79 4 L113 57 L122 57 C148 26 198 -1 254 -11 L226 -81 L260 -101 C269 -94 281 -90 296 -90 C319 -90 334 -102 334 -133 C334 -168 310 -179 274 -179 C252 -179 223 -170 205 -158 L189 -190 C210 -203 244 -215 291 -215 C366 -215 427 -190 427 -129 Z " />
<glyph glyph-name="Scircumflex" unicode="&#x15c;" horiz-adv-x="586" d="M554 208 C554 349 438 393 328 443 C244 481 185 501 185 582 C185 635 220 672 289 672 C349 672 382 651 412 612 C440 575 465 529 481 478 L517 478 L503 699 L469 699 L442 657 L434 657 C404 689 368 712 289 712 C159 712 52 633 52 513 C52 364 162 316 260 273 C372 224 422 199 422 127 C422 67 384 26 301 26 C197 26 114 137 78 250 L39 250 L46 4 L79 4 L113 57 L122 57 C156 18 226 -15 301 -15 C438 -15 554 64 554 208 Z M437 783 L323 893 L250 893 L137 783 L158 754 L287 813 L415 754 Z " />
<glyph glyph-name="uni0218" unicode="&#x218;" horiz-adv-x="586" d="M554 208 C554 349 438 393 328 443 C244 481 185 501 185 582 C185 635 220 672 289 672 C349 672 382 651 412 612 C440 575 465 529 481 478 L517 478 L503 699 L469 699 L442 657 L434 657 C404 689 368 712 289 712 C159 712 52 633 52 513 C52 364 162 316 260 273 C372 224 422 199 422 127 C422 67 384 26 301 26 C197 26 114 137 78 250 L39 250 L46 4 L79 4 L113 57 L122 57 C156 18 226 -15 301 -15 C438 -15 554 64 554 208 Z M368 -124 C368 -74 339 -44 292 -44 C251 -44 227 -75 227 -107 C227 -143 249 -162 285 -173 C293 -176 297 -179 297 -187 C297 -213 258 -232 210 -251 L223 -284 C305 -255 368 -202 368 -124 Z " />
<glyph glyph-name="Tcaron" unicode="&#x164;" horiz-adv-x="710" d="M436 183 L436 656 L455 656 C499 656 533 645 573 604 C611 567 632 531 657 479 L693 479 L668 698 L41 698 L17 479 L54 479 C78 533 95 566 135 604 C178 645 210 656 254 656 L275 656 L275 183 C275 137 273 113 264 92 C253 63 237 51 214 44 C204 41 192 39 178 38 L178 0 L531 0 L531 38 C518 39 507 41 495 44 C473 51 456 63 446 92 C437 113 436 137 436 183 Z M505 863 L483 893 L355 834 L226 893 L205 863 L318 754 L391 754 Z " />
<glyph glyph-name="Tcommaaccent" unicode="&#x162;" horiz-adv-x="710" d="M436 183 L436 656 L455 656 C499 656 533 645 573 604 C611 567 632 531 657 479 L693 479 L668 698 L41 698 L17 479 L54 479 C78 533 95 566 135 604 C178 645 210 656 254 656 L275 656 L275 183 C275 137 273 113 264 92 C253 63 237 51 214 44 C204 41 192 39 178 38 L178 0 L531 0 L531 38 C518 39 507 41 495 44 C473 51 456 63 446 92 C437 113 436 137 436 183 Z M434 -124 C434 -74 405 -44 358 -44 C317 -44 293 -75 293 -107 C293 -143 315 -162 351 -173 C359 -176 363 -179 363 -187 C363 -213 324 -232 276 -251 L289 -284 C371 -255 434 -202 434 -124 Z " />
<glyph glyph-name="uni021A" unicode="&#x21a;" horiz-adv-x="710" d="M436 183 L436 656 L455 656 C499 656 533 645 573 604 C611 567 632 531 657 479 L693 479 L668 698 L41 698 L17 479 L54 479 C78 533 95 566 135 604 C178 645 210 656 254 656 L275 656 L275 183 C275 137 273 113 264 92 C253 63 237 51 214 44 C204 41 192 39 178 38 L178 0 L531 0 L531 38 C518 39 507 41 495 44 C473 51 456 63 446 92 C437 113 436 137 436 183 Z M434 -124 C434 -74 405 -44 358 -44 C317 -44 293 -75 293 -107 C293 -143 315 -162 351 -173 C359 -176 363 -179 363 -187 C363 -213 324 -232 276 -251 L289 -284 C371 -255 434 -202 434 -124 Z " />
<glyph glyph-name="Tbar" unicode="&#x166;" horiz-adv-x="710" d="M436 183 L436 391 L586 391 L586 434 L436 434 L436 656 L455 656 C499 656 533 645 573 604 C611 567 632 531 657 479 L693 479 L668 698 L41 698 L17 479 L54 479 C78 533 95 566 135 604 C178 645 210 656 254 656 L275 656 L275 434 L124 434 L124 391 L275 391 L275 183 C275 137 273 113 264 92 C253 63 237 51 214 44 C204 41 192 39 178 38 L178 0 L531 0 L531 38 C518 39 507 41 495 44 C473 51 456 63 446 92 C437 113 436 137 436 183 Z " />
<glyph glyph-name="Ubreve" unicode="&#x16c;" horiz-adv-x="770" d="M660 238 L660 519 C660 582 664 602 676 619 C689 639 701 646 720 652 C733 656 743 658 760 660 L760 698 L504 698 L504 660 C519 658 533 656 545 653 C562 647 577 639 589 621 C602 602 607 582 607 519 L607 232 C607 182 601 136 582 102 C556 55 504 35 429 35 C362 35 312 54 285 119 C273 149 268 183 268 223 L268 516 C268 562 270 585 279 606 C290 635 306 647 329 654 C340 657 351 659 365 660 L365 698 L11 698 L11 660 C24 659 36 657 47 654 C70 647 86 635 97 606 C106 585 107 562 107 515 L107 262 C107 205 115 141 133 104 C175 15 277 -14 392 -14 C529 -14 595 29 624 77 C650 120 660 172 660 238 Z M417 753 C493 753 546 805 556 891 L519 901 C499 853 465 835 416 835 C369 835 335 853 315 901 L278 891 C289 805 341 753 417 753 Z " />
<glyph glyph-name="Uhungarumlaut" unicode="&#x170;" horiz-adv-x="770" d="M660 238 L660 519 C660 582 664 602 676 619 C689 639 701 646 720 652 C733 656 743 658 760 660 L760 698 L504 698 L504 660 C519 658 533 656 545 653 C562 647 577 639 589 621 C602 602 607 582 607 519 L607 232 C607 182 601 136 582 102 C556 55 504 35 429 35 C362 35 312 54 285 119 C273 149 268 183 268 223 L268 516 C268 562 270 585 279 606 C290 635 306 647 329 654 C340 657 351 659 365 660 L365 698 L11 698 L11 660 C24 659 36 657 47 654 C70 647 86 635 97 606 C106 585 107 562 107 515 L107 262 C107 205 115 141 133 104 C175 15 277 -14 392 -14 C529 -14 595 29 624 77 C650 120 660 172 660 238 Z M430 946 C397 946 377 925 362 894 C346 858 325 809 297 748 L338 748 C391 795 409 810 435 834 C458 857 474 874 474 904 C474 929 457 946 430 946 Z M610 946 C577 946 557 925 542 894 C526 858 505 809 477 748 L518 748 C571 795 589 810 615 834 C638 857 654 874 654 904 C654 929 637 946 610 946 Z " />
<glyph glyph-name="Umacron" unicode="&#x16a;" horiz-adv-x="770" d="M660 238 L660 519 C660 582 664 602 676 619 C689 639 701 646 720 652 C733 656 743 658 760 660 L760 698 L504 698 L504 660 C519 658 533 656 545 653 C562 647 577 639 589 621 C602 602 607 582 607 519 L607 232 C607 182 601 136 582 102 C556 55 504 35 429 35 C362 35 312 54 285 119 C273 149 268 183 268 223 L268 516 C268 562 270 585 279 606 C290 635 306 647 329 654 C340 657 351 659 365 660 L365 698 L11 698 L11 660 C24 659 36 657 47 654 C70 647 86 635 97 606 C106 585 107 562 107 515 L107 262 C107 205 115 141 133 104 C175 15 277 -14 392 -14 C529 -14 595 29 624 77 C650 120 660 172 660 238 Z M552 776 L552 842 L285 842 L285 776 Z " />
<glyph glyph-name="Uogonek" unicode="&#x172;" horiz-adv-x="770" d="M482 -216 L482 -176 C431 -172 396 -151 396 -111 C396 -64 425 -25 466 -13 C564 16 599 35 624 77 C650 120 660 172 660 238 L660 519 C660 582 664 602 676 619 C689 639 701 646 720 652 C733 656 743 658 760 660 L760 698 L504 698 L504 660 C519 658 533 656 545 653 C562 647 577 639 589 621 C602 602 607 582 607 519 L607 232 C607 182 601 136 582 102 C556 55 504 35 429 35 C362 35 312 54 285 119 C273 149 268 183 268 223 L268 516 C268 562 270 585 279 606 C290 635 306 647 329 654 C340 657 351 659 365 660 L365 698 L11 698 L11 660 C24 659 36 657 47 654 C70 647 86 635 97 606 C106 585 107 562 107 515 L107 262 C107 205 115 141 133 104 C169 27 272 -13 380 -13 C391 -13 401 -13 411 -12 C344 -39 282 -76 282 -124 C282 -190 365 -222 482 -216 Z " />
<glyph glyph-name="Uring" unicode="&#x16e;" horiz-adv-x="770" d="M660 238 L660 519 C660 582 664 602 676 619 C689 639 701 646 720 652 C733 656 743 658 760 660 L760 698 L504 698 L504 660 C519 658 533 656 545 653 C562 647 577 639 589 621 C602 602 607 582 607 519 L607 232 C607 182 601 136 582 102 C556 55 504 35 429 35 C362 35 312 54 285 119 C273 149 268 183 268 223 L268 516 C268 562 270 585 279 606 C290 635 306 647 329 654 C340 657 351 659 365 660 L365 698 L11 698 L11 660 C24 659 36 657 47 654 C70 647 86 635 97 606 C106 585 107 562 107 515 L107 262 C107 205 115 141 133 104 C175 15 277 -14 392 -14 C529 -14 595 29 624 77 C650 120 660 172 660 238 Z M536 812 C536 868 493 905 442 905 C392 905 348 868 348 812 C348 757 392 720 442 720 C493 720 536 757 536 812 Z M387 812 C387 849 409 872 442 872 C476 872 498 849 498 812 C498 777 476 752 442 752 C409 752 387 777 387 812 Z " />
<glyph glyph-name="Utilde" unicode="&#x168;" horiz-adv-x="770" d="M660 238 L660 519 C660 582 664 602 676 619 C689 639 701 646 720 652 C733 656 743 658 760 660 L760 698 L504 698 L504 660 C519 658 533 656 545 653 C562 647 577 639 589 621 C602 602 607 582 607 519 L607 232 C607 182 601 136 582 102 C556 55 504 35 429 35 C362 35 312 54 285 119 C273 149 268 183 268 223 L268 516 C268 562 270 585 279 606 C290 635 306 647 329 654 C340 657 351 659 365 660 L365 698 L11 698 L11 660 C24 659 36 657 47 654 C70 647 86 635 97 606 C106 585 107 562 107 515 L107 262 C107 205 115 141 133 104 C175 15 277 -14 392 -14 C529 -14 595 29 624 77 C650 120 660 172 660 238 Z M581 881 L547 891 C537 859 521 849 486 849 C445 849 399 874 353 874 C295 874 261 807 247 752 L280 742 C292 771 314 782 339 782 C378 782 426 758 471 758 C533 758 566 821 581 881 Z " />
<glyph glyph-name="Wacute" unicode="&#x1e82;" horiz-adv-x="1100" d="M709 -5 L800 -5 L971 511 C986 557 999 590 1011 608 C1025 629 1037 639 1050 646 C1064 654 1081 658 1099 660 L1099 698 L857 698 L857 660 C875 659 893 657 906 652 C926 644 938 631 938 602 C938 580 932 555 920 517 L822 213 L813 213 L719 510 C708 547 698 582 698 609 C698 639 712 647 733 653 C743 656 761 659 780 660 L780 698 L421 698 L421 660 C434 659 446 657 458 652 C476 646 487 638 503 614 C513 599 521 580 530 552 L417 213 L408 213 L314 510 C302 554 292 582 292 609 C292 636 305 646 325 652 C335 655 350 659 368 660 L368 698 L7 698 L7 660 C21 659 35 655 47 649 C65 641 78 631 95 609 C110 588 124 556 138 514 L305 -5 L395 -5 L551 465 L559 465 Z M472 792 L483 760 C564 772 617 780 666 790 C697 797 738 812 738 855 C738 889 712 913 682 913 C649 913 628 897 591 873 C550 847 524 829 472 792 Z " />
<glyph glyph-name="Wcircumflex" unicode="&#x174;" horiz-adv-x="1100" d="M709 -5 L800 -5 L971 511 C986 557 999 590 1011 608 C1025 629 1037 639 1050 646 C1064 654 1081 658 1099 660 L1099 698 L857 698 L857 660 C875 659 893 657 906 652 C926 644 938 631 938 602 C938 580 932 555 920 517 L822 213 L813 213 L719 510 C708 547 698 582 698 609 C698 639 712 647 733 653 C743 656 761 659 780 660 L780 698 L421 698 L421 660 C434 659 446 657 458 652 C476 646 487 638 503 614 C513 599 521 580 530 552 L417 213 L408 213 L314 510 C302 554 292 582 292 609 C292 636 305 646 325 652 C335 655 350 659 368 660 L368 698 L7 698 L7 660 C21 659 35 655 47 649 C65 641 78 631 95 609 C110 588 124 556 138 514 L305 -5 L395 -5 L551 465 L559 465 Z M722 783 L608 893 L535 893 L422 783 L443 754 L572 813 L700 754 Z " />
<glyph glyph-name="Wdieresis" unicode="&#x1e84;" horiz-adv-x="1100" d="M709 -5 L800 -5 L971 511 C986 557 999 590 1011 608 C1025 629 1037 639 1050 646 C1064 654 1081 658 1099 660 L1099 698 L857 698 L857 660 C875 659 893 657 906 652 C926 644 938 631 938 602 C938 580 932 555 920 517 L822 213 L813 213 L719 510 C708 547 698 582 698 609 C698 639 712 647 733 653 C743 656 761 659 780 660 L780 698 L421 698 L421 660 C434 659 446 657 458 652 C476 646 487 638 503 614 C513 599 521 580 530 552 L417 213 L408 213 L314 510 C302 554 292 582 292 609 C292 636 305 646 325 652 C335 655 350 659 368 660 L368 698 L7 698 L7 660 C21 659 35 655 47 649 C65 641 78 631 95 609 C110 588 124 556 138 514 L305 -5 L395 -5 L551 465 L559 465 Z M456 750 C493 750 523 776 523 817 C523 858 493 885 456 885 C418 885 389 858 389 817 C389 776 418 750 456 750 Z M667 750 C704 750 734 776 734 817 C734 858 704 885 667 885 C629 885 600 858 600 817 C600 776 629 750 667 750 Z " />
<glyph glyph-name="Wgrave" unicode="&#x1e80;" horiz-adv-x="1100" d="M709 -5 L800 -5 L971 511 C986 557 999 590 1011 608 C1025 629 1037 639 1050 646 C1064 654 1081 658 1099 660 L1099 698 L857 698 L857 660 C875 659 893 657 906 652 C926 644 938 631 938 602 C938 580 932 555 920 517 L822 213 L813 213 L719 510 C708 547 698 582 698 609 C698 639 712 647 733 653 C743 656 761 659 780 660 L780 698 L421 698 L421 660 C434 659 446 657 458 652 C476 646 487 638 503 614 C513 599 521 580 530 552 L417 213 L408 213 L314 510 C302 554 292 582 292 609 C292 636 305 646 325 652 C335 655 350 659 368 660 L368 698 L7 698 L7 660 C21 659 35 655 47 649 C65 641 78 631 95 609 C110 588 124 556 138 514 L305 -5 L395 -5 L551 465 L559 465 Z M712 787 C659 824 633 842 593 868 C556 892 535 908 502 908 C472 908 446 884 446 850 C446 807 487 792 518 785 C567 775 620 767 701 755 Z " />
<glyph glyph-name="Ycircumflex" unicode="&#x176;" horiz-adv-x="671" d="M253 293 L253 191 C253 140 251 113 242 92 C231 63 215 52 192 45 C180 41 169 39 154 38 L154 0 L513 0 L513 38 C498 39 487 40 474 45 C452 53 436 63 425 92 C417 113 414 140 414 191 L414 293 L542 528 C585 611 613 650 678 660 L678 698 L451 698 L451 660 C462 659 481 657 491 653 C510 646 519 637 519 615 C519 592 515 573 489 526 L398 361 L390 361 L290 545 C260 601 258 637 296 652 C306 656 323 658 341 660 L341 698 L-7 698 L-7 660 C42 651 66 636 105 561 Z M536 783 L422 893 L349 893 L236 783 L257 754 L386 813 L514 754 Z " />
<glyph glyph-name="Ygrave" unicode="&#x1ef2;" horiz-adv-x="671" d="M253 293 L253 191 C253 140 251 113 242 92 C231 63 215 52 192 45 C180 41 169 39 154 38 L154 0 L513 0 L513 38 C498 39 487 40 474 45 C452 53 436 63 425 92 C417 113 414 140 414 191 L414 293 L542 528 C585 611 613 650 678 660 L678 698 L451 698 L451 660 C462 659 481 657 491 653 C510 646 519 637 519 615 C519 592 515 573 489 526 L398 361 L390 361 L290 545 C260 601 258 637 296 652 C306 656 323 658 341 660 L341 698 L-7 698 L-7 660 C42 651 66 636 105 561 Z M491 787 C438 824 412 842 372 868 C335 892 314 908 281 908 C251 908 225 884 225 850 C225 807 266 792 297 785 C346 775 399 767 480 755 Z " />
<glyph glyph-name="Zacute" unicode="&#x179;" horiz-adv-x="654" d="M616 698 L92 698 L58 486 L96 486 C125 544 165 594 202 620 C234 645 269 657 342 657 L432 657 L32 27 L32 0 L578 0 L634 240 L594 240 C568 190 536 131 470 83 C427 51 386 41 304 41 L233 41 L616 671 Z M264 787 L275 755 C356 767 409 775 458 785 C489 792 530 807 530 850 C530 884 504 908 474 908 C441 908 420 892 383 868 C342 842 316 824 264 787 Z " />
<glyph glyph-name="Zdotaccent" unicode="&#x17b;" horiz-adv-x="654" d="M616 698 L92 698 L58 486 L96 486 C125 544 165 594 202 620 C234 645 269 657 342 657 L432 657 L32 27 L32 0 L578 0 L634 240 L594 240 C568 190 536 131 470 83 C427 51 386 41 304 41 L233 41 L616 671 Z M357 748 C406 748 441 784 441 829 C441 875 406 912 357 912 C309 912 273 875 273 829 C273 784 308 748 357 748 Z " />
<glyph glyph-name="abreve" unicode="&#x103;" horiz-adv-x="546" d="M535 17 L524 49 C516 45 503 42 494 42 C479 42 469 47 463 56 C456 67 453 81 453 136 L454 403 C454 494 377 522 253 522 C166 522 104 493 74 459 C61 445 52 427 52 404 C52 372 76 349 113 349 C151 349 171 372 178 404 C185 433 193 453 201 462 C211 471 225 482 250 482 C288 482 303 463 303 417 L302 323 C290 303 263 288 193 270 C133 253 95 239 65 211 C42 189 27 156 27 117 C27 29 94 -12 170 -12 C246 -12 293 32 309 66 L320 66 C323 33 337 15 350 5 C362 -4 382 -12 424 -12 C482 -12 520 7 535 17 Z M302 280 L301 102 C290 71 261 54 230 54 C200 54 170 72 170 135 C170 172 183 196 195 212 C206 226 227 237 249 248 C273 260 293 270 302 280 Z M259 572 C335 572 385 629 393 716 L355 726 C336 672 307 656 258 656 C211 656 183 672 163 726 L125 716 C133 629 183 572 259 572 Z " />
<glyph glyph-name="amacron" unicode="&#x101;" horiz-adv-x="546" d="M535 17 L524 49 C516 45 503 42 494 42 C479 42 469 47 463 56 C456 67 453 81 453 136 L454 403 C454 494 377 522 253 522 C166 522 104 493 74 459 C61 445 52 427 52 404 C52 372 76 349 113 349 C151 349 171 372 178 404 C185 433 193 453 201 462 C211 471 225 482 250 482 C288 482 303 463 303 417 L302 323 C290 303 263 288 193 270 C133 253 95 239 65 211 C42 189 27 156 27 117 C27 29 94 -12 170 -12 C246 -12 293 32 309 66 L320 66 C323 33 337 15 350 5 C362 -4 382 -12 424 -12 C482 -12 520 7 535 17 Z M302 280 L301 102 C290 71 261 54 230 54 C200 54 170 72 170 135 C170 172 183 196 195 212 C206 226 227 237 249 248 C273 260 293 270 302 280 Z M392 606 L392 670 L131 670 L131 606 Z " />
<glyph glyph-name="aogonek" unicode="&#x105;" horiz-adv-x="546" d="M507 -216 L507 -176 C456 -172 421 -151 421 -111 C421 -66 447 -26 495 -2 C513 6 527 12 535 17 L524 49 C516 45 503 42 494 42 C479 42 469 47 463 56 C456 67 453 81 453 136 L454 403 C454 494 377 522 253 522 C166 522 104 493 74 459 C61 445 52 427 52 404 C52 372 76 349 113 349 C151 349 171 372 178 404 C185 433 193 453 201 462 C211 471 225 482 250 482 C288 482 303 463 303 417 L302 323 C290 303 263 288 193 270 C133 253 95 239 65 211 C42 189 27 156 27 117 C27 29 94 -12 170 -12 C246 -12 293 32 309 66 L320 66 C323 33 337 18 350 8 C360 0 378 -5 405 -8 L405 -18 C347 -43 307 -75 307 -124 C307 -190 390 -222 507 -216 Z M302 280 L301 102 C290 71 261 54 230 54 C200 54 170 72 170 135 C170 172 183 196 195 212 C206 226 227 237 249 248 C273 260 293 270 302 280 Z " />
<glyph glyph-name="aringacute" unicode="&#x1fb;" horiz-adv-x="546" d="M535 17 L524 49 C516 45 503 42 494 42 C479 42 469 47 463 56 C456 67 453 81 453 136 L454 403 C454 494 377 522 253 522 C166 522 104 493 74 459 C61 445 52 427 52 404 C52 372 76 349 113 349 C151 349 171 372 178 404 C185 433 193 453 201 462 C211 471 225 482 250 482 C288 482 303 463 303 417 L302 323 C290 303 263 288 193 270 C133 253 95 239 65 211 C42 189 27 156 27 117 C27 29 94 -12 170 -12 C246 -12 293 32 309 66 L320 66 C323 33 337 15 350 5 C362 -4 382 -12 424 -12 C482 -12 520 7 535 17 Z M302 280 L301 102 C290 71 261 54 230 54 C200 54 170 72 170 135 C170 172 183 196 195 212 C206 226 227 237 249 248 C273 260 293 270 302 280 Z M351 648 C351 707 307 745 254 745 C202 745 157 707 157 648 C157 590 202 553 254 553 C307 553 351 590 351 648 Z M196 648 C196 688 219 712 254 712 C289 712 312 688 312 648 C312 609 289 585 254 585 C219 585 196 609 196 648 Z M130 796 L141 764 C222 776 275 784 324 794 C355 801 396 816 396 859 C396 893 370 917 340 917 C307 917 286 901 249 877 C208 851 182 833 130 796 Z " />
<glyph glyph-name="aeacute" unicode="&#x1fd;" horiz-adv-x="800" d="M553 -12 C681 -12 744 56 772 141 L740 154 C719 98 678 36 587 36 C549 36 526 49 505 70 C473 100 457 155 455 263 L764 263 C765 273 767 298 767 320 C767 421 698 522 546 522 C499 522 440 502 407 467 L397 467 C367 501 320 522 254 522 C169 522 103 494 72 459 C61 446 52 429 52 405 C52 374 75 350 111 350 C149 350 171 372 177 404 C184 433 192 453 200 463 C210 472 225 483 251 483 C286 483 302 465 302 419 C302 410 301 330 301 324 C289 303 262 288 192 270 C133 254 95 240 65 211 C41 190 27 157 27 118 C27 30 97 -11 168 -11 C245 -11 306 24 333 105 L340 105 C354 79 366 62 389 44 C427 15 485 -12 553 -12 Z M626 344 C626 314 617 302 591 302 L456 302 C460 396 474 437 494 462 C509 478 529 485 549 485 C576 485 591 477 603 462 C621 438 626 403 626 344 Z M302 279 L302 116 C290 81 261 55 229 55 C198 55 171 74 171 136 C171 171 182 195 193 211 C204 225 225 236 247 247 C270 259 293 269 302 279 Z M318 596 L337 566 C413 594 465 613 507 630 C543 646 566 667 566 699 C566 733 542 752 514 752 C481 752 458 732 426 701 C393 670 370 647 318 596 Z " />
<glyph glyph-name="cacute" unicode="&#x107;" horiz-adv-x="523" d="M300 483 C335 483 352 468 363 423 C375 374 391 343 437 343 C472 343 495 363 495 406 C495 430 488 450 467 471 C444 495 400 522 300 522 C172 522 29 435 29 256 C29 153 71 83 130 38 C170 6 225 -12 286 -12 C417 -12 481 60 506 146 L472 158 C450 99 417 41 317 41 C290 41 267 50 246 66 C212 94 188 146 188 256 C189 370 209 428 238 458 C252 474 273 483 300 483 Z M194 596 L213 566 C289 594 341 613 383 630 C419 646 442 667 442 699 C442 733 418 752 390 752 C357 752 334 732 302 701 C269 670 246 647 194 596 Z " />
<glyph glyph-name="ccaron" unicode="&#x10d;" horiz-adv-x="523" d="M300 483 C335 483 352 468 363 423 C375 374 391 343 437 343 C472 343 495 363 495 406 C495 430 488 450 467 471 C444 495 400 522 300 522 C172 522 29 435 29 256 C29 153 71 83 130 38 C170 6 225 -12 286 -12 C417 -12 481 60 506 146 L472 158 C450 99 417 41 317 41 C290 41 267 50 246 66 C212 94 188 146 188 256 C189 370 209 428 238 458 C252 474 273 483 300 483 Z M444 701 L414 727 L291 641 L167 727 L138 701 L257 561 L324 561 Z " />
<glyph glyph-name="ccircumflex" unicode="&#x109;" horiz-adv-x="523" d="M300 483 C335 483 352 468 363 423 C375 374 391 343 437 343 C472 343 495 363 495 406 C495 430 488 450 467 471 C444 495 400 522 300 522 C172 522 29 435 29 256 C29 153 71 83 130 38 C170 6 225 -12 286 -12 C417 -12 481 60 506 146 L472 158 C450 99 417 41 317 41 C290 41 267 50 246 66 C212 94 188 146 188 256 C189 370 209 428 238 458 C252 474 273 483 300 483 Z M441 587 L321 727 L254 727 L135 587 L164 561 L288 646 L411 561 Z " />
<glyph glyph-name="cdotaccent" unicode="&#x10b;" horiz-adv-x="523" d="M300 483 C335 483 352 468 363 423 C375 374 391 343 437 343 C472 343 495 363 495 406 C495 430 488 450 467 471 C444 495 400 522 300 522 C172 522 29 435 29 256 C29 153 71 83 130 38 C170 6 225 -12 286 -12 C417 -12 481 60 506 146 L472 158 C450 99 417 41 317 41 C290 41 267 50 246 66 C212 94 188 146 188 256 C189 370 209 428 238 458 C252 474 273 483 300 483 Z M293 579 C342 579 376 615 376 660 C376 705 341 742 293 742 C245 742 210 705 210 660 C210 615 245 579 293 579 Z " />
<glyph glyph-name="dcaron" unicode="&#x10f;" horiz-adv-x="627" d="M391 156 C391 96 353 40 296 40 C237 40 188 95 188 255 C188 403 236 477 300 477 C328 477 351 468 368 446 C387 421 391 393 391 355 Z M615 0 L615 35 C602 36 588 40 578 44 C564 51 555 63 549 80 C544 94 542 115 542 141 L542 629 C542 677 545 723 546 747 C546 753 544 756 537 756 L311 756 L311 721 C327 720 346 716 357 710 C368 703 377 694 382 681 C388 668 391 648 391 622 L391 478 L383 478 C365 500 337 522 273 522 C153 522 29 430 29 255 C29 83 133 -12 246 -12 C317 -12 371 21 393 72 L404 72 L404 30 C404 21 403 15 405 6 C407 2 410 0 416 0 Z M600 547 L640 547 C671 616 702 688 733 761 L626 761 Z " />
<glyph glyph-name="ebreve" unicode="&#x115;" horiz-adv-x="543" d="M514 141 L483 154 C462 98 421 36 326 36 C288 36 262 48 240 69 C208 100 191 156 191 264 L509 264 C510 273 512 299 512 321 C512 421 440 522 287 522 C162 522 30 430 30 256 C30 163 65 87 126 41 C169 9 227 -12 293 -12 C421 -12 487 56 514 141 Z M233 459 C248 475 270 482 290 482 C319 482 336 473 348 459 C366 435 370 405 370 345 C370 314 360 303 338 303 L192 303 C195 401 213 437 233 459 Z M287 572 C363 572 413 629 421 716 L383 726 C364 672 335 656 286 656 C239 656 211 672 191 726 L153 716 C161 629 211 572 287 572 Z " />
<glyph glyph-name="ecaron" unicode="&#x11b;" horiz-adv-x="543" d="M514 141 L483 154 C462 98 421 36 326 36 C288 36 262 48 240 69 C208 100 191 156 191 264 L509 264 C510 273 512 299 512 321 C512 421 440 522 287 522 C162 522 30 430 30 256 C30 163 65 87 126 41 C169 9 227 -12 293 -12 C421 -12 487 56 514 141 Z M233 459 C248 475 270 482 290 482 C319 482 336 473 348 459 C366 435 370 405 370 345 C370 314 360 303 338 303 L192 303 C195 401 213 437 233 459 Z M443 701 L413 727 L290 641 L166 727 L137 701 L256 561 L323 561 Z " />
<glyph glyph-name="edotaccent" unicode="&#x117;" horiz-adv-x="543" d="M514 141 L483 154 C462 98 421 36 326 36 C288 36 262 48 240 69 C208 100 191 156 191 264 L509 264 C510 273 512 299 512 321 C512 421 440 522 287 522 C162 522 30 430 30 256 C30 163 65 87 126 41 C169 9 227 -12 293 -12 C421 -12 487 56 514 141 Z M233 459 C248 475 270 482 290 482 C319 482 336 473 348 459 C366 435 370 405 370 345 C370 314 360 303 338 303 L192 303 C195 401 213 437 233 459 Z M286 574 C335 574 369 610 369 655 C369 700 334 737 286 737 C238 737 203 700 203 655 C203 610 238 574 286 574 Z " />
<glyph glyph-name="emacron" unicode="&#x113;" horiz-adv-x="543" d="M514 141 L483 154 C462 98 421 36 326 36 C288 36 262 48 240 69 C208 100 191 156 191 264 L509 264 C510 273 512 299 512 321 C512 421 440 522 287 522 C162 522 30 430 30 256 C30 163 65 87 126 41 C169 9 227 -12 293 -12 C421 -12 487 56 514 141 Z M233 459 C248 475 270 482 290 482 C319 482 336 473 348 459 C366 435 370 405 370 345 C370 314 360 303 338 303 L192 303 C195 401 213 437 233 459 Z M416 606 L416 670 L155 670 L155 606 Z " />
<glyph glyph-name="eogonek" unicode="&#x119;" horiz-adv-x="543" d="M437 -216 L437 -176 C386 -172 351 -153 351 -107 C351 -55 388 -11 436 26 C473 55 500 97 514 141 L483 154 C462 98 421 36 326 36 C288 36 262 48 240 69 C209 99 194 152 191 243 L191 264 L509 264 C510 273 512 299 512 321 C512 421 440 522 287 522 C162 522 30 430 30 256 C30 163 65 87 126 41 C169 9 227 -12 293 -12 C316 -12 339 -9 358 -3 C303 -33 237 -69 237 -124 C237 -190 320 -222 437 -216 Z M233 459 C248 475 270 482 290 482 C319 482 336 473 348 459 C366 435 370 405 370 345 C370 314 360 303 338 303 L192 303 C197 402 214 437 233 459 Z " />
<glyph glyph-name="gbreve" unicode="&#x11f;" horiz-adv-x="601" d="M183 353 C183 452 217 484 261 484 C306 484 342 452 342 352 C342 253 304 222 259 222 C215 222 183 253 183 353 Z M554 -17 C554 95 493 119 380 119 C335 119 216 113 188 113 C151 113 130 126 130 150 C130 175 160 187 187 187 C203 187 228 184 260 184 C369 184 478 234 478 353 C478 364 477 373 475 383 C472 398 467 411 467 424 C467 446 479 461 491 461 C504 461 509 453 519 437 C529 421 544 406 567 406 C595 406 618 422 618 461 C618 501 590 525 546 525 C498 525 456 502 441 458 L430 458 C391 504 331 522 262 522 C152 522 47 469 47 353 C47 280 87 237 141 212 L141 203 C91 192 45 159 45 103 C45 51 79 10 144 -1 L144 -11 C69 -21 11 -46 11 -99 C11 -167 91 -204 238 -204 C402 -204 554 -147 554 -17 Z M466 -68 C466 -136 368 -165 244 -165 C164 -165 105 -148 105 -99 C105 -41 169 -27 220 -22 C255 -18 328 -16 374 -16 C437 -17 466 -22 466 -68 Z M263 567 C339 567 389 624 397 711 L359 721 C340 667 311 651 262 651 C215 651 187 667 167 721 L129 711 C137 624 187 567 263 567 Z " />
<glyph glyph-name="gcircumflex" unicode="&#x11d;" horiz-adv-x="601" d="M183 353 C183 452 217 484 261 484 C306 484 342 452 342 352 C342 253 304 222 259 222 C215 222 183 253 183 353 Z M554 -17 C554 95 493 119 380 119 C335 119 216 113 188 113 C151 113 130 126 130 150 C130 175 160 187 187 187 C203 187 228 184 260 184 C369 184 478 234 478 353 C478 364 477 373 475 383 C472 398 467 411 467 424 C467 446 479 461 491 461 C504 461 509 453 519 437 C529 421 544 406 567 406 C595 406 618 422 618 461 C618 501 590 525 546 525 C498 525 456 502 441 458 L430 458 C391 504 331 522 262 522 C152 522 47 469 47 353 C47 280 87 237 141 212 L141 203 C91 192 45 159 45 103 C45 51 79 10 144 -1 L144 -11 C69 -21 11 -46 11 -99 C11 -167 91 -204 238 -204 C402 -204 554 -147 554 -17 Z M466 -68 C466 -136 368 -165 244 -165 C164 -165 105 -148 105 -99 C105 -41 169 -27 220 -22 C255 -18 328 -16 374 -16 C437 -17 466 -22 466 -68 Z M421 587 L301 727 L234 727 L115 587 L144 561 L268 646 L391 561 Z " />
<glyph glyph-name="uni0123" unicode="&#x123;" horiz-adv-x="601" d="M183 353 C183 452 217 484 261 484 C306 484 342 452 342 352 C342 253 304 222 259 222 C215 222 183 253 183 353 Z M554 -17 C554 95 493 119 380 119 C335 119 216 113 188 113 C151 113 130 126 130 150 C130 175 160 187 187 187 C203 187 228 184 260 184 C369 184 478 234 478 353 C478 364 477 373 475 383 C472 398 467 411 467 424 C467 446 479 461 491 461 C504 461 509 453 519 437 C529 421 544 406 567 406 C595 406 618 422 618 461 C618 501 590 525 546 525 C498 525 456 502 441 458 L430 458 C391 504 331 522 262 522 C152 522 47 469 47 353 C47 280 87 237 141 212 L141 203 C91 192 45 159 45 103 C45 51 79 10 144 -1 L144 -11 C69 -21 11 -46 11 -99 C11 -167 91 -204 238 -204 C402 -204 554 -147 554 -17 Z M466 -68 C466 -136 368 -165 244 -165 C164 -165 105 -148 105 -99 C105 -41 169 -27 220 -22 C255 -18 328 -16 374 -16 C437 -17 466 -22 466 -68 Z M197 630 C197 580 224 549 271 549 C311 549 336 577 336 614 C336 650 312 664 275 676 C267 678 263 682 263 689 C263 714 296 731 344 750 L332 783 C247 754 197 705 197 630 Z " />
<glyph glyph-name="gdotaccent" unicode="&#x121;" horiz-adv-x="601" d="M183 353 C183 452 217 484 261 484 C306 484 342 452 342 352 C342 253 304 222 259 222 C215 222 183 253 183 353 Z M554 -17 C554 95 493 119 380 119 C335 119 216 113 188 113 C151 113 130 126 130 150 C130 175 160 187 187 187 C203 187 228 184 260 184 C369 184 478 234 478 353 C478 364 477 373 475 383 C472 398 467 411 467 424 C467 446 479 461 491 461 C504 461 509 453 519 437 C529 421 544 406 567 406 C595 406 618 422 618 461 C618 501 590 525 546 525 C498 525 456 502 441 458 L430 458 C391 504 331 522 262 522 C152 522 47 469 47 353 C47 280 87 237 141 212 L141 203 C91 192 45 159 45 103 C45 51 79 10 144 -1 L144 -11 C69 -21 11 -46 11 -99 C11 -167 91 -204 238 -204 C402 -204 554 -147 554 -17 Z M466 -68 C466 -136 368 -165 244 -165 C164 -165 105 -148 105 -99 C105 -41 169 -27 220 -22 C255 -18 328 -16 374 -16 C437 -17 466 -22 466 -68 Z M266 574 C315 574 349 610 349 655 C349 700 314 737 266 737 C218 737 183 700 183 655 C183 610 218 574 266 574 Z " />
<glyph glyph-name="hbar" unicode="&#x127;" horiz-adv-x="660" d="M13 596 L94 596 L94 143 C94 116 93 95 89 81 C83 63 74 52 59 44 C50 40 35 36 23 35 L23 0 L307 0 L307 35 C296 36 284 40 276 43 C259 51 253 63 249 84 C246 99 245 120 245 143 L245 312 C245 349 255 383 270 405 C290 433 321 448 354 448 C377 448 391 444 402 434 C414 422 420 404 420 375 L420 143 C420 120 420 99 417 84 C412 63 408 52 390 43 C382 39 369 36 358 35 L358 0 L642 0 L642 35 C630 36 615 40 607 44 C591 53 583 62 577 81 C572 95 571 116 571 143 L571 381 C571 429 556 462 528 487 C504 508 468 522 419 522 C374 522 339 510 308 488 C284 472 272 456 257 438 L245 438 L245 596 L383 596 L383 640 L245 640 L245 747 C245 753 243 756 236 756 L21 756 L21 721 C37 719 53 715 65 708 C74 703 83 693 89 680 C91 671 93 656 94 640 L13 640 Z " />
<glyph glyph-name="hcircumflex" unicode="&#x125;" horiz-adv-x="660" d="M307 35 C296 36 284 40 276 43 C259 51 253 63 249 84 C246 99 245 120 245 143 L245 312 C245 349 255 383 270 405 C290 433 321 448 354 448 C377 448 391 444 402 434 C414 422 420 404 420 375 L420 143 C420 120 420 99 417 84 C412 63 408 52 390 43 C382 39 369 36 358 35 L358 0 L642 0 L642 35 C630 36 615 40 607 44 C591 53 583 62 577 81 C572 95 571 116 571 143 L571 381 C571 429 556 462 528 487 C504 508 468 522 419 522 C374 522 339 510 308 488 C284 472 272 456 257 438 L245 438 L245 747 C245 753 243 756 236 756 L21 756 L21 721 C37 719 53 715 65 708 C74 703 83 693 89 680 C93 667 94 641 94 617 L94 143 C94 116 93 95 89 81 C83 63 74 52 59 44 C50 40 35 36 23 35 L23 0 L307 0 Z M462 811 L348 921 L275 921 L162 811 L183 782 L312 841 L440 782 Z " />
<glyph glyph-name="ibreve" unicode="&#x12d;" horiz-adv-x="334" d="M244 407 C244 450 246 476 247 499 C247 506 245 509 239 509 L21 509 L21 473 C37 470 52 465 64 458 C75 452 83 444 88 430 C93 417 93 391 93 367 L93 143 C93 116 92 95 88 81 C82 63 73 52 58 44 C49 40 35 36 23 35 L23 0 L316 0 L316 35 C304 36 289 40 281 44 C265 52 257 63 251 81 C246 95 244 116 244 143 Z M144 572 C220 572 270 629 278 716 L240 726 C221 672 192 656 143 656 C96 656 68 672 48 726 L10 716 C18 629 68 572 144 572 Z " />
<glyph glyph-name="idotaccent" horiz-adv-x="334" d="M172 584 C222 584 257 621 257 668 C257 714 221 752 172 752 C122 752 86 714 86 668 C86 621 122 584 172 584 Z M244 407 C244 450 246 476 247 499 C247 506 245 509 239 509 L21 509 L21 473 C37 470 52 465 64 458 C75 452 83 444 88 430 C93 417 93 391 93 367 L93 143 C93 116 92 95 88 81 C82 63 73 52 58 44 C49 40 35 36 23 35 L23 0 L316 0 L316 35 C304 36 289 40 281 44 C265 52 257 63 251 81 C246 95 244 116 244 143 Z " />
<glyph glyph-name="imacron" unicode="&#x12b;" horiz-adv-x="334" d="M270 606 L270 670 L9 670 L9 606 Z M244 407 C244 450 246 476 247 499 C247 506 245 509 239 509 L21 509 L21 473 C37 470 52 465 64 458 C75 452 83 444 88 430 C93 417 93 391 93 367 L93 143 C93 116 92 95 88 81 C82 63 73 52 58 44 C49 40 35 36 23 35 L23 0 L316 0 L316 35 C304 36 289 40 281 44 C265 52 257 63 251 81 C246 95 244 116 244 143 Z " />
<glyph glyph-name="iogonek" unicode="&#x12f;" horiz-adv-x="334" d="M172 584 C222 584 257 621 257 668 C257 714 221 752 172 752 C122 752 86 714 86 668 C86 621 122 584 172 584 Z M216 0 C141 -29 92 -68 92 -124 C92 -190 175 -222 292 -216 L292 -176 C241 -172 206 -151 206 -111 C206 -65 227 -34 266 0 L316 0 L316 35 C304 36 289 40 281 44 C265 52 257 63 251 81 C246 95 244 116 244 143 L244 407 C244 450 246 476 247 499 C247 506 245 509 239 509 L21 509 L21 473 C37 470 52 465 64 458 C75 452 83 444 88 430 C93 417 93 391 93 367 L93 143 C93 116 92 95 88 81 C82 63 73 52 58 44 C49 40 35 36 23 35 L23 0 Z " />
<glyph glyph-name="itilde" unicode="&#x129;" horiz-adv-x="334" d="M244 407 C244 450 246 476 247 499 C247 506 245 509 239 509 L21 509 L21 473 C37 470 52 465 64 458 C75 452 83 444 88 430 C93 417 93 391 93 367 L93 143 C93 116 92 95 88 81 C82 63 73 52 58 44 C49 40 35 36 23 35 L23 0 L316 0 L316 35 C304 36 289 40 281 44 C265 52 257 63 251 81 C246 95 244 116 244 143 Z M311 715 L278 725 C267 693 247 683 212 683 C171 683 129 708 83 708 C25 708 -8 641 -23 586 L11 576 C23 605 45 616 69 616 C108 616 157 592 201 592 C263 592 296 655 311 715 Z " />
<glyph glyph-name="jcircumflex" unicode="&#x135;" horiz-adv-x="312" d="M94 -50 C94 -98 90 -120 79 -140 C69 -159 56 -168 35 -168 C17 -168 6 -161 6 -146 C6 -139 8 -133 11 -125 C15 -114 17 -107 17 -94 C17 -60 -8 -36 -51 -36 C-91 -36 -120 -61 -120 -103 C-120 -135 -105 -161 -76 -180 C-49 -199 -14 -204 25 -204 C97 -204 133 -178 156 -160 C197 -128 245 -75 245 48 L245 408 L248 500 C248 506 246 509 240 509 L20 509 L20 473 C37 470 52 465 65 458 C74 453 83 443 88 430 C93 417 94 391 94 368 Z M300 587 L180 727 L113 727 L-6 587 L23 561 L147 646 L270 561 Z " />
<glyph glyph-name="uni0137" unicode="&#x137;" horiz-adv-x="641" d="M315 35 C302 36 289 40 281 44 C266 52 258 63 252 80 C246 95 245 116 245 143 L245 220 L306 270 C349 257 365 216 376 162 C395 72 411 20 431 0 L635 0 L635 35 C599 40 584 48 571 67 C552 95 533 140 519 204 C505 265 444 304 357 312 L436 375 C481 411 510 433 531 445 C558 461 578 468 598 473 L598 509 L341 509 L341 473 C357 472 375 469 385 464 C401 457 408 449 408 430 C408 406 384 384 348 353 L245 268 L245 649 C245 688 247 724 248 746 C248 753 246 756 240 756 L21 756 L21 721 C37 719 53 716 65 708 C74 703 83 693 89 680 C93 667 94 642 94 617 L94 143 C94 116 93 95 89 80 C83 63 73 52 59 44 C50 40 37 36 25 35 L25 0 L315 0 Z M436 -111 C436 -61 407 -31 360 -31 C319 -31 295 -62 295 -94 C295 -130 317 -149 353 -160 C361 -163 365 -166 365 -174 C365 -200 326 -219 278 -238 L291 -271 C373 -242 436 -189 436 -111 Z " />
<glyph glyph-name="lacute" unicode="&#x13a;" horiz-adv-x="336" d="M244 649 C244 688 246 724 246 746 C246 753 244 756 238 756 L19 756 L19 721 C36 719 52 716 64 708 C73 703 82 693 87 680 C92 667 93 642 93 617 L93 143 C93 116 92 95 87 81 C81 63 73 52 57 44 C49 40 36 36 24 35 L24 0 L313 0 L313 35 C301 36 288 40 279 44 C264 52 257 63 251 81 C245 95 244 116 244 143 Z M22 815 L33 783 C114 795 167 803 216 813 C247 820 288 835 288 878 C288 912 262 936 232 936 C199 936 178 920 141 896 C100 870 74 852 22 815 Z " />
<glyph glyph-name="lcaron" unicode="&#x13e;" horiz-adv-x="336" d="M244 649 C244 688 246 724 246 746 C246 753 244 756 238 756 L19 756 L19 721 C36 719 52 716 64 708 C73 703 82 693 87 680 C92 667 93 642 93 617 L93 143 C93 116 92 95 87 81 C81 63 73 52 57 44 C49 40 36 36 24 35 L24 0 L313 0 L313 35 C301 36 288 40 279 44 C264 52 257 63 251 81 C245 95 244 116 244 143 Z M297 547 L337 547 C368 616 399 688 430 761 L323 761 Z " />
<glyph glyph-name="uni013C" unicode="&#x13c;" horiz-adv-x="336" d="M244 649 C244 688 246 724 246 746 C246 753 244 756 238 756 L19 756 L19 721 C36 719 52 716 64 708 C73 703 82 693 87 680 C92 667 93 642 93 617 L93 143 C93 116 92 95 87 81 C81 63 73 52 57 44 C49 40 36 36 24 35 L24 0 L313 0 L313 35 C301 36 288 40 279 44 C264 52 257 63 251 81 C245 95 244 116 244 143 Z M243 -111 C243 -61 214 -31 167 -31 C126 -31 102 -62 102 -94 C102 -130 124 -149 160 -160 C168 -163 172 -166 172 -174 C172 -200 133 -219 85 -238 L98 -271 C180 -242 243 -189 243 -111 Z " />
<glyph glyph-name="ldot" unicode="&#x140;" horiz-adv-x="443" d="M244 649 C244 688 246 724 246 746 C246 753 244 756 238 756 L19 756 L19 721 C36 719 52 716 64 708 C73 703 82 693 87 680 C92 667 93 642 93 617 L93 143 C93 116 92 95 87 81 C81 63 73 52 57 44 C49 40 36 36 24 35 L24 0 L313 0 L313 35 C301 36 288 40 279 44 C264 52 257 63 251 81 C245 95 244 116 244 143 Z M376 270 C420 270 451 303 451 343 C451 384 419 418 376 418 C333 418 301 384 301 343 C301 303 333 270 376 270 Z " />
<glyph glyph-name="nacute" unicode="&#x144;" horiz-adv-x="660" d="M571 143 L571 381 C571 429 556 462 528 487 C504 508 468 522 419 522 C374 522 340 509 308 488 C283 472 264 452 248 427 L236 427 C237 443 238 491 239 499 C239 506 237 509 230 509 L21 509 L21 473 C37 470 54 465 65 458 C75 452 83 443 89 430 C93 417 94 391 94 367 L94 143 C94 116 93 95 89 81 C83 63 74 52 59 44 C50 40 35 36 23 35 L23 0 L307 0 L307 35 C296 36 284 39 276 43 C260 52 253 63 249 84 C246 99 245 120 245 143 L245 312 C245 349 255 383 270 405 C290 433 321 448 354 448 C377 448 391 444 402 434 C414 422 420 404 420 375 L420 143 C420 120 420 99 417 84 C412 63 408 52 390 43 C382 39 369 36 358 35 L358 0 L642 0 L642 35 C630 36 615 41 607 44 C592 52 583 62 577 81 C572 95 571 116 571 143 Z M235 596 L254 566 C330 594 382 613 424 630 C460 646 483 667 483 699 C483 733 459 752 431 752 C398 752 375 732 343 701 C310 670 287 647 235 596 Z " />
<glyph glyph-name="napostrophe" unicode="&#x149;" horiz-adv-x="769" d="M680 143 L680 381 C680 429 665 462 637 487 C613 508 577 522 528 522 C483 522 449 509 417 488 C392 472 373 452 357 427 L345 427 C346 443 347 491 348 499 C348 506 346 509 339 509 L130 509 L130 473 C146 470 163 465 174 458 C184 452 192 443 198 430 C202 417 203 391 203 367 L203 143 C203 116 202 95 198 81 C192 63 183 52 168 44 C159 40 144 36 132 35 L132 0 L416 0 L416 35 C405 36 393 39 385 43 C369 52 362 63 358 84 C355 99 354 120 354 143 L354 312 C354 349 364 383 379 405 C399 433 430 448 463 448 C486 448 500 444 511 434 C523 422 529 404 529 375 L529 143 C529 120 529 99 526 84 C521 63 517 52 499 43 C491 39 478 36 467 35 L467 0 L751 0 L751 35 C739 36 724 41 716 44 C701 52 692 62 686 81 C681 95 680 116 680 143 Z M146 662 C146 720 110 753 58 753 C16 753 -15 723 -15 682 C-15 640 10 619 50 607 C62 603 67 596 67 584 C67 556 26 524 -36 499 L-24 469 C69 500 146 564 146 662 Z " />
<glyph glyph-name="ncaron" unicode="&#x148;" horiz-adv-x="660" d="M571 143 L571 381 C571 429 556 462 528 487 C504 508 468 522 419 522 C374 522 340 509 308 488 C283 472 264 452 248 427 L236 427 C237 443 238 491 239 499 C239 506 237 509 230 509 L21 509 L21 473 C37 470 54 465 65 458 C75 452 83 443 89 430 C93 417 94 391 94 367 L94 143 C94 116 93 95 89 81 C83 63 74 52 59 44 C50 40 35 36 23 35 L23 0 L307 0 L307 35 C296 36 284 39 276 43 C260 52 253 63 249 84 C246 99 245 120 245 143 L245 312 C245 349 255 383 270 405 C290 433 321 448 354 448 C377 448 391 444 402 434 C414 422 420 404 420 375 L420 143 C420 120 420 99 417 84 C412 63 408 52 390 43 C382 39 369 36 358 35 L358 0 L642 0 L642 35 C630 36 615 41 607 44 C592 52 583 62 577 81 C572 95 571 116 571 143 Z M482 701 L452 727 L329 641 L205 727 L176 701 L295 561 L362 561 Z " />
<glyph glyph-name="uni0146" unicode="&#x146;" horiz-adv-x="660" d="M571 143 L571 381 C571 429 556 462 528 487 C504 508 468 522 419 522 C374 522 340 509 308 488 C283 472 264 452 248 427 L236 427 C237 443 238 491 239 499 C239 506 237 509 230 509 L21 509 L21 473 C37 470 54 465 65 458 C75 452 83 443 89 430 C93 417 94 391 94 367 L94 143 C94 116 93 95 89 81 C83 63 74 52 59 44 C50 40 35 36 23 35 L23 0 L307 0 L307 35 C296 36 284 39 276 43 C260 52 253 63 249 84 C246 99 245 120 245 143 L245 312 C245 349 255 383 270 405 C290 433 321 448 354 448 C377 448 391 444 402 434 C414 422 420 404 420 375 L420 143 C420 120 420 99 417 84 C412 63 408 52 390 43 C382 39 369 36 358 35 L358 0 L642 0 L642 35 C630 36 615 41 607 44 C592 52 583 62 577 81 C572 95 571 116 571 143 Z M426 -106 C426 -56 397 -26 350 -26 C309 -26 285 -57 285 -89 C285 -125 307 -144 343 -155 C351 -158 355 -161 355 -169 C355 -195 316 -214 268 -233 L281 -266 C363 -237 426 -184 426 -106 Z " />
<glyph glyph-name="obreve" unicode="&#x14f;" horiz-adv-x="591" d="M29 256 C29 90 153 -12 295 -12 C438 -12 562 90 562 256 C562 422 438 522 295 522 C153 522 29 422 29 256 Z M190 256 C190 381 206 434 239 463 C254 476 275 482 295 482 C316 482 336 476 352 463 C385 434 402 381 402 256 C402 131 385 78 352 48 C337 36 316 29 295 29 C274 29 254 36 239 48 C206 77 190 131 190 256 Z M293 572 C369 572 419 629 427 716 L389 726 C370 672 341 656 292 656 C245 656 217 672 197 726 L159 716 C167 629 217 572 293 572 Z " />
<glyph glyph-name="ohungarumlaut" unicode="&#x151;" horiz-adv-x="591" d="M29 256 C29 90 153 -12 295 -12 C438 -12 562 90 562 256 C562 422 438 522 295 522 C153 522 29 422 29 256 Z M190 256 C190 381 206 434 239 463 C254 476 275 482 295 482 C316 482 336 476 352 463 C385 434 402 381 402 256 C402 131 385 78 352 48 C337 36 316 29 295 29 C274 29 254 36 239 48 C206 77 190 131 190 256 Z M289 774 C256 774 236 752 223 720 C208 685 188 631 163 568 L193 550 C247 603 270 629 296 656 C319 680 335 698 335 728 C335 753 318 774 289 774 Z M470 774 C437 774 418 752 404 720 L345 568 L375 550 C429 603 451 629 477 656 C500 680 516 698 516 728 C516 753 500 774 470 774 Z " />
<glyph glyph-name="omacron" unicode="&#x14d;" horiz-adv-x="591" d="M29 256 C29 90 153 -12 295 -12 C438 -12 562 90 562 256 C562 422 438 522 295 522 C153 522 29 422 29 256 Z M190 256 C190 381 206 434 239 463 C254 476 275 482 295 482 C316 482 336 476 352 463 C385 434 402 381 402 256 C402 131 385 78 352 48 C337 36 316 29 295 29 C274 29 254 36 239 48 C206 77 190 131 190 256 Z M425 606 L425 670 L164 670 L164 606 Z " />
<glyph glyph-name="oslashacute" unicode="&#x1ff;" horiz-adv-x="591" d="M190 256 C190 381 206 434 239 463 C254 476 275 482 295 482 C316 482 336 476 352 463 C358 458 364 451 369 444 L204 110 C195 143 190 189 190 256 Z M295 29 C274 29 254 36 239 48 C234 52 230 56 226 62 L390 393 C398 361 402 317 402 256 C402 131 385 78 352 48 C337 36 316 29 295 29 Z M295 -12 C438 -12 562 90 562 256 C562 363 510 443 435 486 L480 576 L442 593 L398 503 C366 516 331 522 295 522 C153 522 29 422 29 256 C29 147 83 65 160 22 L116 -68 L154 -85 L198 5 C229 -6 261 -12 295 -12 Z M182 596 L201 566 C277 594 329 613 371 630 C407 646 430 667 430 699 C430 733 406 752 378 752 C345 752 322 732 290 701 C257 670 234 647 182 596 Z " />
<glyph glyph-name="racute" unicode="&#x155;" horiz-adv-x="481" d="M245 408 L234 408 C235 424 238 491 238 499 C238 506 236 509 229 509 L20 509 L20 473 C36 470 57 465 69 457 C79 451 86 442 89 425 C92 411 92 388 92 370 L92 143 C92 116 91 95 86 81 C80 63 72 52 56 44 C48 40 32 36 20 35 L20 0 L321 0 L321 35 C307 36 289 40 278 44 C264 50 256 63 250 81 C244 95 243 116 243 143 L243 241 C243 274 245 311 246 320 C253 391 293 436 316 436 C328 436 336 433 343 413 C356 378 373 361 413 361 C451 361 481 388 481 433 C481 465 469 487 457 499 C440 514 416 521 389 521 C350 521 322 506 303 491 C283 474 265 455 245 408 Z M146 596 L165 566 C241 594 293 613 335 630 C371 646 394 667 394 699 C394 733 370 752 342 752 C309 752 286 732 254 701 C221 670 198 647 146 596 Z " />
<glyph glyph-name="rcaron" unicode="&#x159;" horiz-adv-x="481" d="M245 408 L234 408 C235 424 238 491 238 499 C238 506 236 509 229 509 L20 509 L20 473 C36 470 57 465 69 457 C79 451 86 442 89 425 C92 411 92 388 92 370 L92 143 C92 116 91 95 86 81 C80 63 72 52 56 44 C48 40 32 36 20 35 L20 0 L321 0 L321 35 C307 36 289 40 278 44 C264 50 256 63 250 81 C244 95 243 116 243 143 L243 241 C243 274 245 311 246 320 C253 391 293 436 316 436 C328 436 336 433 343 413 C356 378 373 361 413 361 C451 361 481 388 481 433 C481 465 469 487 457 499 C440 514 416 521 389 521 C350 521 322 506 303 491 C283 474 265 455 245 408 Z M403 696 L373 722 L250 636 L126 722 L97 696 L216 556 L283 556 Z " />
<glyph glyph-name="uni0157" unicode="&#x157;" horiz-adv-x="481" d="M245 408 L234 408 C235 424 238 491 238 499 C238 506 236 509 229 509 L20 509 L20 473 C36 470 57 465 69 457 C79 451 86 442 89 425 C92 411 92 388 92 370 L92 143 C92 116 91 95 86 81 C80 63 72 52 56 44 C48 40 32 36 20 35 L20 0 L321 0 L321 35 C307 36 289 40 278 44 C264 50 256 63 250 81 C244 95 243 116 243 143 L243 241 C243 274 245 311 246 320 C253 391 293 436 316 436 C328 436 336 433 343 413 C356 378 373 361 413 361 C451 361 481 388 481 433 C481 465 469 487 457 499 C440 514 416 521 389 521 C350 521 322 506 303 491 C283 474 265 455 245 408 Z M239 -111 C239 -61 210 -31 163 -31 C122 -31 98 -62 98 -94 C98 -130 120 -149 156 -160 C164 -163 168 -166 168 -174 C168 -200 129 -219 81 -238 L94 -271 C176 -242 239 -189 239 -111 Z " />
<glyph glyph-name="sacute" unicode="&#x15b;" horiz-adv-x="469" d="M441 160 C441 264 362 299 270 333 C184 364 156 381 156 425 C156 465 187 485 230 485 C264 485 291 473 313 454 C341 430 361 393 377 356 L410 356 L404 510 L375 510 L360 471 L352 471 C335 495 293 522 230 522 C120 522 41 459 41 368 C41 249 118 222 200 191 C289 158 324 140 324 89 C324 47 294 26 243 26 C159 26 104 98 68 193 L33 193 L40 3 L70 3 L91 49 L102 49 C133 15 184 -12 241 -12 C362 -12 441 53 441 160 Z M112 596 L131 566 C207 594 259 613 301 630 C337 646 360 667 360 699 C360 733 336 752 308 752 C275 752 252 732 220 701 C187 670 164 647 112 596 Z " />
<glyph glyph-name="uni015F" unicode="&#x15f;" horiz-adv-x="469" d="M346 -119 C346 -68 305 -42 246 -42 C230 -42 205 -47 194 -52 L212 -9 C221 -11 231 -12 241 -12 C362 -12 441 53 441 160 C441 264 362 299 270 333 C184 364 156 381 156 425 C156 465 187 485 230 485 C264 485 291 473 313 454 C341 430 361 393 377 356 L410 356 L404 510 L375 510 L360 471 L352 471 C335 495 293 522 230 522 C120 522 41 459 41 368 C41 249 118 222 200 191 C289 158 324 140 324 89 C324 47 294 26 243 26 C159 26 104 98 68 193 L33 193 L40 3 L70 3 L91 49 L102 49 C120 29 144 11 173 0 L145 -71 L179 -91 C188 -84 200 -80 215 -80 C238 -80 253 -92 253 -123 C253 -158 229 -169 193 -169 C171 -169 142 -160 124 -148 L108 -180 C129 -193 163 -205 210 -205 C285 -205 346 -180 346 -119 Z " />
<glyph glyph-name="scircumflex" unicode="&#x15d;" horiz-adv-x="469" d="M441 160 C441 264 362 299 270 333 C184 364 156 381 156 425 C156 465 187 485 230 485 C264 485 291 473 313 454 C341 430 361 393 377 356 L410 356 L404 510 L375 510 L360 471 L352 471 C335 495 293 522 230 522 C120 522 41 459 41 368 C41 249 118 222 200 191 C289 158 324 140 324 89 C324 47 294 26 243 26 C159 26 104 98 68 193 L33 193 L40 3 L70 3 L91 49 L102 49 C133 15 184 -12 241 -12 C362 -12 441 53 441 160 Z M379 587 L259 727 L192 727 L73 587 L102 561 L226 646 L349 561 Z " />
<glyph glyph-name="uni0219" unicode="&#x219;" horiz-adv-x="469" d="M441 160 C441 264 362 299 270 333 C184 364 156 381 156 425 C156 465 187 485 230 485 C264 485 291 473 313 454 C341 430 361 393 377 356 L410 356 L404 510 L375 510 L360 471 L352 471 C335 495 293 522 230 522 C120 522 41 459 41 368 C41 249 118 222 200 191 C289 158 324 140 324 89 C324 47 294 26 243 26 C159 26 104 98 68 193 L33 193 L40 3 L70 3 L91 49 L102 49 C133 15 184 -12 241 -12 C362 -12 441 53 441 160 Z M322 -111 C322 -61 293 -31 246 -31 C205 -31 181 -62 181 -94 C181 -130 203 -149 239 -160 C247 -163 251 -166 251 -174 C251 -200 212 -219 164 -238 L177 -271 C259 -242 322 -189 322 -111 Z " />
<glyph glyph-name="tbar" unicode="&#x167;" horiz-adv-x="394" d="M10 320 L83 320 L83 120 C83 74 91 40 120 19 C147 -2 181 -12 234 -12 C306 -12 357 12 390 54 L367 84 C349 65 324 53 293 53 C247 53 234 78 234 120 L234 320 L362 320 L362 365 L234 365 L234 461 L363 461 L363 509 L234 509 L234 688 L194 688 C159 572 104 519 8 498 L8 461 L83 461 L83 365 L10 365 Z " />
<glyph glyph-name="tcaron" unicode="&#x165;" horiz-adv-x="394" d="M367 84 C349 65 324 53 293 53 C247 53 234 78 234 120 L234 461 L363 461 L363 509 L234 509 L234 688 L194 688 C159 572 104 519 8 498 L8 461 L83 461 L83 120 C83 74 91 40 120 19 C147 -2 181 -12 234 -12 C306 -12 357 12 390 54 Z M275 541 L315 541 C346 610 377 682 408 755 L301 755 Z " />
<glyph glyph-name="tcommaaccent" unicode="&#x163;" horiz-adv-x="394" d="M367 84 C349 65 324 53 293 53 C247 53 234 78 234 120 L234 461 L363 461 L363 509 L234 509 L234 688 L194 688 C159 572 104 519 8 498 L8 461 L83 461 L83 120 C83 74 91 40 120 19 C147 -2 181 -12 234 -12 C306 -12 357 12 390 54 Z M297 -111 C297 -61 268 -31 221 -31 C180 -31 156 -62 156 -94 C156 -130 178 -149 214 -160 C222 -163 226 -166 226 -174 C226 -200 187 -219 139 -238 L152 -271 C234 -242 297 -189 297 -111 Z " />
<glyph glyph-name="uni021B" unicode="&#x21b;" horiz-adv-x="394" d="M367 84 C349 65 324 53 293 53 C247 53 234 78 234 120 L234 461 L363 461 L363 509 L234 509 L234 688 L194 688 C159 572 104 519 8 498 L8 461 L83 461 L83 120 C83 74 91 40 120 19 C147 -2 181 -12 234 -12 C306 -12 357 12 390 54 Z M297 -111 C297 -61 268 -31 221 -31 C180 -31 156 -62 156 -94 C156 -130 178 -149 214 -160 C222 -163 226 -166 226 -174 C226 -200 187 -219 139 -238 L152 -271 C234 -242 297 -189 297 -111 Z " />
<glyph glyph-name="ubreve" unicode="&#x16d;" horiz-adv-x="658" d="M562 142 L562 405 C562 449 564 476 565 499 C565 506 563 509 556 509 L336 509 L336 473 C354 472 369 468 382 461 C391 455 400 446 405 432 C410 419 411 394 411 369 L411 216 C411 188 411 173 407 151 C404 123 392 100 377 84 C359 61 337 50 312 50 C287 50 270 57 256 75 C243 90 240 114 240 148 L240 405 C240 449 241 476 242 499 C242 506 240 509 234 509 L15 509 L15 473 C31 472 48 468 59 461 C69 455 76 447 82 432 C87 419 88 394 88 369 L88 151 C88 97 101 59 130 30 C158 0 207 -12 256 -12 C298 -12 333 -2 362 19 C386 37 397 54 412 81 L421 81 C421 81 422 15 422 11 C422 3 425 0 432 0 L637 0 L637 35 C624 36 609 40 599 45 C584 51 575 64 569 81 C564 95 562 116 562 142 Z M302 572 C378 572 428 629 436 716 L398 726 C379 672 350 656 301 656 C254 656 226 672 206 726 L168 716 C176 629 226 572 302 572 Z " />
<glyph glyph-name="uhungarumlaut" unicode="&#x171;" horiz-adv-x="658" d="M562 142 L562 405 C562 449 564 476 565 499 C565 506 563 509 556 509 L336 509 L336 473 C354 472 369 468 382 461 C391 455 400 446 405 432 C410 419 411 394 411 369 L411 216 C411 188 411 173 407 151 C404 123 392 100 377 84 C359 61 337 50 312 50 C287 50 270 57 256 75 C243 90 240 114 240 148 L240 405 C240 449 241 476 242 499 C242 506 240 509 234 509 L15 509 L15 473 C31 472 48 468 59 461 C69 455 76 447 82 432 C87 419 88 394 88 369 L88 151 C88 97 101 59 130 30 C158 0 207 -12 256 -12 C298 -12 333 -2 362 19 C386 37 397 54 412 81 L421 81 C421 81 422 15 422 11 C422 3 425 0 432 0 L637 0 L637 35 C624 36 609 40 599 45 C584 51 575 64 569 81 C564 95 562 116 562 142 Z M308 779 C275 779 255 757 242 725 C227 690 207 636 182 573 L212 555 C266 608 289 634 315 661 C338 685 354 703 354 733 C354 758 337 779 308 779 Z M489 779 C456 779 437 757 423 725 L364 573 L394 555 C448 608 470 634 496 661 C519 685 535 703 535 733 C535 758 519 779 489 779 Z " />
<glyph glyph-name="umacron" unicode="&#x16b;" horiz-adv-x="658" d="M562 142 L562 405 C562 449 564 476 565 499 C565 506 563 509 556 509 L336 509 L336 473 C354 472 369 468 382 461 C391 455 400 446 405 432 C410 419 411 394 411 369 L411 216 C411 188 411 173 407 151 C404 123 392 100 377 84 C359 61 337 50 312 50 C287 50 270 57 256 75 C243 90 240 114 240 148 L240 405 C240 449 241 476 242 499 C242 506 240 509 234 509 L15 509 L15 473 C31 472 48 468 59 461 C69 455 76 447 82 432 C87 419 88 394 88 369 L88 151 C88 97 101 59 130 30 C158 0 207 -12 256 -12 C298 -12 333 -2 362 19 C386 37 397 54 412 81 L421 81 C421 81 422 15 422 11 C422 3 425 0 432 0 L637 0 L637 35 C624 36 609 40 599 45 C584 51 575 64 569 81 C564 95 562 116 562 142 Z M439 606 L439 670 L178 670 L178 606 Z " />
<glyph glyph-name="uogonek" unicode="&#x173;" horiz-adv-x="658" d="M538 0 L637 0 L637 35 C624 36 609 40 599 45 C584 51 575 64 569 81 C564 95 562 116 562 142 L562 405 C562 449 564 476 565 499 C565 506 563 509 556 509 L336 509 L336 473 C354 472 369 468 382 461 C391 455 400 446 405 432 C410 419 411 394 411 369 L411 216 C411 188 411 173 407 151 C404 123 392 100 377 84 C359 61 337 50 312 50 C287 50 270 57 256 75 C243 90 240 114 240 148 L240 405 C240 449 241 476 242 499 C242 506 240 509 234 509 L15 509 L15 473 C31 472 48 468 59 461 C69 455 76 447 82 432 C87 419 88 394 88 369 L88 151 C88 97 101 59 130 30 C158 0 207 -12 256 -12 C298 -12 333 -2 362 19 C386 37 397 54 412 81 L421 81 L421 -8 C354 -32 303 -70 303 -124 C303 -190 386 -222 503 -216 L503 -176 C451 -172 416 -151 416 -111 C416 -48 466 0 538 0 Z " />
</font>
</svg>
