<?xml version="1.0" encoding="UTF-8"?>
<svg xmlns="http://www.w3.org/2000/svg" xmlns:xlink="http://www.w3.org/1999/xlink" version="1.2" >
<font id="Austin News Text Roman">
<font-face  font-family="Austin News Text" units-per-em="1000" ascent="807" descent="-193" font-style="normal" font-weight="400" font-stretch="normal" cap-height="698" x-height="505" underline-position="-100" underline-thickness="50" />
<missing-glyph  horiz-adv-x="500" />
<glyph glyph-name="space" unicode="&#x20;" horiz-adv-x="220" />
<glyph glyph-name="exclam" unicode="&#x21;" horiz-adv-x="266" d="M134 711 C104 711 75 691 75 639 C75 590 80 541 88 458 C100 329 110 229 113 186 L153 186 L179 458 C187 541 192 590 192 639 C192 692 163 711 134 711 Z M201 56 C201 92 172 123 134 123 C92 123 65 92 65 56 C65 16 92 -13 134 -13 C172 -13 201 16 201 56 Z " />
<glyph glyph-name="quotedbl" unicode="&#x22;" horiz-adv-x="356" d="M210 668 C210 652 215 617 221 582 C227 546 235 486 240 454 L276 454 C281 486 289 546 295 582 C301 617 306 652 306 668 C306 705 283 720 258 720 C233 720 210 705 210 668 Z M98 720 C73 720 50 705 50 668 C50 652 55 617 61 582 C67 546 75 486 80 454 L116 454 C121 486 129 546 135 582 C141 617 146 652 146 668 C146 705 123 720 98 720 Z " />
<glyph glyph-name="numbersign" unicode="&#x23;" horiz-adv-x="618" d="M380 261 L216 261 L244 422 L408 422 Z M335 0 L379 0 L417 222 L557 222 L557 261 L424 261 L452 422 L594 422 L594 461 L459 461 L496 677 L452 677 L415 461 L251 461 L288 677 L244 677 L207 461 L61 461 L61 422 L200 422 L172 261 L25 261 L25 222 L165 222 L127 0 L171 0 L209 222 L373 222 Z " />
<glyph glyph-name="dollar" unicode="&#x24;" horiz-adv-x="503" d="M133 549 C133 602 171 648 239 654 L239 411 C177 443 133 477 133 549 Z M396 137 C396 78 357 34 281 25 L281 281 C358 244 396 219 396 137 Z M281 -109 L281 -11 C403 2 473 88 473 184 C473 298 387 336 281 389 L281 653 C322 648 359 628 359 591 C359 586 356 573 356 568 C356 531 373 506 411 506 C433 506 459 524 459 561 C459 616 404 682 281 690 L281 786 L239 786 L239 690 C138 683 54 612 54 513 C54 386 158 336 239 300 L239 23 C180 26 133 50 133 84 C133 94 142 115 142 128 C142 166 123 188 86 188 C59 188 35 164 35 127 C35 63 120 -9 239 -13 L239 -109 Z " />
<glyph glyph-name="percent" unicode="&#x25;" horiz-adv-x="771" d="M605 675 L573 695 L166 4 L199 -16 Z M351 510 C351 613 286 691 198 691 C112 691 48 613 48 510 C48 407 112 329 198 329 C286 329 351 407 351 510 Z M198 658 C251 658 274 611 274 510 C274 409 251 361 198 361 C147 361 124 412 124 510 C124 608 147 658 198 658 Z M420 169 C420 66 485 -12 573 -12 C659 -12 723 66 723 169 C723 272 659 350 573 350 C485 350 420 272 420 169 Z M573 21 C520 21 497 68 497 169 C497 270 520 318 573 318 C624 318 647 267 647 169 C647 71 624 21 573 21 Z " />
<glyph glyph-name="ampersand" unicode="&#x26;" horiz-adv-x="710" d="M566 -13 C635 -13 696 29 710 58 L691 84 C677 70 654 57 623 57 C596 57 573 74 551 107 L518 155 C540 190 560 237 571 274 C587 327 600 357 608 370 C620 387 627 397 645 408 C658 415 666 417 685 419 L685 453 L469 453 L469 419 C483 418 496 416 509 409 C528 397 536 379 536 356 C536 329 531 302 525 278 C517 248 506 220 489 193 C449 247 404 306 380 339 C360 365 338 395 318 420 C367 456 442 515 442 590 C442 665 388 711 292 711 C197 711 136 647 136 557 C136 530 148 482 178 439 L210 393 C135 347 30 280 30 169 C30 69 110 -13 244 -13 C327 -13 406 19 451 70 C461 56 468 45 471 40 C492 1 520 -13 566 -13 Z M295 51 C219 51 141 88 141 198 C141 292 173 312 235 359 C264 320 291 285 303 271 C329 239 385 163 425 106 C392 72 352 51 295 51 Z M215 598 C215 646 249 670 293 670 C345 670 365 635 365 588 C365 515 334 484 293 453 C248 513 215 553 215 598 Z " />
<glyph glyph-name="quotesingle" unicode="&#x27;" horiz-adv-x="196" d="M98 720 C73 720 50 705 50 668 C50 652 55 617 61 582 C67 546 75 486 80 454 L116 454 C121 486 129 546 135 582 C141 617 146 652 146 668 C146 705 123 720 98 720 Z " />
<glyph glyph-name="parenleft" unicode="&#x28;" horiz-adv-x="284" d="M272 -92 C194 18 141 136 141 314 C141 492 194 610 272 720 L235 749 C144 632 60 506 60 314 C60 122 144 -4 235 -121 Z " />
<glyph glyph-name="parenright" unicode="&#x29;" horiz-adv-x="284" d="M12 -92 L49 -121 C140 -4 224 122 224 314 C224 506 140 632 49 749 L12 720 C90 610 143 492 143 314 C143 136 90 18 12 -92 Z " />
<glyph glyph-name="asterisk" unicode="&#x2a;" horiz-adv-x="418" d="M335 347 C350 358 355 377 341 398 C324 419 276 461 239 508 C294 520 351 526 375 533 C398 541 405 560 400 576 C394 593 378 605 354 597 C330 589 278 559 226 538 C230 593 242 649 242 675 C242 700 226 712 209 712 C192 712 176 700 176 675 C176 649 188 593 192 538 C140 559 88 589 64 597 C40 605 24 593 18 576 C13 560 20 541 43 533 C67 526 124 520 179 508 C142 461 94 419 77 398 C63 377 68 358 83 347 C97 338 117 339 131 358 C148 381 175 442 209 494 C243 443 270 381 287 358 C301 339 321 338 335 347 Z " />
<glyph glyph-name="plus" unicode="&#x2b;" horiz-adv-x="469" d="M429 283 L429 325 L256 325 L256 499 L214 499 L214 325 L40 325 L40 283 L214 283 L214 110 L256 110 L256 283 Z " />
<glyph glyph-name="comma" unicode="&#x2c;" horiz-adv-x="278" d="M218 40 C218 95 183 123 141 123 C108 123 74 98 74 61 C74 19 99 2 130 -9 C144 -14 148 -22 148 -35 C148 -65 117 -97 45 -128 L58 -158 C147 -127 218 -56 218 40 Z " />
<glyph glyph-name="hyphen" unicode="&#x2d;" horiz-adv-x="353" d="M293 273 L293 353 L60 353 L60 273 Z " />
<glyph glyph-name="period" unicode="&#x2e;" horiz-adv-x="256" d="M129 -13 C167 -13 196 16 196 56 C196 92 167 123 129 123 C87 123 60 92 60 56 C60 16 87 -13 129 -13 Z " />
<glyph glyph-name="slash" unicode="&#x2f;" horiz-adv-x="420" d="M406 747 L353 768 L-14 -164 L39 -185 Z " />
<glyph glyph-name="zero" unicode="0" horiz-adv-x="656" d="M51 338 C51 146 159 -13 328 -13 C497 -13 605 146 605 338 C605 531 497 691 328 691 C159 691 51 531 51 338 Z M486 338 C486 115 428 27 328 27 C229 27 170 115 170 338 C170 562 229 651 328 651 C428 651 486 562 486 338 Z " />
<glyph glyph-name="one" unicode="1" horiz-adv-x="364" d="M331 0 L331 34 C310 37 284 44 275 49 C258 59 253 64 246 83 C242 97 240 125 240 157 L240 558 C240 585 242 662 242 677 C242 683 239 685 234 685 C224 685 203 681 176 676 C132 668 67 662 30 660 L30 626 C52 622 93 611 107 605 C119 599 129 592 132 570 C134 553 135 519 135 500 L135 157 C135 125 133 97 129 83 C123 64 117 59 100 49 C91 44 66 37 44 34 L44 0 Z " />
<glyph glyph-name="two" unicode="2" horiz-adv-x="536" d="M228 651 C310 651 359 617 359 505 C359 313 194 184 88 86 C54 55 31 35 10 17 L17 0 L453 0 L508 203 L468 203 C460 183 439 151 421 133 C400 112 371 90 307 90 L146 90 L146 95 C189 128 213 146 238 168 C307 226 473 344 473 502 C473 617 389 691 246 691 C109 691 36 619 36 536 C36 497 64 469 100 469 C135 469 162 492 162 523 C162 541 158 549 152 559 C142 578 137 583 137 596 C137 630 174 651 228 651 Z " />
<glyph glyph-name="three" unicode="3" horiz-adv-x="537" d="M257 691 C120 691 58 619 58 558 C58 520 82 495 114 495 C144 495 166 513 166 549 C166 563 163 573 159 582 C156 591 153 599 153 611 C153 635 190 651 248 651 C330 651 349 619 349 553 C349 462 316 432 212 371 L138 328 L157 296 L201 322 C222 333 248 342 271 342 C357 342 391 302 391 221 C391 92 341 26 224 26 C186 26 164 36 148 47 C137 56 124 64 119 88 C116 100 115 119 115 133 C115 167 99 194 63 194 C35 194 11 176 11 136 C11 71 100 -13 224 -13 C422 -13 505 109 505 214 C505 304 433 394 282 373 L282 376 C369 422 457 463 457 553 C457 646 379 691 257 691 Z " />
<glyph glyph-name="four" unicode="4" horiz-adv-x="592" d="M67 260 L281 540 L295 540 L295 260 Z M492 35 C471 38 446 45 436 50 C419 60 414 65 408 84 C403 98 401 126 401 158 L401 222 L425 222 C469 222 487 215 500 198 C515 178 520 154 524 125 L561 125 L561 358 L524 358 C520 329 515 305 500 285 C487 268 469 260 425 260 L401 260 L401 606 C401 634 403 656 403 672 C403 674 402 676 400 676 L343 676 L14 253 L14 222 L295 222 L295 158 C295 126 292 98 288 84 C282 65 277 60 260 50 C250 45 226 38 205 35 L205 0 L492 0 Z " />
<glyph glyph-name="five" unicode="5" horiz-adv-x="550" d="M224 25 C190 25 169 33 150 44 C138 51 123 63 119 82 C115 99 116 119 116 133 C116 167 101 194 65 194 C37 194 12 174 12 133 C12 68 92 -13 222 -13 C397 -13 504 78 504 215 C504 329 432 419 285 419 C213 419 173 397 149 373 L141 375 L185 574 C220 565 265 556 305 556 C426 556 479 615 506 729 L478 738 C467 705 429 647 344 647 C277 647 241 660 198 677 L161 677 L78 297 L122 287 C140 328 190 378 260 378 C354 378 391 334 391 214 C391 85 329 25 224 25 Z " />
<glyph glyph-name="six" unicode="6" horiz-adv-x="585" d="M554 562 C554 627 506 691 369 691 C225 691 49 548 49 283 C49 116 140 -13 300 -13 C430 -13 540 78 540 212 C540 347 456 427 329 427 C257 427 198 397 172 340 L162 340 C171 520 254 650 369 650 C423 650 456 632 456 615 C456 609 455 604 450 587 C447 578 444 570 444 553 C444 517 469 499 499 499 C531 499 554 524 554 562 Z M297 380 C375 380 431 356 431 209 C431 62 378 27 298 27 C228 27 163 49 163 199 C163 348 231 380 297 380 Z " />
<glyph glyph-name="seven" unicode="7" horiz-adv-x="494" d="M496 660 L496 677 L163 677 C119 677 101 696 95 714 L68 714 L26 492 L58 492 C70 522 85 554 111 569 C137 584 151 586 209 586 L409 586 L409 582 C352 483 296 397 245 305 C200 224 139 122 139 42 C139 12 154 -13 191 -13 C229 -13 242 10 251 82 C278 281 341 387 496 660 Z " />
<glyph glyph-name="eight" unicode="8" horiz-adv-x="562" d="M285 -13 C439 -13 526 77 526 188 C526 291 443 340 372 369 C443 402 497 457 497 533 C497 640 416 691 284 691 C161 691 66 622 66 507 C66 404 133 353 191 326 C115 298 49 241 49 156 C49 50 154 -13 285 -13 Z M156 542 C156 608 198 650 284 650 C374 650 422 620 422 531 C422 457 383 411 331 384 C208 429 156 460 156 542 Z M285 27 C193 27 126 64 126 162 C126 244 174 286 232 309 C391 245 431 227 431 134 C431 45 368 27 285 27 Z " />
<glyph glyph-name="nine" unicode="9" horiz-adv-x="590" d="M295 281 C218 281 165 312 165 459 C165 606 215 650 294 650 C364 650 428 619 428 469 C428 320 362 281 295 281 Z M53 111 C53 50 98 -13 234 -13 C390 -13 545 103 545 385 C545 552 463 691 293 691 C152 691 56 590 56 456 C56 321 143 231 270 231 C342 231 399 265 422 317 L432 317 C427 118 361 27 234 27 C180 27 149 38 149 57 C149 69 150 69 156 86 C159 95 162 103 162 120 C162 156 139 174 108 174 C76 174 53 149 53 111 Z " />
<glyph glyph-name="colon" unicode="&#x3a;" horiz-adv-x="256" d="M129 379 C167 379 196 408 196 448 C196 484 167 515 129 515 C87 515 60 484 60 448 C60 408 87 379 129 379 Z M129 -13 C167 -13 196 16 196 56 C196 92 167 123 129 123 C87 123 60 92 60 56 C60 16 87 -13 129 -13 Z " />
<glyph glyph-name="semicolon" unicode="&#x3b;" horiz-adv-x="278" d="M143 379 C181 379 210 408 210 448 C210 484 181 515 143 515 C101 515 74 484 74 448 C74 408 101 379 143 379 Z M218 40 C218 95 183 123 141 123 C108 123 74 98 74 61 C74 19 99 2 130 -9 C144 -14 148 -22 148 -35 C148 -65 117 -97 45 -128 L58 -158 C147 -127 218 -56 218 40 Z " />
<glyph glyph-name="less" unicode="&#x3c;" horiz-adv-x="469" d="M380 133 L380 179 L110 304 L380 429 L380 475 L61 323 L61 285 Z " />
<glyph glyph-name="equal" unicode="&#x3d;" horiz-adv-x="469" d="M419 383 L419 425 L50 425 L50 383 Z M419 183 L419 225 L50 225 L50 183 Z " />
<glyph glyph-name="greater" unicode="&#x3e;" horiz-adv-x="469" d="M408 285 L408 323 L89 475 L89 428 L360 304 L89 180 L89 133 Z " />
<glyph glyph-name="question" unicode="&#x3f;" horiz-adv-x="447" d="M414 507 C414 595 373 645 319 678 C285 698 244 711 185 711 C88 711 28 663 28 623 C28 585 51 570 82 570 C118 570 135 591 141 626 C149 665 167 674 191 674 C255 674 312 630 312 552 C312 438 261 349 167 349 L104 349 L104 186 L140 186 L140 312 L191 312 C277 312 414 368 414 507 Z M193 56 C193 92 164 123 126 123 C84 123 57 92 57 56 C57 16 84 -13 126 -13 C164 -13 193 16 193 56 Z " />
<glyph glyph-name="at" unicode="&#x40;" horiz-adv-x="869" d="M844 312 C844 508 716 634 494 634 C265 634 38 453 38 190 C38 -36 203 -177 450 -177 C591 -177 713 -132 780 -82 L764 -56 C697 -104 576 -147 448 -147 C220 -147 96 -17 96 200 C96 441 293 605 495 605 C695 605 809 496 809 312 C809 156 712 43 616 43 C589 43 576 61 576 91 C576 111 588 170 620 264 C648 350 661 397 679 453 L596 453 C586 433 580 415 570 392 L561 392 C558 434 526 461 485 461 C341 461 222 271 222 144 C222 38 280 7 327 7 C363 7 401 22 436 57 C457 78 474 104 494 138 L501 138 C497 121 495 106 495 94 C495 41 528 7 593 7 C726 7 844 140 844 312 Z M535 358 C535 326 525 285 510 242 C503 219 495 198 481 173 C462 139 453 122 428 91 C407 66 383 48 358 48 C334 48 318 66 318 115 C318 164 330 269 381 351 C414 403 446 427 485 427 C519 427 535 404 535 358 Z " />
<glyph glyph-name="A" unicode="A" horiz-adv-x="691" d="M295 525 L306 525 L398 278 L205 278 Z M238 36 C219 37 198 41 186 46 C167 54 153 73 153 101 C153 125 156 145 168 177 L190 238 L412 238 L429 193 C443 154 453 125 453 94 C453 61 437 55 417 46 C405 41 395 39 369 36 L369 0 L686 0 L686 36 C672 39 661 44 649 49 C630 59 613 72 596 97 C583 117 570 143 556 181 L361 702 L318 702 L120 185 C103 140 90 109 80 90 C69 70 56 57 44 50 C30 42 16 38 -4 36 L-4 0 L238 0 Z " />
<glyph glyph-name="B" unicode="B" horiz-adv-x="666" d="M35 0 L401 0 C526 0 635 77 635 196 C635 314 534 360 426 371 L426 378 C465 386 485 393 505 404 C554 431 597 466 597 540 C597 666 466 698 350 698 L35 698 L35 662 C51 661 63 659 73 656 C95 648 110 638 122 616 C134 590 137 569 137 506 L137 193 C137 131 134 108 122 83 C110 61 95 50 73 43 C63 39 51 37 35 36 Z M250 390 L250 637 C250 645 252 652 255 656 C259 661 266 662 278 662 L352 662 C434 662 489 634 489 540 C489 505 482 458 460 428 C441 403 410 390 355 390 Z M351 36 C315 36 287 40 272 56 C254 74 250 105 250 154 L250 352 L355 352 C408 352 455 345 481 319 C511 288 520 241 520 196 C520 139 511 101 488 76 C462 48 421 36 373 36 Z " />
<glyph glyph-name="C" unicode="C" horiz-adv-x="679" d="M371 670 C457 670 484 647 518 606 C542 577 568 531 585 460 L623 460 L623 699 L601 699 L567 653 L559 653 C529 680 479 711 371 711 C198 711 37 561 37 349 C37 137 166 -14 362 -14 C513 -14 596 55 646 157 L616 174 C569 82 486 43 392 43 C329 43 298 52 260 78 C201 118 158 176 158 349 C158 533 210 608 272 645 C303 663 337 670 371 670 Z " />
<glyph glyph-name="D" unicode="D" horiz-adv-x="748" d="M35 698 L35 662 C51 661 63 659 73 656 C95 648 110 638 122 616 C134 590 137 568 137 505 L137 193 C137 131 134 108 122 83 C110 61 95 50 73 43 C63 39 51 37 35 36 L35 0 L375 0 C435 0 500 17 544 41 C643 96 713 196 713 350 C713 501 635 603 538 656 C494 681 432 698 348 698 Z M598 348 C598 213 562 142 508 89 C470 53 412 36 365 36 L351 36 C315 36 287 40 272 56 C254 74 250 105 250 154 L250 630 C250 642 251 650 256 655 C262 661 268 662 278 662 L344 662 C398 662 464 649 504 614 C560 565 598 482 598 348 Z " />
<glyph glyph-name="E" unicode="E" horiz-adv-x="644" d="M607 196 L575 196 C556 158 543 124 499 84 C470 58 442 36 368 36 L350 36 C314 36 286 40 271 56 C253 74 249 105 249 154 L249 342 L295 342 C340 342 366 337 386 318 C414 293 419 263 423 230 L456 230 L456 491 L423 491 C419 459 416 431 388 406 C368 387 341 379 295 379 L249 379 L249 586 C249 612 249 629 261 644 C272 658 291 662 310 662 L359 662 C418 662 460 641 479 625 C514 598 528 572 554 525 L588 525 L557 698 L35 698 L35 662 C51 661 63 659 73 656 C95 648 110 638 122 616 C134 590 137 568 137 505 L137 193 C137 131 134 108 122 83 C110 61 95 50 73 43 C63 39 51 37 35 36 L35 0 L576 0 Z " />
<glyph glyph-name="F" unicode="F" horiz-adv-x="605" d="M359 36 C343 37 324 39 314 43 C292 50 277 61 265 83 C253 108 250 131 250 193 L250 347 L281 347 C327 347 352 341 373 322 C400 297 405 267 410 234 L443 234 L443 495 L410 495 C405 463 402 436 375 410 C355 391 328 384 281 384 L250 384 L250 588 C250 614 250 631 262 646 C273 660 292 662 311 662 L350 662 C414 662 448 639 467 623 C502 596 525 558 553 507 L585 507 L556 698 L35 698 L35 662 C51 661 63 659 73 656 C95 648 110 638 122 616 C134 590 137 568 137 505 L137 193 C137 131 134 108 122 83 C110 61 95 50 73 43 C63 39 51 37 35 36 L35 0 L359 0 Z " />
<glyph glyph-name="G" unicode="G" horiz-adv-x="760" d="M519 177 L519 145 C519 80 505 65 495 57 C477 41 454 28 377 28 C330 28 299 39 262 62 C197 102 166 172 166 349 C166 533 221 614 275 645 C307 663 336 670 368 670 C459 670 488 647 526 607 C557 574 575 531 592 460 L626 460 L626 699 L604 699 L573 653 L566 653 C536 680 481 711 369 711 C197 711 40 561 40 349 C40 137 165 -14 376 -14 C441 -14 509 0 548 8 C584 17 614 28 628 37 L628 123 C628 186 630 235 643 260 C655 283 669 292 692 300 C701 303 714 305 730 306 L730 341 L415 341 L415 306 C431 305 444 303 454 300 C476 292 491 287 502 264 C515 239 519 223 519 177 Z " />
<glyph glyph-name="H" unicode="H" horiz-adv-x="811" d="M349 36 C335 37 326 39 314 43 C292 50 277 61 265 83 C253 108 250 131 250 193 L250 333 L561 333 L561 193 C561 131 558 108 546 83 C534 61 519 50 497 43 C485 39 476 37 462 36 L462 0 L776 0 L776 36 C760 37 750 39 738 43 C717 50 701 61 689 83 C677 108 674 131 674 193 L674 505 C674 568 677 590 689 616 C701 638 716 648 738 656 C749 660 760 661 776 662 L776 698 L462 698 L462 662 C478 661 486 660 497 656 C519 648 534 638 546 616 C558 590 561 568 561 505 L561 373 L250 373 L250 505 C250 568 253 590 265 616 C277 638 293 648 314 656 C325 660 333 661 349 662 L349 698 L35 698 L35 662 C51 661 60 660 73 656 C95 649 110 638 122 616 C134 590 137 568 137 505 L137 193 C137 131 134 108 122 83 C110 61 95 50 73 43 C63 39 51 37 35 36 L35 0 L349 0 Z " />
<glyph glyph-name="I" unicode="I" horiz-adv-x="387" d="M250 505 C250 568 253 590 265 616 C277 638 292 649 314 656 C324 659 336 661 352 662 L352 698 L35 698 L35 662 C51 661 63 659 73 656 C97 649 110 638 122 616 C134 590 137 568 137 505 L137 193 C137 131 134 108 122 83 C110 61 95 51 73 43 C62 39 51 37 35 36 L35 0 L352 0 L352 36 C336 37 324 39 314 43 C293 51 277 61 265 83 C253 108 250 131 250 193 Z " />
<glyph glyph-name="J" unicode="J" horiz-adv-x="437" d="M215 505 L215 174 C215 138 217 92 203 60 C191 34 177 28 156 28 C146 28 134 33 126 43 C119 52 115 64 113 76 C110 92 104 109 97 121 C87 136 70 144 51 144 C19 144 -8 122 -8 85 C-8 58 8 32 23 19 C53 -8 101 -15 132 -15 C191 -15 233 7 265 40 C290 68 326 116 326 212 L326 505 C326 568 328 590 341 615 C353 638 367 648 390 656 C399 659 412 661 428 662 L428 698 L113 698 L113 662 C129 661 142 659 152 656 C174 648 189 638 200 615 C213 590 215 568 215 505 Z " />
<glyph glyph-name="K" unicode="K" horiz-adv-x="712" d="M349 36 C333 37 319 39 309 43 C287 50 272 61 260 83 C248 108 245 131 245 193 L245 308 C254 320 268 334 277 342 C294 357 316 372 338 372 C387 372 405 352 427 312 C440 287 452 243 459 169 C465 98 492 22 516 0 L698 0 L698 36 C683 38 649 47 634 57 C611 74 589 95 579 187 C571 265 540 318 502 357 C469 390 422 406 349 406 L349 414 L476 534 C530 588 559 611 591 630 C616 645 652 659 675 662 L675 698 L402 698 L402 662 C416 661 432 659 442 655 C458 648 472 643 472 618 C472 590 445 565 401 521 L245 368 L245 505 C245 568 248 590 260 616 C272 638 287 648 309 656 C319 659 333 661 349 662 L349 698 L30 698 L30 662 C46 661 58 659 68 656 C90 648 105 638 117 616 C129 590 132 568 132 505 L132 193 C132 131 129 108 117 83 C105 61 90 50 68 43 C58 39 46 37 30 36 L30 0 L349 0 Z " />
<glyph glyph-name="L" unicode="L" horiz-adv-x="622" d="M35 0 L571 0 L607 214 L574 214 C553 169 531 130 483 85 C454 57 425 36 352 36 L345 36 C309 36 285 40 270 56 C252 74 248 105 248 154 L248 505 C248 568 251 590 263 616 C275 638 290 648 312 656 C322 659 334 661 350 662 L350 698 L35 698 L35 662 C51 661 63 659 73 656 C95 648 110 638 122 616 C134 590 137 568 137 505 L137 193 C137 131 134 108 122 83 C110 61 95 50 73 43 C63 39 51 37 35 36 Z " />
<glyph glyph-name="M" unicode="M" horiz-adv-x="937" d="M902 698 L665 698 L483 176 L473 176 L291 698 L32 698 L32 662 C48 661 70 659 79 656 C102 649 117 638 128 616 C141 590 143 568 143 506 L143 170 C143 114 135 91 119 73 C103 55 91 47 72 42 C61 39 47 37 32 36 L32 0 L298 0 L298 36 C278 38 268 40 254 44 C236 49 223 58 211 76 C198 93 192 114 192 170 L192 593 L203 593 L416 -4 L467 -4 L677 593 L687 593 L687 192 C687 130 685 108 672 82 C661 60 646 49 624 42 C614 39 597 37 581 36 L581 0 L902 0 L902 36 C886 37 873 39 864 42 C841 49 827 60 815 82 C802 108 800 130 800 192 L800 506 C800 568 802 590 815 616 C827 638 841 649 864 656 C873 659 886 661 902 662 Z " />
<glyph glyph-name="N" unicode="N" horiz-adv-x="773" d="M654 -8 L654 527 C654 583 661 604 674 621 C686 639 699 648 717 653 C731 657 741 660 760 662 L760 698 L490 698 L490 662 C505 661 524 659 535 655 C554 650 567 644 583 626 C599 608 606 583 606 527 L606 194 L597 194 L257 698 L29 698 L29 662 C44 661 59 658 69 653 C105 635 117 622 128 599 C140 574 149 538 149 461 L149 170 C149 114 140 91 124 73 C109 55 97 47 78 42 C67 39 52 37 38 36 L38 0 L303 0 L303 36 C284 38 274 40 260 44 C242 50 229 58 216 76 C204 93 197 114 197 170 L197 571 L207 571 L603 -8 Z " />
<glyph glyph-name="O" unicode="O" horiz-adv-x="746" d="M373 711 C190 711 37 561 37 349 C37 137 190 -14 373 -14 C556 -14 709 137 709 349 C709 561 556 711 373 711 Z M373 27 C335 27 301 36 269 56 C212 93 160 164 160 349 C160 533 212 604 269 641 C301 661 335 670 373 670 C411 670 445 661 477 641 C534 604 587 533 587 349 C587 164 534 93 477 56 C445 36 411 27 373 27 Z " />
<glyph glyph-name="P" unicode="P" horiz-adv-x="610" d="M354 36 C338 37 324 39 314 43 C292 50 277 61 265 83 C253 108 250 131 250 193 L250 312 L310 312 C404 312 466 334 503 354 C553 382 592 438 592 516 C592 633 494 698 349 698 L35 698 L35 662 C51 661 64 660 74 657 C96 650 111 639 123 617 C135 591 138 569 138 506 L138 193 C138 131 135 108 123 83 C111 61 96 50 74 43 C64 39 52 37 36 36 L36 0 L354 0 Z M250 633 C250 645 253 651 256 655 C260 660 267 662 279 662 L333 662 C439 662 480 605 480 512 C480 477 476 434 454 404 C431 373 386 350 310 350 L250 350 Z " />
<glyph glyph-name="Q" unicode="Q" horiz-adv-x="742" d="M600 -138 C665 -138 706 -114 732 -90 L714 -63 C691 -82 671 -93 638 -93 C578 -93 562 -54 536 30 C638 89 709 205 709 349 C709 561 556 711 373 711 C190 711 37 561 37 349 C37 137 190 -14 373 -14 C392 -14 411 -12 429 -9 C461 -95 511 -138 600 -138 Z M346 206 C276 206 229 174 201 130 C177 176 160 244 160 349 C160 533 212 604 269 641 C301 661 335 670 373 670 C411 670 445 661 477 641 C534 604 587 533 587 349 C587 208 556 133 516 89 C488 153 428 206 346 206 Z M373 27 C335 27 301 36 269 56 C254 66 239 78 225 95 C242 129 276 152 310 152 C369 152 390 116 416 31 C402 28 388 27 373 27 Z " />
<glyph glyph-name="R" unicode="R" horiz-adv-x="717" d="M348 662 C443 662 483 612 483 518 C483 473 473 437 454 411 C431 381 405 368 323 368 L250 368 L250 636 C250 648 250 653 254 657 C257 662 263 662 275 662 Z M352 36 C336 37 324 39 314 43 C292 50 277 61 265 83 C253 108 250 131 250 193 L250 330 L320 330 C366 330 402 325 425 296 C455 259 460 232 472 149 C480 89 501 27 524 0 L705 0 L705 36 C677 38 654 47 639 57 C616 74 596 105 579 198 C565 270 536 293 505 313 C485 327 452 338 419 342 L419 350 C473 361 502 374 520 386 C563 414 597 453 597 518 C597 627 501 698 363 698 L35 698 L35 662 C51 661 63 659 73 656 C95 648 110 638 122 616 C134 590 137 568 137 505 L137 193 C137 131 134 108 122 83 C110 61 95 50 73 43 C63 39 51 37 35 36 L35 0 L352 0 Z " />
<glyph glyph-name="S" unicode="S" horiz-adv-x="546" d="M513 193 C513 323 410 363 300 418 C226 455 150 480 150 572 C150 637 198 673 258 673 C313 673 340 657 365 633 C397 603 424 554 445 500 L479 500 L462 703 L431 703 L409 661 L400 661 C364 693 338 711 258 711 C145 711 58 636 58 528 C58 403 153 358 250 310 C351 260 423 238 423 144 C423 75 376 24 284 24 C194 24 111 128 71 236 L37 236 L47 5 L72 5 L100 54 L110 54 C145 21 209 -14 284 -14 C403 -14 513 61 513 193 Z " />
<glyph glyph-name="T" unicode="T" horiz-adv-x="670" d="M392 193 L392 660 L420 660 C468 660 504 653 548 621 C594 588 611 559 631 518 L663 518 L632 698 L38 698 L7 518 L41 518 C61 559 75 585 123 621 C167 653 202 660 250 660 L279 660 L279 193 C279 131 277 108 264 83 C252 61 237 50 215 43 C206 39 193 37 177 36 L177 0 L493 0 L493 36 C478 37 465 39 455 43 C433 50 418 61 407 83 C394 108 392 131 392 193 Z " />
<glyph glyph-name="U" unicode="U" horiz-adv-x="752" d="M638 234 L638 527 C638 584 644 605 657 622 C670 640 683 648 701 654 C714 658 725 660 744 662 L744 698 L475 698 L475 662 C490 661 509 659 520 656 C539 650 551 644 567 626 C583 608 591 584 591 527 L591 228 C591 168 584 129 564 96 C537 51 481 29 395 29 C320 29 259 51 236 128 C225 162 222 194 222 224 L222 506 C222 568 225 590 238 615 C250 638 264 648 287 656 C296 659 309 661 325 662 L325 698 L7 698 L7 662 C23 661 36 659 46 656 C68 648 83 638 94 615 C107 590 109 568 109 505 L109 263 C109 223 113 156 128 117 C163 25 276 -13 386 -13 C497 -13 566 20 600 72 C630 117 638 162 638 234 Z " />
<glyph glyph-name="V" unicode="V" horiz-adv-x="696" d="M270 505 C259 535 244 572 244 604 C244 637 262 647 282 653 C292 656 310 659 337 662 L337 698 L5 698 L5 662 C19 658 34 654 46 649 C65 639 82 625 99 601 C112 581 126 553 139 516 L334 -5 L376 -5 L569 513 C586 559 599 588 609 607 C620 628 633 640 646 648 C659 656 676 659 696 662 L696 698 L456 698 L456 662 C475 660 496 657 508 652 C527 644 541 624 541 597 C541 572 535 549 524 518 L398 170 L389 170 Z " />
<glyph glyph-name="W" unicode="W" horiz-adv-x="1044" d="M699 -5 L740 -5 L918 513 C935 561 948 591 958 607 C971 628 981 640 994 648 C1008 656 1025 659 1045 662 L1045 698 L805 698 L805 662 C824 660 845 657 857 652 C876 644 890 629 890 601 C890 577 886 560 872 518 L759 174 L752 174 L644 506 C634 536 620 577 620 609 C620 641 637 648 657 654 C667 657 685 660 711 662 L711 698 L391 698 L391 662 C407 660 420 657 431 653 C451 646 463 636 480 612 C491 596 499 580 510 549 L379 174 L372 174 L264 506 C250 549 239 577 239 609 C239 636 256 647 276 653 C286 656 304 660 331 662 L331 698 L6 698 L6 662 C23 660 38 654 50 649 C69 639 84 628 101 603 C115 583 128 554 144 508 L319 -5 L360 -5 L529 478 L535 478 Z " />
<glyph glyph-name="X" unicode="X" horiz-adv-x="701" d="M258 0 L258 36 C239 38 220 41 210 45 C191 52 176 67 176 90 C176 115 186 131 213 167 L314 300 L318 300 L414 161 C444 118 449 103 449 84 C449 51 407 41 365 36 L365 0 L701 0 L701 36 C626 44 592 102 531 191 L405 375 L519 523 C558 574 579 601 594 614 C611 630 627 640 643 647 C656 653 676 661 686 662 L686 698 L426 698 L426 662 C445 660 464 658 473 654 C493 646 507 631 507 608 C507 581 494 560 466 525 L382 416 L376 416 L276 562 C259 587 251 601 251 621 C251 649 288 658 339 662 L339 698 L5 698 L5 662 C81 655 104 610 175 507 L289 342 L162 175 C127 130 105 103 90 89 C73 73 54 59 38 51 C21 43 8 38 -6 36 L-6 0 Z " />
<glyph glyph-name="Y" unicode="Y" horiz-adv-x="646" d="M262 298 L262 193 C262 131 260 108 247 83 C235 61 219 50 198 43 C186 39 176 37 160 36 L160 0 L476 0 L476 36 C460 37 451 38 438 43 C417 51 401 61 389 83 C377 108 375 131 375 193 L375 297 L503 516 C556 611 581 653 652 662 L652 698 L422 698 L422 662 C433 661 454 659 465 655 C484 648 492 639 492 616 C492 589 487 570 459 524 L361 357 L355 357 L243 542 C207 601 199 638 245 654 C255 657 273 660 299 662 L299 698 L-8 698 L-8 662 C33 653 59 639 106 555 Z " />
<glyph glyph-name="Z" unicode="Z" horiz-adv-x="624" d="M581 698 L100 698 L60 505 L96 505 C122 561 156 599 192 625 C230 653 266 662 339 662 L448 662 L37 27 L37 0 L549 0 L608 215 L571 215 C545 168 516 106 443 68 C398 45 361 36 264 36 L177 36 L581 671 Z " />
<glyph glyph-name="bracketleft" unicode="&#x5b;" horiz-adv-x="345" d="M335 -120 L335 -84 L184 -84 L184 714 L335 714 L335 750 L100 750 L100 -120 Z " />
<glyph glyph-name="backslash" unicode="&#x5c;" horiz-adv-x="420" d="M14 747 L381 -185 L434 -164 L67 768 Z " />
<glyph glyph-name="bracketright" unicode="&#x5d;" horiz-adv-x="345" d="M245 750 L10 750 L10 714 L161 714 L161 -84 L10 -84 L10 -120 L245 -120 Z " />
<glyph glyph-name="asciicircum" unicode="&#x5e;" horiz-adv-x="460" d="M230 659 L325 456 L375 456 L254 707 L206 707 L85 456 L135 456 Z " />
<glyph glyph-name="underscore" unicode="&#x5f;" horiz-adv-x="295" d="M300 -167 L300 -121 L-5 -121 L-5 -167 Z " />
<glyph glyph-name="grave" unicode="&#x60;" horiz-adv-x="460" d="M328 596 C273 646 244 676 213 704 C182 732 162 749 133 749 C106 749 90 730 90 701 C90 676 110 657 148 640 L310 568 Z " />
<glyph glyph-name="a" unicode="a" horiz-adv-x="500" d="M492 14 L483 44 C475 40 458 37 446 37 C430 37 417 44 411 56 C405 67 401 81 401 135 L401 411 C401 491 340 518 237 518 C165 518 108 490 83 464 C68 449 60 429 60 410 C60 382 80 364 106 364 C136 364 151 380 156 413 C161 443 173 459 184 467 C199 476 217 480 238 480 C282 480 299 461 299 413 L299 324 C286 303 258 287 195 269 C136 252 104 242 68 210 C41 185 30 149 30 120 C30 34 84 -10 169 -10 C250 -10 289 39 302 66 L313 66 C317 32 327 13 342 3 C354 -5 370 -10 399 -10 C440 -10 482 7 492 14 Z M299 282 L299 111 C286 68 249 42 203 42 C167 42 127 60 127 124 C127 161 140 181 155 199 C169 216 195 228 227 243 C262 258 289 271 299 282 Z " />
<glyph glyph-name="b" unicode="b" horiz-adv-x="594" d="M182 756 L6 756 L6 723 C32 722 46 719 60 711 C70 705 77 694 81 682 C84 672 85 643 85 627 L85 102 C85 72 84 34 82 -1 L110 -1 L159 68 L175 68 C202 22 260 -9 317 -9 C430 -9 559 70 559 254 C559 450 449 518 347 518 C280 518 233 496 195 440 L186 440 L186 615 C186 678 189 715 189 749 C189 753 186 756 182 756 Z M327 471 C396 471 452 418 452 254 C452 116 404 31 313 31 C280 31 241 45 217 73 C195 98 186 134 186 195 L186 327 C186 385 211 419 232 438 C258 462 288 471 327 471 Z " />
<glyph glyph-name="c" unicode="c" horiz-adv-x="508" d="M284 480 C332 480 350 462 363 417 C374 379 387 354 424 354 C450 354 472 368 472 408 C472 424 465 443 449 461 C425 486 384 518 284 518 C151 518 34 418 34 255 C34 160 68 85 127 40 C169 8 217 -10 276 -10 C389 -10 461 48 487 134 L452 147 C432 92 392 35 287 35 C259 35 231 45 211 60 C168 94 141 152 141 255 C141 359 165 423 208 456 C228 472 258 480 284 480 Z " />
<glyph glyph-name="d" unicode="d" horiz-adv-x="593" d="M405 182 C405 99 358 33 284 33 C212 33 141 88 141 254 C141 414 210 477 289 477 C327 477 352 467 374 443 C398 417 405 380 405 342 Z M582 0 L582 34 C568 35 553 38 544 42 C524 51 515 64 510 84 C506 98 506 116 506 136 L506 615 C506 679 509 720 510 749 C510 753 508 756 503 756 L321 756 L321 723 C342 722 361 718 375 710 C385 704 396 693 399 681 C403 671 405 643 405 628 L405 465 L396 465 C378 487 347 518 276 518 C160 518 34 439 34 254 C34 85 141 -10 255 -10 C329 -10 384 27 406 83 L417 83 L417 28 C417 19 416 13 419 6 C421 2 425 0 432 0 Z " />
<glyph glyph-name="e" unicode="e" horiz-adv-x="523" d="M489 139 L459 153 C434 92 391 34 296 34 C251 34 219 49 196 73 C156 115 145 186 145 254 L145 271 L482 271 C484 283 486 307 486 329 C486 410 427 518 277 518 C151 518 34 408 34 254 C34 178 60 99 119 47 C157 13 210 -10 279 -10 C386 -10 457 52 489 139 Z M203 452 C225 472 253 479 278 479 C317 479 341 470 358 450 C378 428 383 406 383 360 C383 320 372 308 349 308 L147 308 C155 396 182 431 203 452 Z " />
<glyph glyph-name="f" unicode="f" horiz-adv-x="346" d="M286 0 L286 34 C273 35 252 39 244 42 C224 52 217 65 212 85 C208 99 208 130 208 138 L208 463 L337 463 L337 505 L208 505 L208 605 C208 647 208 672 222 694 C233 711 245 720 267 720 C285 720 295 712 300 704 C306 693 307 687 310 674 C314 658 319 643 327 632 C336 619 348 611 369 611 C399 611 416 632 416 662 C416 693 401 721 370 739 C350 751 330 759 279 759 C234 759 199 747 167 720 C135 693 106 648 106 561 L106 505 L28 505 L28 463 L106 463 L106 138 C106 117 106 99 103 85 C98 65 88 52 68 42 C60 39 43 35 30 34 L30 0 Z " />
<glyph glyph-name="g" unicode="g" horiz-adv-x="567" d="M150 350 C150 447 198 481 250 481 C303 481 354 447 354 350 C354 252 299 220 246 220 C194 220 150 252 150 350 Z M520 -21 C520 92 452 107 362 107 C328 107 209 101 185 101 C147 101 125 115 125 143 C125 175 161 184 194 184 C208 184 230 181 248 181 C346 181 453 238 453 350 C453 360 452 368 451 376 C449 391 444 401 444 412 C444 439 461 461 474 461 C489 461 494 451 502 437 C511 423 521 416 539 416 C561 416 581 429 581 459 C581 491 562 518 519 518 C476 518 436 492 426 450 L415 450 C377 501 317 518 252 518 C150 518 51 457 51 350 C51 278 92 234 144 208 L144 201 C100 191 58 168 58 113 C58 64 98 29 145 21 L145 11 C66 -1 10 -29 10 -88 C10 -159 79 -204 235 -204 C371 -204 520 -144 520 -21 Z M450 -50 C450 -134 349 -165 247 -165 C150 -165 87 -147 87 -85 C87 -11 173 -1 222 4 C260 8 320 10 362 9 C415 8 450 3 450 -50 Z " />
<glyph glyph-name="h" unicode="h" horiz-adv-x="624" d="M278 34 C265 35 250 39 242 42 C222 52 215 65 210 85 C206 99 206 117 206 138 L206 306 C206 343 216 383 235 408 C260 443 303 459 346 459 C373 459 392 454 405 442 C421 426 426 403 426 376 L426 138 C426 117 426 99 423 85 C418 65 411 52 391 42 C382 39 366 35 353 34 L353 0 L602 0 L602 34 C589 35 573 39 565 42 C544 52 535 65 530 85 C527 99 527 117 527 138 L527 386 C527 434 509 471 478 493 C454 510 422 518 385 518 C344 518 306 507 275 486 C249 470 233 449 217 429 L206 429 L206 748 C206 753 204 756 199 756 L25 756 L25 722 C47 720 66 717 80 708 C90 703 98 692 102 680 C105 669 105 642 105 626 L105 138 C105 117 105 99 102 85 C97 65 87 52 67 42 C59 39 42 35 29 34 L29 0 L278 0 Z " />
<glyph glyph-name="i" unicode="i" horiz-adv-x="302" d="M159 608 C196 608 223 634 223 671 C223 708 196 734 159 734 C122 734 95 708 95 671 C95 634 122 608 159 608 Z M204 384 C204 436 206 469 207 497 C207 502 204 505 200 505 L25 505 L25 471 C47 466 64 460 78 452 C88 446 96 436 100 424 C103 413 103 386 103 370 L103 138 C103 117 103 99 100 85 C95 65 85 52 65 42 C57 39 42 35 29 34 L29 0 L280 0 L280 34 C267 35 251 39 243 42 C222 52 213 65 208 85 C204 99 204 117 204 138 Z " />
<glyph glyph-name="j" unicode="j" horiz-adv-x="285" d="M156 608 C193 608 220 634 220 671 C220 708 193 734 156 734 C119 734 92 708 92 671 C92 634 119 608 156 608 Z M105 -45 C105 -100 100 -129 86 -149 C74 -167 60 -171 38 -171 C16 -171 1 -162 1 -141 C1 -136 2 -130 3 -123 C4 -115 5 -107 5 -100 C5 -70 -13 -50 -46 -50 C-74 -50 -99 -70 -99 -106 C-99 -138 -85 -164 -56 -183 C-32 -200 -3 -204 33 -204 C78 -204 105 -191 128 -173 C167 -143 207 -93 207 36 L207 385 C207 436 209 469 209 498 C209 503 207 505 202 505 L25 505 L25 471 C47 466 66 460 80 452 C90 446 98 436 102 424 C105 413 105 386 105 370 Z " />
<glyph glyph-name="k" unicode="k" horiz-adv-x="586" d="M277 34 C264 35 250 39 242 42 C222 52 215 65 210 85 C206 99 206 117 206 138 L206 226 L267 276 C333 262 354 207 371 148 C397 51 404 17 416 0 L581 0 L581 34 C536 39 519 50 506 72 C487 103 474 139 461 197 C446 258 375 298 300 303 L386 367 C446 411 464 425 494 442 C522 458 539 464 560 471 L560 505 L299 505 L299 471 C317 469 332 467 343 462 C356 456 367 448 367 429 C367 402 341 381 304 351 L206 272 L206 625 C206 670 208 723 208 748 C208 753 206 756 201 756 L25 756 L25 722 C47 720 66 717 80 708 C90 703 98 692 102 680 C105 669 105 642 105 626 L105 138 C105 117 105 99 102 85 C97 65 87 52 67 42 C59 39 47 35 34 34 L34 0 L277 0 Z " />
<glyph glyph-name="l" unicode="l" horiz-adv-x="303" d="M203 625 C203 670 205 723 205 748 C205 753 203 756 198 756 L22 756 L22 722 C44 720 63 717 77 708 C87 703 95 692 99 680 C102 669 102 642 102 626 L102 138 C102 117 102 99 99 85 C94 65 84 52 64 42 C56 39 44 35 31 34 L31 0 L274 0 L274 34 C261 35 247 39 239 42 C219 52 212 65 207 85 C203 99 203 117 203 138 Z " />
<glyph glyph-name="m" unicode="m" horiz-adv-x="911" d="M278 34 C265 35 250 39 242 42 C222 52 215 65 210 85 C206 99 206 117 206 138 L206 301 C206 338 216 378 235 403 C260 438 293 459 336 459 C364 459 375 455 389 443 C405 427 409 407 409 380 L409 138 C409 117 409 99 405 85 C400 65 393 52 373 42 C365 39 350 35 337 34 L337 0 L582 0 L582 34 C569 35 556 39 548 42 C528 52 518 65 513 85 C510 99 510 117 510 138 L510 301 C510 338 519 378 538 403 C563 438 597 459 640 459 C667 459 679 455 692 443 C709 427 712 407 712 380 L712 138 C712 117 712 99 709 85 C704 65 697 52 676 42 C668 39 653 35 640 34 L640 0 L889 0 L889 34 C876 35 860 39 851 42 C831 52 822 65 817 85 C813 99 813 117 813 138 L813 385 C813 433 797 466 767 491 C743 511 715 518 673 518 C632 518 598 507 569 486 C546 470 526 448 511 423 L503 423 C497 451 485 473 463 491 C440 511 411 518 369 518 C327 518 292 505 265 483 C245 467 227 445 212 421 L202 421 L206 497 C206 502 204 505 199 505 L25 505 L25 472 C47 466 66 460 80 452 C90 446 98 436 102 424 C105 413 105 386 105 370 L105 138 C105 117 105 99 102 85 C97 65 87 52 67 42 C59 39 42 35 29 34 L29 0 L278 0 Z " />
<glyph glyph-name="n" unicode="n" horiz-adv-x="624" d="M527 138 L527 386 C527 434 509 471 478 493 C454 510 422 518 385 518 C344 518 306 507 275 486 C249 470 228 448 212 423 L200 423 L202 497 C202 502 200 505 195 505 L25 505 L25 471 C47 466 66 460 80 452 C90 446 98 436 102 424 C105 413 105 386 105 370 L105 138 C105 117 105 99 102 85 C97 65 87 52 67 42 C59 39 42 35 29 34 L29 0 L278 0 L278 34 C265 35 250 39 242 42 C222 52 215 65 210 85 C206 99 206 117 206 138 L206 306 C206 343 216 383 235 408 C260 443 303 459 346 459 C373 459 391 454 404 442 C420 426 426 403 426 376 L426 138 C426 117 426 99 423 85 C418 65 411 52 391 42 C382 39 366 35 353 34 L353 0 L602 0 L602 34 C589 35 573 39 565 42 C544 52 535 65 530 85 C527 99 527 117 527 138 Z " />
<glyph glyph-name="o" unicode="o" horiz-adv-x="566" d="M34 255 C34 92 150 -10 283 -10 C416 -10 532 92 532 255 C532 418 416 518 283 518 C150 518 34 418 34 255 Z M144 255 C144 359 167 423 210 456 C230 472 257 479 283 479 C309 479 335 472 355 456 C398 423 422 359 422 255 C422 152 398 87 355 53 C335 38 310 29 283 29 C255 29 230 38 210 53 C167 87 144 152 144 255 Z " />
<glyph glyph-name="p" unicode="p" horiz-adv-x="601" d="M462 253 C462 115 414 28 322 28 C290 28 255 43 231 70 C208 95 200 132 200 193 L200 308 C200 366 227 418 247 437 C273 460 298 471 337 471 C406 471 462 417 462 253 Z M97 -58 C97 -78 97 -96 93 -110 C88 -130 79 -143 59 -153 C50 -156 30 -160 17 -161 L17 -193 L283 -193 L283 -161 C263 -160 246 -156 238 -153 C218 -143 208 -130 203 -110 C200 -96 200 -78 200 -58 L200 31 L207 31 C239 4 283 -11 330 -11 C443 -11 569 68 569 253 C569 449 459 518 357 518 C290 518 240 488 205 430 L195 430 L197 498 C197 503 195 505 190 505 L17 505 L17 471 C38 467 58 461 72 453 C81 447 89 436 93 424 C96 414 97 386 97 371 Z " />
<glyph glyph-name="q" unicode="q" horiz-adv-x="601" d="M432 448 C394 498 351 518 286 518 C171 518 34 438 34 254 C34 85 141 -11 255 -11 C329 -11 384 21 407 66 L416 66 L416 -58 C416 -78 416 -96 413 -110 C408 -130 399 -146 380 -153 C369 -158 350 -160 335 -161 L335 -193 L592 -193 L592 -161 C579 -160 564 -156 555 -153 C535 -143 526 -130 521 -110 C517 -96 517 -78 517 -58 L517 358 C517 406 522 475 525 514 L486 514 L440 448 Z M404 181 C404 137 391 99 368 73 C348 51 320 37 285 37 C213 37 140 87 140 254 C140 413 210 477 289 477 C327 477 352 466 374 442 C398 416 404 388 404 350 Z " />
<glyph glyph-name="r" unicode="r" horiz-adv-x="436" d="M206 408 L195 408 L200 497 C200 502 198 505 193 505 L20 505 L20 471 C42 466 61 460 75 452 C85 446 93 436 97 424 C100 413 100 386 100 370 L100 138 C100 117 100 99 97 85 C92 65 82 52 62 42 C54 39 37 35 24 34 L24 0 L283 0 L283 34 C268 35 249 38 237 42 C218 49 210 65 205 85 C201 99 201 117 201 138 L201 254 C201 281 203 316 204 325 C211 395 266 454 297 454 C311 454 321 450 327 434 C336 409 349 392 380 392 C418 392 431 419 431 447 C431 473 422 488 413 497 C397 511 374 518 351 518 C312 518 284 503 265 488 C244 471 226 451 206 408 Z " />
<glyph glyph-name="s" unicode="s" horiz-adv-x="436" d="M409 147 C409 238 332 274 246 308 C153 343 129 363 129 411 C129 452 161 480 213 480 C247 480 271 470 291 453 C314 432 330 399 346 357 L381 357 L373 509 L347 509 L334 467 L324 467 C311 488 275 518 213 518 C109 518 46 457 46 380 C46 273 118 252 200 217 C289 180 327 160 327 99 C327 51 293 28 237 28 C159 28 101 98 70 193 L34 193 L40 2 L69 2 L86 56 L98 56 C126 20 181 -10 234 -10 C327 -10 409 39 409 147 Z " />
<glyph glyph-name="t" unicode="t" horiz-adv-x="358" d="M340 73 C318 52 292 41 261 41 C213 41 196 66 196 109 L196 464 L328 464 L328 505 L196 505 L196 682 L167 682 C126 545 83 507 8 492 L8 464 L95 464 L95 109 C95 65 102 41 124 22 C150 -2 181 -10 227 -10 C273 -10 321 2 358 49 Z " />
<glyph glyph-name="u" unicode="u" horiz-adv-x="621" d="M516 137 L516 378 C516 436 519 469 520 498 C520 503 518 505 513 505 L333 505 L333 471 C356 469 375 464 390 455 C400 449 408 439 412 427 C415 416 415 389 415 373 L415 235 C415 199 415 185 412 155 C408 115 390 85 367 66 C344 48 317 40 292 40 C263 40 240 47 220 69 C200 90 196 116 196 153 L196 378 C196 436 199 469 200 498 C200 503 198 505 193 505 L15 505 L15 471 C37 469 56 464 70 455 C80 449 88 439 92 427 C95 416 95 389 95 373 L95 146 C95 89 106 62 126 38 C158 0 208 -12 255 -12 C301 -12 336 0 361 19 C381 34 394 49 412 81 L422 81 C422 81 423 19 423 11 C423 2 426 0 432 0 L597 0 L597 34 C584 35 565 38 555 42 C534 50 525 65 520 85 C516 99 516 117 516 137 Z " />
<glyph glyph-name="v" unicode="v" horiz-adv-x="563" d="M562 471 L562 505 L362 505 L362 471 C373 471 397 469 409 463 C421 456 432 446 432 424 C432 407 428 390 408 336 L319 123 L310 123 L218 342 C203 381 192 406 192 427 C192 450 203 458 212 463 C220 468 240 470 261 471 L261 505 L4 505 L4 471 C17 471 35 468 47 459 C61 450 65 443 77 417 C84 402 94 385 119 324 L256 -4 L306 -4 L454 343 C476 394 486 417 497 432 C507 448 516 455 525 461 C537 468 552 470 562 471 Z " />
<glyph glyph-name="w" unicode="w" horiz-adv-x="841" d="M551 -4 L599 -4 L735 343 C755 399 766 417 777 432 C788 448 795 453 804 459 C816 467 830 470 840 471 L840 505 L650 505 L650 471 C666 470 678 469 690 463 C702 456 713 446 713 424 C713 406 707 386 691 336 L609 123 L599 123 L519 342 C505 382 497 404 497 425 C497 448 508 457 519 463 C528 468 539 470 558 471 L558 505 L310 505 L310 471 C320 470 338 468 350 459 C364 450 371 439 383 413 L403 364 L305 123 L295 123 L216 342 C201 382 194 404 194 425 C194 448 205 457 216 463 C225 468 244 470 256 471 L256 505 L4 505 L4 471 C14 470 35 468 47 459 C61 450 66 439 79 413 C86 399 100 363 119 315 L248 -4 L296 -4 L423 321 L427 321 Z " />
<glyph glyph-name="x" unicode="x" horiz-adv-x="522" d="M213 0 L213 34 C197 36 187 39 174 45 C163 50 153 59 153 74 C153 89 159 102 189 141 L240 206 L248 206 L321 109 C335 90 342 81 342 66 C342 53 331 44 319 40 C308 36 298 35 283 34 L283 0 L531 0 L531 34 C513 36 492 45 481 52 C463 64 441 97 411 138 L310 275 L363 344 C403 403 419 430 457 454 C468 461 486 468 505 472 L505 505 L306 505 L306 471 C324 469 335 467 345 462 C357 456 363 451 363 434 C363 418 357 402 328 362 L292 312 L283 312 L221 396 C207 415 200 425 200 441 C200 457 210 461 222 465 C234 468 243 469 259 471 L259 505 L10 505 L10 471 C31 468 49 460 60 453 C78 441 94 412 124 372 L220 243 L153 159 C110 106 91 78 53 54 C42 47 28 38 9 34 L9 0 Z " />
<glyph glyph-name="y" unicode="y" horiz-adv-x="551" d="M274 -50 L443 343 C460 383 475 416 486 432 C496 447 505 454 514 460 C526 467 540 470 550 471 L550 505 L357 505 L357 471 C367 470 388 469 400 463 C412 456 423 446 423 423 C423 394 419 381 399 335 L311 130 L300 130 L214 341 C198 381 189 403 189 425 C189 447 200 457 210 463 C220 467 246 470 258 471 L258 505 L4 505 L4 471 C14 470 33 467 45 459 C59 450 65 439 77 413 C84 397 96 363 117 315 L230 50 C234 40 241 25 241 7 C241 -5 238 -24 229 -47 C214 -86 191 -131 161 -131 C152 -131 145 -130 138 -125 C133 -122 128 -117 122 -110 C108 -93 95 -81 67 -81 C44 -81 21 -104 21 -135 C21 -173 56 -202 104 -202 C159 -202 195 -180 220 -147 C243 -116 249 -107 274 -50 Z " />
<glyph glyph-name="z" unicode="z" horiz-adv-x="493" d="M460 172 L427 172 C412 136 397 111 365 74 C342 49 324 34 269 34 L157 34 L157 38 L451 484 L451 505 L79 505 L44 349 L79 349 C98 387 114 416 140 441 C160 461 179 471 209 471 L331 471 L331 466 L30 17 L30 0 L441 0 Z " />
<glyph glyph-name="braceleft" unicode="&#x7b;" horiz-adv-x="372" d="M362 -121 L362 -84 C305 -77 246 -71 246 19 C246 52 254 113 254 150 C254 247 189 294 100 312 L100 317 C189 335 254 382 254 479 C254 516 246 577 246 610 C246 700 305 706 362 713 L362 750 C253 746 156 714 156 592 C156 554 169 480 169 454 C169 393 145 362 100 344 C84 338 62 333 40 331 L40 298 C62 296 84 291 100 285 C145 267 169 236 169 175 C169 149 156 75 156 37 C156 -85 253 -117 362 -121 Z " />
<glyph glyph-name="bar" unicode="&#x7c;" horiz-adv-x="226" d="M141 -179 L141 766 L85 766 L85 -179 Z " />
<glyph glyph-name="braceright" unicode="&#x7d;" horiz-adv-x="372" d="M10 -121 C119 -117 216 -85 216 37 C216 75 203 149 203 175 C203 236 227 267 272 285 C288 291 310 296 332 298 L332 331 C310 333 288 338 272 344 C227 362 203 393 203 454 C203 480 216 554 216 592 C216 714 119 746 10 750 L10 713 C67 706 126 700 126 610 C126 577 118 516 118 479 C118 382 183 335 272 317 L272 312 C183 294 118 247 118 150 C118 113 126 52 126 19 C126 -71 67 -77 10 -84 Z " />
<glyph glyph-name="asciitilde" unicode="&#x7e;" horiz-adv-x="426" d="M396 386 L359 399 C343 361 314 346 288 346 C239 346 205 376 149 376 C94 376 48 322 30 263 L67 250 C83 288 105 303 131 303 C185 303 218 273 277 273 C332 273 378 327 396 386 Z " />
<glyph glyph-name="uni00A0" unicode="&#xa0;" horiz-adv-x="220" />
<glyph glyph-name="exclamdown" unicode="&#xa1;" horiz-adv-x="266" d="M132 -205 C162 -205 191 -185 191 -133 C191 -84 186 -35 178 48 C166 177 156 277 153 320 L113 320 L87 48 C79 -35 74 -84 74 -133 C74 -186 103 -205 132 -205 Z M201 450 C201 490 174 519 132 519 C94 519 65 490 65 450 C65 414 94 383 132 383 C174 383 201 414 201 450 Z " />
<glyph glyph-name="cent" unicode="&#xa2;" horiz-adv-x="508" d="M211 60 C168 94 141 152 141 255 C141 359 165 423 208 456 C225 470 249 477 272 479 L272 36 C249 39 227 48 211 60 Z M487 134 L452 147 C434 97 399 46 315 36 L315 476 C341 469 353 451 363 417 C374 379 387 354 424 354 C450 354 472 368 472 408 C472 424 465 443 449 461 C428 483 393 511 315 517 L315 613 L272 613 L272 518 C144 512 34 413 34 255 C34 160 68 85 127 40 C168 9 215 -9 272 -10 L272 -96 L315 -96 L315 -8 C406 4 464 58 487 134 Z " />
<glyph glyph-name="sterling" unicode="&#xa3;" horiz-adv-x="694" d="M467 -28 C569 -28 614 53 630 146 L592 153 C578 95 561 65 478 65 C421 65 358 92 305 113 C322 152 333 202 342 256 L533 256 L533 295 L348 295 L351 317 C366 438 384 528 410 581 C431 624 468 651 519 651 C568 651 603 625 603 573 C603 507 569 485 535 485 C502 485 480 503 466 533 L432 511 C447 474 483 447 535 447 C605 447 669 492 669 573 C669 638 622 691 522 691 C398 691 267 552 246 330 L243 295 L127 295 L127 256 L240 256 C236 207 233 169 228 140 C198 150 162 162 125 162 C59 162 10 125 10 71 C10 19 51 -13 116 -13 C168 -13 229 11 268 53 C326 18 404 -28 467 -28 Z M116 27 C84 27 60 42 60 71 C60 99 80 117 115 117 C148 117 185 101 213 86 C189 40 159 27 116 27 Z " />
<glyph glyph-name="currency" unicode="&#xa4;" horiz-adv-x="500" />
<glyph glyph-name="yen" unicode="&#xa5;" horiz-adv-x="598" d="M437 33 C416 36 390 43 381 48 C364 58 359 63 352 82 C348 96 346 124 346 156 L346 202 L520 202 L520 241 L346 241 L346 310 L520 310 L520 349 L370 349 L463 502 C513 583 547 635 608 644 L608 677 L384 677 L384 644 C395 643 415 641 426 637 C444 630 453 624 453 599 C453 573 446 556 419 510 L329 364 L324 364 L228 528 C196 586 184 620 230 636 C239 639 252 642 278 644 L278 677 L-10 677 L-10 644 C29 635 55 621 100 540 L217 349 L67 349 L67 310 L241 310 L241 241 L67 241 L67 202 L241 202 L241 156 C241 124 239 96 235 82 C229 63 223 58 206 48 C197 43 172 36 150 33 L150 0 L437 0 Z " />
<glyph glyph-name="brokenbar" unicode="&#xa6;" horiz-adv-x="226" d="M141 361 L141 766 L85 766 L85 361 Z M141 -179 L141 226 L85 226 L85 -179 Z " />
<glyph glyph-name="section" unicode="&#xa7;" horiz-adv-x="543" d="M285 174 C152 271 105 298 105 378 C105 429 127 456 161 472 C188 437 226 409 265 381 C398 284 446 255 446 175 C446 142 422 103 394 85 C365 119 324 145 285 174 Z M260 -204 C349 -204 438 -134 438 -30 C438 4 429 33 415 57 C475 86 523 149 523 213 C523 326 447 370 334 450 C277 490 197 546 197 628 C197 688 239 720 290 720 C334 720 351 706 357 689 C363 673 361 657 366 642 C373 623 387 609 413 609 C443 609 458 634 458 658 C458 709 410 759 290 759 C201 759 120 694 120 590 C120 555 128 525 142 500 C84 471 30 414 30 336 C30 223 103 185 216 105 C273 65 361 14 361 -68 C361 -128 311 -165 260 -165 C216 -165 202 -145 193 -124 C186 -108 189 -92 184 -77 C177 -58 163 -44 137 -44 C107 -44 92 -69 92 -93 C92 -144 140 -204 260 -204 Z " />
<glyph glyph-name="dieresis" unicode="&#xa8;" horiz-adv-x="460" d="M139 611 C168 611 192 632 192 665 C192 697 168 719 139 719 C110 719 86 697 86 665 C86 632 110 611 139 611 Z M322 611 C351 611 375 632 375 665 C375 697 351 719 322 719 C293 719 269 697 269 665 C269 632 293 611 322 611 Z " />
<glyph glyph-name="copyright" unicode="&#xa9;" horiz-adv-x="982" d="M491 721 C249 721 50 524 50 283 C50 41 249 -157 491 -157 C733 -157 932 39 932 281 C932 521 733 721 491 721 Z M491 680 C711 680 881 506 881 281 C881 58 711 -116 491 -116 C271 -116 101 58 101 283 C101 506 271 680 491 680 Z M719 210 L682 223 C649 126 601 68 506 68 C462 68 421 83 391 115 C359 150 339 205 339 283 C340 402 380 459 425 489 C446 503 477 511 504 511 C566 511 593 488 619 453 C642 421 655 387 669 329 L705 329 L705 534 L679 534 L657 496 L648 496 C624 518 589 547 504 547 C362 547 232 440 232 283 C232 195 265 123 321 77 C365 41 423 21 492 21 C631 21 688 114 719 210 Z " />
<glyph glyph-name="ordfeminine" unicode="&#xaa;" horiz-adv-x="373" d="M121 326 C174 326 209 356 226 384 L234 384 C234 355 244 343 256 335 C265 329 277 326 295 326 C331 326 350 336 358 342 L353 363 C345 360 340 359 331 359 C323 359 316 361 312 366 C304 374 303 385 303 427 L303 622 C303 687 245 702 177 702 C137 702 84 686 64 661 C55 650 49 638 49 623 C49 599 65 590 83 590 C106 590 119 600 124 626 C129 652 133 659 141 667 C149 674 161 676 178 676 C217 676 229 659 229 619 L229 576 C209 554 191 543 136 524 C106 514 75 499 55 476 C42 459 35 443 35 420 C35 353 78 326 121 326 Z M230 539 L230 449 C230 399 197 367 158 367 C129 367 108 383 108 423 C108 448 110 455 120 469 C130 482 142 491 153 496 C180 509 213 527 230 539 Z " />
<glyph glyph-name="guillemotleft" unicode="&#xab;" horiz-adv-x="453" d="M224 260 L224 233 L396 84 L423 110 L317 246 L423 383 L396 409 Z M36 260 L36 233 L208 84 L235 110 L129 246 L235 383 L208 409 Z " />
<glyph glyph-name="registered" unicode="&#xae;" horiz-adv-x="625" d="M585 440 C585 588 461 711 312 711 C163 711 40 588 40 440 C40 292 163 168 312 168 C461 168 585 292 585 440 Z M82 440 C82 566 184 673 312 673 C441 673 543 566 543 440 C543 313 441 206 312 206 C184 206 82 313 82 440 Z M353 522 C353 489 337 468 298 468 L271 468 L271 574 L313 574 C342 574 353 564 353 522 Z M476 302 L476 323 C465 324 451 328 443 333 C430 340 419 344 412 383 C401 443 379 447 338 451 L338 457 C383 465 415 485 415 526 C415 572 384 600 324 600 L174 600 L174 578 C179 578 192 576 197 574 C205 571 207 566 209 558 C211 551 211 539 211 521 L211 378 C211 362 211 350 209 343 C207 336 205 329 197 326 C192 324 179 323 174 323 L174 302 L310 302 L310 323 C305 323 291 324 286 326 C278 329 276 336 274 343 C272 350 271 363 271 379 L271 444 L290 444 C315 444 323 440 334 428 C347 411 351 399 355 365 C358 339 370 312 380 302 Z " />
<glyph glyph-name="macron" unicode="&#xaf;" horiz-adv-x="460" d="M356 606 L356 659 L102 659 L102 606 Z " />
<glyph glyph-name="degree" unicode="&#xb0;" horiz-adv-x="296" d="M266 577 C266 643 217 693 148 693 C79 693 30 643 30 577 C30 510 79 460 148 460 C217 460 266 510 266 577 Z M220 577 C220 529 193 497 148 497 C103 497 76 529 76 577 C76 624 103 656 148 656 C193 656 220 624 220 577 Z " />
<glyph glyph-name="acute" unicode="&#xb4;" horiz-adv-x="460" d="M122 596 L140 568 L302 640 C340 657 360 676 360 701 C360 730 344 749 317 749 C288 749 268 732 237 704 C206 676 177 646 122 596 Z " />
<glyph glyph-name="mu" unicode="&#xb5;" horiz-adv-x="500" />
<glyph glyph-name="paragraph" unicode="&#xb6;" horiz-adv-x="614" d="M604 662 L604 698 L306 698 C143 698 50 578 50 465 C50 355 128 237 291 237 L331 237 L331 -110 L374 -110 L374 662 L470 662 L470 -110 L512 -110 L512 662 Z " />
<glyph glyph-name="periodcentered" unicode="&#xb7;" horiz-adv-x="256" d="M60 278 C60 238 87 209 129 209 C167 209 196 238 196 278 C196 314 167 345 129 345 C87 345 60 314 60 278 Z " />
<glyph glyph-name="cedilla" unicode="&#xb8;" horiz-adv-x="460" d="M326 -117 C326 -68 294 -40 233 -40 C219 -40 195 -45 183 -52 L206 11 L165 11 L136 -69 L168 -88 C179 -79 194 -74 209 -74 C232 -74 251 -85 251 -120 C251 -158 223 -170 188 -170 C163 -170 134 -159 115 -146 L97 -176 C117 -190 149 -203 189 -203 C272 -203 326 -178 326 -117 Z " />
<glyph glyph-name="ordmasculine" unicode="&#xba;" horiz-adv-x="426" d="M391 515 C391 640 304 702 213 702 C122 702 35 640 35 515 C35 388 122 327 213 327 C304 327 391 388 391 515 Z M310 514 C310 447 293 389 258 368 C243 359 229 355 213 355 C197 355 183 359 168 368 C133 389 116 447 116 514 C116 581 133 641 168 662 C183 671 197 675 213 675 C229 675 243 671 258 662 C293 641 310 581 310 514 Z " />
<glyph glyph-name="guillemotright" unicode="&#xbb;" horiz-adv-x="453" d="M417 260 L245 409 L218 383 L324 246 L218 110 L245 84 L417 233 Z M229 260 L57 409 L30 383 L136 246 L30 110 L57 84 L229 233 Z " />
<glyph glyph-name="onequarter" unicode="&#xbc;" horiz-adv-x="797" d="M258 283 L258 310 C240 312 225 315 219 318 C205 325 199 331 193 350 C190 361 189 378 189 394 L189 596 C189 649 191 712 191 725 C191 733 189 736 181 736 C171 736 149 728 135 724 C103 714 72 709 24 706 L24 678 C42 677 67 677 80 672 C93 667 96 662 100 647 C104 633 104 618 104 592 L104 394 C104 379 103 361 100 350 C96 333 87 324 74 318 C68 315 54 312 35 310 L35 283 Z M660 704 L626 728 L125 -9 L160 -31 Z M440 175 L569 334 L575 334 L575 175 Z M729 27 C711 29 696 32 690 35 C676 42 670 48 664 67 C661 78 660 95 660 111 L660 144 L668 144 C705 144 716 137 728 124 C740 112 745 91 748 74 L777 74 L777 245 L748 245 C745 229 740 208 728 195 C716 182 705 175 668 175 L660 175 L660 379 C660 402 661 431 661 443 C661 446 660 448 657 448 L624 448 L394 170 L394 144 L575 144 L575 111 C575 96 574 78 571 67 C567 50 558 41 545 35 C539 32 525 29 506 27 L506 0 L729 0 Z " />
<glyph glyph-name="onehalf" unicode="&#xbd;" horiz-adv-x="855" d="M806 0 C817 50 830 104 840 138 L812 138 C806 128 799 115 785 99 C768 80 755 72 709 72 L601 72 L601 79 C649 108 679 131 704 149 C764 193 818 242 818 331 C818 401 754 455 660 455 C554 455 486 404 486 335 C486 300 507 276 539 276 C569 276 587 294 587 321 C587 333 585 342 581 350 C574 364 570 370 570 382 C570 403 601 421 643 421 C702 421 726 392 726 329 C726 208 653 152 563 87 L484 37 L490 0 Z M258 283 L258 310 C240 312 225 315 219 318 C205 325 199 331 193 350 C190 361 189 378 189 394 L189 596 C189 649 191 712 191 725 C191 733 189 736 181 736 C171 736 149 728 135 724 C103 714 72 709 24 706 L24 678 C42 677 67 677 80 672 C93 667 96 662 100 647 C104 633 104 618 104 592 L104 394 C104 379 103 361 100 350 C96 333 87 324 74 318 C68 315 54 312 35 310 L35 283 Z M660 704 L626 728 L125 -9 L160 -31 Z " />
<glyph glyph-name="threequarters" unicode="&#xbe;" horiz-adv-x="847" d="M710 704 L676 728 L175 -9 L210 -31 Z M196 706 C234 706 263 685 263 644 C263 590 238 569 190 537 L127 495 L143 470 L169 487 C186 498 199 503 221 503 C257 503 277 476 277 428 C277 353 247 305 172 305 C132 305 115 317 115 340 C115 350 120 361 120 371 C120 382 116 394 111 402 C104 412 94 419 75 419 C48 419 29 400 29 370 C29 321 77 273 172 273 C288 273 369 344 369 428 C369 499 308 529 242 529 L242 534 C302 566 348 590 348 644 C348 715 272 738 198 738 C115 738 54 688 54 633 C54 601 72 580 101 579 C127 580 144 596 144 620 C144 632 142 640 139 646 C133 661 129 664 129 675 C129 691 152 706 196 706 Z M490 175 L619 334 L625 334 L625 175 Z M779 27 C761 29 746 32 740 35 C726 42 720 48 714 67 C711 78 710 95 710 111 L710 144 L718 144 C755 144 766 137 778 124 C790 112 795 91 798 74 L827 74 L827 245 L798 245 C795 229 790 208 778 195 C766 182 755 175 718 175 L710 175 L710 379 C710 402 711 431 711 443 C711 446 710 448 707 448 L674 448 L444 170 L444 144 L625 144 L625 111 C625 96 624 78 621 67 C617 50 608 41 595 35 C589 32 575 29 556 27 L556 0 L779 0 Z " />
<glyph glyph-name="questiondown" unicode="&#xbf;" horiz-adv-x="447" d="M254 451 C254 415 283 384 321 384 C363 384 390 415 390 451 C390 491 363 520 321 520 C283 520 254 491 254 451 Z M33 0 C33 -88 74 -138 128 -171 C162 -191 203 -204 262 -204 C359 -204 419 -156 419 -116 C419 -78 396 -63 365 -63 C329 -63 312 -84 306 -119 C298 -158 280 -167 256 -167 C192 -167 135 -123 135 -45 C135 69 186 158 280 158 L343 158 L343 321 L307 321 L307 195 L256 195 C170 195 33 139 33 0 Z " />
<glyph glyph-name="Agrave" unicode="&#xc0;" horiz-adv-x="691" d="M454 787 C395 822 365 841 327 864 C290 886 274 897 242 897 C216 897 196 878 196 849 C196 807 239 796 269 789 C314 779 362 770 444 755 Z M295 525 L306 525 L398 278 L205 278 Z M238 36 C219 37 198 41 186 46 C167 54 153 73 153 101 C153 125 156 145 168 177 L190 238 L412 238 L429 193 C443 154 453 125 453 94 C453 61 437 55 417 46 C405 41 395 39 369 36 L369 0 L686 0 L686 36 C672 39 661 44 649 49 C630 59 613 72 596 97 C583 117 570 143 556 181 L361 702 L318 702 L120 185 C103 140 90 109 80 90 C69 70 56 57 44 50 C30 42 16 38 -4 36 L-4 0 L238 0 Z " />
<glyph glyph-name="Aacute" unicode="&#xc1;" horiz-adv-x="691" d="M224 787 L234 755 C316 770 364 779 409 789 C439 796 482 807 482 849 C482 878 462 897 436 897 C404 897 388 886 351 864 C313 841 283 822 224 787 Z M295 525 L306 525 L398 278 L205 278 Z M238 36 C219 37 198 41 186 46 C167 54 153 73 153 101 C153 125 156 145 168 177 L190 238 L412 238 L429 193 C443 154 453 125 453 94 C453 61 437 55 417 46 C405 41 395 39 369 36 L369 0 L686 0 L686 36 C672 39 661 44 649 49 C630 59 613 72 596 97 C583 117 570 143 556 181 L361 702 L318 702 L120 185 C103 140 90 109 80 90 C69 70 56 57 44 50 C30 42 16 38 -4 36 L-4 0 L238 0 Z " />
<glyph glyph-name="Acircumflex" unicode="&#xc2;" horiz-adv-x="691" d="M295 525 L306 525 L398 278 L205 278 Z M238 36 C219 37 198 41 186 46 C167 54 153 73 153 101 C153 125 156 145 168 177 L190 238 L412 238 L429 193 C443 154 453 125 453 94 C453 61 437 55 417 46 C405 41 395 39 369 36 L369 0 L686 0 L686 36 C672 39 661 44 649 49 C630 59 613 72 596 97 C583 117 570 143 556 181 L361 702 L318 702 L120 185 C103 140 90 109 80 90 C69 70 56 57 44 50 C30 42 16 38 -4 36 L-4 0 L238 0 Z M477 783 L362 888 L310 888 L195 783 L214 755 L336 818 L458 755 Z " />
<glyph glyph-name="Atilde" unicode="&#xc3;" horiz-adv-x="691" d="M295 525 L306 525 L398 278 L205 278 Z M238 36 C219 37 198 41 186 46 C167 54 153 73 153 101 C153 125 156 145 168 177 L190 238 L412 238 L429 193 C443 154 453 125 453 94 C453 61 437 55 417 46 C405 41 395 39 369 36 L369 0 L686 0 L686 36 C672 39 661 44 649 49 C630 59 613 72 596 97 C583 117 570 143 556 181 L361 702 L318 702 L120 185 C103 140 90 109 80 90 C69 70 56 57 44 50 C30 42 16 38 -4 36 L-4 0 L238 0 Z M503 863 L473 874 C461 845 446 832 415 832 C372 832 339 861 291 861 C245 861 213 805 197 759 L227 748 C238 775 260 793 281 793 C320 793 350 764 401 764 C447 764 486 808 503 863 Z " />
<glyph glyph-name="Adieresis" unicode="&#xc4;" horiz-adv-x="691" d="M295 525 L306 525 L398 278 L205 278 Z M238 36 C219 37 198 41 186 46 C167 54 153 73 153 101 C153 125 156 145 168 177 L190 238 L412 238 L429 193 C443 154 453 125 453 94 C453 61 437 55 417 46 C405 41 395 39 369 36 L369 0 L686 0 L686 36 C672 39 661 44 649 49 C630 59 613 72 596 97 C583 117 570 143 556 181 L361 702 L318 702 L120 185 C103 140 90 109 80 90 C69 70 56 57 44 50 C30 42 16 38 -4 36 L-4 0 L238 0 Z M244 750 C275 750 299 771 299 806 C299 840 275 862 244 862 C213 862 189 840 189 806 C189 771 213 750 244 750 Z M445 750 C476 750 500 771 500 806 C500 840 476 862 445 862 C414 862 390 840 390 806 C390 771 414 750 445 750 Z " />
<glyph glyph-name="Aring" unicode="&#xc5;" horiz-adv-x="691" d="M295 525 L306 525 L398 278 L205 278 Z M238 36 C219 37 198 41 186 46 C167 54 153 73 153 101 C153 125 156 145 168 177 L190 238 L412 238 L429 193 C443 154 453 125 453 94 C453 61 437 55 417 46 C405 41 395 39 369 36 L369 0 L686 0 L686 36 C672 39 661 44 649 49 C630 59 613 72 596 97 C583 117 570 143 556 181 L361 702 L318 702 L120 185 C103 140 90 109 80 90 C69 70 56 57 44 50 C30 42 16 38 -4 36 L-4 0 L238 0 Z M426 830 C426 888 383 920 336 920 C290 920 246 888 246 830 C246 773 290 741 336 741 C383 741 426 773 426 830 Z M279 830 C279 869 304 892 336 892 C368 892 393 869 393 830 C393 792 368 769 336 769 C304 769 279 792 279 830 Z " />
<glyph glyph-name="AE" unicode="&#xc6;" horiz-adv-x="924" d="M437 619 L437 298 L243 298 L429 619 Z M227 36 C208 37 187 41 176 46 C156 54 145 67 145 95 C145 119 156 147 174 179 L220 258 L437 258 L437 193 C437 131 434 108 422 83 C410 61 395 50 373 43 C363 39 351 37 335 36 L335 0 L856 0 L887 196 L855 196 C836 158 823 124 779 84 C750 58 719 36 668 36 L650 36 C614 36 586 40 571 56 C553 74 549 105 549 154 L549 342 L595 342 C640 342 666 337 686 318 C714 293 719 263 723 230 L756 230 L756 491 L723 491 C719 459 716 431 688 406 C668 387 641 379 595 379 L549 379 L549 586 C549 612 549 629 561 644 C572 658 591 662 610 662 L639 662 C698 662 740 641 759 625 C794 598 808 572 834 525 L868 525 L837 698 L335 698 L335 662 C351 661 363 659 373 656 C381 653 389 650 395 646 L126 185 C97 135 79 111 63 91 C48 73 37 62 25 54 C11 46 -3 38 -23 36 L-23 0 L227 0 Z " />
<glyph glyph-name="Ccedilla" unicode="&#xc7;" horiz-adv-x="679" d="M505 -137 C505 -88 473 -60 412 -60 C398 -60 374 -65 362 -72 L383 -13 C521 -7 598 60 646 157 L616 174 C569 82 486 43 392 43 C329 43 298 52 260 78 C201 118 158 176 158 349 C158 533 210 608 272 645 C303 663 337 670 371 670 C457 670 484 647 518 606 C542 577 568 531 585 460 L623 460 L623 699 L601 699 L567 653 L559 653 C529 680 479 711 371 711 C198 711 37 561 37 349 C37 144 157 -4 342 -13 L315 -89 L347 -108 C358 -99 373 -94 388 -94 C411 -94 430 -105 430 -140 C430 -178 402 -190 367 -190 C342 -190 313 -179 294 -166 L276 -196 C296 -210 328 -223 368 -223 C451 -223 505 -198 505 -137 Z " />
<glyph glyph-name="Egrave" unicode="&#xc8;" horiz-adv-x="644" d="M446 787 C387 822 357 841 319 864 C282 886 266 897 234 897 C208 897 188 878 188 849 C188 807 231 796 261 789 C306 779 354 770 436 755 Z M607 196 L575 196 C556 158 543 124 499 84 C470 58 442 36 368 36 L350 36 C314 36 286 40 271 56 C253 74 249 105 249 154 L249 342 L295 342 C340 342 366 337 386 318 C414 293 419 263 423 230 L456 230 L456 491 L423 491 C419 459 416 431 388 406 C368 387 341 379 295 379 L249 379 L249 586 C249 612 249 629 261 644 C272 658 291 662 310 662 L359 662 C418 662 460 641 479 625 C514 598 528 572 554 525 L588 525 L557 698 L35 698 L35 662 C51 661 63 659 73 656 C95 648 110 638 122 616 C134 590 137 568 137 505 L137 193 C137 131 134 108 122 83 C110 61 95 50 73 43 C63 39 51 37 35 36 L35 0 L576 0 Z " />
<glyph glyph-name="Eacute" unicode="&#xc9;" horiz-adv-x="644" d="M607 196 L575 196 C556 158 543 124 499 84 C470 58 442 36 368 36 L350 36 C314 36 286 40 271 56 C253 74 249 105 249 154 L249 342 L295 342 C340 342 366 337 386 318 C414 293 419 263 423 230 L456 230 L456 491 L423 491 C419 459 416 431 388 406 C368 387 341 379 295 379 L249 379 L249 586 C249 612 249 629 261 644 C272 658 291 662 310 662 L359 662 C418 662 460 641 479 625 C514 598 528 572 554 525 L588 525 L557 698 L35 698 L35 662 C51 661 63 659 73 656 C95 648 110 638 122 616 C134 590 137 568 137 505 L137 193 C137 131 134 108 122 83 C110 61 95 50 73 43 C63 39 51 37 35 36 L35 0 L576 0 Z M237 787 L247 755 C329 770 377 779 422 789 C452 796 495 807 495 849 C495 878 475 897 449 897 C417 897 401 886 364 864 C326 841 296 822 237 787 Z " />
<glyph glyph-name="Ecircumflex" unicode="&#xca;" horiz-adv-x="644" d="M607 196 L575 196 C556 158 543 124 499 84 C470 58 442 36 368 36 L350 36 C314 36 286 40 271 56 C253 74 249 105 249 154 L249 342 L295 342 C340 342 366 337 386 318 C414 293 419 263 423 230 L456 230 L456 491 L423 491 C419 459 416 431 388 406 C368 387 341 379 295 379 L249 379 L249 586 C249 612 249 629 261 644 C272 658 291 662 310 662 L359 662 C418 662 460 641 479 625 C514 598 528 572 554 525 L588 525 L557 698 L35 698 L35 662 C51 661 63 659 73 656 C95 648 110 638 122 616 C134 590 137 568 137 505 L137 193 C137 131 134 108 122 83 C110 61 95 50 73 43 C63 39 51 37 35 36 L35 0 L576 0 Z M469 783 L354 888 L302 888 L187 783 L206 755 L328 818 L450 755 Z " />
<glyph glyph-name="Edieresis" unicode="&#xcb;" horiz-adv-x="644" d="M607 196 L575 196 C556 158 543 124 499 84 C470 58 442 36 368 36 L350 36 C314 36 286 40 271 56 C253 74 249 105 249 154 L249 342 L295 342 C340 342 366 337 386 318 C414 293 419 263 423 230 L456 230 L456 491 L423 491 C419 459 416 431 388 406 C368 387 341 379 295 379 L249 379 L249 586 C249 612 249 629 261 644 C272 658 291 662 310 662 L359 662 C418 662 460 641 479 625 C514 598 528 572 554 525 L588 525 L557 698 L35 698 L35 662 C51 661 63 659 73 656 C95 648 110 638 122 616 C134 590 137 568 137 505 L137 193 C137 131 134 108 122 83 C110 61 95 50 73 43 C63 39 51 37 35 36 L35 0 L576 0 Z M218 750 C249 750 273 771 273 806 C273 840 249 862 218 862 C187 862 163 840 163 806 C163 771 187 750 218 750 Z M419 750 C450 750 474 771 474 806 C474 840 450 862 419 862 C388 862 364 840 364 806 C364 771 388 750 419 750 Z " />
<glyph glyph-name="Igrave" unicode="&#xcc;" horiz-adv-x="387" d="M250 505 C250 568 253 590 265 616 C277 638 292 649 314 656 C324 659 336 661 352 662 L352 698 L35 698 L35 662 C51 661 63 659 73 656 C97 649 110 638 122 616 C134 590 137 568 137 505 L137 193 C137 131 134 108 122 83 C110 61 95 51 73 43 C62 39 51 37 35 36 L35 0 L352 0 L352 36 C336 37 324 39 314 43 C293 51 277 61 265 83 C253 108 250 131 250 193 Z M324 787 C265 822 235 841 197 864 C160 886 144 897 112 897 C86 897 66 878 66 849 C66 807 109 796 139 789 C184 779 232 770 314 755 Z " />
<glyph glyph-name="Iacute" unicode="&#xcd;" horiz-adv-x="387" d="M250 505 C250 568 253 590 265 616 C277 638 292 649 314 656 C324 659 336 661 352 662 L352 698 L35 698 L35 662 C51 661 63 659 73 656 C97 649 110 638 122 616 C134 590 137 568 137 505 L137 193 C137 131 134 108 122 83 C110 61 95 51 73 43 C62 39 51 37 35 36 L35 0 L352 0 L352 36 C336 37 324 39 314 43 C293 51 277 61 265 83 C253 108 250 131 250 193 Z M78 787 L88 755 C170 770 218 779 263 789 C293 796 336 807 336 849 C336 878 316 897 290 897 C258 897 242 886 205 864 C167 841 137 822 78 787 Z " />
<glyph glyph-name="Icircumflex" unicode="&#xce;" horiz-adv-x="387" d="M250 505 C250 568 253 590 265 616 C277 638 292 649 314 656 C324 659 336 661 352 662 L352 698 L35 698 L35 662 C51 661 63 659 73 656 C97 649 110 638 122 616 C134 590 137 568 137 505 L137 193 C137 131 134 108 122 83 C110 61 95 51 73 43 C62 39 51 37 35 36 L35 0 L352 0 L352 36 C336 37 324 39 314 43 C293 51 277 61 265 83 C253 108 250 131 250 193 Z M334 783 L219 888 L167 888 L52 783 L71 755 L193 818 L315 755 Z " />
<glyph glyph-name="Idieresis" unicode="&#xcf;" horiz-adv-x="387" d="M93 750 C124 750 148 771 148 806 C148 840 124 862 93 862 C62 862 38 840 38 806 C38 771 62 750 93 750 Z M294 750 C325 750 349 771 349 806 C349 840 325 862 294 862 C263 862 239 840 239 806 C239 771 263 750 294 750 Z M250 505 C250 568 253 590 265 616 C277 638 292 649 314 656 C324 659 336 661 352 662 L352 698 L35 698 L35 662 C51 661 63 659 73 656 C97 649 110 638 122 616 C134 590 137 568 137 505 L137 193 C137 131 134 108 122 83 C110 61 95 51 73 43 C62 39 51 37 35 36 L35 0 L352 0 L352 36 C336 37 324 39 314 43 C293 51 277 61 265 83 C253 108 250 131 250 193 Z " />
<glyph glyph-name="Eth" unicode="&#xd0;" horiz-adv-x="748" d="M36 335 L137 335 L137 193 C137 131 134 108 122 83 C110 61 95 50 73 43 C63 39 51 37 35 36 L35 0 L375 0 C435 0 500 17 544 41 C643 96 713 196 713 350 C713 501 635 603 538 656 C494 681 432 698 348 698 L35 698 L35 662 C51 661 63 659 73 656 C95 648 110 638 122 616 C134 590 137 568 137 505 L137 375 L36 375 Z M598 348 C598 213 562 142 508 89 C470 53 412 36 365 36 L351 36 C315 36 287 40 272 56 C254 74 250 105 250 154 L250 335 L409 335 L409 375 L250 375 L250 630 C250 642 251 650 256 655 C262 661 268 662 278 662 L344 662 C398 662 464 649 504 614 C560 565 598 482 598 348 Z " />
<glyph glyph-name="Ntilde" unicode="&#xd1;" horiz-adv-x="773" d="M654 -8 L654 527 C654 583 661 604 674 621 C686 639 699 648 717 653 C731 657 741 660 760 662 L760 698 L490 698 L490 662 C505 661 524 659 535 655 C554 650 567 644 583 626 C599 608 606 583 606 527 L606 194 L597 194 L257 698 L29 698 L29 662 C44 661 59 658 69 653 C105 635 117 622 128 599 C140 574 149 538 149 461 L149 170 C149 114 140 91 124 73 C109 55 97 47 78 42 C67 39 52 37 38 36 L38 0 L303 0 L303 36 C284 38 274 40 260 44 C242 50 229 58 216 76 C204 93 197 114 197 170 L197 571 L207 571 L603 -8 Z M582 863 L552 874 C540 845 525 832 494 832 C451 832 418 861 370 861 C324 861 292 805 276 759 L306 748 C317 775 339 793 360 793 C399 793 429 764 480 764 C526 764 565 808 582 863 Z " />
<glyph glyph-name="Ograve" unicode="&#xd2;" horiz-adv-x="746" d="M373 711 C190 711 37 561 37 349 C37 137 190 -14 373 -14 C556 -14 709 137 709 349 C709 561 556 711 373 711 Z M373 27 C335 27 301 36 269 56 C212 93 160 164 160 349 C160 533 212 604 269 641 C301 661 335 670 373 670 C411 670 445 661 477 641 C534 604 587 533 587 349 C587 164 534 93 477 56 C445 36 411 27 373 27 Z M503 787 C444 822 414 841 376 864 C339 886 323 897 291 897 C265 897 245 878 245 849 C245 807 288 796 318 789 C363 779 411 770 493 755 Z " />
<glyph glyph-name="Oacute" unicode="&#xd3;" horiz-adv-x="746" d="M373 711 C190 711 37 561 37 349 C37 137 190 -14 373 -14 C556 -14 709 137 709 349 C709 561 556 711 373 711 Z M373 27 C335 27 301 36 269 56 C212 93 160 164 160 349 C160 533 212 604 269 641 C301 661 335 670 373 670 C411 670 445 661 477 641 C534 604 587 533 587 349 C587 164 534 93 477 56 C445 36 411 27 373 27 Z M252 787 L262 755 C344 770 392 779 437 789 C467 796 510 807 510 849 C510 878 490 897 464 897 C432 897 416 886 379 864 C341 841 311 822 252 787 Z " />
<glyph glyph-name="Ocircumflex" unicode="&#xd4;" horiz-adv-x="746" d="M373 711 C190 711 37 561 37 349 C37 137 190 -14 373 -14 C556 -14 709 137 709 349 C709 561 556 711 373 711 Z M373 27 C335 27 301 36 269 56 C212 93 160 164 160 349 C160 533 212 604 269 641 C301 661 335 670 373 670 C411 670 445 661 477 641 C534 604 587 533 587 349 C587 164 534 93 477 56 C445 36 411 27 373 27 Z M511 783 L396 888 L344 888 L229 783 L248 755 L370 818 L492 755 Z " />
<glyph glyph-name="Otilde" unicode="&#xd5;" horiz-adv-x="746" d="M373 711 C190 711 37 561 37 349 C37 137 190 -14 373 -14 C556 -14 709 137 709 349 C709 561 556 711 373 711 Z M373 27 C335 27 301 36 269 56 C212 93 160 164 160 349 C160 533 212 604 269 641 C301 661 335 670 373 670 C411 670 445 661 477 641 C534 604 587 533 587 349 C587 164 534 93 477 56 C445 36 411 27 373 27 Z M527 863 L497 874 C485 845 470 832 439 832 C396 832 363 861 315 861 C269 861 237 805 221 759 L251 748 C262 775 284 793 305 793 C344 793 374 764 425 764 C471 764 510 808 527 863 Z " />
<glyph glyph-name="Odieresis" unicode="&#xd6;" horiz-adv-x="746" d="M373 711 C190 711 37 561 37 349 C37 137 190 -14 373 -14 C556 -14 709 137 709 349 C709 561 556 711 373 711 Z M373 27 C335 27 301 36 269 56 C212 93 160 164 160 349 C160 533 212 604 269 641 C301 661 335 670 373 670 C411 670 445 661 477 641 C534 604 587 533 587 349 C587 164 534 93 477 56 C445 36 411 27 373 27 Z M267 750 C298 750 322 771 322 806 C322 840 298 862 267 862 C236 862 212 840 212 806 C212 771 236 750 267 750 Z M468 750 C499 750 523 771 523 806 C523 840 499 862 468 862 C437 862 413 840 413 806 C413 771 437 750 468 750 Z " />
<glyph glyph-name="multiply" unicode="&#xd7;" horiz-adv-x="469" d="M379 131 L408 161 L265 305 L408 448 L379 478 L235 334 L91 478 L61 449 L206 305 L61 160 L91 131 L235 275 Z " />
<glyph glyph-name="Oslash" unicode="&#xd8;" horiz-adv-x="746" d="M160 349 C160 533 212 604 269 641 C301 661 335 670 373 670 C411 670 445 661 477 641 C487 634 497 627 507 618 L207 121 C179 167 160 237 160 349 Z M373 27 C335 27 301 36 269 56 C257 64 245 74 233 86 L534 585 C565 539 587 468 587 349 C587 164 534 93 477 56 C445 36 411 27 373 27 Z M373 -14 C556 -14 709 137 709 349 C709 476 654 581 570 645 L628 741 L593 761 L536 667 C488 695 432 711 373 711 C190 711 37 561 37 349 C37 225 89 122 169 58 L110 -40 L146 -59 L202 34 C253 3 311 -14 373 -14 Z " />
<glyph glyph-name="Ugrave" unicode="&#xd9;" horiz-adv-x="752" d="M638 234 L638 527 C638 584 644 605 657 622 C670 640 683 648 701 654 C714 658 725 660 744 662 L744 698 L475 698 L475 662 C490 661 509 659 520 656 C539 650 551 644 567 626 C583 608 591 584 591 527 L591 228 C591 168 584 129 564 96 C537 51 481 29 395 29 C320 29 259 51 236 128 C225 162 222 194 222 224 L222 506 C222 568 225 590 238 615 C250 638 264 648 287 656 C296 659 309 661 325 662 L325 698 L7 698 L7 662 C23 661 36 659 46 656 C68 648 83 638 94 615 C107 590 109 568 109 505 L109 263 C109 223 113 156 128 117 C163 25 276 -13 386 -13 C497 -13 566 20 600 72 C630 117 638 162 638 234 Z M521 787 C462 822 432 841 394 864 C357 886 341 897 309 897 C283 897 263 878 263 849 C263 807 306 796 336 789 C381 779 429 770 511 755 Z " />
<glyph glyph-name="Uacute" unicode="&#xda;" horiz-adv-x="752" d="M638 234 L638 527 C638 584 644 605 657 622 C670 640 683 648 701 654 C714 658 725 660 744 662 L744 698 L475 698 L475 662 C490 661 509 659 520 656 C539 650 551 644 567 626 C583 608 591 584 591 527 L591 228 C591 168 584 129 564 96 C537 51 481 29 395 29 C320 29 259 51 236 128 C225 162 222 194 222 224 L222 506 C222 568 225 590 238 615 C250 638 264 648 287 656 C296 659 309 661 325 662 L325 698 L7 698 L7 662 C23 661 36 659 46 656 C68 648 83 638 94 615 C107 590 109 568 109 505 L109 263 C109 223 113 156 128 117 C163 25 276 -13 386 -13 C497 -13 566 20 600 72 C630 117 638 162 638 234 Z M292 787 L302 755 C384 770 432 779 477 789 C507 796 550 807 550 849 C550 878 530 897 504 897 C472 897 456 886 419 864 C381 841 351 822 292 787 Z " />
<glyph glyph-name="Ucircumflex" unicode="&#xdb;" horiz-adv-x="752" d="M638 234 L638 527 C638 584 644 605 657 622 C670 640 683 648 701 654 C714 658 725 660 744 662 L744 698 L475 698 L475 662 C490 661 509 659 520 656 C539 650 551 644 567 626 C583 608 591 584 591 527 L591 228 C591 168 584 129 564 96 C537 51 481 29 395 29 C320 29 259 51 236 128 C225 162 222 194 222 224 L222 506 C222 568 225 590 238 615 C250 638 264 648 287 656 C296 659 309 661 325 662 L325 698 L7 698 L7 662 C23 661 36 659 46 656 C68 648 83 638 94 615 C107 590 109 568 109 505 L109 263 C109 223 113 156 128 117 C163 25 276 -13 386 -13 C497 -13 566 20 600 72 C630 117 638 162 638 234 Z M542 783 L427 888 L375 888 L260 783 L279 755 L401 818 L523 755 Z " />
<glyph glyph-name="Udieresis" unicode="&#xdc;" horiz-adv-x="752" d="M638 234 L638 527 C638 584 644 605 657 622 C670 640 683 648 701 654 C714 658 725 660 744 662 L744 698 L475 698 L475 662 C490 661 509 659 520 656 C539 650 551 644 567 626 C583 608 591 584 591 527 L591 228 C591 168 584 129 564 96 C537 51 481 29 395 29 C320 29 259 51 236 128 C225 162 222 194 222 224 L222 506 C222 568 225 590 238 615 C250 638 264 648 287 656 C296 659 309 661 325 662 L325 698 L7 698 L7 662 C23 661 36 659 46 656 C68 648 83 638 94 615 C107 590 109 568 109 505 L109 263 C109 223 113 156 128 117 C163 25 276 -13 386 -13 C497 -13 566 20 600 72 C630 117 638 162 638 234 Z M303 750 C334 750 358 771 358 806 C358 840 334 862 303 862 C272 862 248 840 248 806 C248 771 272 750 303 750 Z M504 750 C535 750 559 771 559 806 C559 840 535 862 504 862 C473 862 449 840 449 806 C449 771 473 750 504 750 Z " />
<glyph glyph-name="Yacute" unicode="&#xdd;" horiz-adv-x="646" d="M262 298 L262 193 C262 131 260 108 247 83 C235 61 219 50 198 43 C186 39 176 37 160 36 L160 0 L476 0 L476 36 C460 37 451 38 438 43 C417 51 401 61 389 83 C377 108 375 131 375 193 L375 297 L503 516 C556 611 581 653 652 662 L652 698 L422 698 L422 662 C433 661 454 659 465 655 C484 648 492 639 492 616 C492 589 487 570 459 524 L361 357 L355 357 L243 542 C207 601 199 638 245 654 C255 657 273 660 299 662 L299 698 L-8 698 L-8 662 C33 653 59 639 106 555 Z M228 787 L238 755 C320 770 368 779 413 789 C443 796 486 807 486 849 C486 878 466 897 440 897 C408 897 392 886 355 864 C317 841 287 822 228 787 Z " />
<glyph glyph-name="Thorn" unicode="&#xde;" horiz-adv-x="599" d="M352 36 C336 37 324 39 314 43 C293 51 277 61 265 83 C253 107 250 129 250 187 L313 187 C403 187 465 203 501 226 C551 258 579 298 579 377 C579 493 473 545 328 545 L251 545 C252 579 256 596 265 616 C277 638 292 649 314 656 C324 659 336 661 352 662 L352 698 L35 698 L35 662 C51 661 63 659 73 656 C97 649 110 638 122 616 C134 590 137 568 137 505 L137 193 C137 131 134 108 122 83 C110 61 95 51 73 43 C62 39 51 37 35 36 L35 0 L352 0 Z M250 479 C250 491 253 497 256 501 C260 506 267 508 279 508 L323 508 C429 508 470 466 470 372 C470 331 463 297 444 271 C418 236 374 226 319 226 L250 226 Z " />
<glyph glyph-name="germandbls" unicode="&#xdf;" horiz-adv-x="653" d="M638 142 C638 232 563 258 487 305 C406 355 388 363 388 413 C388 443 407 460 434 484 C475 520 538 554 538 633 C538 705 467 759 339 759 C293 759 233 747 185 713 C140 681 106 630 106 551 L106 505 L28 505 L28 463 L106 463 L106 138 C106 117 106 99 103 85 C98 65 88 52 68 42 C60 39 43 35 30 34 L30 0 L286 0 L286 34 C273 35 252 39 244 42 C224 52 217 65 212 85 C208 99 208 117 208 138 L208 575 C208 690 279 720 339 720 C423 720 450 674 450 618 C450 570 434 540 404 513 C364 476 308 442 308 368 C308 293 372 251 440 211 C513 168 554 149 554 104 C554 58 535 28 480 28 C416 28 372 85 345 183 L312 183 L318 2 L346 2 L362 49 L371 49 C392 17 426 -10 480 -10 C572 -10 638 47 638 142 Z " />
<glyph glyph-name="agrave" unicode="&#xe0;" horiz-adv-x="500" d="M492 14 L483 44 C475 40 458 37 446 37 C430 37 417 44 411 56 C405 67 401 81 401 135 L401 411 C401 491 340 518 237 518 C165 518 108 490 83 464 C68 449 60 429 60 410 C60 382 80 364 106 364 C136 364 151 380 156 413 C161 443 173 459 184 467 C199 476 217 480 238 480 C282 480 299 461 299 413 L299 324 C286 303 258 287 195 269 C136 252 104 242 68 210 C41 185 30 149 30 120 C30 34 84 -10 169 -10 C250 -10 289 39 302 66 L313 66 C317 32 327 13 342 3 C354 -5 370 -10 399 -10 C440 -10 482 7 492 14 Z M299 282 L299 111 C286 68 249 42 203 42 C167 42 127 60 127 124 C127 161 140 181 155 199 C169 216 195 228 227 243 C262 258 289 271 299 282 Z M349 596 C294 646 265 676 234 704 C203 732 183 749 154 749 C127 749 111 730 111 701 C111 676 131 657 169 640 L331 568 Z " />
<glyph glyph-name="aacute" unicode="&#xe1;" horiz-adv-x="500" d="M492 14 L483 44 C475 40 458 37 446 37 C430 37 417 44 411 56 C405 67 401 81 401 135 L401 411 C401 491 340 518 237 518 C165 518 108 490 83 464 C68 449 60 429 60 410 C60 382 80 364 106 364 C136 364 151 380 156 413 C161 443 173 459 184 467 C199 476 217 480 238 480 C282 480 299 461 299 413 L299 324 C286 303 258 287 195 269 C136 252 104 242 68 210 C41 185 30 149 30 120 C30 34 84 -10 169 -10 C250 -10 289 39 302 66 L313 66 C317 32 327 13 342 3 C354 -5 370 -10 399 -10 C440 -10 482 7 492 14 Z M299 282 L299 111 C286 68 249 42 203 42 C167 42 127 60 127 124 C127 161 140 181 155 199 C169 216 195 228 227 243 C262 258 289 271 299 282 Z M118 596 L136 568 L298 640 C336 657 356 676 356 701 C356 730 340 749 313 749 C284 749 264 732 233 704 C202 676 173 646 118 596 Z " />
<glyph glyph-name="acircumflex" unicode="&#xe2;" horiz-adv-x="500" d="M492 14 L483 44 C475 40 458 37 446 37 C430 37 417 44 411 56 C405 67 401 81 401 135 L401 411 C401 491 340 518 237 518 C165 518 108 490 83 464 C68 449 60 429 60 410 C60 382 80 364 106 364 C136 364 151 380 156 413 C161 443 173 459 184 467 C199 476 217 480 238 480 C282 480 299 461 299 413 L299 324 C286 303 258 287 195 269 C136 252 104 242 68 210 C41 185 30 149 30 120 C30 34 84 -10 169 -10 C250 -10 289 39 302 66 L313 66 C317 32 327 13 342 3 C354 -5 370 -10 399 -10 C440 -10 482 7 492 14 Z M299 282 L299 111 C286 68 249 42 203 42 C167 42 127 60 127 124 C127 161 140 181 155 199 C169 216 195 228 227 243 C262 258 289 271 299 282 Z M373 585 L258 717 L210 717 L95 585 L122 560 L234 647 L346 560 Z " />
<glyph glyph-name="atilde" unicode="&#xe3;" horiz-adv-x="500" d="M492 14 L483 44 C475 40 458 37 446 37 C430 37 417 44 411 56 C405 67 401 81 401 135 L401 411 C401 491 340 518 237 518 C165 518 108 490 83 464 C68 449 60 429 60 410 C60 382 80 364 106 364 C136 364 151 380 156 413 C161 443 173 459 184 467 C199 476 217 480 238 480 C282 480 299 461 299 413 L299 324 C286 303 258 287 195 269 C136 252 104 242 68 210 C41 185 30 149 30 120 C30 34 84 -10 169 -10 C250 -10 289 39 302 66 L313 66 C317 32 327 13 342 3 C354 -5 370 -10 399 -10 C440 -10 482 7 492 14 Z M299 282 L299 111 C286 68 249 42 203 42 C167 42 127 60 127 124 C127 161 140 181 155 199 C169 216 195 228 227 243 C262 258 289 271 299 282 Z M390 703 L360 714 C348 685 333 672 302 672 C259 672 226 701 178 701 C132 701 100 645 84 599 L114 588 C125 615 147 633 168 633 C207 633 237 604 288 604 C334 604 373 648 390 703 Z " />
<glyph glyph-name="adieresis" unicode="&#xe4;" horiz-adv-x="500" d="M492 14 L483 44 C475 40 458 37 446 37 C430 37 417 44 411 56 C405 67 401 81 401 135 L401 411 C401 491 340 518 237 518 C165 518 108 490 83 464 C68 449 60 429 60 410 C60 382 80 364 106 364 C136 364 151 380 156 413 C161 443 173 459 184 467 C199 476 217 480 238 480 C282 480 299 461 299 413 L299 324 C286 303 258 287 195 269 C136 252 104 242 68 210 C41 185 30 149 30 120 C30 34 84 -10 169 -10 C250 -10 289 39 302 66 L313 66 C317 32 327 13 342 3 C354 -5 370 -10 399 -10 C440 -10 482 7 492 14 Z M299 282 L299 111 C286 68 249 42 203 42 C167 42 127 60 127 124 C127 161 140 181 155 199 C169 216 195 228 227 243 C262 258 289 271 299 282 Z M142 591 C171 591 195 612 195 645 C195 677 171 699 142 699 C113 699 89 677 89 645 C89 612 113 591 142 591 Z M325 591 C354 591 378 612 378 645 C378 677 354 699 325 699 C296 699 272 677 272 645 C272 612 296 591 325 591 Z " />
<glyph glyph-name="aring" unicode="&#xe5;" horiz-adv-x="500" d="M492 14 L483 44 C475 40 458 37 446 37 C430 37 417 44 411 56 C405 67 401 81 401 135 L401 411 C401 491 340 518 237 518 C165 518 108 490 83 464 C68 449 60 429 60 410 C60 382 80 364 106 364 C136 364 151 380 156 413 C161 443 173 459 184 467 C199 476 217 480 238 480 C282 480 299 461 299 413 L299 324 C286 303 258 287 195 269 C136 252 104 242 68 210 C41 185 30 149 30 120 C30 34 84 -10 169 -10 C250 -10 289 39 302 66 L313 66 C317 32 327 13 342 3 C354 -5 370 -10 399 -10 C440 -10 482 7 492 14 Z M299 282 L299 111 C286 68 249 42 203 42 C167 42 127 60 127 124 C127 161 140 181 155 199 C169 216 195 228 227 243 C262 258 289 271 299 282 Z M323 655 C323 713 280 745 233 745 C187 745 143 713 143 655 C143 598 187 566 233 566 C280 566 323 598 323 655 Z M176 655 C176 694 201 717 233 717 C265 717 290 694 290 655 C290 617 265 594 233 594 C201 594 176 617 176 655 Z " />
<glyph glyph-name="ae" unicode="&#xe6;" horiz-adv-x="768" d="M524 -10 C631 -10 702 52 734 139 L704 153 C679 92 638 34 543 34 C498 34 472 51 450 75 C410 116 399 187 399 270 L725 270 C727 282 728 306 728 328 C728 409 673 518 524 518 C472 518 405 491 377 458 L369 458 C339 497 296 518 238 518 C171 518 107 493 80 465 C67 452 59 433 59 413 C59 386 78 367 103 367 C133 367 150 380 155 413 C159 443 171 460 183 468 C197 478 218 482 240 482 C278 482 298 464 298 417 L298 325 C285 304 256 287 194 270 C136 253 103 243 67 211 C40 187 30 151 30 122 C30 37 91 -8 165 -8 C231 -8 299 20 323 106 L329 106 C343 82 350 71 369 53 C397 26 451 -10 524 -10 Z M628 359 C628 319 618 307 589 307 L401 307 C407 385 424 433 451 458 C472 478 500 485 525 485 C564 485 584 475 601 457 C621 434 628 403 628 359 Z M299 280 L299 124 C286 82 244 43 200 43 C163 43 128 63 128 127 C128 158 137 179 151 197 C165 215 191 227 223 241 C257 256 289 269 299 280 Z " />
<glyph glyph-name="ccedilla" unicode="&#xe7;" horiz-adv-x="508" d="M426 -117 C426 -68 394 -40 333 -40 C319 -40 295 -45 283 -52 L298 -9 C398 -1 463 54 487 134 L452 147 C432 92 392 35 287 35 C259 35 231 45 211 60 C168 94 141 152 141 255 C141 359 165 423 208 456 C228 472 258 480 284 480 C332 480 350 462 363 417 C374 379 387 354 424 354 C450 354 472 368 472 408 C472 424 465 443 449 461 C425 486 384 518 284 518 C151 518 34 418 34 255 C34 160 68 85 127 40 C164 11 207 -6 257 -9 L236 -69 L268 -88 C279 -79 294 -74 309 -74 C332 -74 351 -85 351 -120 C351 -158 323 -170 288 -170 C263 -170 234 -159 215 -146 L197 -176 C217 -190 249 -203 289 -203 C372 -203 426 -178 426 -117 Z " />
<glyph glyph-name="egrave" unicode="&#xe8;" horiz-adv-x="523" d="M489 139 L459 153 C434 92 391 34 296 34 C251 34 219 49 196 73 C156 115 145 186 145 254 L145 271 L482 271 C484 283 486 307 486 329 C486 410 427 518 277 518 C151 518 34 408 34 254 C34 178 60 99 119 47 C157 13 210 -10 279 -10 C386 -10 457 52 489 139 Z M203 452 C225 472 253 479 278 479 C317 479 341 470 358 450 C378 428 383 406 383 360 C383 320 372 308 349 308 L147 308 C155 396 182 431 203 452 Z M380 596 C325 646 296 676 265 704 C234 732 214 749 185 749 C158 749 142 730 142 701 C142 676 162 657 200 640 L362 568 Z " />
<glyph glyph-name="eacute" unicode="&#xe9;" horiz-adv-x="523" d="M489 139 L459 153 C434 92 391 34 296 34 C251 34 219 49 196 73 C156 115 145 186 145 254 L145 271 L482 271 C484 283 486 307 486 329 C486 410 427 518 277 518 C151 518 34 408 34 254 C34 178 60 99 119 47 C157 13 210 -10 279 -10 C386 -10 457 52 489 139 Z M203 452 C225 472 253 479 278 479 C317 479 341 470 358 450 C378 428 383 406 383 360 C383 320 372 308 349 308 L147 308 C155 396 182 431 203 452 Z M159 596 L177 568 L339 640 C377 657 397 676 397 701 C397 730 381 749 354 749 C325 749 305 732 274 704 C243 676 214 646 159 596 Z " />
<glyph glyph-name="ecircumflex" unicode="&#xea;" horiz-adv-x="523" d="M489 139 L459 153 C434 92 391 34 296 34 C251 34 219 49 196 73 C156 115 145 186 145 254 L145 271 L482 271 C484 283 486 307 486 329 C486 410 427 518 277 518 C151 518 34 408 34 254 C34 178 60 99 119 47 C157 13 210 -10 279 -10 C386 -10 457 52 489 139 Z M203 452 C225 472 253 479 278 479 C317 479 341 470 358 450 C378 428 383 406 383 360 C383 320 372 308 349 308 L147 308 C155 396 182 431 203 452 Z M410 585 L295 717 L247 717 L132 585 L159 560 L271 647 L383 560 Z " />
<glyph glyph-name="edieresis" unicode="&#xeb;" horiz-adv-x="523" d="M489 139 L459 153 C434 92 391 34 296 34 C251 34 219 49 196 73 C156 115 145 186 145 254 L145 271 L482 271 C484 283 486 307 486 329 C486 410 427 518 277 518 C151 518 34 408 34 254 C34 178 60 99 119 47 C157 13 210 -10 279 -10 C386 -10 457 52 489 139 Z M203 452 C225 472 253 479 278 479 C317 479 341 470 358 450 C378 428 383 406 383 360 C383 320 372 308 349 308 L147 308 C155 396 182 431 203 452 Z M182 591 C211 591 235 612 235 645 C235 677 211 699 182 699 C153 699 129 677 129 645 C129 612 153 591 182 591 Z M365 591 C394 591 418 612 418 645 C418 677 394 699 365 699 C336 699 312 677 312 645 C312 612 336 591 365 591 Z " />
<glyph glyph-name="igrave" unicode="&#xec;" horiz-adv-x="302" d="M204 384 C204 436 206 469 207 497 C207 502 204 505 200 505 L25 505 L25 471 C47 466 64 460 78 452 C88 446 96 436 100 424 C103 413 103 386 103 370 L103 138 C103 117 103 99 100 85 C95 65 85 52 65 42 C57 39 42 35 29 34 L29 0 L280 0 L280 34 C267 35 251 39 243 42 C222 52 213 65 208 85 C204 99 204 117 204 138 Z M250 596 C195 646 166 676 135 704 C104 732 84 749 55 749 C28 749 12 730 12 701 C12 676 32 657 70 640 L232 568 Z " />
<glyph glyph-name="iacute" unicode="&#xed;" horiz-adv-x="302" d="M204 384 C204 436 206 469 207 497 C207 502 204 505 200 505 L25 505 L25 471 C47 466 64 460 78 452 C88 446 96 436 100 424 C103 413 103 386 103 370 L103 138 C103 117 103 99 100 85 C95 65 85 52 65 42 C57 39 42 35 29 34 L29 0 L280 0 L280 34 C267 35 251 39 243 42 C222 52 213 65 208 85 C204 99 204 117 204 138 Z M11 596 L29 568 L191 640 C229 657 249 676 249 701 C249 730 233 749 206 749 C177 749 157 732 126 704 C95 676 66 646 11 596 Z " />
<glyph glyph-name="icircumflex" unicode="&#xee;" horiz-adv-x="302" d="M204 384 C204 436 206 469 207 497 C207 502 204 505 200 505 L25 505 L25 471 C47 466 64 460 78 452 C88 446 96 436 100 424 C103 413 103 386 103 370 L103 138 C103 117 103 99 100 85 C95 65 85 52 65 42 C57 39 42 35 29 34 L29 0 L280 0 L280 34 C267 35 251 39 243 42 C222 52 213 65 208 85 C204 99 204 117 204 138 Z M264 585 L149 717 L101 717 L-14 585 L13 560 L125 647 L237 560 Z " />
<glyph glyph-name="idieresis" unicode="&#xef;" horiz-adv-x="302" d="M204 384 C204 436 206 469 207 497 C207 502 204 505 200 505 L25 505 L25 471 C47 466 64 460 78 452 C88 446 96 436 100 424 C103 413 103 386 103 370 L103 138 C103 117 103 99 100 85 C95 65 85 52 65 42 C57 39 42 35 29 34 L29 0 L280 0 L280 34 C267 35 251 39 243 42 C222 52 213 65 208 85 C204 99 204 117 204 138 Z M28 591 C57 591 81 612 81 645 C81 677 57 699 28 699 C-1 699 -25 677 -25 645 C-25 612 -1 591 28 591 Z M211 591 C240 591 264 612 264 645 C264 677 240 699 211 699 C182 699 158 677 158 645 C158 612 182 591 211 591 Z " />
<glyph glyph-name="eth" unicode="&#xf0;" horiz-adv-x="552" d="M274 -10 C416 -10 524 85 524 286 C524 455 449 570 357 648 L489 714 L470 749 L323 676 C269 715 212 744 163 765 L143 730 C195 706 237 681 273 651 L152 591 L172 556 L304 622 C339 584 367 539 389 482 L385 482 C353 513 314 518 274 518 C145 518 28 418 28 255 C28 92 133 -10 274 -10 Z M415 263 C413 177 391 103 359 64 C334 35 302 29 274 29 C248 29 214 37 190 65 C157 104 138 168 138 255 C138 341 155 409 191 446 C214 470 246 479 274 479 C306 479 340 471 364 443 C397 404 418 351 415 263 Z " />
<glyph glyph-name="ntilde" unicode="&#xf1;" horiz-adv-x="624" d="M527 138 L527 386 C527 434 509 471 478 493 C454 510 422 518 385 518 C344 518 306 507 275 486 C249 470 228 448 212 423 L200 423 L202 497 C202 502 200 505 195 505 L25 505 L25 471 C47 466 66 460 80 452 C90 446 98 436 102 424 C105 413 105 386 105 370 L105 138 C105 117 105 99 102 85 C97 65 87 52 67 42 C59 39 42 35 29 34 L29 0 L278 0 L278 34 C265 35 250 39 242 42 C222 52 215 65 210 85 C206 99 206 117 206 138 L206 306 C206 343 216 383 235 408 C260 443 303 459 346 459 C373 459 391 454 404 442 C420 426 426 403 426 376 L426 138 C426 117 426 99 423 85 C418 65 411 52 391 42 C382 39 366 35 353 34 L353 0 L602 0 L602 34 C589 35 573 39 565 42 C544 52 535 65 530 85 C527 99 527 117 527 138 Z M465 703 L435 714 C423 685 408 672 377 672 C334 672 301 701 253 701 C207 701 175 645 159 599 L189 588 C200 615 222 633 243 633 C282 633 312 604 363 604 C409 604 448 648 465 703 Z " />
<glyph glyph-name="ograve" unicode="&#xf2;" horiz-adv-x="566" d="M34 255 C34 92 150 -10 283 -10 C416 -10 532 92 532 255 C532 418 416 518 283 518 C150 518 34 418 34 255 Z M144 255 C144 359 167 423 210 456 C230 472 257 479 283 479 C309 479 335 472 355 456 C398 423 422 359 422 255 C422 152 398 87 355 53 C335 38 310 29 283 29 C255 29 230 38 210 53 C167 87 144 152 144 255 Z M392 596 C337 646 308 676 277 704 C246 732 226 749 197 749 C170 749 154 730 154 701 C154 676 174 657 212 640 L374 568 Z " />
<glyph glyph-name="oacute" unicode="&#xf3;" horiz-adv-x="566" d="M34 255 C34 92 150 -10 283 -10 C416 -10 532 92 532 255 C532 418 416 518 283 518 C150 518 34 418 34 255 Z M144 255 C144 359 167 423 210 456 C230 472 257 479 283 479 C309 479 335 472 355 456 C398 423 422 359 422 255 C422 152 398 87 355 53 C335 38 310 29 283 29 C255 29 230 38 210 53 C167 87 144 152 144 255 Z M151 596 L169 568 L331 640 C369 657 389 676 389 701 C389 730 373 749 346 749 C317 749 297 732 266 704 C235 676 206 646 151 596 Z " />
<glyph glyph-name="ocircumflex" unicode="&#xf4;" horiz-adv-x="566" d="M34 255 C34 92 150 -10 283 -10 C416 -10 532 92 532 255 C532 418 416 518 283 518 C150 518 34 418 34 255 Z M144 255 C144 359 167 423 210 456 C230 472 257 479 283 479 C309 479 335 472 355 456 C398 423 422 359 422 255 C422 152 398 87 355 53 C335 38 310 29 283 29 C255 29 230 38 210 53 C167 87 144 152 144 255 Z M421 585 L306 717 L258 717 L143 585 L170 560 L282 647 L394 560 Z " />
<glyph glyph-name="otilde" unicode="&#xf5;" horiz-adv-x="566" d="M34 255 C34 92 150 -10 283 -10 C416 -10 532 92 532 255 C532 418 416 518 283 518 C150 518 34 418 34 255 Z M144 255 C144 359 167 423 210 456 C230 472 257 479 283 479 C309 479 335 472 355 456 C398 423 422 359 422 255 C422 152 398 87 355 53 C335 38 310 29 283 29 C255 29 230 38 210 53 C167 87 144 152 144 255 Z M434 703 L404 714 C392 685 377 672 346 672 C303 672 270 701 222 701 C176 701 144 645 128 599 L158 588 C169 615 191 633 212 633 C251 633 281 604 332 604 C378 604 417 648 434 703 Z " />
<glyph glyph-name="odieresis" unicode="&#xf6;" horiz-adv-x="566" d="M34 255 C34 92 150 -10 283 -10 C416 -10 532 92 532 255 C532 418 416 518 283 518 C150 518 34 418 34 255 Z M144 255 C144 359 167 423 210 456 C230 472 257 479 283 479 C309 479 335 472 355 456 C398 423 422 359 422 255 C422 152 398 87 355 53 C335 38 310 29 283 29 C255 29 230 38 210 53 C167 87 144 152 144 255 Z M188 591 C217 591 241 612 241 645 C241 677 217 699 188 699 C159 699 135 677 135 645 C135 612 159 591 188 591 Z M371 591 C400 591 424 612 424 645 C424 677 400 699 371 699 C342 699 318 677 318 645 C318 612 342 591 371 591 Z " />
<glyph glyph-name="divide" unicode="&#xf7;" horiz-adv-x="469" d="M288 438 C288 468 265 491 235 491 C205 491 182 468 182 438 C182 409 205 385 235 385 C265 385 288 409 288 438 Z M429 283 L429 325 L40 325 L40 283 Z M288 170 C288 200 265 223 235 223 C205 223 182 200 182 170 C182 141 205 117 235 117 C265 117 288 141 288 170 Z " />
<glyph glyph-name="oslash" unicode="&#xf8;" horiz-adv-x="566" d="M283 -10 C416 -10 532 92 532 255 C532 354 489 430 426 474 L471 558 L436 576 L392 494 C359 510 321 518 283 518 C150 518 34 418 34 255 C34 154 78 77 144 32 L96 -57 L132 -74 L178 13 C211 -2 246 -10 283 -10 Z M144 255 C144 359 167 423 210 456 C230 472 257 479 283 479 C309 479 335 472 355 456 C359 453 363 450 366 446 L176 93 C155 130 144 183 144 255 Z M283 29 C255 29 230 38 210 53 L203 59 L392 411 C412 375 422 324 422 255 C422 152 398 87 355 53 C335 38 310 29 283 29 Z " />
<glyph glyph-name="ugrave" unicode="&#xf9;" horiz-adv-x="621" d="M516 137 L516 378 C516 436 519 469 520 498 C520 503 518 505 513 505 L333 505 L333 471 C356 469 375 464 390 455 C400 449 408 439 412 427 C415 416 415 389 415 373 L415 235 C415 199 415 185 412 155 C408 115 390 85 367 66 C344 48 317 40 292 40 C263 40 240 47 220 69 C200 90 196 116 196 153 L196 378 C196 436 199 469 200 498 C200 503 198 505 193 505 L15 505 L15 471 C37 469 56 464 70 455 C80 449 88 439 92 427 C95 416 95 389 95 373 L95 146 C95 89 106 62 126 38 C158 0 208 -12 255 -12 C301 -12 336 0 361 19 C381 34 394 49 412 81 L422 81 C422 81 423 19 423 11 C423 2 426 0 432 0 L597 0 L597 34 C584 35 565 38 555 42 C534 50 525 65 520 85 C516 99 516 117 516 137 Z M380 596 C325 646 296 676 265 704 C234 732 214 749 185 749 C158 749 142 730 142 701 C142 676 162 657 200 640 L362 568 Z " />
<glyph glyph-name="uacute" unicode="&#xfa;" horiz-adv-x="621" d="M516 137 L516 378 C516 436 519 469 520 498 C520 503 518 505 513 505 L333 505 L333 471 C356 469 375 464 390 455 C400 449 408 439 412 427 C415 416 415 389 415 373 L415 235 C415 199 415 185 412 155 C408 115 390 85 367 66 C344 48 317 40 292 40 C263 40 240 47 220 69 C200 90 196 116 196 153 L196 378 C196 436 199 469 200 498 C200 503 198 505 193 505 L15 505 L15 471 C37 469 56 464 70 455 C80 449 88 439 92 427 C95 416 95 389 95 373 L95 146 C95 89 106 62 126 38 C158 0 208 -12 255 -12 C301 -12 336 0 361 19 C381 34 394 49 412 81 L422 81 C422 81 423 19 423 11 C423 2 426 0 432 0 L597 0 L597 34 C584 35 565 38 555 42 C534 50 525 65 520 85 C516 99 516 117 516 137 Z M179 596 L197 568 L359 640 C397 657 417 676 417 701 C417 730 401 749 374 749 C345 749 325 732 294 704 C263 676 234 646 179 596 Z " />
<glyph glyph-name="ucircumflex" unicode="&#xfb;" horiz-adv-x="621" d="M516 137 L516 378 C516 436 519 469 520 498 C520 503 518 505 513 505 L333 505 L333 471 C356 469 375 464 390 455 C400 449 408 439 412 427 C415 416 415 389 415 373 L415 235 C415 199 415 185 412 155 C408 115 390 85 367 66 C344 48 317 40 292 40 C263 40 240 47 220 69 C200 90 196 116 196 153 L196 378 C196 436 199 469 200 498 C200 503 198 505 193 505 L15 505 L15 471 C37 469 56 464 70 455 C80 449 88 439 92 427 C95 416 95 389 95 373 L95 146 C95 89 106 62 126 38 C158 0 208 -12 255 -12 C301 -12 336 0 361 19 C381 34 394 49 412 81 L422 81 C422 81 423 19 423 11 C423 2 426 0 432 0 L597 0 L597 34 C584 35 565 38 555 42 C534 50 525 65 520 85 C516 99 516 117 516 137 Z M414 585 L299 717 L251 717 L136 585 L163 560 L275 647 L387 560 Z " />
<glyph glyph-name="udieresis" unicode="&#xfc;" horiz-adv-x="621" d="M516 137 L516 378 C516 436 519 469 520 498 C520 503 518 505 513 505 L333 505 L333 471 C356 469 375 464 390 455 C400 449 408 439 412 427 C415 416 415 389 415 373 L415 235 C415 199 415 185 412 155 C408 115 390 85 367 66 C344 48 317 40 292 40 C263 40 240 47 220 69 C200 90 196 116 196 153 L196 378 C196 436 199 469 200 498 C200 503 198 505 193 505 L15 505 L15 471 C37 469 56 464 70 455 C80 449 88 439 92 427 C95 416 95 389 95 373 L95 146 C95 89 106 62 126 38 C158 0 208 -12 255 -12 C301 -12 336 0 361 19 C381 34 394 49 412 81 L422 81 C422 81 423 19 423 11 C423 2 426 0 432 0 L597 0 L597 34 C584 35 565 38 555 42 C534 50 525 65 520 85 C516 99 516 117 516 137 Z M183 591 C212 591 236 612 236 645 C236 677 212 699 183 699 C154 699 130 677 130 645 C130 612 154 591 183 591 Z M366 591 C395 591 419 612 419 645 C419 677 395 699 366 699 C337 699 313 677 313 645 C313 612 337 591 366 591 Z " />
<glyph glyph-name="yacute" unicode="&#xfd;" horiz-adv-x="551" d="M274 -50 L443 343 C460 383 475 416 486 432 C496 447 505 454 514 460 C526 467 540 470 550 471 L550 505 L357 505 L357 471 C367 470 388 469 400 463 C412 456 423 446 423 423 C423 394 419 381 399 335 L311 130 L300 130 L214 341 C198 381 189 403 189 425 C189 447 200 457 210 463 C220 467 246 470 258 471 L258 505 L4 505 L4 471 C14 470 33 467 45 459 C59 450 65 439 77 413 C84 397 96 363 117 315 L230 50 C234 40 241 25 241 7 C241 -5 238 -24 229 -47 C214 -86 191 -131 161 -131 C152 -131 145 -130 138 -125 C133 -122 128 -117 122 -110 C108 -93 95 -81 67 -81 C44 -81 21 -104 21 -135 C21 -173 56 -202 104 -202 C159 -202 195 -180 220 -147 C243 -116 249 -107 274 -50 Z M196 596 L214 568 L376 640 C414 657 434 676 434 701 C434 730 418 749 391 749 C362 749 342 732 311 704 C280 676 251 646 196 596 Z " />
<glyph glyph-name="thorn" unicode="&#xfe;" horiz-adv-x="589" d="M450 253 C450 115 402 28 310 28 C278 28 243 43 219 70 C196 95 188 132 188 193 L188 308 C188 366 215 418 235 437 C261 460 286 470 325 470 C394 470 450 417 450 253 Z M271 -161 C251 -160 234 -156 226 -153 C206 -143 196 -130 191 -110 C188 -96 188 -78 188 -58 L188 31 L197 31 C227 4 271 -11 318 -11 C431 -11 557 68 557 253 C557 449 447 517 345 517 C278 517 232 498 197 440 L187 440 L187 749 C187 754 185 756 180 756 L5 756 L5 722 C26 718 46 712 60 704 C69 698 77 687 81 675 C84 665 85 637 85 622 L85 -58 C85 -78 85 -96 81 -110 C76 -130 67 -143 47 -153 C38 -156 18 -160 5 -161 L5 -193 L271 -193 Z " />
<glyph glyph-name="ydieresis" unicode="&#xff;" horiz-adv-x="551" d="M274 -50 L443 343 C460 383 475 416 486 432 C496 447 505 454 514 460 C526 467 540 470 550 471 L550 505 L357 505 L357 471 C367 470 388 469 400 463 C412 456 423 446 423 423 C423 394 419 381 399 335 L311 130 L300 130 L214 341 C198 381 189 403 189 425 C189 447 200 457 210 463 C220 467 246 470 258 471 L258 505 L4 505 L4 471 C14 470 33 467 45 459 C59 450 65 439 77 413 C84 397 96 363 117 315 L230 50 C234 40 241 25 241 7 C241 -5 238 -24 229 -47 C214 -86 191 -131 161 -131 C152 -131 145 -130 138 -125 C133 -122 128 -117 122 -110 C108 -93 95 -81 67 -81 C44 -81 21 -104 21 -135 C21 -173 56 -202 104 -202 C159 -202 195 -180 220 -147 C243 -116 249 -107 274 -50 Z M200 591 C229 591 253 612 253 645 C253 677 229 699 200 699 C171 699 147 677 147 645 C147 612 171 591 200 591 Z M383 591 C412 591 436 612 436 645 C436 677 412 699 383 699 C354 699 330 677 330 645 C330 612 354 591 383 591 Z " />
<glyph glyph-name="dotlessi" unicode="&#x131;" horiz-adv-x="302" d="M204 384 C204 436 206 469 207 497 C207 502 204 505 200 505 L25 505 L25 471 C47 466 64 460 78 452 C88 446 96 436 100 424 C103 413 103 386 103 370 L103 138 C103 117 103 99 100 85 C95 65 85 52 65 42 C57 39 42 35 29 34 L29 0 L280 0 L280 34 C267 35 251 39 243 42 C222 52 213 65 208 85 C204 99 204 117 204 138 Z " />
<glyph glyph-name="Lslash" unicode="&#x141;" horiz-adv-x="622" d="M29 233 L137 278 L137 193 C137 131 134 108 122 83 C110 61 95 50 73 43 C63 39 51 37 35 36 L35 0 L571 0 L607 214 L574 214 C553 169 531 130 483 85 C454 57 425 36 352 36 L345 36 C309 36 285 40 270 56 C252 74 248 105 248 154 L248 325 L437 404 L437 446 L248 367 L248 505 C248 568 251 590 263 616 C275 638 290 648 312 656 C322 659 334 661 350 662 L350 698 L35 698 L35 662 C51 661 63 659 73 656 C95 648 110 638 122 616 C134 590 137 568 137 505 L137 320 L29 275 Z " />
<glyph glyph-name="lslash" unicode="&#x142;" horiz-adv-x="301" d="M203 625 C203 670 205 723 205 748 C205 753 203 756 198 756 L22 756 L22 722 C44 720 63 717 77 708 C87 703 95 692 99 680 C102 669 102 642 102 626 L102 328 L18 272 L18 221 L102 277 L102 138 C102 117 102 99 99 85 C94 65 84 52 64 42 C56 39 44 35 31 34 L31 0 L274 0 L274 34 C261 35 247 39 239 42 C219 52 212 65 207 85 C203 99 203 117 203 138 L203 345 L283 399 L283 450 L203 396 Z " />
<glyph glyph-name="OE" unicode="&#x152;" horiz-adv-x="1022" d="M366 661 C490 661 516 615 516 349 C516 93 490 37 366 37 C325 37 289 42 253 67 C187 114 160 177 160 349 C160 502 187 583 254 630 C287 652 322 661 366 661 Z M985 196 L954 196 C931 154 907 115 872 86 C838 58 814 37 739 37 L726 37 C690 37 663 41 648 57 C630 75 627 106 627 155 L627 343 L676 343 C721 343 745 337 765 318 C792 293 798 263 802 230 L834 230 L834 491 L802 491 C798 459 794 432 767 406 C748 387 722 380 676 380 L627 380 L627 587 C627 612 627 629 638 645 C649 659 667 661 686 661 L733 661 C791 661 831 641 849 625 C884 597 906 573 932 525 L966 525 L935 698 L367 698 C176 698 37 562 37 349 C37 137 176 0 367 0 L952 0 Z " />
<glyph glyph-name="oe" unicode="&#x153;" horiz-adv-x="881" d="M847 139 L817 153 C792 92 749 34 654 34 C609 34 577 49 554 73 C514 115 513 186 513 254 L513 271 L830 271 C832 283 834 307 834 329 C834 410 785 518 635 518 C564 518 501 481 461 420 L453 420 C415 483 352 518 273 518 C140 518 34 418 34 255 C34 92 140 -10 273 -10 C350 -10 411 26 449 86 L457 86 C463 76 471 67 480 57 C512 23 555 -10 637 -10 C744 -10 815 52 847 139 Z M561 452 C583 472 611 479 636 479 C675 479 699 470 716 450 C736 428 731 406 731 360 C731 320 720 308 697 308 L515 308 C520 396 540 431 561 452 Z M144 255 C144 359 157 423 200 456 C220 472 247 479 273 479 C299 479 325 472 345 456 C388 423 402 359 402 255 C402 152 388 87 345 53 C325 38 300 29 273 29 C245 29 220 38 200 53 C157 87 144 152 144 255 Z " />
<glyph glyph-name="Scaron" unicode="&#x160;" horiz-adv-x="546" d="M513 193 C513 323 410 363 300 418 C226 455 150 480 150 572 C150 637 198 673 258 673 C313 673 340 657 365 633 C397 603 424 554 445 500 L479 500 L462 703 L431 703 L409 661 L400 661 C364 693 338 711 258 711 C145 711 58 636 58 528 C58 403 153 358 250 310 C351 260 423 238 423 144 C423 75 376 24 284 24 C194 24 111 128 71 236 L37 236 L47 5 L72 5 L100 54 L110 54 C145 21 209 -14 284 -14 C403 -14 513 61 513 193 Z M402 860 L383 888 L261 825 L139 888 L120 860 L235 755 L287 755 Z " />
<glyph glyph-name="scaron" unicode="&#x161;" horiz-adv-x="436" d="M409 147 C409 238 332 274 246 308 C153 343 129 363 129 411 C129 452 161 480 213 480 C247 480 271 470 291 453 C314 432 330 399 346 357 L381 357 L373 509 L347 509 L334 467 L324 467 C311 488 275 518 213 518 C109 518 46 457 46 380 C46 273 118 252 200 217 C289 180 327 160 327 99 C327 51 293 28 237 28 C159 28 101 98 70 193 L34 193 L40 2 L69 2 L86 56 L98 56 C126 20 181 -10 234 -10 C327 -10 409 39 409 147 Z M351 692 L324 717 L212 630 L100 717 L73 692 L188 560 L236 560 Z " />
<glyph glyph-name="Ydieresis" unicode="&#x178;" horiz-adv-x="646" d="M262 298 L262 193 C262 131 260 108 247 83 C235 61 219 50 198 43 C186 39 176 37 160 36 L160 0 L476 0 L476 36 C460 37 451 38 438 43 C417 51 401 61 389 83 C377 108 375 131 375 193 L375 297 L503 516 C556 611 581 653 652 662 L652 698 L422 698 L422 662 C433 661 454 659 465 655 C484 648 492 639 492 616 C492 589 487 570 459 524 L361 357 L355 357 L243 542 C207 601 199 638 245 654 C255 657 273 660 299 662 L299 698 L-8 698 L-8 662 C33 653 59 639 106 555 Z M254 750 C285 750 309 771 309 806 C309 840 285 862 254 862 C223 862 199 840 199 806 C199 771 223 750 254 750 Z M455 750 C486 750 510 771 510 806 C510 840 486 862 455 862 C424 862 400 840 400 806 C400 771 424 750 455 750 Z " />
<glyph glyph-name="Zcaron" unicode="&#x17d;" horiz-adv-x="624" d="M581 698 L100 698 L60 505 L96 505 C122 561 156 599 192 625 C230 653 266 662 339 662 L448 662 L37 27 L37 0 L549 0 L608 215 L571 215 C545 168 516 106 443 68 C398 45 361 36 264 36 L177 36 L581 671 Z M466 870 L447 898 L325 835 L203 898 L184 870 L299 765 L351 765 Z " />
<glyph glyph-name="zcaron" unicode="&#x17e;" horiz-adv-x="493" d="M460 172 L427 172 C412 136 397 111 365 74 C342 49 324 34 269 34 L157 34 L157 38 L451 484 L451 505 L79 505 L44 349 L79 349 C98 387 114 416 140 441 C160 461 179 471 209 471 L331 471 L331 466 L30 17 L30 0 L441 0 Z M408 692 L381 717 L269 630 L157 717 L130 692 L245 560 L293 560 Z " />
<glyph glyph-name="uni0192" unicode="&#x192;" horiz-adv-x="493" d="M-8 -182 C78 -182 144 -115 183 28 C222 169 254 323 271 404 L382 404 L392 446 L280 446 C305 550 320 597 340 627 C353 648 369 655 384 655 C397 655 405 648 407 634 C408 625 404 614 404 603 C403 574 422 554 453 554 C486 554 506 575 506 608 C506 667 448 691 386 691 C289 691 220 601 178 446 L83 446 L73 404 L167 404 C131 253 109 94 56 -89 C42 -140 22 -151 -8 -151 C-25 -151 -32 -141 -35 -128 C-38 -109 -37 -102 -38 -84 C-40 -60 -57 -42 -86 -42 C-108 -42 -135 -56 -135 -95 C-135 -147 -80 -182 -8 -182 Z " />
<glyph glyph-name="circumflex" unicode="&#x2c6;" horiz-adv-x="460" d="M369 596 L254 728 L206 728 L91 596 L118 571 L230 658 L342 571 Z " />
<glyph glyph-name="caron" unicode="&#x2c7;" horiz-adv-x="460" d="M369 703 L342 728 L230 641 L118 728 L91 703 L206 571 L254 571 Z " />
<glyph glyph-name="breve" unicode="&#x2d8;" horiz-adv-x="460" d="M230 581 C304 581 346 633 354 711 L324 719 C306 661 272 650 229 650 C189 650 155 661 136 719 L106 711 C114 633 156 581 230 581 Z " />
<glyph glyph-name="dotaccent" unicode="&#x2d9;" horiz-adv-x="460" d="M230 608 C267 608 294 634 294 671 C294 708 267 734 230 734 C193 734 166 708 166 671 C166 634 193 608 230 608 Z " />
<glyph glyph-name="ring" unicode="&#x2da;" horiz-adv-x="460" d="M320 655 C320 713 277 745 230 745 C184 745 140 713 140 655 C140 598 184 566 230 566 C277 566 320 598 320 655 Z M173 655 C173 694 198 717 230 717 C262 717 287 694 287 655 C287 617 262 594 230 594 C198 594 173 617 173 655 Z " />
<glyph glyph-name="ogonek" unicode="&#x2db;" horiz-adv-x="460" d="M314 -215 L314 -177 C259 -173 218 -151 218 -113 C218 -65 241 -33 288 0 L248 0 C174 -30 131 -69 131 -120 C131 -188 209 -221 314 -215 Z " />
<glyph glyph-name="tilde" unicode="&#x2dc;" horiz-adv-x="460" d="M377 703 L347 714 C335 685 320 672 289 672 C246 672 213 701 165 701 C119 701 87 645 71 599 L101 588 C112 615 134 633 155 633 C194 633 224 604 275 604 C321 604 360 648 377 703 Z " />
<glyph glyph-name="hungarumlaut" unicode="&#x2dd;" horiz-adv-x="460" d="M210 759 C187 759 170 746 155 716 L81 566 L107 550 C160 604 189 637 213 662 C234 685 244 701 244 725 C244 744 230 759 210 759 Z M383 759 C360 759 343 746 328 716 L254 566 L280 550 C333 604 362 637 386 662 C407 685 417 701 417 725 C417 744 403 759 383 759 Z " />
<glyph glyph-name="endash" unicode="&#x2013;" horiz-adv-x="500" d="M470 290 L470 346 L30 346 L30 290 Z " />
<glyph glyph-name="emdash" unicode="&#x2014;" horiz-adv-x="960" d="M930 290 L930 346 L30 346 L30 290 Z " />
<glyph glyph-name="quoteleft" unicode="&#x2018;" horiz-adv-x="255" d="M55 527 C55 472 90 444 132 444 C165 444 197 469 197 506 C197 543 176 561 145 572 C131 577 127 585 127 598 C127 628 150 652 225 681 L212 711 C123 680 55 629 55 527 Z " />
<glyph glyph-name="quoteright" unicode="&#x2019;" horiz-adv-x="255" d="M200 628 C200 683 165 711 123 711 C90 711 58 686 58 649 C58 612 79 594 110 583 C124 578 128 570 128 557 C128 527 105 503 30 474 L43 444 C132 475 200 526 200 628 Z " />
<glyph glyph-name="quotesinglbase" unicode="&#x201a;" horiz-adv-x="265" d="M210 14 C210 69 175 97 133 97 C100 97 68 72 68 35 C68 -2 89 -20 120 -31 C134 -36 138 -44 138 -57 C138 -87 115 -111 40 -140 L53 -170 C142 -139 210 -88 210 14 Z " />
<glyph glyph-name="quotedblleft" unicode="&#x201c;" horiz-adv-x="455" d="M255 527 C255 472 290 444 332 444 C365 444 397 469 397 506 C397 543 376 561 345 572 C331 577 327 585 327 598 C327 628 350 652 425 681 L412 711 C323 680 255 629 255 527 Z M55 527 C55 472 90 444 132 444 C165 444 197 469 197 506 C197 543 176 561 145 572 C131 577 127 585 127 598 C127 628 150 652 225 681 L212 711 C123 680 55 629 55 527 Z " />
<glyph glyph-name="quotedblright" unicode="&#x201d;" horiz-adv-x="455" d="M400 628 C400 683 365 711 323 711 C290 711 258 686 258 649 C258 612 279 594 310 583 C324 578 328 570 328 557 C328 527 305 503 230 474 L243 444 C332 475 400 526 400 628 Z M200 628 C200 683 165 711 123 711 C90 711 58 686 58 649 C58 612 79 594 110 583 C124 578 128 570 128 557 C128 527 105 503 30 474 L43 444 C132 475 200 526 200 628 Z " />
<glyph glyph-name="quotedblbase" unicode="&#x201e;" horiz-adv-x="453" d="M398 14 C398 69 363 97 321 97 C288 97 256 72 256 35 C256 -2 277 -20 308 -31 C322 -36 326 -44 326 -57 C326 -87 303 -111 228 -140 L241 -170 C330 -139 398 -88 398 14 Z M210 14 C210 69 175 97 133 97 C100 97 68 72 68 35 C68 -2 89 -20 120 -31 C134 -36 138 -44 138 -57 C138 -87 115 -111 40 -140 L53 -170 C142 -139 210 -88 210 14 Z " />
<glyph glyph-name="dagger" unicode="&#x2020;" horiz-adv-x="510" d="M277 -162 L313 382 L285 448 C316 439 347 430 392 430 C436 430 485 457 485 521 C485 547 468 571 436 571 C409 571 391 556 391 528 C391 518 395 510 399 503 C403 496 410 489 410 481 C410 474 404 469 388 469 C346 469 328 476 288 488 C288 556 314 582 314 654 C314 687 287 713 255 713 C223 713 196 687 196 654 C196 582 222 556 222 488 C182 476 164 469 122 469 C106 469 100 474 100 481 C100 489 107 496 111 503 C115 510 119 518 119 528 C119 556 101 571 74 571 C42 571 25 547 25 521 C25 457 74 430 118 430 C163 430 194 439 225 448 L197 382 L233 -162 Z " />
<glyph glyph-name="daggerdbl" unicode="&#x2021;" horiz-adv-x="520" d="M282 298 L318 402 L290 448 C321 439 352 430 397 430 C441 430 490 457 490 521 C490 547 473 571 441 571 C414 571 396 556 396 528 C396 518 400 510 404 503 C408 496 415 489 415 481 C415 474 409 469 393 469 C351 469 333 476 293 488 C293 556 319 582 319 654 C319 687 292 713 260 713 C228 713 201 687 201 654 C201 582 227 556 227 488 C187 476 169 469 127 469 C111 469 105 474 105 481 C105 489 112 496 116 503 C120 510 124 518 124 528 C124 556 106 571 79 571 C47 571 30 547 30 521 C30 457 79 430 123 430 C168 430 199 439 230 448 L202 402 L238 298 Z M282 253 L238 253 L202 149 L230 103 C199 112 168 121 123 121 C79 121 30 94 30 30 C30 4 47 -20 79 -20 C106 -20 124 -5 124 23 C124 33 120 41 116 48 C112 55 105 62 105 70 C105 77 111 82 127 82 C169 82 187 75 227 63 C227 -5 201 -31 201 -103 C201 -136 228 -162 260 -162 C292 -162 319 -136 319 -103 C319 -31 293 -5 293 63 C333 75 351 82 393 82 C409 82 415 77 415 70 C415 62 408 55 404 48 C400 41 396 33 396 23 C396 -5 414 -20 441 -20 C473 -20 490 4 490 30 C490 94 441 121 397 121 C352 121 321 112 290 103 L318 149 Z " />
<glyph glyph-name="bullet" unicode="&#x2022;" horiz-adv-x="432" d="M216 439 C153 439 100 388 100 325 C100 262 153 211 216 211 C279 211 332 262 332 325 C332 388 279 439 216 439 Z " />
<glyph glyph-name="ellipsis" unicode="&#x2026;" horiz-adv-x="906" d="M154 -13 C192 -13 221 16 221 56 C221 92 192 123 154 123 C112 123 85 92 85 56 C85 16 112 -13 154 -13 Z M454 -13 C492 -13 521 16 521 56 C521 92 492 123 454 123 C412 123 385 92 385 56 C385 16 412 -13 454 -13 Z M754 -13 C792 -13 821 16 821 56 C821 92 792 123 754 123 C712 123 685 92 685 56 C685 16 712 -13 754 -13 Z " />
<glyph glyph-name="perthousand" unicode="&#x2030;" horiz-adv-x="1132" d="M609 675 L576 695 L170 4 L202 -16 Z M355 510 C355 613 290 691 202 691 C116 691 52 613 52 510 C52 407 116 329 202 329 C290 329 355 407 355 510 Z M202 663 C255 663 280 611 280 510 C280 409 255 357 202 357 C151 357 126 412 126 510 C126 608 151 663 202 663 Z M937 350 C849 350 784 272 784 169 C784 66 849 -12 937 -12 C1023 -12 1087 66 1087 169 C1087 272 1023 350 937 350 Z M577 350 C489 350 424 272 424 169 C424 66 489 -12 577 -12 C663 -12 727 66 727 169 C727 272 663 350 577 350 Z M1013 169 C1013 71 988 16 937 16 C884 16 859 68 859 169 C859 270 884 322 937 322 C988 322 1013 267 1013 169 Z M653 169 C653 71 628 16 577 16 C524 16 499 68 499 169 C499 270 524 322 577 322 C628 322 653 267 653 169 Z " />
<glyph glyph-name="guilsinglleft" unicode="&#x2039;" horiz-adv-x="265" d="M36 260 L36 233 L208 84 L235 110 L129 246 L235 383 L208 409 Z " />
<glyph glyph-name="guilsinglright" unicode="&#x203a;" horiz-adv-x="265" d="M229 260 L57 409 L30 383 L136 246 L30 110 L57 84 L229 233 Z " />
<glyph glyph-name="fraction" unicode="&#x2044;" horiz-adv-x="295" d="M415 704 L381 728 L-120 -9 L-85 -31 Z " />
<glyph glyph-name="Euro" unicode="&#x20ac;" horiz-adv-x="596" d="M586 222 L546 229 C513 64 454 33 377 33 C274 33 231 134 219 251 L342 251 L342 290 L215 290 C214 306 214 323 214 339 C214 355 214 371 215 386 L394 386 L394 425 L218 425 C236 589 306 655 382 655 C448 655 479 635 479 607 C479 594 476 587 468 566 C463 553 460 545 460 527 C460 496 482 469 519 469 C557 469 582 497 582 536 C582 619 519 691 382 691 C245 691 133 586 104 425 L20 425 L20 386 L98 386 C97 371 96 355 96 339 C96 322 97 306 98 290 L20 290 L20 251 L103 251 C130 86 232 -13 355 -13 C503 -13 563 82 586 222 Z " />
<glyph glyph-name="trademark" unicode="&#x2122;" horiz-adv-x="779" d="M322 756 L39 756 L25 653 L52 653 C57 666 63 696 86 715 C102 729 115 731 128 731 L149 731 L149 565 C149 534 148 521 144 510 C141 503 137 499 126 495 C120 493 114 492 102 491 L102 464 L259 464 L259 491 C247 492 242 493 236 495 C224 499 220 503 217 510 C213 521 212 534 212 565 L212 731 L234 731 C247 732 259 729 276 715 C298 696 305 666 310 653 L337 653 Z M754 464 L754 492 C742 493 736 494 730 496 C719 500 715 504 712 511 C708 522 707 535 707 566 L707 655 C707 686 708 699 712 709 C715 717 719 721 730 725 C736 727 742 728 754 729 L754 756 L619 756 L559 548 L552 548 L493 756 L358 756 L358 729 C366 728 374 726 381 723 C390 718 394 714 398 705 C401 697 403 683 403 646 L403 572 C403 536 401 520 398 511 C395 504 393 500 381 496 C374 494 367 493 356 492 L356 464 L479 464 L479 492 C467 493 460 494 454 496 C442 500 439 504 436 511 C433 520 431 536 431 572 L431 712 L438 712 L514 461 L562 461 L638 710 L645 710 L645 566 C645 535 644 522 640 511 C637 504 632 500 621 496 C615 494 610 493 597 492 L597 464 Z " />
<glyph glyph-name="minus" unicode="&#x2212;" horiz-adv-x="469" d="M429 283 L429 325 L40 325 L40 283 Z " />
<glyph glyph-name="Dcroat" unicode="&#x110;" horiz-adv-x="748" d="M36 335 L137 335 L137 193 C137 131 134 108 122 83 C110 61 95 50 73 43 C63 39 51 37 35 36 L35 0 L375 0 C435 0 500 17 544 41 C643 96 713 196 713 350 C713 501 635 603 538 656 C494 681 432 698 348 698 L35 698 L35 662 C51 661 63 659 73 656 C95 648 110 638 122 616 C134 590 137 568 137 505 L137 375 L36 375 Z M598 348 C598 213 562 142 508 89 C470 53 412 36 365 36 L351 36 C315 36 287 40 272 56 C254 74 250 105 250 154 L250 335 L409 335 L409 375 L250 375 L250 630 C250 642 251 650 256 655 C262 661 268 662 278 662 L344 662 C398 662 464 649 504 614 C560 565 598 482 598 348 Z " />
<glyph glyph-name="Eng" unicode="&#x14a;" horiz-adv-x="773" d="M460 -201 C525 -201 564 -189 600 -154 C625 -130 654 -84 654 -15 L654 527 C654 583 661 604 674 621 C686 639 699 648 717 653 C731 657 741 660 760 662 L760 698 L490 698 L490 662 C505 661 524 659 535 655 C554 650 567 644 583 626 C599 608 606 583 606 527 L606 204 L597 204 L257 698 L29 698 L29 662 C44 661 59 658 69 653 C105 635 117 622 128 599 C140 574 149 538 149 461 L149 170 C149 114 140 91 124 73 C109 55 97 47 78 42 C67 39 52 37 38 36 L38 0 L303 0 L303 36 C284 38 274 40 260 44 C242 50 229 58 216 76 C204 93 197 114 197 170 L197 571 L207 571 L606 -2 L606 -11 C606 -60 590 -104 560 -133 C539 -153 505 -158 484 -158 C474 -158 461 -154 453 -144 C446 -135 443 -122 441 -110 C438 -94 432 -77 425 -65 C415 -50 398 -42 379 -42 C347 -42 320 -64 320 -101 C320 -128 336 -154 351 -167 C381 -194 429 -201 460 -201 Z " />
<glyph glyph-name="IJ" unicode="&#x132;" horiz-adv-x="837" d="M615 505 L615 174 C615 138 617 92 603 60 C591 34 577 28 556 28 C546 28 534 33 526 43 C519 52 515 64 513 76 C510 92 504 109 497 121 C487 136 470 144 451 144 C419 144 392 122 392 85 C392 58 408 32 423 19 C453 -8 501 -15 532 -15 C591 -15 633 7 665 40 C690 68 726 116 726 212 L726 505 C726 568 728 590 741 615 C753 638 767 648 790 656 C799 659 812 661 828 662 L828 698 L513 698 L513 662 C529 661 542 659 552 656 C574 648 589 638 600 615 C613 590 615 568 615 505 Z M250 505 C250 568 253 590 265 616 C277 638 292 649 314 656 C324 659 336 661 352 662 L352 698 L35 698 L35 662 C51 661 63 659 73 656 C97 649 110 638 122 616 C134 590 137 568 137 505 L137 193 C137 131 134 108 122 83 C110 61 95 51 73 43 C62 39 51 37 35 36 L35 0 L352 0 L352 36 C336 37 324 39 314 43 C293 51 277 61 265 83 C253 108 250 131 250 193 Z " />
<glyph glyph-name="dcroat" unicode="&#x111;" horiz-adv-x="593" d="M275 598 L405 598 L405 465 L396 465 C378 487 347 518 276 518 C160 518 34 439 34 254 C34 85 141 -10 255 -10 C329 -10 384 27 406 83 L417 83 L417 28 C417 19 416 13 419 6 C421 2 425 0 432 0 L582 0 L582 34 C568 35 553 38 544 42 C524 51 515 64 510 84 C506 98 506 116 506 136 L506 598 L592 598 L592 637 L506 637 C506 688 509 723 510 749 C510 753 508 756 503 756 L321 756 L321 723 C342 722 361 718 375 710 C385 704 396 693 399 681 C402 672 404 652 405 637 L275 637 Z M405 182 C405 99 358 33 284 33 C212 33 141 88 141 254 C141 414 210 477 289 477 C327 477 352 467 374 443 C398 417 405 380 405 342 Z " />
<glyph glyph-name="eng" unicode="&#x14b;" horiz-adv-x="592" d="M426 -45 C426 -100 420 -129 406 -149 C394 -167 380 -171 358 -171 C336 -171 321 -162 321 -141 C321 -136 322 -130 323 -123 C324 -115 325 -107 325 -100 C325 -70 307 -50 274 -50 C246 -50 221 -70 221 -106 C221 -138 235 -164 264 -183 C288 -200 317 -204 353 -204 C398 -204 425 -191 448 -173 C487 -143 527 -93 527 36 L527 384 C527 432 509 469 478 491 C454 508 422 516 385 516 C344 516 306 505 275 484 C249 468 228 446 212 421 L200 421 L202 497 C202 502 200 505 195 505 L25 505 L25 471 C47 466 66 460 80 452 C90 446 98 436 102 424 C105 413 105 386 105 370 L105 138 C105 117 105 99 102 85 C97 65 87 52 67 42 C59 39 42 35 29 34 L29 0 L278 0 L278 34 C265 35 250 39 242 42 C222 52 215 65 210 85 C206 99 206 117 206 138 L206 304 C206 341 216 381 235 406 C260 441 303 457 346 457 C373 457 391 452 404 440 C420 424 426 401 426 374 Z " />
<glyph glyph-name="ij" unicode="&#x133;" horiz-adv-x="565" d="M436 608 C473 608 500 634 500 671 C500 708 473 734 436 734 C399 734 372 708 372 671 C372 634 399 608 436 608 Z M385 -45 C385 -100 380 -129 366 -149 C354 -167 340 -171 318 -171 C296 -171 281 -162 281 -141 C281 -136 282 -130 283 -123 C284 -115 285 -107 285 -100 C285 -70 267 -50 234 -50 C206 -50 181 -70 181 -106 C181 -138 195 -164 224 -183 C248 -200 277 -204 313 -204 C358 -204 385 -191 408 -173 C447 -143 487 -93 487 36 L487 385 C487 436 489 469 489 498 C489 503 487 505 482 505 L305 505 L305 471 C327 466 346 460 360 452 C370 446 378 436 382 424 C385 413 385 386 385 370 Z M159 608 C196 608 223 634 223 671 C223 708 196 734 159 734 C122 734 95 708 95 671 C95 634 122 608 159 608 Z M204 384 C204 436 206 469 207 497 C207 502 204 505 200 505 L25 505 L25 471 C47 466 64 460 78 452 C88 446 96 436 100 424 C103 413 103 386 103 370 L103 138 C103 117 103 99 100 85 C95 65 85 52 65 42 C57 39 42 35 29 34 L29 0 L280 0 L280 34 C267 35 251 39 243 42 C222 52 213 65 208 85 C204 99 204 117 204 138 Z " />
<glyph glyph-name="Abreve" unicode="&#x102;" horiz-adv-x="691" d="M295 525 L306 525 L398 278 L205 278 Z M238 36 C219 37 198 41 186 46 C167 54 153 73 153 101 C153 125 156 145 168 177 L190 238 L412 238 L429 193 C443 154 453 125 453 94 C453 61 437 55 417 46 C405 41 395 39 369 36 L369 0 L686 0 L686 36 C672 39 661 44 649 49 C630 59 613 72 596 97 C583 117 570 143 556 181 L361 702 L318 702 L120 185 C103 140 90 109 80 90 C69 70 56 57 44 50 C30 42 16 38 -4 36 L-4 0 L238 0 Z M336 757 C410 757 462 809 470 887 L440 895 C422 837 378 827 335 827 C295 827 251 837 232 895 L202 887 C210 809 262 757 336 757 Z " />
<glyph glyph-name="Amacron" unicode="&#x100;" horiz-adv-x="691" d="M295 525 L306 525 L398 278 L205 278 Z M238 36 C219 37 198 41 186 46 C167 54 153 73 153 101 C153 125 156 145 168 177 L190 238 L412 238 L429 193 C443 154 453 125 453 94 C453 61 437 55 417 46 C405 41 395 39 369 36 L369 0 L686 0 L686 36 C672 39 661 44 649 49 C630 59 613 72 596 97 C583 117 570 143 556 181 L361 702 L318 702 L120 185 C103 140 90 109 80 90 C69 70 56 57 44 50 C30 42 16 38 -4 36 L-4 0 L238 0 Z M473 776 L473 833 L219 833 L219 776 Z " />
<glyph glyph-name="Aogonek" unicode="&#x104;" horiz-adv-x="691" d="M474 73 C479 60 481 49 481 39 C481 5 460 -16 438 -31 C402 -57 381 -85 381 -120 C381 -188 459 -221 564 -215 L564 -177 C502 -172 468 -152 468 -108 C468 -76 474 -42 505 -19 C520 -8 543 0 575 0 L686 0 L686 36 C672 39 661 44 649 49 C630 59 613 72 596 97 C583 117 570 143 556 181 L361 702 L318 702 L120 185 C103 140 90 109 80 90 C69 70 56 57 44 50 C30 42 16 38 -4 36 L-4 0 L238 0 L238 36 C219 37 198 41 186 46 C167 54 153 73 153 101 C153 125 156 145 168 177 L190 238 L412 238 Z M295 525 L306 525 L397 278 L205 278 Z " />
<glyph glyph-name="Aringacute" unicode="&#x1fa;" horiz-adv-x="691" d="M295 525 L306 525 L398 278 L205 278 Z M238 36 C219 37 198 41 186 46 C167 54 153 73 153 101 C153 125 156 145 168 177 L190 238 L412 238 L429 193 C443 154 453 125 453 94 C453 61 437 55 417 46 C405 41 395 39 369 36 L369 0 L686 0 L686 36 C672 39 661 44 649 49 C630 59 613 72 596 97 C583 117 570 143 556 181 L361 702 L318 702 L120 185 C103 140 90 109 80 90 C69 70 56 57 44 50 C30 42 16 38 -4 36 L-4 0 L238 0 Z M429 825 C429 883 386 915 339 915 C293 915 249 883 249 825 C249 768 293 736 339 736 C386 736 429 768 429 825 Z M282 825 C282 864 307 887 339 887 C371 887 396 864 396 825 C396 787 371 764 339 764 C307 764 282 787 282 825 Z M211 957 L221 925 C303 940 351 949 396 959 C426 966 469 977 469 1019 C469 1048 449 1067 423 1067 C391 1067 375 1056 338 1034 C300 1011 270 992 211 957 Z " />
<glyph glyph-name="AEacute" unicode="&#x1fc;" horiz-adv-x="924" d="M437 619 L437 298 L243 298 L429 619 Z M227 36 C208 37 187 41 176 46 C156 54 145 67 145 95 C145 119 156 147 174 179 L220 258 L437 258 L437 193 C437 131 434 108 422 83 C410 61 395 50 373 43 C363 39 351 37 335 36 L335 0 L856 0 L887 196 L855 196 C836 158 823 124 779 84 C750 58 719 36 668 36 L650 36 C614 36 586 40 571 56 C553 74 549 105 549 154 L549 342 L595 342 C640 342 666 337 686 318 C714 293 719 263 723 230 L756 230 L756 491 L723 491 C719 459 716 431 688 406 C668 387 641 379 595 379 L549 379 L549 586 C549 612 549 629 561 644 C572 658 591 662 610 662 L639 662 C698 662 740 641 759 625 C794 598 808 572 834 525 L868 525 L837 698 L335 698 L335 662 C351 661 363 659 373 656 C381 653 389 650 395 646 L126 185 C97 135 79 111 63 91 C48 73 37 62 25 54 C11 46 -3 38 -23 36 L-23 0 L227 0 Z M497 787 L507 755 C589 770 637 779 682 789 C712 796 755 807 755 849 C755 878 735 897 709 897 C677 897 661 886 624 864 C586 841 556 822 497 787 Z " />
<glyph glyph-name="Cacute" unicode="&#x106;" horiz-adv-x="679" d="M371 670 C457 670 484 647 518 606 C542 577 568 531 585 460 L623 460 L623 699 L601 699 L567 653 L559 653 C529 680 479 711 371 711 C198 711 37 561 37 349 C37 137 166 -14 362 -14 C513 -14 596 55 646 157 L616 174 C569 82 486 43 392 43 C329 43 298 52 260 78 C201 118 158 176 158 349 C158 533 210 608 272 645 C303 663 337 670 371 670 Z M270 787 L280 755 C362 770 410 779 455 789 C485 796 528 807 528 849 C528 878 508 897 482 897 C450 897 434 886 397 864 C359 841 329 822 270 787 Z " />
<glyph glyph-name="Ccaron" unicode="&#x10c;" horiz-adv-x="679" d="M371 670 C457 670 484 647 518 606 C542 577 568 531 585 460 L623 460 L623 699 L601 699 L567 653 L559 653 C529 680 479 711 371 711 C198 711 37 561 37 349 C37 137 166 -14 362 -14 C513 -14 596 55 646 157 L616 174 C569 82 486 43 392 43 C329 43 298 52 260 78 C201 118 158 176 158 349 C158 533 210 608 272 645 C303 663 337 670 371 670 Z M512 860 L493 888 L371 825 L249 888 L230 860 L345 755 L397 755 Z " />
<glyph glyph-name="Ccircumflex" unicode="&#x108;" horiz-adv-x="679" d="M371 670 C457 670 484 647 518 606 C542 577 568 531 585 460 L623 460 L623 699 L601 699 L567 653 L559 653 C529 680 479 711 371 711 C198 711 37 561 37 349 C37 137 166 -14 362 -14 C513 -14 596 55 646 157 L616 174 C569 82 486 43 392 43 C329 43 298 52 260 78 C201 118 158 176 158 349 C158 533 210 608 272 645 C303 663 337 670 371 670 Z M512 783 L397 888 L345 888 L230 783 L249 755 L371 818 L493 755 Z " />
<glyph glyph-name="Cdotaccent" unicode="&#x10a;" horiz-adv-x="679" d="M371 670 C457 670 484 647 518 606 C542 577 568 531 585 460 L623 460 L623 699 L601 699 L567 653 L559 653 C529 680 479 711 371 711 C198 711 37 561 37 349 C37 137 166 -14 362 -14 C513 -14 596 55 646 157 L616 174 C569 82 486 43 392 43 C329 43 298 52 260 78 C201 118 158 176 158 349 C158 533 210 608 272 645 C303 663 337 670 371 670 Z M371 758 C408 758 435 784 435 821 C435 858 408 884 371 884 C334 884 307 858 307 821 C307 784 334 758 371 758 Z " />
<glyph glyph-name="Dcaron" unicode="&#x10e;" horiz-adv-x="748" d="M35 698 L35 662 C51 661 63 659 73 656 C95 648 110 638 122 616 C134 590 137 568 137 505 L137 193 C137 131 134 108 122 83 C110 61 95 50 73 43 C63 39 51 37 35 36 L35 0 L375 0 C435 0 500 17 544 41 C643 96 713 196 713 350 C713 501 635 603 538 656 C494 681 432 698 348 698 Z M598 348 C598 213 562 142 508 89 C470 53 412 36 365 36 L351 36 C315 36 287 40 272 56 C254 74 250 105 250 154 L250 630 C250 642 251 650 256 655 C262 661 268 662 278 662 L344 662 C398 662 464 649 504 614 C560 565 598 482 598 348 Z M477 860 L458 888 L336 825 L214 888 L195 860 L310 755 L362 755 Z " />
<glyph glyph-name="Ebreve" unicode="&#x114;" horiz-adv-x="644" d="M607 196 L575 196 C556 158 543 124 499 84 C470 58 442 36 368 36 L350 36 C314 36 286 40 271 56 C253 74 249 105 249 154 L249 342 L295 342 C340 342 366 337 386 318 C414 293 419 263 423 230 L456 230 L456 491 L423 491 C419 459 416 431 388 406 C368 387 341 379 295 379 L249 379 L249 586 C249 612 249 629 261 644 C272 658 291 662 310 662 L359 662 C418 662 460 641 479 625 C514 598 528 572 554 525 L588 525 L557 698 L35 698 L35 662 C51 661 63 659 73 656 C95 648 110 638 122 616 C134 590 137 568 137 505 L137 193 C137 131 134 108 122 83 C110 61 95 50 73 43 C63 39 51 37 35 36 L35 0 L576 0 Z M328 757 C402 757 454 809 462 887 L432 895 C414 837 370 827 327 827 C287 827 243 837 224 895 L194 887 C202 809 254 757 328 757 Z " />
<glyph glyph-name="Ecaron" unicode="&#x11a;" horiz-adv-x="644" d="M607 196 L575 196 C556 158 543 124 499 84 C470 58 442 36 368 36 L350 36 C314 36 286 40 271 56 C253 74 249 105 249 154 L249 342 L295 342 C340 342 366 337 386 318 C414 293 419 263 423 230 L456 230 L456 491 L423 491 C419 459 416 431 388 406 C368 387 341 379 295 379 L249 379 L249 586 C249 612 249 629 261 644 C272 658 291 662 310 662 L359 662 C418 662 460 641 479 625 C514 598 528 572 554 525 L588 525 L557 698 L35 698 L35 662 C51 661 63 659 73 656 C95 648 110 638 122 616 C134 590 137 568 137 505 L137 193 C137 131 134 108 122 83 C110 61 95 50 73 43 C63 39 51 37 35 36 L35 0 L576 0 Z M469 860 L450 888 L328 825 L206 888 L187 860 L302 755 L354 755 Z " />
<glyph glyph-name="Edotaccent" unicode="&#x116;" horiz-adv-x="644" d="M607 196 L575 196 C556 158 543 124 499 84 C470 58 442 36 368 36 L350 36 C314 36 286 40 271 56 C253 74 249 105 249 154 L249 342 L295 342 C340 342 366 337 386 318 C414 293 419 263 423 230 L456 230 L456 491 L423 491 C419 459 416 431 388 406 C368 387 341 379 295 379 L249 379 L249 586 C249 612 249 629 261 644 C272 658 291 662 310 662 L359 662 C418 662 460 641 479 625 C514 598 528 572 554 525 L588 525 L557 698 L35 698 L35 662 C51 661 63 659 73 656 C95 648 110 638 122 616 C134 590 137 568 137 505 L137 193 C137 131 134 108 122 83 C110 61 95 50 73 43 C63 39 51 37 35 36 L35 0 L576 0 Z M328 758 C365 758 392 784 392 821 C392 858 365 884 328 884 C291 884 264 858 264 821 C264 784 291 758 328 758 Z " />
<glyph glyph-name="Emacron" unicode="&#x112;" horiz-adv-x="644" d="M607 196 L575 196 C556 158 543 124 499 84 C470 58 442 36 368 36 L350 36 C314 36 286 40 271 56 C253 74 249 105 249 154 L249 342 L295 342 C340 342 366 337 386 318 C414 293 419 263 423 230 L456 230 L456 491 L423 491 C419 459 416 431 388 406 C368 387 341 379 295 379 L249 379 L249 586 C249 612 249 629 261 644 C272 658 291 662 310 662 L359 662 C418 662 460 641 479 625 C514 598 528 572 554 525 L588 525 L557 698 L35 698 L35 662 C51 661 63 659 73 656 C95 648 110 638 122 616 C134 590 137 568 137 505 L137 193 C137 131 134 108 122 83 C110 61 95 50 73 43 C63 39 51 37 35 36 L35 0 L576 0 Z M455 776 L455 833 L201 833 L201 776 Z " />
<glyph glyph-name="Eogonek" unicode="&#x118;" horiz-adv-x="644" d="M468 0 C394 -30 351 -69 351 -120 C351 -188 429 -221 534 -215 L534 -177 C479 -173 438 -151 438 -113 C438 -65 461 -33 508 0 L576 0 L607 196 L575 196 C556 158 543 124 499 84 C470 58 442 36 368 36 L350 36 C314 36 286 40 271 56 C253 74 249 105 249 154 L249 342 L295 342 C340 342 366 337 386 318 C414 293 419 263 423 230 L456 230 L456 491 L423 491 C419 459 416 431 388 406 C368 387 341 379 295 379 L249 379 L249 586 C249 612 249 629 261 644 C272 658 291 662 310 662 L359 662 C418 662 460 641 479 625 C514 598 528 572 554 525 L588 525 L557 698 L35 698 L35 662 C51 661 63 659 73 656 C95 648 110 638 122 616 C134 590 137 568 137 505 L137 193 C137 131 134 108 122 83 C110 61 95 50 73 43 C63 39 51 37 35 36 L35 0 Z " />
<glyph glyph-name="Gbreve" unicode="&#x11e;" horiz-adv-x="760" d="M519 177 L519 145 C519 80 505 65 495 57 C477 41 454 28 377 28 C330 28 299 39 262 62 C197 102 166 172 166 349 C166 533 221 614 275 645 C307 663 336 670 368 670 C459 670 488 647 526 607 C557 574 575 531 592 460 L626 460 L626 699 L604 699 L573 653 L566 653 C536 680 481 711 369 711 C197 711 40 561 40 349 C40 137 165 -14 376 -14 C441 -14 509 0 548 8 C584 17 614 28 628 37 L628 123 C628 186 630 235 643 260 C655 283 669 292 692 300 C701 303 714 305 730 306 L730 341 L415 341 L415 306 C431 305 444 303 454 300 C476 292 491 287 502 264 C515 239 519 223 519 177 Z M398 757 C472 757 524 809 532 887 L502 895 C484 837 440 827 397 827 C357 827 313 837 294 895 L264 887 C272 809 324 757 398 757 Z " />
<glyph glyph-name="Gcircumflex" unicode="&#x11c;" horiz-adv-x="760" d="M519 177 L519 145 C519 80 505 65 495 57 C477 41 454 28 377 28 C330 28 299 39 262 62 C197 102 166 172 166 349 C166 533 221 614 275 645 C307 663 336 670 368 670 C459 670 488 647 526 607 C557 574 575 531 592 460 L626 460 L626 699 L604 699 L573 653 L566 653 C536 680 481 711 369 711 C197 711 40 561 40 349 C40 137 165 -14 376 -14 C441 -14 509 0 548 8 C584 17 614 28 628 37 L628 123 C628 186 630 235 643 260 C655 283 669 292 692 300 C701 303 714 305 730 306 L730 341 L415 341 L415 306 C431 305 444 303 454 300 C476 292 491 287 502 264 C515 239 519 223 519 177 Z M539 783 L424 888 L372 888 L257 783 L276 755 L398 818 L520 755 Z " />
<glyph glyph-name="uni0122" unicode="&#x122;" horiz-adv-x="760" d="M519 177 L519 145 C519 80 505 65 495 57 C477 41 454 28 377 28 C330 28 299 39 262 62 C197 102 166 172 166 349 C166 533 221 614 275 645 C307 663 336 670 368 670 C459 670 488 647 526 607 C557 574 575 531 592 460 L626 460 L626 699 L604 699 L573 653 L566 653 C536 680 481 711 369 711 C197 711 40 561 40 349 C40 137 165 -14 376 -14 C441 -14 509 0 548 8 C584 17 614 28 628 37 L628 123 C628 186 630 235 643 260 C655 283 669 292 692 300 C701 303 714 305 730 306 L730 341 L415 341 L415 306 C431 305 444 303 454 300 C476 292 491 287 502 264 C515 239 519 223 519 177 Z M442 -127 C442 -82 416 -57 377 -57 C341 -57 322 -85 322 -111 C322 -139 338 -158 367 -168 C373 -170 377 -172 377 -179 C377 -206 338 -228 295 -246 L308 -276 C372 -249 442 -197 442 -127 Z " />
<glyph glyph-name="Gdotaccent" unicode="&#x120;" horiz-adv-x="760" d="M519 177 L519 145 C519 80 505 65 495 57 C477 41 454 28 377 28 C330 28 299 39 262 62 C197 102 166 172 166 349 C166 533 221 614 275 645 C307 663 336 670 368 670 C459 670 488 647 526 607 C557 574 575 531 592 460 L626 460 L626 699 L604 699 L573 653 L566 653 C536 680 481 711 369 711 C197 711 40 561 40 349 C40 137 165 -14 376 -14 C441 -14 509 0 548 8 C584 17 614 28 628 37 L628 123 C628 186 630 235 643 260 C655 283 669 292 692 300 C701 303 714 305 730 306 L730 341 L415 341 L415 306 C431 305 444 303 454 300 C476 292 491 287 502 264 C515 239 519 223 519 177 Z M398 758 C435 758 462 784 462 821 C462 858 435 884 398 884 C361 884 334 858 334 821 C334 784 361 758 398 758 Z " />
<glyph glyph-name="Hbar" unicode="&#x126;" horiz-adv-x="821" d="M30 473 L142 473 L142 193 C142 131 139 108 127 83 C115 61 100 50 78 43 C68 39 56 37 40 36 L40 0 L354 0 L354 36 C340 37 331 39 319 43 C297 50 282 61 270 83 C258 108 255 131 255 193 L255 333 L566 333 L566 193 C566 131 563 108 551 83 C539 61 524 50 502 43 C490 39 481 37 467 36 L467 0 L781 0 L781 36 C765 37 755 39 743 43 C722 50 706 61 694 83 C682 108 679 131 679 193 L679 473 L791 473 L791 513 L679 513 C679 569 682 591 694 616 C706 638 721 648 743 656 C754 660 765 661 781 662 L781 698 L467 698 L467 662 C483 661 491 660 502 656 C524 648 539 638 551 616 C562 591 565 569 566 513 L255 513 C255 569 258 591 270 616 C282 638 298 648 319 656 C330 660 338 661 354 662 L354 698 L40 698 L40 662 C56 661 65 660 78 656 C100 649 115 638 127 616 C138 591 141 569 142 513 L30 513 Z M255 373 L255 473 L566 473 L566 373 Z " />
<glyph glyph-name="Hcircumflex" unicode="&#x124;" horiz-adv-x="811" d="M349 36 C335 37 326 39 314 43 C292 50 277 61 265 83 C253 108 250 131 250 193 L250 333 L561 333 L561 193 C561 131 558 108 546 83 C534 61 519 50 497 43 C485 39 476 37 462 36 L462 0 L776 0 L776 36 C760 37 750 39 738 43 C717 50 701 61 689 83 C677 108 674 131 674 193 L674 505 C674 568 677 590 689 616 C701 638 716 648 738 656 C749 660 760 661 776 662 L776 698 L462 698 L462 662 C478 661 486 660 497 656 C519 648 534 638 546 616 C558 590 561 568 561 505 L561 373 L250 373 L250 505 C250 568 253 590 265 616 C277 638 293 648 314 656 C325 660 333 661 349 662 L349 698 L35 698 L35 662 C51 661 60 660 73 656 C95 649 110 638 122 616 C134 590 137 568 137 505 L137 193 C137 131 134 108 122 83 C110 61 95 50 73 43 C63 39 51 37 35 36 L35 0 L349 0 Z M546 783 L431 888 L379 888 L264 783 L283 755 L405 818 L527 755 Z " />
<glyph glyph-name="Ibreve" unicode="&#x12c;" horiz-adv-x="387" d="M250 505 C250 568 253 590 265 616 C277 638 292 649 314 656 C324 659 336 661 352 662 L352 698 L35 698 L35 662 C51 661 63 659 73 656 C97 649 110 638 122 616 C134 590 137 568 137 505 L137 193 C137 131 134 108 122 83 C110 61 95 51 73 43 C62 39 51 37 35 36 L35 0 L352 0 L352 36 C336 37 324 39 314 43 C293 51 277 61 265 83 C253 108 250 131 250 193 Z M194 757 C268 757 320 809 328 887 L298 895 C280 837 236 827 193 827 C153 827 109 837 90 895 L60 887 C68 809 120 757 194 757 Z " />
<glyph glyph-name="Idotaccent" unicode="&#x130;" horiz-adv-x="387" d="M250 505 C250 568 253 590 265 616 C277 638 292 649 314 656 C324 659 336 661 352 662 L352 698 L35 698 L35 662 C51 661 63 659 73 656 C97 649 110 638 122 616 C134 590 137 568 137 505 L137 193 C137 131 134 108 122 83 C110 61 95 51 73 43 C62 39 51 37 35 36 L35 0 L352 0 L352 36 C336 37 324 39 314 43 C293 51 277 61 265 83 C253 108 250 131 250 193 Z M194 758 C231 758 258 784 258 821 C258 858 231 884 194 884 C157 884 130 858 130 821 C130 784 157 758 194 758 Z " />
<glyph glyph-name="Imacron" unicode="&#x12a;" horiz-adv-x="387" d="M250 505 C250 568 253 590 265 616 C277 638 292 649 314 656 C324 659 336 661 352 662 L352 698 L35 698 L35 662 C51 661 63 659 73 656 C97 649 110 638 122 616 C134 590 137 568 137 505 L137 193 C137 131 134 108 122 83 C110 61 95 51 73 43 C62 39 51 37 35 36 L35 0 L352 0 L352 36 C336 37 324 39 314 43 C293 51 277 61 265 83 C253 108 250 131 250 193 Z M322 776 L322 833 L68 833 L68 776 Z " />
<glyph glyph-name="Iogonek" unicode="&#x12e;" horiz-adv-x="387" d="M218 0 C144 -30 101 -69 101 -120 C101 -188 179 -221 284 -215 L284 -177 C229 -173 188 -151 188 -113 C188 -65 211 -33 258 0 L352 0 L352 36 C336 37 324 39 314 43 C293 51 277 61 265 83 C253 108 250 131 250 193 L250 505 C250 568 253 590 265 616 C277 638 292 649 314 656 C324 659 336 661 352 662 L352 698 L35 698 L35 662 C51 661 63 659 73 656 C97 649 110 638 122 616 C134 590 137 568 137 505 L137 193 C137 131 134 108 122 83 C110 61 95 51 73 43 C62 39 51 37 35 36 L35 0 Z " />
<glyph glyph-name="Itilde" unicode="&#x128;" horiz-adv-x="387" d="M250 505 C250 568 253 590 265 616 C277 638 292 649 314 656 C324 659 336 661 352 662 L352 698 L35 698 L35 662 C51 661 63 659 73 656 C97 649 110 638 122 616 C134 590 137 568 137 505 L137 193 C137 131 134 108 122 83 C110 61 95 51 73 43 C62 39 51 37 35 36 L35 0 L352 0 L352 36 C336 37 324 39 314 43 C293 51 277 61 265 83 C253 108 250 131 250 193 Z M353 863 L323 874 C311 845 296 832 265 832 C222 832 189 861 141 861 C95 861 63 805 47 759 L77 748 C88 775 110 793 131 793 C170 793 200 764 251 764 C297 764 336 808 353 863 Z " />
<glyph glyph-name="Jcircumflex" unicode="&#x134;" horiz-adv-x="437" d="M215 505 L215 174 C215 138 217 92 203 60 C191 34 177 28 156 28 C146 28 134 33 126 43 C119 52 115 64 113 76 C110 92 104 109 97 121 C87 136 70 144 51 144 C19 144 -8 122 -8 85 C-8 58 8 32 23 19 C53 -8 101 -15 132 -15 C191 -15 233 7 265 40 C290 68 326 116 326 212 L326 505 C326 568 328 590 341 615 C353 638 367 648 390 656 C399 659 412 661 428 662 L428 698 L113 698 L113 662 C129 661 142 659 152 656 C174 648 189 638 200 615 C213 590 215 568 215 505 Z M412 783 L297 888 L245 888 L130 783 L149 755 L271 818 L393 755 Z " />
<glyph glyph-name="uni0136" unicode="&#x136;" horiz-adv-x="712" d="M349 36 C333 37 319 39 309 43 C287 50 272 61 260 83 C248 108 245 131 245 193 L245 308 C254 320 268 334 277 342 C294 357 316 372 338 372 C387 372 405 352 427 312 C440 287 452 243 459 169 C465 98 492 22 516 0 L698 0 L698 36 C683 38 649 47 634 57 C611 74 589 95 579 187 C571 265 540 318 502 357 C469 390 422 406 349 406 L349 414 L476 534 C530 588 559 611 591 630 C616 645 652 659 675 662 L675 698 L402 698 L402 662 C416 661 432 659 442 655 C458 648 472 643 472 618 C472 590 445 565 401 521 L245 368 L245 505 C245 568 248 590 260 616 C272 638 287 648 309 656 C319 659 333 661 349 662 L349 698 L30 698 L30 662 C46 661 58 659 68 656 C90 648 105 638 117 616 C129 590 132 568 132 505 L132 193 C132 131 129 108 117 83 C105 61 90 50 68 43 C58 39 46 37 30 36 L30 0 L349 0 Z M483 -117 C483 -72 457 -47 418 -47 C382 -47 363 -75 363 -101 C363 -129 379 -148 408 -158 C414 -160 418 -162 418 -169 C418 -196 379 -218 336 -236 L349 -266 C413 -239 483 -187 483 -117 Z " />
<glyph glyph-name="Lacute" unicode="&#x139;" horiz-adv-x="622" d="M84 787 L94 755 C176 770 224 779 269 789 C299 796 342 807 342 849 C342 878 322 897 296 897 C264 897 248 886 211 864 C173 841 143 822 84 787 Z M35 0 L571 0 L607 214 L574 214 C553 169 531 130 483 85 C454 57 425 36 352 36 L345 36 C309 36 285 40 270 56 C252 74 248 105 248 154 L248 505 C248 568 251 590 263 616 C275 638 290 648 312 656 C322 659 334 661 350 662 L350 698 L35 698 L35 662 C51 661 63 659 73 656 C95 648 110 638 122 616 C134 590 137 568 137 505 L137 193 C137 131 134 108 122 83 C110 61 95 50 73 43 C63 39 51 37 35 36 Z " />
<glyph glyph-name="Lcaron" unicode="&#x13d;" horiz-adv-x="622" d="M35 0 L571 0 L607 214 L574 214 C553 169 531 130 483 85 C454 57 425 36 352 36 L345 36 C309 36 285 40 270 56 C252 74 248 105 248 154 L248 505 C248 568 251 590 263 616 C275 638 290 648 312 656 C322 659 334 661 350 662 L350 698 L35 698 L35 662 C51 661 63 659 73 656 C95 648 110 638 122 616 C134 590 137 568 137 505 L137 193 C137 131 134 108 122 83 C110 61 95 50 73 43 C63 39 51 37 35 36 Z M427 518 L469 518 C491 579 515 651 537 718 L451 718 Z " />
<glyph glyph-name="uni013B" unicode="&#x13b;" horiz-adv-x="622" d="M35 0 L571 0 L607 214 L574 214 C553 169 531 130 483 85 C454 57 425 36 352 36 L345 36 C309 36 285 40 270 56 C252 74 248 105 248 154 L248 505 C248 568 251 590 263 616 C275 638 290 648 312 656 C322 659 334 661 350 662 L350 698 L35 698 L35 662 C51 661 63 659 73 656 C95 648 110 638 122 616 C134 590 137 568 137 505 L137 193 C137 131 134 108 122 83 C110 61 95 50 73 43 C63 39 51 37 35 36 Z M389 -117 C389 -72 363 -47 324 -47 C288 -47 269 -75 269 -101 C269 -129 285 -148 314 -158 C320 -160 324 -162 324 -169 C324 -196 285 -218 242 -236 L255 -266 C319 -239 389 -187 389 -117 Z " />
<glyph glyph-name="Ldot" unicode="&#x13f;" horiz-adv-x="622" d="M534 362 C534 395 509 418 476 418 C443 418 419 395 419 362 C419 329 443 305 476 305 C509 305 534 329 534 362 Z M35 0 L571 0 L607 214 L574 214 C553 169 531 130 483 85 C454 57 425 36 352 36 L345 36 C309 36 285 40 270 56 C252 74 248 105 248 154 L248 505 C248 568 251 590 263 616 C275 638 290 648 312 656 C322 659 334 661 350 662 L350 698 L35 698 L35 662 C51 661 63 659 73 656 C95 648 110 638 122 616 C134 590 137 568 137 505 L137 193 C137 131 134 108 122 83 C110 61 95 50 73 43 C63 39 51 37 35 36 Z " />
<glyph glyph-name="Nacute" unicode="&#x143;" horiz-adv-x="773" d="M654 -8 L654 527 C654 583 661 604 674 621 C686 639 699 648 717 653 C731 657 741 660 760 662 L760 698 L490 698 L490 662 C505 661 524 659 535 655 C554 650 567 644 583 626 C599 608 606 583 606 527 L606 194 L597 194 L257 698 L29 698 L29 662 C44 661 59 658 69 653 C105 635 117 622 128 599 C140 574 149 538 149 461 L149 170 C149 114 140 91 124 73 C109 55 97 47 78 42 C67 39 52 37 38 36 L38 0 L303 0 L303 36 C284 38 274 40 260 44 C242 50 229 58 216 76 C204 93 197 114 197 170 L197 571 L207 571 L603 -8 Z M315 787 L325 755 C407 770 455 779 500 789 C530 796 573 807 573 849 C573 878 553 897 527 897 C495 897 479 886 442 864 C404 841 374 822 315 787 Z " />
<glyph glyph-name="Ncaron" unicode="&#x147;" horiz-adv-x="773" d="M654 -8 L654 527 C654 583 661 604 674 621 C686 639 699 648 717 653 C731 657 741 660 760 662 L760 698 L490 698 L490 662 C505 661 524 659 535 655 C554 650 567 644 583 626 C599 608 606 583 606 527 L606 194 L597 194 L257 698 L29 698 L29 662 C44 661 59 658 69 653 C105 635 117 622 128 599 C140 574 149 538 149 461 L149 170 C149 114 140 91 124 73 C109 55 97 47 78 42 C67 39 52 37 38 36 L38 0 L303 0 L303 36 C284 38 274 40 260 44 C242 50 229 58 216 76 C204 93 197 114 197 170 L197 571 L207 571 L603 -8 Z M547 860 L528 888 L406 825 L284 888 L265 860 L380 755 L432 755 Z " />
<glyph glyph-name="uni0145" unicode="&#x145;" horiz-adv-x="773" d="M654 -8 L654 527 C654 583 661 604 674 621 C686 639 699 648 717 653 C731 657 741 660 760 662 L760 698 L490 698 L490 662 C505 661 524 659 535 655 C554 650 567 644 583 626 C599 608 606 583 606 527 L606 194 L597 194 L257 698 L29 698 L29 662 C44 661 59 658 69 653 C105 635 117 622 128 599 C140 574 149 538 149 461 L149 170 C149 114 140 91 124 73 C109 55 97 47 78 42 C67 39 52 37 38 36 L38 0 L303 0 L303 36 C284 38 274 40 260 44 C242 50 229 58 216 76 C204 93 197 114 197 170 L197 571 L207 571 L603 -8 Z M446 -117 C446 -72 420 -47 381 -47 C345 -47 326 -75 326 -101 C326 -129 342 -148 371 -158 C377 -160 381 -162 381 -169 C381 -196 342 -218 299 -236 L312 -266 C376 -239 446 -187 446 -117 Z " />
<glyph glyph-name="Obreve" unicode="&#x14e;" horiz-adv-x="746" d="M373 711 C190 711 37 561 37 349 C37 137 190 -14 373 -14 C556 -14 709 137 709 349 C709 561 556 711 373 711 Z M373 27 C335 27 301 36 269 56 C212 93 160 164 160 349 C160 533 212 604 269 641 C301 661 335 670 373 670 C411 670 445 661 477 641 C534 604 587 533 587 349 C587 164 534 93 477 56 C445 36 411 27 373 27 Z M370 757 C444 757 496 809 504 887 L474 895 C456 837 412 827 369 827 C329 827 285 837 266 895 L236 887 C244 809 296 757 370 757 Z " />
<glyph glyph-name="Ohungarumlaut" unicode="&#x150;" horiz-adv-x="746" d="M373 711 C190 711 37 561 37 349 C37 137 190 -14 373 -14 C556 -14 709 137 709 349 C709 561 556 711 373 711 Z M373 27 C335 27 301 36 269 56 C212 93 160 164 160 349 C160 533 212 604 269 641 C301 661 335 670 373 670 C411 670 445 661 477 641 C534 604 587 533 587 349 C587 164 534 93 477 56 C445 36 411 27 373 27 Z M388 941 C365 941 347 928 332 898 L256 748 L294 748 C347 802 366 819 390 844 C411 867 423 883 423 907 C423 926 408 941 388 941 Z M568 941 C545 941 527 928 512 898 L436 748 L474 748 C527 802 546 819 570 844 C591 867 603 883 603 907 C603 926 588 941 568 941 Z " />
<glyph glyph-name="Omacron" unicode="&#x14c;" horiz-adv-x="746" d="M373 711 C190 711 37 561 37 349 C37 137 190 -14 373 -14 C556 -14 709 137 709 349 C709 561 556 711 373 711 Z M373 27 C335 27 301 36 269 56 C212 93 160 164 160 349 C160 533 212 604 269 641 C301 661 335 670 373 670 C411 670 445 661 477 641 C534 604 587 533 587 349 C587 164 534 93 477 56 C445 36 411 27 373 27 Z M497 776 L497 833 L243 833 L243 776 Z " />
<glyph glyph-name="Oslashacute" unicode="&#x1fe;" horiz-adv-x="746" d="M160 349 C160 533 212 604 269 641 C301 661 335 670 373 670 C411 670 445 661 477 641 C487 634 497 627 507 618 L207 121 C179 167 160 237 160 349 Z M373 27 C335 27 301 36 269 56 C257 64 245 74 233 86 L534 585 C565 539 587 468 587 349 C587 164 534 93 477 56 C445 36 411 27 373 27 Z M373 -14 C556 -14 709 137 709 349 C709 476 654 581 570 645 L628 741 L593 761 L536 667 C488 695 432 711 373 711 C190 711 37 561 37 349 C37 225 89 122 169 58 L110 -40 L146 -59 L202 34 C253 3 311 -14 373 -14 Z M269 787 L279 755 C361 770 409 779 454 789 C484 796 527 807 527 849 C527 878 507 897 481 897 C449 897 433 886 396 864 C358 841 328 822 269 787 Z " />
<glyph glyph-name="Racute" unicode="&#x154;" horiz-adv-x="717" d="M348 662 C443 662 483 612 483 518 C483 473 473 437 454 411 C431 381 405 368 323 368 L250 368 L250 636 C250 648 250 653 254 657 C257 662 263 662 275 662 Z M352 36 C336 37 324 39 314 43 C292 50 277 61 265 83 C253 108 250 131 250 193 L250 330 L320 330 C366 330 402 325 425 296 C455 259 460 232 472 149 C480 89 501 27 524 0 L705 0 L705 36 C677 38 654 47 639 57 C616 74 596 105 579 198 C565 270 536 293 505 313 C485 327 452 338 419 342 L419 350 C473 361 502 374 520 386 C563 414 597 453 597 518 C597 627 501 698 363 698 L35 698 L35 662 C51 661 63 659 73 656 C95 648 110 638 122 616 C134 590 137 568 137 505 L137 193 C137 131 134 108 122 83 C110 61 95 50 73 43 C63 39 51 37 35 36 L35 0 L352 0 Z M195 787 L205 755 C287 770 335 779 380 789 C410 796 453 807 453 849 C453 878 433 897 407 897 C375 897 359 886 322 864 C284 841 254 822 195 787 Z " />
<glyph glyph-name="Rcaron" unicode="&#x158;" horiz-adv-x="717" d="M348 662 C443 662 483 612 483 518 C483 473 473 437 454 411 C431 381 405 368 323 368 L250 368 L250 636 C250 648 250 653 254 657 C257 662 263 662 275 662 Z M352 36 C336 37 324 39 314 43 C292 50 277 61 265 83 C253 108 250 131 250 193 L250 330 L320 330 C366 330 402 325 425 296 C455 259 460 232 472 149 C480 89 501 27 524 0 L705 0 L705 36 C677 38 654 47 639 57 C616 74 596 105 579 198 C565 270 536 293 505 313 C485 327 452 338 419 342 L419 350 C473 361 502 374 520 386 C563 414 597 453 597 518 C597 627 501 698 363 698 L35 698 L35 662 C51 661 63 659 73 656 C95 648 110 638 122 616 C134 590 137 568 137 505 L137 193 C137 131 134 108 122 83 C110 61 95 50 73 43 C63 39 51 37 35 36 L35 0 L352 0 Z M459 860 L440 888 L318 825 L196 888 L177 860 L292 755 L344 755 Z " />
<glyph glyph-name="uni0156" unicode="&#x156;" horiz-adv-x="717" d="M348 662 C443 662 483 612 483 518 C483 473 473 437 454 411 C431 381 405 368 323 368 L250 368 L250 636 C250 648 250 653 254 657 C257 662 263 662 275 662 Z M352 36 C336 37 324 39 314 43 C292 50 277 61 265 83 C253 108 250 131 250 193 L250 330 L320 330 C366 330 402 325 425 296 C455 259 460 232 472 149 C480 89 501 27 524 0 L705 0 L705 36 C677 38 654 47 639 57 C616 74 596 105 579 198 C565 270 536 293 505 313 C485 327 452 338 419 342 L419 350 C473 361 502 374 520 386 C563 414 597 453 597 518 C597 627 501 698 363 698 L35 698 L35 662 C51 661 63 659 73 656 C95 648 110 638 122 616 C134 590 137 568 137 505 L137 193 C137 131 134 108 122 83 C110 61 95 50 73 43 C63 39 51 37 35 36 L35 0 L352 0 Z M488 -117 C488 -72 462 -47 423 -47 C387 -47 368 -75 368 -101 C368 -129 384 -148 413 -158 C419 -160 423 -162 423 -169 C423 -196 384 -218 341 -236 L354 -266 C418 -239 488 -187 488 -117 Z " />
<glyph glyph-name="Sacute" unicode="&#x15a;" horiz-adv-x="546" d="M513 193 C513 323 410 363 300 418 C226 455 150 480 150 572 C150 637 198 673 258 673 C313 673 340 657 365 633 C397 603 424 554 445 500 L479 500 L462 703 L431 703 L409 661 L400 661 C364 693 338 711 258 711 C145 711 58 636 58 528 C58 403 153 358 250 310 C351 260 423 238 423 144 C423 75 376 24 284 24 C194 24 111 128 71 236 L37 236 L47 5 L72 5 L100 54 L110 54 C145 21 209 -14 284 -14 C403 -14 513 61 513 193 Z M140 787 L150 755 C232 770 280 779 325 789 C355 796 398 807 398 849 C398 878 378 897 352 897 C320 897 304 886 267 864 C229 841 199 822 140 787 Z " />
<glyph glyph-name="uni015E" unicode="&#x15e;" horiz-adv-x="546" d="M513 193 C513 323 410 363 300 418 C226 455 150 480 150 572 C150 637 198 673 258 673 C313 673 340 657 365 633 C397 603 424 554 445 500 L479 500 L462 703 L431 703 L409 661 L400 661 C364 693 338 711 258 711 C145 711 58 636 58 528 C58 403 153 358 250 310 C351 260 423 238 423 144 C423 75 376 24 284 24 C194 24 111 128 71 236 L37 236 L47 5 L72 5 L100 54 L110 54 C142 23 201 -9 269 -13 L242 -89 L274 -108 C285 -99 300 -94 315 -94 C338 -94 357 -105 357 -140 C357 -178 329 -190 294 -190 C269 -190 240 -179 221 -166 L203 -196 C223 -210 255 -223 295 -223 C378 -223 432 -198 432 -137 C432 -88 400 -60 339 -60 C325 -60 301 -65 289 -72 L310 -13 C419 -3 513 71 513 193 Z " />
<glyph glyph-name="Scircumflex" unicode="&#x15c;" horiz-adv-x="546" d="M513 193 C513 323 410 363 300 418 C226 455 150 480 150 572 C150 637 198 673 258 673 C313 673 340 657 365 633 C397 603 424 554 445 500 L479 500 L462 703 L431 703 L409 661 L400 661 C364 693 338 711 258 711 C145 711 58 636 58 528 C58 403 153 358 250 310 C351 260 423 238 423 144 C423 75 376 24 284 24 C194 24 111 128 71 236 L37 236 L47 5 L72 5 L100 54 L110 54 C145 21 209 -14 284 -14 C403 -14 513 61 513 193 Z M402 783 L287 888 L235 888 L120 783 L139 755 L261 818 L383 755 Z " />
<glyph glyph-name="uni0218" unicode="&#x218;" horiz-adv-x="546" d="M513 193 C513 323 410 363 300 418 C226 455 150 480 150 572 C150 637 198 673 258 673 C313 673 340 657 365 633 C397 603 424 554 445 500 L479 500 L462 703 L431 703 L409 661 L400 661 C364 693 338 711 258 711 C145 711 58 636 58 528 C58 403 153 358 250 310 C351 260 423 238 423 144 C423 75 376 24 284 24 C194 24 111 128 71 236 L37 236 L47 5 L72 5 L100 54 L110 54 C145 21 209 -14 284 -14 C403 -14 513 61 513 193 Z M351 -117 C351 -72 325 -47 286 -47 C250 -47 231 -75 231 -101 C231 -129 247 -148 276 -158 C282 -160 286 -162 286 -169 C286 -196 247 -218 204 -236 L217 -266 C281 -239 351 -187 351 -117 Z " />
<glyph glyph-name="Tcaron" unicode="&#x164;" horiz-adv-x="670" d="M392 193 L392 660 L420 660 C468 660 504 653 548 621 C594 588 611 559 631 518 L663 518 L632 698 L38 698 L7 518 L41 518 C61 559 75 585 123 621 C167 653 202 660 250 660 L279 660 L279 193 C279 131 277 108 264 83 C252 61 237 50 215 43 C206 39 193 37 177 36 L177 0 L493 0 L493 36 C478 37 465 39 455 43 C433 50 418 61 407 83 C394 108 392 131 392 193 Z M476 860 L457 888 L335 825 L213 888 L194 860 L309 755 L361 755 Z " />
<glyph glyph-name="Tcommaaccent" unicode="&#x162;" horiz-adv-x="670" d="M392 193 L392 660 L420 660 C468 660 504 653 548 621 C594 588 611 559 631 518 L663 518 L632 698 L38 698 L7 518 L41 518 C61 559 75 585 123 621 C167 653 202 660 250 660 L279 660 L279 193 C279 131 277 108 264 83 C252 61 237 50 215 43 C206 39 193 37 177 36 L177 0 L493 0 L493 36 C478 37 465 39 455 43 C433 50 418 61 407 83 C394 108 392 131 392 193 Z M402 -117 C402 -72 376 -47 337 -47 C301 -47 282 -75 282 -101 C282 -129 298 -148 327 -158 C333 -160 337 -162 337 -169 C337 -196 298 -218 255 -236 L268 -266 C332 -239 402 -187 402 -117 Z " />
<glyph glyph-name="uni021A" unicode="&#x21a;" horiz-adv-x="670" d="M392 193 L392 660 L420 660 C468 660 504 653 548 621 C594 588 611 559 631 518 L663 518 L632 698 L38 698 L7 518 L41 518 C61 559 75 585 123 621 C167 653 202 660 250 660 L279 660 L279 193 C279 131 277 108 264 83 C252 61 237 50 215 43 C206 39 193 37 177 36 L177 0 L493 0 L493 36 C478 37 465 39 455 43 C433 50 418 61 407 83 C394 108 392 131 392 193 Z M402 -117 C402 -72 376 -47 337 -47 C301 -47 282 -75 282 -101 C282 -129 298 -148 327 -158 C333 -160 337 -162 337 -169 C337 -196 298 -218 255 -236 L268 -266 C332 -239 402 -187 402 -117 Z " />
<glyph glyph-name="Tbar" unicode="&#x166;" horiz-adv-x="670" d="M392 193 L392 398 L552 398 L552 438 L392 438 L392 660 L420 660 C468 660 504 653 548 621 C594 588 611 559 631 518 L663 518 L632 698 L38 698 L7 518 L41 518 C61 559 75 585 123 621 C167 653 202 660 250 660 L279 660 L279 438 L119 438 L119 398 L279 398 L279 193 C279 131 277 108 264 83 C252 61 237 50 215 43 C206 39 193 37 177 36 L177 0 L493 0 L493 36 C478 37 465 39 455 43 C433 50 418 61 407 83 C394 108 392 131 392 193 Z " />
<glyph glyph-name="Ubreve" unicode="&#x16c;" horiz-adv-x="752" d="M638 234 L638 527 C638 584 644 605 657 622 C670 640 683 648 701 654 C714 658 725 660 744 662 L744 698 L475 698 L475 662 C490 661 509 659 520 656 C539 650 551 644 567 626 C583 608 591 584 591 527 L591 228 C591 168 584 129 564 96 C537 51 481 29 395 29 C320 29 259 51 236 128 C225 162 222 194 222 224 L222 506 C222 568 225 590 238 615 C250 638 264 648 287 656 C296 659 309 661 325 662 L325 698 L7 698 L7 662 C23 661 36 659 46 656 C68 648 83 638 94 615 C107 590 109 568 109 505 L109 263 C109 223 113 156 128 117 C163 25 276 -13 386 -13 C497 -13 566 20 600 72 C630 117 638 162 638 234 Z M397 757 C471 757 523 809 531 887 L501 895 C483 837 439 827 396 827 C356 827 312 837 293 895 L263 887 C271 809 323 757 397 757 Z " />
<glyph glyph-name="Uhungarumlaut" unicode="&#x170;" horiz-adv-x="752" d="M638 234 L638 527 C638 584 644 605 657 622 C670 640 683 648 701 654 C714 658 725 660 744 662 L744 698 L475 698 L475 662 C490 661 509 659 520 656 C539 650 551 644 567 626 C583 608 591 584 591 527 L591 228 C591 168 584 129 564 96 C537 51 481 29 395 29 C320 29 259 51 236 128 C225 162 222 194 222 224 L222 506 C222 568 225 590 238 615 C250 638 264 648 287 656 C296 659 309 661 325 662 L325 698 L7 698 L7 662 C23 661 36 659 46 656 C68 648 83 638 94 615 C107 590 109 568 109 505 L109 263 C109 223 113 156 128 117 C163 25 276 -13 386 -13 C497 -13 566 20 600 72 C630 117 638 162 638 234 Z M591 941 C568 941 550 928 535 898 L459 748 L497 748 C550 802 569 819 593 844 C614 867 626 883 626 907 C626 926 611 941 591 941 Z M411 941 C388 941 370 928 355 898 L279 748 L317 748 C370 802 389 819 413 844 C434 867 446 883 446 907 C446 926 431 941 411 941 Z " />
<glyph glyph-name="Umacron" unicode="&#x16a;" horiz-adv-x="752" d="M638 234 L638 527 C638 584 644 605 657 622 C670 640 683 648 701 654 C714 658 725 660 744 662 L744 698 L475 698 L475 662 C490 661 509 659 520 656 C539 650 551 644 567 626 C583 608 591 584 591 527 L591 228 C591 168 584 129 564 96 C537 51 481 29 395 29 C320 29 259 51 236 128 C225 162 222 194 222 224 L222 506 C222 568 225 590 238 615 C250 638 264 648 287 656 C296 659 309 661 325 662 L325 698 L7 698 L7 662 C23 661 36 659 46 656 C68 648 83 638 94 615 C107 590 109 568 109 505 L109 263 C109 223 113 156 128 117 C163 25 276 -13 386 -13 C497 -13 566 20 600 72 C630 117 638 162 638 234 Z M527 776 L527 833 L273 833 L273 776 Z " />
<glyph glyph-name="Uogonek" unicode="&#x172;" horiz-adv-x="752" d="M464 -215 L464 -177 C409 -173 368 -151 368 -113 C368 -71 391 -25 435 -12 C522 13 570 26 600 72 C630 117 638 162 638 234 L638 527 C638 584 644 605 657 622 C670 640 683 648 701 654 C714 658 725 660 744 662 L744 698 L475 698 L475 662 C490 661 509 659 520 656 C539 650 551 644 567 626 C583 608 591 584 591 527 L591 228 C591 168 584 129 564 96 C537 51 481 29 395 29 C320 29 259 51 236 128 C225 162 222 194 222 224 L222 506 C222 568 225 590 238 615 C250 638 264 648 287 656 C296 659 309 661 325 662 L325 698 L7 698 L7 662 C23 661 36 659 46 656 C68 648 83 638 94 615 C107 590 109 568 109 505 L109 263 C109 223 113 156 128 117 C159 35 261 -10 367 -11 L388 -11 C312 -38 281 -76 281 -120 C281 -188 359 -221 464 -215 Z " />
<glyph glyph-name="Uring" unicode="&#x16e;" horiz-adv-x="752" d="M638 234 L638 527 C638 584 644 605 657 622 C670 640 683 648 701 654 C714 658 725 660 744 662 L744 698 L475 698 L475 662 C490 661 509 659 520 656 C539 650 551 644 567 626 C583 608 591 584 591 527 L591 228 C591 168 584 129 564 96 C537 51 481 29 395 29 C320 29 259 51 236 128 C225 162 222 194 222 224 L222 506 C222 568 225 590 238 615 C250 638 264 648 287 656 C296 659 309 661 325 662 L325 698 L7 698 L7 662 C23 661 36 659 46 656 C68 648 83 638 94 615 C107 590 109 568 109 505 L109 263 C109 223 113 156 128 117 C163 25 276 -13 386 -13 C497 -13 566 20 600 72 C630 117 638 162 638 234 Z M493 820 C493 878 450 910 403 910 C357 910 313 878 313 820 C313 763 357 731 403 731 C450 731 493 763 493 820 Z M346 820 C346 859 371 882 403 882 C435 882 460 859 460 820 C460 782 435 759 403 759 C371 759 346 782 346 820 Z " />
<glyph glyph-name="Utilde" unicode="&#x168;" horiz-adv-x="752" d="M638 234 L638 527 C638 584 644 605 657 622 C670 640 683 648 701 654 C714 658 725 660 744 662 L744 698 L475 698 L475 662 C490 661 509 659 520 656 C539 650 551 644 567 626 C583 608 591 584 591 527 L591 228 C591 168 584 129 564 96 C537 51 481 29 395 29 C320 29 259 51 236 128 C225 162 222 194 222 224 L222 506 C222 568 225 590 238 615 C250 638 264 648 287 656 C296 659 309 661 325 662 L325 698 L7 698 L7 662 C23 661 36 659 46 656 C68 648 83 638 94 615 C107 590 109 568 109 505 L109 263 C109 223 113 156 128 117 C163 25 276 -13 386 -13 C497 -13 566 20 600 72 C630 117 638 162 638 234 Z M560 863 L530 874 C518 845 503 832 472 832 C429 832 396 861 348 861 C302 861 270 805 254 759 L284 748 C295 775 317 793 338 793 C377 793 407 764 458 764 C504 764 543 808 560 863 Z " />
<glyph glyph-name="Wacute" unicode="&#x1e82;" horiz-adv-x="1044" d="M699 -5 L740 -5 L918 513 C935 561 948 591 958 607 C971 628 981 640 994 648 C1008 656 1025 659 1045 662 L1045 698 L805 698 L805 662 C824 660 845 657 857 652 C876 644 890 629 890 601 C890 577 886 560 872 518 L759 174 L752 174 L644 506 C634 536 620 577 620 609 C620 641 637 648 657 654 C667 657 685 660 711 662 L711 698 L391 698 L391 662 C407 660 420 657 431 653 C451 646 463 636 480 612 C491 596 499 580 510 549 L379 174 L372 174 L264 506 C250 549 239 577 239 609 C239 636 256 647 276 653 C286 656 304 660 331 662 L331 698 L6 698 L6 662 C23 660 38 654 50 649 C69 639 84 628 101 603 C115 583 128 554 144 508 L319 -5 L360 -5 L529 478 L535 478 Z M429 797 L439 765 C521 780 569 789 614 799 C644 806 687 817 687 859 C687 888 667 907 641 907 C609 907 593 896 556 874 C518 851 488 832 429 797 Z " />
<glyph glyph-name="Wcircumflex" unicode="&#x174;" horiz-adv-x="1044" d="M699 -5 L740 -5 L918 513 C935 561 948 591 958 607 C971 628 981 640 994 648 C1008 656 1025 659 1045 662 L1045 698 L805 698 L805 662 C824 660 845 657 857 652 C876 644 890 629 890 601 C890 577 886 560 872 518 L759 174 L752 174 L644 506 C634 536 620 577 620 609 C620 641 637 648 657 654 C667 657 685 660 711 662 L711 698 L391 698 L391 662 C407 660 420 657 431 653 C451 646 463 636 480 612 C491 596 499 580 510 549 L379 174 L372 174 L264 506 C250 549 239 577 239 609 C239 636 256 647 276 653 C286 656 304 660 331 662 L331 698 L6 698 L6 662 C23 660 38 654 50 649 C69 639 84 628 101 603 C115 583 128 554 144 508 L319 -5 L360 -5 L529 478 L535 478 Z M691 783 L576 888 L524 888 L409 783 L428 755 L550 818 L672 755 Z " />
<glyph glyph-name="Wdieresis" unicode="&#x1e84;" horiz-adv-x="1044" d="M699 -5 L740 -5 L918 513 C935 561 948 591 958 607 C971 628 981 640 994 648 C1008 656 1025 659 1045 662 L1045 698 L805 698 L805 662 C824 660 845 657 857 652 C876 644 890 629 890 601 C890 577 886 560 872 518 L759 174 L752 174 L644 506 C634 536 620 577 620 609 C620 641 637 648 657 654 C667 657 685 660 711 662 L711 698 L391 698 L391 662 C407 660 420 657 431 653 C451 646 463 636 480 612 C491 596 499 580 510 549 L379 174 L372 174 L264 506 C250 549 239 577 239 609 C239 636 256 647 276 653 C286 656 304 660 331 662 L331 698 L6 698 L6 662 C23 660 38 654 50 649 C69 639 84 628 101 603 C115 583 128 554 144 508 L319 -5 L360 -5 L529 478 L535 478 Z M450 750 C481 750 505 771 505 806 C505 840 481 862 450 862 C419 862 395 840 395 806 C395 771 419 750 450 750 Z M651 750 C682 750 706 771 706 806 C706 840 682 862 651 862 C620 862 596 840 596 806 C596 771 620 750 651 750 Z " />
<glyph glyph-name="Wgrave" unicode="&#x1e80;" horiz-adv-x="1044" d="M699 -5 L740 -5 L918 513 C935 561 948 591 958 607 C971 628 981 640 994 648 C1008 656 1025 659 1045 662 L1045 698 L805 698 L805 662 C824 660 845 657 857 652 C876 644 890 629 890 601 C890 577 886 560 872 518 L759 174 L752 174 L644 506 C634 536 620 577 620 609 C620 641 637 648 657 654 C667 657 685 660 711 662 L711 698 L391 698 L391 662 C407 660 420 657 431 653 C451 646 463 636 480 612 C491 596 499 580 510 549 L379 174 L372 174 L264 506 C250 549 239 577 239 609 C239 636 256 647 276 653 C286 656 304 660 331 662 L331 698 L6 698 L6 662 C23 660 38 654 50 649 C69 639 84 628 101 603 C115 583 128 554 144 508 L319 -5 L360 -5 L529 478 L535 478 Z M668 787 C609 822 579 841 541 864 C504 886 488 897 456 897 C430 897 410 878 410 849 C410 807 453 796 483 789 C528 779 576 770 658 755 Z " />
<glyph glyph-name="Ycircumflex" unicode="&#x176;" horiz-adv-x="646" d="M262 298 L262 193 C262 131 260 108 247 83 C235 61 219 50 198 43 C186 39 176 37 160 36 L160 0 L476 0 L476 36 C460 37 451 38 438 43 C417 51 401 61 389 83 C377 108 375 131 375 193 L375 297 L503 516 C556 611 581 653 652 662 L652 698 L422 698 L422 662 C433 661 454 659 465 655 C484 648 492 639 492 616 C492 589 487 570 459 524 L361 357 L355 357 L243 542 C207 601 199 638 245 654 C255 657 273 660 299 662 L299 698 L-8 698 L-8 662 C33 653 59 639 106 555 Z M490 783 L375 888 L323 888 L208 783 L227 755 L349 818 L471 755 Z " />
<glyph glyph-name="Ygrave" unicode="&#x1ef2;" horiz-adv-x="646" d="M262 298 L262 193 C262 131 260 108 247 83 C235 61 219 50 198 43 C186 39 176 37 160 36 L160 0 L476 0 L476 36 C460 37 451 38 438 43 C417 51 401 61 389 83 C377 108 375 131 375 193 L375 297 L503 516 C556 611 581 653 652 662 L652 698 L422 698 L422 662 C433 661 454 659 465 655 C484 648 492 639 492 616 C492 589 487 570 459 524 L361 357 L355 357 L243 542 C207 601 199 638 245 654 C255 657 273 660 299 662 L299 698 L-8 698 L-8 662 C33 653 59 639 106 555 Z M437 787 C378 822 348 841 310 864 C273 886 257 897 225 897 C199 897 179 878 179 849 C179 807 222 796 252 789 C297 779 345 770 427 755 Z " />
<glyph glyph-name="Zacute" unicode="&#x179;" horiz-adv-x="624" d="M581 698 L100 698 L60 505 L96 505 C122 561 156 599 192 625 C230 653 266 662 339 662 L448 662 L37 27 L37 0 L549 0 L608 215 L571 215 C545 168 516 106 443 68 C398 45 361 36 264 36 L177 36 L581 671 Z M243 787 L253 755 C335 770 383 779 428 789 C458 796 501 807 501 849 C501 878 481 897 455 897 C423 897 407 886 370 864 C332 841 302 822 243 787 Z " />
<glyph glyph-name="Zdotaccent" unicode="&#x17b;" horiz-adv-x="624" d="M581 698 L100 698 L60 505 L96 505 C122 561 156 599 192 625 C230 653 266 662 339 662 L448 662 L37 27 L37 0 L549 0 L608 215 L571 215 C545 168 516 106 443 68 C398 45 361 36 264 36 L177 36 L581 671 Z M334 758 C371 758 398 784 398 821 C398 858 371 884 334 884 C297 884 270 858 270 821 C270 784 297 758 334 758 Z " />
<glyph glyph-name="abreve" unicode="&#x103;" horiz-adv-x="500" d="M492 14 L483 44 C475 40 458 37 446 37 C430 37 417 44 411 56 C405 67 401 81 401 135 L401 411 C401 491 340 518 237 518 C165 518 108 490 83 464 C68 449 60 429 60 410 C60 382 80 364 106 364 C136 364 151 380 156 413 C161 443 173 459 184 467 C199 476 217 480 238 480 C282 480 299 461 299 413 L299 324 C286 303 258 287 195 269 C136 252 104 242 68 210 C41 185 30 149 30 120 C30 34 84 -10 169 -10 C250 -10 289 39 302 66 L313 66 C317 32 327 13 342 3 C354 -5 370 -10 399 -10 C440 -10 482 7 492 14 Z M299 282 L299 111 C286 68 249 42 203 42 C167 42 127 60 127 124 C127 161 140 181 155 199 C169 216 195 228 227 243 C262 258 289 271 299 282 Z M233 581 C307 581 349 633 357 711 L327 719 C309 661 275 650 232 650 C192 650 158 661 139 719 L109 711 C117 633 159 581 233 581 Z " />
<glyph glyph-name="amacron" unicode="&#x101;" horiz-adv-x="500" d="M492 14 L483 44 C475 40 458 37 446 37 C430 37 417 44 411 56 C405 67 401 81 401 135 L401 411 C401 491 340 518 237 518 C165 518 108 490 83 464 C68 449 60 429 60 410 C60 382 80 364 106 364 C136 364 151 380 156 413 C161 443 173 459 184 467 C199 476 217 480 238 480 C282 480 299 461 299 413 L299 324 C286 303 258 287 195 269 C136 252 104 242 68 210 C41 185 30 149 30 120 C30 34 84 -10 169 -10 C250 -10 289 39 302 66 L313 66 C317 32 327 13 342 3 C354 -5 370 -10 399 -10 C440 -10 482 7 492 14 Z M299 282 L299 111 C286 68 249 42 203 42 C167 42 127 60 127 124 C127 161 140 181 155 199 C169 216 195 228 227 243 C262 258 289 271 299 282 Z M361 606 L361 659 L107 659 L107 606 Z " />
<glyph glyph-name="aogonek" unicode="&#x105;" horiz-adv-x="500" d="M474 -215 L474 -177 C419 -173 378 -151 378 -113 C378 -65 411 -27 460 -2 L492 14 L483 44 C475 40 458 37 446 37 C430 37 417 44 411 56 C405 67 401 81 401 135 L401 411 C401 491 340 518 237 518 C165 518 108 490 83 464 C68 449 60 429 60 410 C60 382 80 364 106 364 C136 364 151 380 156 413 C161 443 173 459 184 467 C199 476 217 480 238 480 C282 480 299 461 299 413 L299 324 C286 303 258 287 195 269 C136 252 104 242 68 210 C41 185 30 149 30 120 C30 34 84 -10 169 -10 C250 -10 289 39 302 66 L313 66 C317 32 327 16 342 6 C351 -1 363 -4 382 -7 L382 -15 C326 -41 291 -74 291 -120 C291 -188 369 -221 474 -215 Z M299 282 L299 111 C286 68 249 42 203 42 C167 42 127 60 127 124 C127 161 140 181 155 199 C169 216 195 228 227 243 C262 258 289 271 299 282 Z " />
<glyph glyph-name="aringacute" unicode="&#x1fb;" horiz-adv-x="500" d="M323 635 C323 693 280 725 233 725 C187 725 143 693 143 635 C143 578 187 546 233 546 C280 546 323 578 323 635 Z M176 635 C176 674 201 697 233 697 C265 697 290 674 290 635 C290 597 265 574 233 574 C201 574 176 597 176 635 Z M492 14 L483 44 C475 40 458 37 446 37 C430 37 417 44 411 56 C405 67 401 81 401 135 L401 411 C401 491 340 518 237 518 C165 518 108 490 83 464 C68 449 60 429 60 410 C60 382 80 364 106 364 C136 364 151 380 156 413 C161 443 173 459 184 467 C199 476 217 480 238 480 C282 480 299 461 299 413 L299 324 C286 303 258 287 195 269 C136 252 104 242 68 210 C41 185 30 149 30 120 C30 34 84 -10 169 -10 C250 -10 289 39 302 66 L313 66 C317 32 327 13 342 3 C354 -5 370 -10 399 -10 C440 -10 482 7 492 14 Z M299 282 L299 111 C286 68 249 42 203 42 C167 42 127 60 127 124 C127 161 140 181 155 199 C169 216 195 228 227 243 C262 258 289 271 299 282 Z M114 777 L124 745 C206 760 254 769 299 779 C329 786 372 797 372 839 C372 868 352 887 326 887 C294 887 278 876 241 854 C203 831 173 812 114 777 Z " />
<glyph glyph-name="aeacute" unicode="&#x1fd;" horiz-adv-x="768" d="M524 -10 C631 -10 702 52 734 139 L704 153 C679 92 638 34 543 34 C498 34 472 51 450 75 C410 116 399 187 399 270 L725 270 C727 282 728 306 728 328 C728 409 673 518 524 518 C472 518 405 491 377 458 L369 458 C339 497 296 518 238 518 C171 518 107 493 80 465 C67 452 59 433 59 413 C59 386 78 367 103 367 C133 367 150 380 155 413 C159 443 171 460 183 468 C197 478 218 482 240 482 C278 482 298 464 298 417 L298 325 C285 304 256 287 194 270 C136 253 103 243 67 211 C40 187 30 151 30 122 C30 37 91 -8 165 -8 C231 -8 299 20 323 106 L329 106 C343 82 350 71 369 53 C397 26 451 -10 524 -10 Z M628 359 C628 319 618 307 589 307 L401 307 C407 385 424 433 451 458 C472 478 500 485 525 485 C564 485 584 475 601 457 C621 434 628 403 628 359 Z M299 280 L299 124 C286 82 244 43 200 43 C163 43 128 63 128 127 C128 158 137 179 151 197 C165 215 191 227 223 241 C257 256 289 269 299 280 Z M301 596 L319 568 L481 640 C519 657 539 676 539 701 C539 730 523 749 496 749 C467 749 447 732 416 704 C385 676 356 646 301 596 Z " />
<glyph glyph-name="cacute" unicode="&#x107;" horiz-adv-x="508" d="M284 480 C332 480 350 462 363 417 C374 379 387 354 424 354 C450 354 472 368 472 408 C472 424 465 443 449 461 C425 486 384 518 284 518 C151 518 34 418 34 255 C34 160 68 85 127 40 C169 8 217 -10 276 -10 C389 -10 461 48 487 134 L452 147 C432 92 392 35 287 35 C259 35 231 45 211 60 C168 94 141 152 141 255 C141 359 165 423 208 456 C228 472 258 480 284 480 Z M173 596 L191 568 L353 640 C391 657 411 676 411 701 C411 730 395 749 368 749 C339 749 319 732 288 704 C257 676 228 646 173 596 Z " />
<glyph glyph-name="ccaron" unicode="&#x10d;" horiz-adv-x="508" d="M284 480 C332 480 350 462 363 417 C374 379 387 354 424 354 C450 354 472 368 472 408 C472 424 465 443 449 461 C425 486 384 518 284 518 C151 518 34 418 34 255 C34 160 68 85 127 40 C169 8 217 -10 276 -10 C389 -10 461 48 487 134 L452 147 C432 92 392 35 287 35 C259 35 231 45 211 60 C168 94 141 152 141 255 C141 359 165 423 208 456 C228 472 258 480 284 480 Z M424 692 L397 717 L285 630 L173 717 L146 692 L261 560 L309 560 Z " />
<glyph glyph-name="ccircumflex" unicode="&#x109;" horiz-adv-x="508" d="M284 480 C332 480 350 462 363 417 C374 379 387 354 424 354 C450 354 472 368 472 408 C472 424 465 443 449 461 C425 486 384 518 284 518 C151 518 34 418 34 255 C34 160 68 85 127 40 C169 8 217 -10 276 -10 C389 -10 461 48 487 134 L452 147 C432 92 392 35 287 35 C259 35 231 45 211 60 C168 94 141 152 141 255 C141 359 165 423 208 456 C228 472 258 480 284 480 Z M418 585 L303 717 L255 717 L140 585 L167 560 L279 647 L391 560 Z " />
<glyph glyph-name="cdotaccent" unicode="&#x10b;" horiz-adv-x="508" d="M284 480 C332 480 350 462 363 417 C374 379 387 354 424 354 C450 354 472 368 472 408 C472 424 465 443 449 461 C425 486 384 518 284 518 C151 518 34 418 34 255 C34 160 68 85 127 40 C169 8 217 -10 276 -10 C389 -10 461 48 487 134 L452 147 C432 92 392 35 287 35 C259 35 231 45 211 60 C168 94 141 152 141 255 C141 359 165 423 208 456 C228 472 258 480 284 480 Z M287 588 C324 588 351 614 351 651 C351 688 324 714 287 714 C250 714 223 688 223 651 C223 614 250 588 287 588 Z " />
<glyph glyph-name="dcaron" unicode="&#x10f;" horiz-adv-x="593" d="M405 182 C405 99 358 33 284 33 C212 33 141 88 141 254 C141 414 210 477 289 477 C327 477 352 467 374 443 C398 417 405 380 405 342 Z M582 0 L582 34 C568 35 553 38 544 42 C524 51 515 64 510 84 C506 98 506 116 506 136 L506 615 C506 679 509 720 510 749 C510 753 508 756 503 756 L321 756 L321 723 C342 722 361 718 375 710 C385 704 396 693 399 681 C403 671 405 643 405 628 L405 465 L396 465 C378 487 347 518 276 518 C160 518 34 439 34 254 C34 85 141 -10 255 -10 C329 -10 384 27 406 83 L417 83 L417 28 C417 19 416 13 419 6 C421 2 425 0 432 0 Z M571 556 L613 556 C635 617 659 689 681 756 L595 756 Z " />
<glyph glyph-name="ebreve" unicode="&#x115;" horiz-adv-x="523" d="M489 139 L459 153 C434 92 391 34 296 34 C251 34 219 49 196 73 C156 115 145 186 145 254 L145 271 L482 271 C484 283 486 307 486 329 C486 410 427 518 277 518 C151 518 34 408 34 254 C34 178 60 99 119 47 C157 13 210 -10 279 -10 C386 -10 457 52 489 139 Z M203 452 C225 472 253 479 278 479 C317 479 341 470 358 450 C378 428 383 406 383 360 C383 320 372 308 349 308 L147 308 C155 396 182 431 203 452 Z M278 581 C352 581 394 633 402 711 L372 719 C354 661 320 650 277 650 C237 650 203 661 184 719 L154 711 C162 633 204 581 278 581 Z " />
<glyph glyph-name="ecaron" unicode="&#x11b;" horiz-adv-x="523" d="M489 139 L459 153 C434 92 391 34 296 34 C251 34 219 49 196 73 C156 115 145 186 145 254 L145 271 L482 271 C484 283 486 307 486 329 C486 410 427 518 277 518 C151 518 34 408 34 254 C34 178 60 99 119 47 C157 13 210 -10 279 -10 C386 -10 457 52 489 139 Z M203 452 C225 472 253 479 278 479 C317 479 341 470 358 450 C378 428 383 406 383 360 C383 320 372 308 349 308 L147 308 C155 396 182 431 203 452 Z M418 692 L391 717 L279 630 L167 717 L140 692 L255 560 L303 560 Z " />
<glyph glyph-name="edotaccent" unicode="&#x117;" horiz-adv-x="523" d="M489 139 L459 153 C434 92 391 34 296 34 C251 34 219 49 196 73 C156 115 145 186 145 254 L145 271 L482 271 C484 283 486 307 486 329 C486 410 427 518 277 518 C151 518 34 408 34 254 C34 178 60 99 119 47 C157 13 210 -10 279 -10 C386 -10 457 52 489 139 Z M203 452 C225 472 253 479 278 479 C317 479 341 470 358 450 C378 428 383 406 383 360 C383 320 372 308 349 308 L147 308 C155 396 182 431 203 452 Z M274 588 C311 588 338 614 338 651 C338 688 311 714 274 714 C237 714 210 688 210 651 C210 614 237 588 274 588 Z " />
<glyph glyph-name="emacron" unicode="&#x113;" horiz-adv-x="523" d="M489 139 L459 153 C434 92 391 34 296 34 C251 34 219 49 196 73 C156 115 145 186 145 254 L145 271 L482 271 C484 283 486 307 486 329 C486 410 427 518 277 518 C151 518 34 408 34 254 C34 178 60 99 119 47 C157 13 210 -10 279 -10 C386 -10 457 52 489 139 Z M203 452 C225 472 253 479 278 479 C317 479 341 470 358 450 C378 428 383 406 383 360 C383 320 372 308 349 308 L147 308 C155 396 182 431 203 452 Z M400 606 L400 659 L146 659 L146 606 Z " />
<glyph glyph-name="eogonek" unicode="&#x119;" horiz-adv-x="523" d="M414 -215 L414 -177 C359 -173 318 -155 318 -107 C318 -45 360 -10 404 23 C442 52 472 92 489 139 L459 153 C434 92 391 34 296 34 C251 34 219 49 196 73 C156 115 145 186 145 254 L145 271 L482 271 C484 283 486 307 486 329 C486 410 427 518 277 518 C151 518 34 408 34 254 C34 178 60 99 119 47 C157 13 210 -10 279 -10 C299 -10 320 -6 337 -1 C297 -28 231 -71 231 -120 C231 -188 309 -221 414 -215 Z M203 452 C225 472 253 479 278 479 C317 479 341 470 358 450 C378 428 383 406 383 360 C383 320 372 308 349 308 L147 308 C155 396 182 431 203 452 Z " />
<glyph glyph-name="gbreve" unicode="&#x11f;" horiz-adv-x="567" d="M150 350 C150 447 198 481 250 481 C303 481 354 447 354 350 C354 252 299 220 246 220 C194 220 150 252 150 350 Z M520 -21 C520 92 452 107 362 107 C328 107 209 101 185 101 C147 101 125 115 125 143 C125 175 161 184 194 184 C208 184 230 181 248 181 C346 181 453 238 453 350 C453 360 452 368 451 376 C449 391 444 401 444 412 C444 439 461 461 474 461 C489 461 494 451 502 437 C511 423 521 416 539 416 C561 416 581 429 581 459 C581 491 562 518 519 518 C476 518 436 492 426 450 L415 450 C377 501 317 518 252 518 C150 518 51 457 51 350 C51 278 92 234 144 208 L144 201 C100 191 58 168 58 113 C58 64 98 29 145 21 L145 11 C66 -1 10 -29 10 -88 C10 -159 79 -204 235 -204 C371 -204 520 -144 520 -21 Z M450 -50 C450 -134 349 -165 247 -165 C150 -165 87 -147 87 -85 C87 -11 173 -1 222 4 C260 8 320 10 362 9 C415 8 450 3 450 -50 Z M254 581 C328 581 370 633 378 711 L348 719 C330 661 296 650 253 650 C213 650 179 661 160 719 L130 711 C138 633 180 581 254 581 Z " />
<glyph glyph-name="gcircumflex" unicode="&#x11d;" horiz-adv-x="567" d="M150 350 C150 447 198 481 250 481 C303 481 354 447 354 350 C354 252 299 220 246 220 C194 220 150 252 150 350 Z M520 -21 C520 92 452 107 362 107 C328 107 209 101 185 101 C147 101 125 115 125 143 C125 175 161 184 194 184 C208 184 230 181 248 181 C346 181 453 238 453 350 C453 360 452 368 451 376 C449 391 444 401 444 412 C444 439 461 461 474 461 C489 461 494 451 502 437 C511 423 521 416 539 416 C561 416 581 429 581 459 C581 491 562 518 519 518 C476 518 436 492 426 450 L415 450 C377 501 317 518 252 518 C150 518 51 457 51 350 C51 278 92 234 144 208 L144 201 C100 191 58 168 58 113 C58 64 98 29 145 21 L145 11 C66 -1 10 -29 10 -88 C10 -159 79 -204 235 -204 C371 -204 520 -144 520 -21 Z M450 -50 C450 -134 349 -165 247 -165 C150 -165 87 -147 87 -85 C87 -11 173 -1 222 4 C260 8 320 10 362 9 C415 8 450 3 450 -50 Z M401 585 L286 717 L238 717 L123 585 L150 560 L262 647 L374 560 Z " />
<glyph glyph-name="uni0123" unicode="&#x123;" horiz-adv-x="567" d="M150 350 C150 447 198 481 250 481 C303 481 354 447 354 350 C354 252 299 220 246 220 C194 220 150 252 150 350 Z M520 -21 C520 92 452 107 362 107 C328 107 209 101 185 101 C147 101 125 115 125 143 C125 175 161 184 194 184 C208 184 230 181 248 181 C346 181 453 238 453 350 C453 360 452 368 451 376 C449 391 444 401 444 412 C444 439 461 461 474 461 C489 461 494 451 502 437 C511 423 521 416 539 416 C561 416 581 429 581 459 C581 491 562 518 519 518 C476 518 436 492 426 450 L415 450 C377 501 317 518 252 518 C150 518 51 457 51 350 C51 278 92 234 144 208 L144 201 C100 191 58 168 58 113 C58 64 98 29 145 21 L145 11 C66 -1 10 -29 10 -88 C10 -159 79 -204 235 -204 C371 -204 520 -144 520 -21 Z M450 -50 C450 -134 349 -165 247 -165 C150 -165 87 -147 87 -85 C87 -11 173 -1 222 4 C260 8 320 10 362 9 C415 8 450 3 450 -50 Z M197 616 C197 571 221 546 258 546 C291 546 312 566 312 601 C312 629 292 640 263 650 C257 652 253 654 253 661 C253 685 280 703 323 721 L311 751 C241 724 197 680 197 616 Z " />
<glyph glyph-name="gdotaccent" unicode="&#x121;" horiz-adv-x="567" d="M150 350 C150 447 198 481 250 481 C303 481 354 447 354 350 C354 252 299 220 246 220 C194 220 150 252 150 350 Z M520 -21 C520 92 452 107 362 107 C328 107 209 101 185 101 C147 101 125 115 125 143 C125 175 161 184 194 184 C208 184 230 181 248 181 C346 181 453 238 453 350 C453 360 452 368 451 376 C449 391 444 401 444 412 C444 439 461 461 474 461 C489 461 494 451 502 437 C511 423 521 416 539 416 C561 416 581 429 581 459 C581 491 562 518 519 518 C476 518 436 492 426 450 L415 450 C377 501 317 518 252 518 C150 518 51 457 51 350 C51 278 92 234 144 208 L144 201 C100 191 58 168 58 113 C58 64 98 29 145 21 L145 11 C66 -1 10 -29 10 -88 C10 -159 79 -204 235 -204 C371 -204 520 -144 520 -21 Z M450 -50 C450 -134 349 -165 247 -165 C150 -165 87 -147 87 -85 C87 -11 173 -1 222 4 C260 8 320 10 362 9 C415 8 450 3 450 -50 Z M254 588 C291 588 318 614 318 651 C318 688 291 714 254 714 C217 714 190 688 190 651 C190 614 217 588 254 588 Z " />
<glyph glyph-name="hbar" unicode="&#x127;" horiz-adv-x="624" d="M15 599 L105 599 L105 138 C105 117 105 99 102 85 C97 65 87 52 67 42 C59 39 42 35 29 34 L29 0 L278 0 L278 34 C265 35 250 39 242 42 C222 52 215 65 210 85 C206 99 206 117 206 138 L206 306 C206 343 216 383 235 408 C260 443 303 459 346 459 C373 459 392 454 405 442 C421 426 426 403 426 376 L426 138 C426 117 426 99 423 85 C418 65 411 52 391 42 C382 39 366 35 353 34 L353 0 L602 0 L602 34 C589 35 573 39 565 42 C544 52 535 65 530 85 C527 99 527 117 527 138 L527 386 C527 434 509 471 478 493 C454 510 422 518 385 518 C344 518 306 507 275 486 C249 470 233 449 217 429 L206 429 L206 599 L332 599 L332 637 L206 637 L206 748 C206 753 204 756 199 756 L25 756 L25 722 C47 720 66 717 80 708 C90 703 98 692 102 680 C104 671 105 652 105 637 L15 637 Z " />
<glyph glyph-name="hcircumflex" unicode="&#x125;" horiz-adv-x="624" d="M278 34 C265 35 250 39 242 42 C222 52 215 65 210 85 C206 99 206 117 206 138 L206 306 C206 343 216 383 235 408 C260 443 303 459 346 459 C373 459 392 454 405 442 C421 426 426 403 426 376 L426 138 C426 117 426 99 423 85 C418 65 411 52 391 42 C382 39 366 35 353 34 L353 0 L602 0 L602 34 C589 35 573 39 565 42 C544 52 535 65 530 85 C527 99 527 117 527 138 L527 386 C527 434 509 471 478 493 C454 510 422 518 385 518 C344 518 306 507 275 486 C249 470 233 449 217 429 L206 429 L206 748 C206 753 204 756 199 756 L25 756 L25 722 C47 720 66 717 80 708 C90 703 98 692 102 680 C105 669 105 642 105 626 L105 138 C105 117 105 99 102 85 C97 65 87 52 67 42 C59 39 42 35 29 34 L29 0 L278 0 Z M442 813 L327 918 L275 918 L160 813 L179 785 L301 848 L423 785 Z " />
<glyph glyph-name="ibreve" unicode="&#x12d;" horiz-adv-x="302" d="M204 384 C204 436 206 469 207 497 C207 502 204 505 200 505 L25 505 L25 471 C47 466 64 460 78 452 C88 446 96 436 100 424 C103 413 103 386 103 370 L103 138 C103 117 103 99 100 85 C95 65 85 52 65 42 C57 39 42 35 29 34 L29 0 L280 0 L280 34 C267 35 251 39 243 42 C222 52 213 65 208 85 C204 99 204 117 204 138 Z M117 581 C191 581 233 633 241 711 L211 719 C193 661 159 650 116 650 C76 650 42 661 23 719 L-7 711 C1 633 43 581 117 581 Z " />
<glyph glyph-name="idotaccent" horiz-adv-x="302" d="M159 608 C196 608 223 634 223 671 C223 708 196 734 159 734 C122 734 95 708 95 671 C95 634 122 608 159 608 Z M204 384 C204 436 206 469 207 497 C207 502 204 505 200 505 L25 505 L25 471 C47 466 64 460 78 452 C88 446 96 436 100 424 C103 413 103 386 103 370 L103 138 C103 117 103 99 100 85 C95 65 85 52 65 42 C57 39 42 35 29 34 L29 0 L280 0 L280 34 C267 35 251 39 243 42 C222 52 213 65 208 85 C204 99 204 117 204 138 Z " />
<glyph glyph-name="imacron" unicode="&#x12b;" horiz-adv-x="302" d="M241 606 L241 659 L-13 659 L-13 606 Z M204 384 C204 436 206 469 207 497 C207 502 204 505 200 505 L25 505 L25 471 C47 466 64 460 78 452 C88 446 96 436 100 424 C103 413 103 386 103 370 L103 138 C103 117 103 99 100 85 C95 65 85 52 65 42 C57 39 42 35 29 34 L29 0 L280 0 L280 34 C267 35 251 39 243 42 C222 52 213 65 208 85 C204 99 204 117 204 138 Z " />
<glyph glyph-name="iogonek" unicode="&#x12f;" horiz-adv-x="302" d="M159 608 C196 608 223 634 223 671 C223 708 196 734 159 734 C122 734 95 708 95 671 C95 634 122 608 159 608 Z M188 0 C114 -30 71 -69 71 -120 C71 -188 149 -221 254 -215 L254 -177 C199 -173 158 -151 158 -113 C158 -65 181 -33 228 0 L280 0 L280 34 C267 35 251 39 243 42 C222 52 213 65 208 85 C204 99 204 117 204 138 L204 384 C204 436 206 469 207 497 C207 502 204 505 200 505 L25 505 L25 471 C47 466 64 460 78 452 C88 446 96 436 100 424 C103 413 103 386 103 370 L103 138 C103 117 103 99 100 85 C95 65 85 52 65 42 C57 39 42 35 29 34 L29 0 Z " />
<glyph glyph-name="itilde" unicode="&#x129;" horiz-adv-x="302" d="M204 384 C204 436 206 469 207 497 C207 502 204 505 200 505 L25 505 L25 471 C47 466 64 460 78 452 C88 446 96 436 100 424 C103 413 103 386 103 370 L103 138 C103 117 103 99 100 85 C95 65 85 52 65 42 C57 39 42 35 29 34 L29 0 L280 0 L280 34 C267 35 251 39 243 42 C222 52 213 65 208 85 C204 99 204 117 204 138 Z M272 703 L242 714 C230 685 215 672 184 672 C141 672 108 701 60 701 C14 701 -18 645 -34 599 L-4 588 C7 615 29 633 50 633 C89 633 119 604 170 604 C216 604 255 648 272 703 Z " />
<glyph glyph-name="jcircumflex" unicode="&#x135;" horiz-adv-x="285" d="M105 -45 C105 -100 100 -129 86 -149 C74 -167 60 -171 38 -171 C16 -171 1 -162 1 -141 C1 -136 2 -130 3 -123 C4 -115 5 -107 5 -100 C5 -70 -13 -50 -46 -50 C-74 -50 -99 -70 -99 -106 C-99 -138 -85 -164 -56 -183 C-32 -200 -3 -204 33 -204 C78 -204 105 -191 128 -173 C167 -143 207 -93 207 36 L207 385 C207 436 209 469 209 498 C209 503 207 505 202 505 L25 505 L25 471 C47 466 66 460 80 452 C90 446 98 436 102 424 C105 413 105 386 105 370 Z M266 585 L151 717 L103 717 L-12 585 L15 560 L127 647 L239 560 Z " />
<glyph glyph-name="uni0137" unicode="&#x137;" horiz-adv-x="586" d="M277 34 C264 35 250 39 242 42 C222 52 215 65 210 85 C206 99 206 117 206 138 L206 226 L267 276 C333 262 354 207 371 148 C397 51 404 17 416 0 L581 0 L581 34 C536 39 519 50 506 72 C487 103 474 139 461 197 C446 258 375 298 300 303 L386 367 C446 411 464 425 494 442 C522 458 539 464 560 471 L560 505 L299 505 L299 471 C317 469 332 467 343 462 C356 456 367 448 367 429 C367 402 341 381 304 351 L206 272 L206 625 C206 670 208 723 208 748 C208 753 206 756 201 756 L25 756 L25 722 C47 720 66 717 80 708 C90 703 98 692 102 680 C105 669 105 642 105 626 L105 138 C105 117 105 99 102 85 C97 65 87 52 67 42 C59 39 47 35 34 34 L34 0 L277 0 Z M400 -97 C400 -52 374 -27 335 -27 C299 -27 280 -55 280 -81 C280 -109 296 -128 325 -138 C331 -140 335 -142 335 -149 C335 -176 296 -198 253 -216 L266 -246 C330 -219 400 -167 400 -97 Z " />
<glyph glyph-name="lacute" unicode="&#x13a;" horiz-adv-x="303" d="M203 625 C203 670 205 723 205 748 C205 753 203 756 198 756 L22 756 L22 722 C44 720 63 717 77 708 C87 703 95 692 99 680 C102 669 102 642 102 626 L102 138 C102 117 102 99 99 85 C94 65 84 52 64 42 C56 39 44 35 31 34 L31 0 L274 0 L274 34 C261 35 247 39 239 42 C219 52 212 65 207 85 C203 99 203 117 203 138 Z M-5 817 L5 785 C87 800 135 809 180 819 C210 826 253 837 253 879 C253 908 233 927 207 927 C175 927 159 916 122 894 C84 871 54 852 -5 817 Z " />
<glyph glyph-name="lcaron" unicode="&#x13e;" horiz-adv-x="303" d="M203 625 C203 670 205 723 205 748 C205 753 203 756 198 756 L22 756 L22 722 C44 720 63 717 77 708 C87 703 95 692 99 680 C102 669 102 642 102 626 L102 138 C102 117 102 99 99 85 C94 65 84 52 64 42 C56 39 44 35 31 34 L31 0 L274 0 L274 34 C261 35 247 39 239 42 C219 52 212 65 207 85 C203 99 203 117 203 138 Z M268 556 L310 556 C332 617 356 689 378 756 L292 756 Z " />
<glyph glyph-name="uni013C" unicode="&#x13c;" horiz-adv-x="303" d="M203 625 C203 670 205 723 205 748 C205 753 203 756 198 756 L22 756 L22 722 C44 720 63 717 77 708 C87 703 95 692 99 680 C102 669 102 642 102 626 L102 138 C102 117 102 99 99 85 C94 65 84 52 64 42 C56 39 44 35 31 34 L31 0 L274 0 L274 34 C261 35 247 39 239 42 C219 52 212 65 207 85 C203 99 203 117 203 138 Z M216 -97 C216 -52 190 -27 151 -27 C115 -27 96 -55 96 -81 C96 -109 112 -128 141 -138 C147 -140 151 -142 151 -149 C151 -176 112 -198 69 -216 L82 -246 C146 -219 216 -167 216 -97 Z " />
<glyph glyph-name="ldot" unicode="&#x140;" horiz-adv-x="377" d="M203 625 C203 670 205 723 205 748 C205 753 203 756 198 756 L22 756 L22 722 C44 720 63 717 77 708 C87 703 95 692 99 680 C102 669 102 642 102 626 L102 138 C102 117 102 99 99 85 C94 65 84 52 64 42 C56 39 44 35 31 34 L31 0 L274 0 L274 34 C261 35 247 39 239 42 C219 52 212 65 207 85 C203 99 203 117 203 138 Z M337 288 C370 288 395 312 395 345 C395 378 370 402 337 402 C304 402 279 378 279 345 C279 312 304 288 337 288 Z " />
<glyph glyph-name="nacute" unicode="&#x144;" horiz-adv-x="624" d="M527 138 L527 386 C527 434 509 471 478 493 C454 510 422 518 385 518 C344 518 306 507 275 486 C249 470 228 448 212 423 L200 423 L202 497 C202 502 200 505 195 505 L25 505 L25 471 C47 466 66 460 80 452 C90 446 98 436 102 424 C105 413 105 386 105 370 L105 138 C105 117 105 99 102 85 C97 65 87 52 67 42 C59 39 42 35 29 34 L29 0 L278 0 L278 34 C265 35 250 39 242 42 C222 52 215 65 210 85 C206 99 206 117 206 138 L206 306 C206 343 216 383 235 408 C260 443 303 459 346 459 C373 459 391 454 404 442 C420 426 426 403 426 376 L426 138 C426 117 426 99 423 85 C418 65 411 52 391 42 C382 39 366 35 353 34 L353 0 L602 0 L602 34 C589 35 573 39 565 42 C544 52 535 65 530 85 C527 99 527 117 527 138 Z M213 596 L231 568 L393 640 C431 657 451 676 451 701 C451 730 435 749 408 749 C379 749 359 732 328 704 C297 676 268 646 213 596 Z " />
<glyph glyph-name="napostrophe" unicode="&#x149;" horiz-adv-x="705" d="M608 138 L608 386 C608 434 590 471 559 493 C535 510 503 518 466 518 C425 518 387 507 356 486 C330 470 309 448 293 423 L281 423 L283 497 C283 502 281 505 276 505 L106 505 L106 471 C128 466 147 460 161 452 C171 446 179 436 183 424 C186 413 186 386 186 370 L186 138 C186 117 186 99 183 85 C178 65 168 52 148 42 C140 39 123 35 110 34 L110 0 L359 0 L359 34 C346 35 331 39 323 42 C303 52 296 65 291 85 C287 99 287 117 287 138 L287 306 C287 343 297 383 316 408 C341 443 384 459 427 459 C454 459 472 454 485 442 C501 426 507 403 507 376 L507 138 C507 117 507 99 504 85 C499 65 492 52 472 42 C463 39 447 35 434 34 L434 0 L683 0 L683 34 C670 35 654 39 646 42 C625 52 616 65 611 85 C608 99 608 117 608 138 Z M120 669 C120 724 85 752 43 752 C10 752 -22 727 -22 690 C-22 653 -1 635 30 624 C44 619 48 611 48 598 C48 568 25 544 -50 515 L-37 485 C52 516 120 567 120 669 Z " />
<glyph glyph-name="ncaron" unicode="&#x148;" horiz-adv-x="624" d="M527 138 L527 386 C527 434 509 471 478 493 C454 510 422 518 385 518 C344 518 306 507 275 486 C249 470 228 448 212 423 L200 423 L202 497 C202 502 200 505 195 505 L25 505 L25 471 C47 466 66 460 80 452 C90 446 98 436 102 424 C105 413 105 386 105 370 L105 138 C105 117 105 99 102 85 C97 65 87 52 67 42 C59 39 42 35 29 34 L29 0 L278 0 L278 34 C265 35 250 39 242 42 C222 52 215 65 210 85 C206 99 206 117 206 138 L206 306 C206 343 216 383 235 408 C260 443 303 459 346 459 C373 459 391 454 404 442 C420 426 426 403 426 376 L426 138 C426 117 426 99 423 85 C418 65 411 52 391 42 C382 39 366 35 353 34 L353 0 L602 0 L602 34 C589 35 573 39 565 42 C544 52 535 65 530 85 C527 99 527 117 527 138 Z M448 692 L421 717 L309 630 L197 717 L170 692 L285 560 L333 560 Z " />
<glyph glyph-name="uni0146" unicode="&#x146;" horiz-adv-x="624" d="M527 138 L527 386 C527 434 509 471 478 493 C454 510 422 518 385 518 C344 518 306 507 275 486 C249 470 228 448 212 423 L200 423 L202 497 C202 502 200 505 195 505 L25 505 L25 471 C47 466 66 460 80 452 C90 446 98 436 102 424 C105 413 105 386 105 370 L105 138 C105 117 105 99 102 85 C97 65 87 52 67 42 C59 39 42 35 29 34 L29 0 L278 0 L278 34 C265 35 250 39 242 42 C222 52 215 65 210 85 C206 99 206 117 206 138 L206 306 C206 343 216 383 235 408 C260 443 303 459 346 459 C373 459 391 454 404 442 C420 426 426 403 426 376 L426 138 C426 117 426 99 423 85 C418 65 411 52 391 42 C382 39 366 35 353 34 L353 0 L602 0 L602 34 C589 35 573 39 565 42 C544 52 535 65 530 85 C527 99 527 117 527 138 Z M382 -97 C382 -52 356 -27 317 -27 C281 -27 262 -55 262 -81 C262 -109 278 -128 307 -138 C313 -140 317 -142 317 -149 C317 -176 278 -198 235 -216 L248 -246 C312 -219 382 -167 382 -97 Z " />
<glyph glyph-name="obreve" unicode="&#x14f;" horiz-adv-x="566" d="M34 255 C34 92 150 -10 283 -10 C416 -10 532 92 532 255 C532 418 416 518 283 518 C150 518 34 418 34 255 Z M144 255 C144 359 167 423 210 456 C230 472 257 479 283 479 C309 479 335 472 355 456 C398 423 422 359 422 255 C422 152 398 87 355 53 C335 38 310 29 283 29 C255 29 230 38 210 53 C167 87 144 152 144 255 Z M282 581 C356 581 398 633 406 711 L376 719 C358 661 324 650 281 650 C241 650 207 661 188 719 L158 711 C166 633 208 581 282 581 Z " />
<glyph glyph-name="ohungarumlaut" unicode="&#x151;" horiz-adv-x="566" d="M34 255 C34 92 150 -10 283 -10 C416 -10 532 92 532 255 C532 418 416 518 283 518 C150 518 34 418 34 255 Z M144 255 C144 359 167 423 210 456 C230 472 257 479 283 479 C309 479 335 472 355 456 C398 423 422 359 422 255 C422 152 398 87 355 53 C335 38 310 29 283 29 C255 29 230 38 210 53 C167 87 144 152 144 255 Z M292 759 C269 759 252 746 237 716 L163 566 L189 550 C242 604 271 637 295 662 C316 685 326 701 326 725 C326 744 312 759 292 759 Z M465 759 C442 759 425 746 410 716 L336 566 L362 550 C415 604 444 637 468 662 C489 685 499 701 499 725 C499 744 485 759 465 759 Z " />
<glyph glyph-name="omacron" unicode="&#x14d;" horiz-adv-x="566" d="M34 255 C34 92 150 -10 283 -10 C416 -10 532 92 532 255 C532 418 416 518 283 518 C150 518 34 418 34 255 Z M144 255 C144 359 167 423 210 456 C230 472 257 479 283 479 C309 479 335 472 355 456 C398 423 422 359 422 255 C422 152 398 87 355 53 C335 38 310 29 283 29 C255 29 230 38 210 53 C167 87 144 152 144 255 Z M409 606 L409 659 L155 659 L155 606 Z " />
<glyph glyph-name="oslashacute" unicode="&#x1ff;" horiz-adv-x="566" d="M283 -10 C416 -10 532 92 532 255 C532 354 489 430 426 474 L471 558 L436 576 L392 494 C359 510 321 518 283 518 C150 518 34 418 34 255 C34 154 78 77 144 32 L96 -57 L132 -74 L178 13 C211 -2 246 -10 283 -10 Z M144 255 C144 359 167 423 210 456 C230 472 257 479 283 479 C309 479 335 472 355 456 C359 453 363 450 366 446 L176 93 C155 130 144 183 144 255 Z M283 29 C255 29 230 38 210 53 L203 59 L392 411 C412 375 422 324 422 255 C422 152 398 87 355 53 C335 38 310 29 283 29 Z M151 596 L169 568 L331 640 C369 657 389 676 389 701 C389 730 373 749 346 749 C317 749 297 732 266 704 C235 676 206 646 151 596 Z " />
<glyph glyph-name="racute" unicode="&#x155;" horiz-adv-x="436" d="M206 408 L195 408 L200 497 C200 502 198 505 193 505 L20 505 L20 471 C42 466 61 460 75 452 C85 446 93 436 97 424 C100 413 100 386 100 370 L100 138 C100 117 100 99 97 85 C92 65 82 52 62 42 C54 39 37 35 24 34 L24 0 L283 0 L283 34 C268 35 249 38 237 42 C218 49 210 65 205 85 C201 99 201 117 201 138 L201 254 C201 281 203 316 204 325 C211 395 266 454 297 454 C311 454 321 450 327 434 C336 409 349 392 380 392 C418 392 431 419 431 447 C431 473 422 488 413 497 C397 511 374 518 351 518 C312 518 284 503 265 488 C244 471 226 451 206 408 Z M139 596 L157 568 L319 640 C357 657 377 676 377 701 C377 730 361 749 334 749 C305 749 285 732 254 704 C223 676 194 646 139 596 Z " />
<glyph glyph-name="rcaron" unicode="&#x159;" horiz-adv-x="436" d="M206 408 L195 408 L200 497 C200 502 198 505 193 505 L20 505 L20 471 C42 466 61 460 75 452 C85 446 93 436 97 424 C100 413 100 386 100 370 L100 138 C100 117 100 99 97 85 C92 65 82 52 62 42 C54 39 37 35 24 34 L24 0 L283 0 L283 34 C268 35 249 38 237 42 C218 49 210 65 205 85 C201 99 201 117 201 138 L201 254 C201 281 203 316 204 325 C211 395 266 454 297 454 C311 454 321 450 327 434 C336 409 349 392 380 392 C418 392 431 419 431 447 C431 473 422 488 413 497 C397 511 374 518 351 518 C312 518 284 503 265 488 C244 471 226 451 206 408 Z M374 692 L347 717 L235 630 L123 717 L96 692 L211 560 L259 560 Z " />
<glyph glyph-name="uni0157" unicode="&#x157;" horiz-adv-x="436" d="M206 408 L195 408 L200 497 C200 502 198 505 193 505 L20 505 L20 471 C42 466 61 460 75 452 C85 446 93 436 97 424 C100 413 100 386 100 370 L100 138 C100 117 100 99 97 85 C92 65 82 52 62 42 C54 39 37 35 24 34 L24 0 L283 0 L283 34 C268 35 249 38 237 42 C218 49 210 65 205 85 C201 99 201 117 201 138 L201 254 C201 281 203 316 204 325 C211 395 266 454 297 454 C311 454 321 450 327 434 C336 409 349 392 380 392 C418 392 431 419 431 447 C431 473 422 488 413 497 C397 511 374 518 351 518 C312 518 284 503 265 488 C244 471 226 451 206 408 Z M211 -97 C211 -52 185 -27 146 -27 C110 -27 91 -55 91 -81 C91 -109 107 -128 136 -138 C142 -140 146 -142 146 -149 C146 -176 107 -198 64 -216 L77 -246 C141 -219 211 -167 211 -97 Z " />
<glyph glyph-name="sacute" unicode="&#x15b;" horiz-adv-x="436" d="M409 147 C409 238 332 274 246 308 C153 343 129 363 129 411 C129 452 161 480 213 480 C247 480 271 470 291 453 C314 432 330 399 346 357 L381 357 L373 509 L347 509 L334 467 L324 467 C311 488 275 518 213 518 C109 518 46 457 46 380 C46 273 118 252 200 217 C289 180 327 160 327 99 C327 51 293 28 237 28 C159 28 101 98 70 193 L34 193 L40 2 L69 2 L86 56 L98 56 C126 20 181 -10 234 -10 C327 -10 409 39 409 147 Z M94 596 L112 568 L274 640 C312 657 332 676 332 701 C332 730 316 749 289 749 C260 749 240 732 209 704 C178 676 149 646 94 596 Z " />
<glyph glyph-name="uni015F" unicode="&#x15f;" horiz-adv-x="436" d="M293 -117 C293 -68 261 -40 200 -40 C186 -40 162 -45 150 -52 L170 3 C190 -5 212 -10 234 -10 C327 -10 409 39 409 147 C409 238 332 274 246 308 C153 343 129 363 129 411 C129 452 161 480 213 480 C247 480 271 470 291 453 C314 432 330 399 346 357 L381 357 L373 509 L347 509 L334 467 L324 467 C311 488 275 518 213 518 C109 518 46 457 46 380 C46 273 118 252 200 217 C289 180 327 160 327 99 C327 51 293 28 237 28 C159 28 101 98 70 193 L34 193 L40 2 L69 2 L86 56 L98 56 C111 39 131 23 153 11 L132 11 L103 -69 L135 -88 C146 -79 161 -74 176 -74 C199 -74 218 -85 218 -120 C218 -158 190 -170 155 -170 C130 -170 101 -159 82 -146 L64 -176 C84 -190 116 -203 156 -203 C239 -203 293 -178 293 -117 Z " />
<glyph glyph-name="scircumflex" unicode="&#x15d;" horiz-adv-x="436" d="M409 147 C409 238 332 274 246 308 C153 343 129 363 129 411 C129 452 161 480 213 480 C247 480 271 470 291 453 C314 432 330 399 346 357 L381 357 L373 509 L347 509 L334 467 L324 467 C311 488 275 518 213 518 C109 518 46 457 46 380 C46 273 118 252 200 217 C289 180 327 160 327 99 C327 51 293 28 237 28 C159 28 101 98 70 193 L34 193 L40 2 L69 2 L86 56 L98 56 C126 20 181 -10 234 -10 C327 -10 409 39 409 147 Z M359 585 L244 717 L196 717 L81 585 L108 560 L220 647 L332 560 Z " />
<glyph glyph-name="uni0219" unicode="&#x219;" horiz-adv-x="436" d="M409 147 C409 238 332 274 246 308 C153 343 129 363 129 411 C129 452 161 480 213 480 C247 480 271 470 291 453 C314 432 330 399 346 357 L381 357 L373 509 L347 509 L334 467 L324 467 C311 488 275 518 213 518 C109 518 46 457 46 380 C46 273 118 252 200 217 C289 180 327 160 327 99 C327 51 293 28 237 28 C159 28 101 98 70 193 L34 193 L40 2 L69 2 L86 56 L98 56 C126 20 181 -10 234 -10 C327 -10 409 39 409 147 Z M298 -97 C298 -52 272 -27 233 -27 C197 -27 178 -55 178 -81 C178 -109 194 -128 223 -138 C229 -140 233 -142 233 -149 C233 -176 194 -198 151 -216 L164 -246 C228 -219 298 -167 298 -97 Z " />
<glyph glyph-name="tbar" unicode="&#x167;" horiz-adv-x="358" d="M10 319 L95 319 L95 109 C95 65 102 41 124 22 C150 -2 181 -10 227 -10 C273 -10 321 2 358 49 L340 73 C318 52 292 41 261 41 C213 41 196 66 196 109 L196 319 L327 319 L327 357 L196 357 L196 464 L328 464 L328 505 L196 505 L196 682 L167 682 C126 545 83 507 8 492 L8 464 L95 464 L95 357 L10 357 Z " />
<glyph glyph-name="tcaron" unicode="&#x165;" horiz-adv-x="358" d="M340 73 C318 52 292 41 261 41 C213 41 196 66 196 109 L196 464 L328 464 L328 505 L196 505 L196 682 L167 682 C126 545 83 507 8 492 L8 464 L95 464 L95 109 C95 65 102 41 124 22 C150 -2 181 -10 227 -10 C273 -10 321 2 358 49 Z M240 544 L282 544 C304 605 328 677 350 744 L264 744 Z " />
<glyph glyph-name="tcommaaccent" unicode="&#x163;" horiz-adv-x="358" d="M340 73 C318 52 292 41 261 41 C213 41 196 66 196 109 L196 464 L328 464 L328 505 L196 505 L196 682 L167 682 C126 545 83 507 8 492 L8 464 L95 464 L95 109 C95 65 102 41 124 22 C150 -2 181 -10 227 -10 C273 -10 321 2 358 49 Z M278 -97 C278 -52 252 -27 213 -27 C177 -27 158 -55 158 -81 C158 -109 174 -128 203 -138 C209 -140 213 -142 213 -149 C213 -176 174 -198 131 -216 L144 -246 C208 -219 278 -167 278 -97 Z " />
<glyph glyph-name="uni021B" unicode="&#x21b;" horiz-adv-x="358" d="M340 73 C318 52 292 41 261 41 C213 41 196 66 196 109 L196 464 L328 464 L328 505 L196 505 L196 682 L167 682 C126 545 83 507 8 492 L8 464 L95 464 L95 109 C95 65 102 41 124 22 C150 -2 181 -10 227 -10 C273 -10 321 2 358 49 Z M278 -97 C278 -52 252 -27 213 -27 C177 -27 158 -55 158 -81 C158 -109 174 -128 203 -138 C209 -140 213 -142 213 -149 C213 -176 174 -198 131 -216 L144 -246 C208 -219 278 -167 278 -97 Z " />
<glyph glyph-name="ubreve" unicode="&#x16d;" horiz-adv-x="621" d="M516 137 L516 378 C516 436 519 469 520 498 C520 503 518 505 513 505 L333 505 L333 471 C356 469 375 464 390 455 C400 449 408 439 412 427 C415 416 415 389 415 373 L415 235 C415 199 415 185 412 155 C408 115 390 85 367 66 C344 48 317 40 292 40 C263 40 240 47 220 69 C200 90 196 116 196 153 L196 378 C196 436 199 469 200 498 C200 503 198 505 193 505 L15 505 L15 471 C37 469 56 464 70 455 C80 449 88 439 92 427 C95 416 95 389 95 373 L95 146 C95 89 106 62 126 38 C158 0 208 -12 255 -12 C301 -12 336 0 361 19 C381 34 394 49 412 81 L422 81 C422 81 423 19 423 11 C423 2 426 0 432 0 L597 0 L597 34 C584 35 565 38 555 42 C534 50 525 65 520 85 C516 99 516 117 516 137 Z M274 581 C348 581 390 633 398 711 L368 719 C350 661 316 650 273 650 C233 650 199 661 180 719 L150 711 C158 633 200 581 274 581 Z " />
<glyph glyph-name="uhungarumlaut" unicode="&#x171;" horiz-adv-x="621" d="M516 137 L516 378 C516 436 519 469 520 498 C520 503 518 505 513 505 L333 505 L333 471 C356 469 375 464 390 455 C400 449 408 439 412 427 C415 416 415 389 415 373 L415 235 C415 199 415 185 412 155 C408 115 390 85 367 66 C344 48 317 40 292 40 C263 40 240 47 220 69 C200 90 196 116 196 153 L196 378 C196 436 199 469 200 498 C200 503 198 505 193 505 L15 505 L15 471 C37 469 56 464 70 455 C80 449 88 439 92 427 C95 416 95 389 95 373 L95 146 C95 89 106 62 126 38 C158 0 208 -12 255 -12 C301 -12 336 0 361 19 C381 34 394 49 412 81 L422 81 C422 81 423 19 423 11 C423 2 426 0 432 0 L597 0 L597 34 C584 35 565 38 555 42 C534 50 525 65 520 85 C516 99 516 117 516 137 Z M473 759 C450 759 433 746 418 716 L344 566 L370 550 C423 604 452 637 476 662 C497 685 507 701 507 725 C507 744 493 759 473 759 Z M300 759 C277 759 260 746 245 716 L171 566 L197 550 C250 604 279 637 303 662 C324 685 334 701 334 725 C334 744 320 759 300 759 Z " />
<glyph glyph-name="umacron" unicode="&#x16b;" horiz-adv-x="621" d="M516 137 L516 378 C516 436 519 469 520 498 C520 503 518 505 513 505 L333 505 L333 471 C356 469 375 464 390 455 C400 449 408 439 412 427 C415 416 415 389 415 373 L415 235 C415 199 415 185 412 155 C408 115 390 85 367 66 C344 48 317 40 292 40 C263 40 240 47 220 69 C200 90 196 116 196 153 L196 378 C196 436 199 469 200 498 C200 503 198 505 193 505 L15 505 L15 471 C37 469 56 464 70 455 C80 449 88 439 92 427 C95 416 95 389 95 373 L95 146 C95 89 106 62 126 38 C158 0 208 -12 255 -12 C301 -12 336 0 361 19 C381 34 394 49 412 81 L422 81 C422 81 423 19 423 11 C423 2 426 0 432 0 L597 0 L597 34 C584 35 565 38 555 42 C534 50 525 65 520 85 C516 99 516 117 516 137 Z M400 606 L400 659 L146 659 L146 606 Z " />
<glyph glyph-name="uogonek" unicode="&#x173;" horiz-adv-x="621" d="M528 0 L597 0 L597 34 C584 35 565 38 555 42 C534 50 525 65 520 85 C516 99 516 117 516 137 L516 378 C516 436 519 469 520 498 C520 503 518 505 513 505 L333 505 L333 471 C356 469 375 464 390 455 C400 449 408 439 412 427 C415 416 415 389 415 373 L415 235 C415 199 415 185 412 155 C408 115 390 85 367 66 C344 48 317 40 292 40 C263 40 240 47 220 69 C200 90 196 116 196 153 L196 378 C196 436 199 469 200 498 C200 503 198 505 193 505 L15 505 L15 471 C37 469 56 464 70 455 C80 449 88 439 92 427 C95 416 95 389 95 373 L95 146 C95 89 106 62 126 38 C158 0 208 -12 255 -12 C301 -12 336 0 361 19 C381 34 394 49 412 81 L422 81 L422 -12 C369 -32 321 -73 321 -120 C321 -188 399 -221 504 -215 L504 -177 C449 -173 408 -151 408 -113 C408 -49 463 0 528 0 Z " />
</font>
</svg>
