<?xml version="1.0" encoding="UTF-8"?>
<svg xmlns="http://www.w3.org/2000/svg" xmlns:xlink="http://www.w3.org/1999/xlink" version="1.2" >
<font id="Austin News Deck Roman">
<font-face  font-family="Austin News Deck" units-per-em="1000" ascent="796" descent="-204" font-style="normal" font-weight="400" font-stretch="normal" cap-height="673" x-height="469" underline-position="-100" underline-thickness="50" />
<missing-glyph  horiz-adv-x="500" />
<glyph glyph-name="space" unicode="&#x20;" horiz-adv-x="193" />
<glyph glyph-name="exclam" unicode="&#x21;" horiz-adv-x="234" d="M118 686 C84 686 62 665 62 618 C62 569 69 524 77 443 C91 321 97 239 104 167 L131 167 C137 238 143 321 157 443 C166 525 172 569 172 618 C172 666 150 686 118 686 Z M177 47 C177 79 152 107 117 107 C80 107 57 79 57 47 C57 13 80 -14 117 -14 C153 -14 177 13 177 47 Z " />
<glyph glyph-name="quotedbl" unicode="&#x22;" horiz-adv-x="299" d="M173 642 C173 623 178 593 186 560 C188 541 201 473 204 455 L226 455 C229 473 240 541 244 561 C250 594 256 623 256 642 C256 678 234 690 215 690 C194 690 173 679 173 642 Z M85 690 C64 690 43 679 43 642 C43 623 48 593 55 560 C59 541 71 473 74 455 L95 455 L114 561 C120 594 126 623 126 642 C126 678 104 690 85 690 Z " />
<glyph glyph-name="numbersign" unicode="&#x23;" horiz-adv-x="580" d="M360 246 L192 246 L222 424 L390 424 Z M317 0 L347 0 L385 219 L523 219 L523 246 L389 246 L420 424 L559 424 L559 451 L424 451 L461 664 L432 664 L395 451 L227 451 L264 664 L234 664 L197 451 L57 451 L57 424 L192 424 L162 246 L22 246 L22 219 L157 219 L119 0 L149 0 L187 219 L355 219 Z " />
<glyph glyph-name="dollar" unicode="&#x24;" horiz-adv-x="477" d="M117 545 C117 606 159 647 224 652 L224 405 C162 438 117 472 117 545 Z M372 132 C372 67 324 21 252 14 L252 282 C332 241 372 212 372 132 Z M252 -110 L252 -13 C373 -4 449 84 449 181 C449 295 368 333 252 390 L252 651 C302 648 339 626 339 593 C339 584 336 573 336 562 C336 529 354 508 385 508 C411 508 431 526 431 561 C431 613 376 673 252 678 L252 775 L224 775 L224 678 C127 673 40 607 40 504 C40 382 142 335 224 296 L224 13 C165 15 119 39 119 78 C119 89 126 108 126 121 C126 153 107 174 73 174 C47 174 25 156 25 118 C25 56 105 -11 224 -14 L224 -110 Z " />
<glyph glyph-name="percent" unicode="&#x25;" horiz-adv-x="692" d="M318 510 C318 604 259 679 174 679 C90 679 30 603 30 508 C30 413 89 337 173 337 C257 337 318 415 318 510 Z M533 662 L509 676 L156 -3 L180 -16 Z M174 657 C223 657 246 608 246 510 C246 411 223 358 174 358 C123 358 102 411 102 508 C102 606 124 657 174 657 Z M375 158 C375 64 432 -13 518 -13 C602 -13 661 65 661 159 C661 253 603 329 518 329 C434 329 375 253 375 158 Z M518 9 C467 9 446 58 446 158 C446 257 468 307 518 307 C566 307 589 256 589 159 C589 62 567 9 518 9 Z " />
<glyph glyph-name="ampersand" unicode="&#x26;" horiz-adv-x="677" d="M543 -14 C606 -14 659 29 673 56 L661 71 C647 59 628 47 598 47 C569 47 547 68 525 100 L493 144 C519 190 543 255 554 293 C567 337 579 362 589 375 C598 387 606 397 622 406 C633 412 644 415 659 416 L659 436 L465 436 L465 416 C478 415 490 413 500 408 C520 397 530 379 530 355 C530 331 525 305 518 283 C508 241 493 203 474 170 L373 310 C342 351 319 384 299 410 C347 444 417 502 417 574 C417 646 367 686 281 686 C186 686 127 624 127 546 C127 489 151 450 181 410 C187 401 194 391 202 381 C134 340 34 275 34 161 C34 61 113 -14 236 -14 C314 -14 382 16 428 67 L442 48 C471 4 493 -14 543 -14 Z M286 36 C205 36 131 83 131 194 C131 280 165 318 218 358 L285 265 C315 225 374 142 411 91 C377 55 337 36 286 36 Z M210 583 C210 630 241 658 285 658 C336 658 353 624 353 572 C353 498 326 462 282 432 C235 496 210 541 210 583 Z " />
<glyph glyph-name="quotesingle" unicode="&#x27;" horiz-adv-x="169" d="M85 690 C64 690 43 679 43 642 C43 623 48 593 55 560 C59 541 71 473 74 455 L95 455 C99 472 110 541 114 561 C120 594 126 623 126 642 C126 678 104 690 85 690 Z " />
<glyph glyph-name="parenleft" unicode="&#x28;" horiz-adv-x="269" d="M258 -90 C190 5 134 126 134 299 C134 471 190 593 258 689 L234 707 C146 611 56 484 56 299 C56 112 147 -13 234 -109 Z " />
<glyph glyph-name="parenright" unicode="&#x29;" horiz-adv-x="269" d="M9 -90 L33 -109 C121 -22 211 112 211 299 C211 484 121 620 33 707 L9 689 C78 593 134 471 134 299 C134 126 78 5 9 -90 Z " />
<glyph glyph-name="asterisk" unicode="&#x2a;" horiz-adv-x="412" d="M322 344 C337 354 340 372 329 388 C312 408 276 441 228 494 C297 508 342 513 365 521 C383 527 391 542 385 558 C379 575 365 584 346 578 C322 569 282 545 219 517 C226 585 236 631 236 656 C236 677 224 688 206 688 C190 688 177 677 177 656 C177 631 186 586 193 518 C131 545 90 569 66 578 C48 584 32 575 27 558 C22 542 29 527 48 521 C72 513 116 508 184 494 C138 442 100 408 83 388 C73 372 75 354 90 344 C104 335 121 336 133 352 C148 374 169 420 206 480 C243 421 264 374 280 352 C292 336 308 335 322 344 Z " />
<glyph glyph-name="plus" unicode="&#x2b;" horiz-adv-x="464" d="M421 263 L421 292 L247 292 L247 467 L217 467 L217 292 L44 292 L44 263 L217 263 L217 90 L247 90 L247 263 Z " />
<glyph glyph-name="comma" unicode="&#x2c;" horiz-adv-x="234" d="M186 32 C186 80 156 105 120 105 C89 105 59 85 59 48 C59 15 80 -2 114 -13 C124 -17 128 -24 128 -34 C128 -64 99 -95 40 -120 L48 -139 C124 -113 186 -52 186 32 Z " />
<glyph glyph-name="hyphen" unicode="&#x2d;" horiz-adv-x="341" d="M281 251 L281 308 L60 308 L60 251 Z " />
<glyph glyph-name="period" unicode="&#x2e;" horiz-adv-x="226" d="M114 -14 C149 -14 173 13 173 46 C173 79 149 106 114 106 C77 106 53 79 53 46 C53 13 77 -14 114 -14 Z " />
<glyph glyph-name="slash" unicode="&#x2f;" horiz-adv-x="365" d="M371 705 L338 719 L-32 -119 L1 -133 Z " />
<glyph glyph-name="zero" unicode="0" horiz-adv-x="618" d="M41 334 C41 141 147 -14 309 -14 C472 -14 577 144 577 334 C577 529 470 678 309 678 C147 678 41 526 41 334 Z M470 334 C470 110 407 14 309 14 C211 14 148 112 148 334 C148 558 210 650 309 650 C408 650 470 558 470 334 Z " />
<glyph glyph-name="one" unicode="1" horiz-adv-x="322" d="M288 0 L288 19 C270 21 253 26 243 31 C229 39 224 45 219 61 C215 76 214 101 214 128 L214 571 C214 597 216 650 216 665 C216 671 214 673 209 673 C199 673 174 669 150 665 C108 660 62 655 37 654 L37 635 C54 632 81 627 94 621 C105 616 111 611 114 591 C117 574 118 549 118 531 L118 128 C118 101 116 76 112 61 C107 44 99 38 87 30 C78 25 60 22 43 19 L43 0 Z " />
<glyph glyph-name="two" unicode="2" horiz-adv-x="516" d="M233 650 C314 650 363 613 363 503 C363 313 199 174 103 87 C84 68 39 32 16 11 L19 0 L445 0 L493 183 L470 183 C461 164 443 135 427 115 C407 93 388 82 334 82 L138 82 L138 87 C168 106 209 138 233 158 C299 212 466 341 466 494 C466 610 384 678 247 678 C115 678 44 599 44 530 C44 493 66 471 96 471 C130 471 149 492 149 526 C149 540 145 562 143 575 C141 594 142 608 157 622 C170 636 195 650 233 650 Z " />
<glyph glyph-name="three" unicode="3" horiz-adv-x="513" d="M250 678 C119 678 57 610 57 552 C57 516 77 494 106 494 C135 494 154 512 154 547 C154 557 152 570 148 581 C145 589 142 596 142 605 C142 633 177 651 233 651 C307 651 335 617 335 549 C335 461 293 408 205 356 L138 318 L150 296 L192 320 C209 330 232 338 258 338 C344 338 377 304 377 217 C377 83 311 13 205 13 C169 13 149 20 132 37 C124 46 118 57 116 74 C115 88 114 105 114 119 C114 152 99 175 68 175 C40 175 18 156 18 119 C18 58 90 -14 210 -14 C400 -14 484 100 484 209 C484 298 413 381 258 361 L258 364 C344 408 434 457 434 550 C434 629 366 678 250 678 Z " />
<glyph glyph-name="four" unicode="4" horiz-adv-x="545" d="M43 246 L267 549 L274 549 L274 246 Z M443 20 C428 22 409 26 399 32 C386 39 380 48 376 63 C372 80 370 102 370 128 L370 221 L403 221 C446 221 463 211 474 198 C487 182 494 156 498 131 L518 131 L518 336 L498 336 C494 310 487 286 475 270 C463 255 446 246 403 246 L370 246 L370 597 C370 624 372 645 372 660 C372 662 371 664 369 664 L323 664 L7 240 L7 221 L274 221 L274 128 C274 102 273 77 269 59 C263 43 256 37 245 31 C236 26 217 22 200 20 L200 0 L443 0 Z " />
<glyph glyph-name="five" unicode="5" horiz-adv-x="507" d="M196 13 C170 13 150 18 136 26 C116 35 107 48 101 72 C99 88 101 110 101 122 C101 154 84 179 53 179 C28 179 5 160 5 122 C5 60 73 -14 198 -14 C366 -14 468 91 468 224 C468 335 397 415 266 415 C196 415 153 391 127 358 L122 359 L167 568 C200 557 238 549 278 549 C390 549 442 597 472 701 L453 707 C439 672 400 631 319 631 C253 631 219 644 181 664 L158 664 L80 302 L110 295 C128 336 168 382 234 382 C324 382 364 328 365 219 C364 95 296 13 196 13 Z " />
<glyph glyph-name="six" unicode="6" horiz-adv-x="545" d="M517 564 C517 621 476 678 352 678 C200 678 41 526 41 281 C41 118 119 -14 281 -14 C411 -14 508 77 508 212 C508 339 429 423 307 423 C234 423 178 385 152 328 L146 328 C152 513 233 651 352 651 C400 651 429 634 429 617 C429 610 428 603 423 589 C418 576 417 569 417 554 C417 522 438 505 467 505 C497 505 517 527 517 564 Z M278 389 C353 389 408 348 408 203 C408 66 360 14 279 14 C202 14 147 65 147 205 C147 333 211 389 278 389 Z " />
<glyph glyph-name="seven" unicode="7" horiz-adv-x="473" d="M468 649 L468 664 L139 664 C98 664 83 682 76 699 L58 699 L21 500 L41 500 C54 532 68 553 88 566 C111 580 130 583 175 583 L397 583 L397 580 C336 484 263 369 209 274 C171 208 118 112 118 41 C118 9 132 -14 167 -14 C203 -14 216 11 227 75 C262 296 318 403 468 649 Z " />
<glyph glyph-name="eight" unicode="8" horiz-adv-x="542" d="M272 -14 C423 -14 505 79 505 186 C505 289 425 335 347 368 C415 399 476 450 476 530 C476 635 390 678 274 678 C151 678 66 606 66 497 C66 405 129 353 190 323 C110 292 43 235 43 150 C43 43 145 -14 272 -14 Z M148 537 C148 605 193 649 275 650 C360 651 409 612 409 524 C409 452 372 406 317 380 C213 421 148 457 148 537 Z M270 14 C184 14 115 60 115 154 C115 235 159 285 221 310 C352 256 423 228 423 135 C423 44 354 14 270 14 Z " />
<glyph glyph-name="nine" unicode="9" horiz-adv-x="547" d="M269 275 C197 275 142 317 142 457 C142 595 188 650 267 650 C344 650 400 599 400 464 C400 323 328 275 269 275 Z M38 102 C38 45 83 -14 206 -14 C362 -14 508 127 508 380 C508 544 434 678 266 678 C128 678 42 581 42 453 C42 324 119 239 243 239 C318 239 373 281 396 334 L402 334 C398 132 330 14 207 14 C152 14 126 30 126 48 C126 57 128 63 133 75 C136 87 140 96 140 111 C140 143 118 161 90 161 C58 161 38 137 38 102 Z " />
<glyph glyph-name="colon" unicode="&#x3a;" horiz-adv-x="226" d="M114 359 C149 359 173 386 173 419 C173 452 149 479 114 479 C77 479 53 452 53 419 C53 386 77 359 114 359 Z M114 -14 C149 -14 173 13 173 46 C173 79 149 106 114 106 C77 106 53 79 53 46 C53 13 77 -14 114 -14 Z " />
<glyph glyph-name="semicolon" unicode="&#x3b;" horiz-adv-x="232" d="M119 359 C154 359 179 386 179 419 C179 452 154 479 119 479 C83 479 59 452 59 419 C59 386 83 359 119 359 Z M184 33 C184 80 155 106 118 106 C88 106 58 85 58 48 C58 15 79 -3 112 -13 C122 -18 126 -24 126 -34 C126 -64 98 -95 38 -120 L46 -139 C122 -111 184 -51 184 33 Z " />
<glyph glyph-name="less" unicode="&#x3c;" horiz-adv-x="416" d="M345 114 L345 145 L71 279 L345 412 L345 443 L39 293 L39 264 Z " />
<glyph glyph-name="equal" unicode="&#x3d;" horiz-adv-x="447" d="M400 353 L400 383 L48 383 L48 353 Z M400 170 L400 199 L48 199 L48 170 Z " />
<glyph glyph-name="greater" unicode="&#x3e;" horiz-adv-x="416" d="M377 264 L377 293 L71 443 L71 411 L345 279 L71 146 L71 114 Z " />
<glyph glyph-name="question" unicode="&#x3f;" horiz-adv-x="424" d="M401 492 C401 575 363 621 309 653 C276 672 236 686 181 686 C85 686 18 643 18 598 C18 565 36 548 67 548 C98 548 116 571 123 606 C131 644 150 661 181 661 C256 661 302 612 302 529 C302 417 259 334 160 334 L106 334 L106 184 L131 184 L131 309 L175 309 C275 309 401 370 401 492 Z M181 47 C181 80 156 107 121 107 C85 107 61 80 61 47 C61 13 85 -14 122 -14 C156 -14 181 13 181 47 Z " />
<glyph glyph-name="at" unicode="&#x40;" horiz-adv-x="813" d="M791 297 C791 483 677 596 466 596 C237 596 32 421 32 178 C32 -42 184 -178 420 -178 C557 -178 670 -134 733 -92 L722 -73 C656 -117 548 -158 420 -158 C204 -158 77 -32 77 183 C77 411 256 576 466 576 C656 576 767 479 767 298 C767 140 659 34 567 34 C543 34 532 52 532 74 C532 98 548 165 578 254 C605 335 616 377 633 430 L561 430 C552 411 544 392 535 371 L529 371 C525 408 499 438 456 438 C323 438 209 259 209 130 C209 37 259 3 305 3 C340 3 376 20 411 57 C429 77 445 99 462 128 L468 128 C462 110 457 93 457 74 C457 30 486 3 536 3 C659 3 791 119 791 297 Z M508 341 C508 315 503 283 490 242 C482 216 470 185 454 157 C436 125 423 103 403 79 C381 53 357 37 333 37 C305 37 292 58 292 104 C292 152 308 256 357 338 C387 388 422 416 459 416 C492 416 508 393 508 341 Z " />
<glyph glyph-name="A" unicode="A" horiz-adv-x="634" d="M274 522 L280 522 L371 259 L180 259 Z M195 20 C181 21 163 25 153 29 C136 35 124 50 124 75 C124 94 127 109 138 141 L170 231 L380 231 L407 153 C418 121 427 99 427 71 C427 46 409 34 396 29 C385 25 375 22 358 20 L358 0 L629 0 L629 20 C618 22 610 25 596 31 C581 39 567 50 553 73 C543 91 529 120 510 173 L333 678 L300 678 L106 148 C92 109 80 84 72 67 C62 50 52 39 42 33 C29 25 18 22 1 20 L1 0 L195 0 Z " />
<glyph glyph-name="B" unicode="B" horiz-adv-x="619" d="M30 0 L366 0 C491 0 588 75 588 191 C588 299 497 350 388 359 L388 364 C422 372 444 379 466 392 C510 414 552 451 552 521 C552 641 439 673 321 673 L30 673 L30 653 C43 652 55 650 63 646 C80 640 94 632 103 612 C114 586 116 550 116 490 L116 182 C116 124 114 86 103 61 C94 43 80 32 63 27 C55 24 43 21 30 20 Z M217 372 L217 601 C217 617 219 625 223 633 C229 643 239 647 254 647 L312 647 C401 647 451 613 451 521 C451 487 444 443 422 414 C404 389 372 372 323 372 Z M298 26 C267 26 244 34 232 47 C219 63 217 92 217 134 L217 345 L322 345 C378 345 416 336 441 313 C472 284 482 241 482 190 C482 132 473 94 448 65 C423 38 386 26 339 26 Z " />
<glyph glyph-name="C" unicode="C" horiz-adv-x="642" d="M360 658 C431 658 469 637 505 597 C535 562 560 513 578 442 L599 442 L599 665 L583 665 L557 623 L552 623 C518 654 457 686 359 686 C190 686 35 546 35 337 C35 122 171 -14 350 -14 C491 -14 577 63 619 181 L597 191 C553 71 465 32 380 32 C327 32 290 39 250 68 C197 107 147 178 147 338 C147 490 192 571 241 613 C280 649 320 658 360 658 Z " />
<glyph glyph-name="D" unicode="D" horiz-adv-x="704" d="M30 673 L30 654 C43 653 54 651 64 648 C82 642 96 634 104 615 C114 590 117 550 117 491 L117 182 C117 123 115 86 103 60 C95 42 83 34 64 27 C55 24 43 22 30 20 L30 0 L345 0 C409 0 467 18 509 40 C601 91 670 188 670 337 C670 484 600 583 507 632 C464 657 406 673 325 673 Z M563 336 C563 209 526 130 476 80 C438 41 388 26 333 26 L300 26 C270 26 249 30 237 43 C220 60 219 89 219 134 L219 592 C219 611 219 628 229 636 C236 643 248 647 273 647 L319 647 C377 647 429 634 470 599 C525 550 563 461 563 336 Z " />
<glyph glyph-name="E" unicode="E" horiz-adv-x="606" d="M570 185 L552 185 C534 148 516 108 474 70 C449 45 420 26 355 26 L306 26 C281 26 255 30 242 41 C217 61 217 105 217 146 L217 336 L286 336 C327 336 350 329 367 312 C391 290 398 256 402 227 L422 227 L422 470 L402 470 C398 442 391 408 367 386 C350 369 328 362 286 362 L217 362 L217 551 C217 579 220 616 241 635 C251 644 269 647 283 647 L348 647 C397 647 431 629 447 614 C481 587 503 548 525 504 L545 504 L519 673 L30 673 L30 654 C43 653 54 651 63 648 C81 641 94 632 104 613 C114 587 117 550 117 492 L117 182 C117 123 115 85 103 59 C94 42 81 34 62 27 C54 24 43 21 30 20 L30 0 L544 0 Z " />
<glyph glyph-name="F" unicode="F" horiz-adv-x="559" d="M307 20 C293 21 281 23 272 26 C253 32 240 43 231 60 C220 86 218 123 218 183 L218 340 L276 340 C317 340 340 332 358 316 C381 293 388 260 393 231 L413 231 L413 474 L393 474 C388 446 382 414 358 390 C341 373 317 366 276 366 L218 366 L218 549 C218 593 220 618 233 632 C244 644 261 647 282 647 L339 647 C392 647 419 631 443 610 C473 583 497 544 521 493 L540 493 L516 673 L31 673 L31 653 C43 652 55 651 64 647 C81 641 93 633 103 615 C114 589 117 550 117 492 L117 182 C117 123 114 86 103 61 C94 41 82 34 65 28 C55 24 43 21 30 20 L30 0 L307 0 Z " />
<glyph glyph-name="G" unicode="G" horiz-adv-x="704" d="M501 189 L501 135 C501 79 492 53 482 42 C465 26 432 16 373 16 C327 16 296 25 260 47 C193 86 150 169 150 337 C150 498 198 582 245 619 C279 645 313 658 360 658 C441 658 481 634 518 585 C544 550 562 505 577 446 L598 446 L598 665 L581 665 L556 622 L551 622 C527 648 466 686 357 686 C194 686 36 552 36 337 C36 126 167 -14 374 -14 C420 -14 486 -5 524 3 C559 11 584 20 600 27 L600 154 C600 211 602 243 612 261 C621 278 633 286 650 292 C659 296 670 298 683 299 L683 319 L416 319 L416 299 C427 298 438 295 447 292 C466 286 476 280 486 263 C497 242 501 225 501 189 Z " />
<glyph glyph-name="H" unicode="H" horiz-adv-x="740" d="M299 20 C289 21 280 23 272 26 C254 31 240 43 231 61 C219 87 217 123 217 182 L217 328 L523 328 L523 182 C523 124 520 88 509 61 C501 41 488 33 470 27 C461 23 453 21 441 20 L441 0 L710 0 L710 20 C697 21 687 23 677 27 C659 33 647 43 638 60 C626 83 624 125 624 182 L624 490 C624 549 626 588 638 613 C647 632 659 640 674 646 C686 650 698 652 710 653 L710 673 L441 673 L441 653 C453 652 461 649 469 647 C481 642 501 632 509 613 C520 587 523 550 523 492 L523 357 L217 357 L217 492 C217 550 220 587 231 614 C240 632 253 642 272 648 C280 650 288 652 299 653 L299 673 L30 673 L30 653 C43 652 53 650 64 646 C80 641 93 632 103 613 C115 588 116 550 116 491 L116 182 C116 124 115 87 103 61 C94 43 82 33 62 26 C55 24 43 21 30 20 L30 0 L299 0 Z " />
<glyph glyph-name="I" unicode="I" horiz-adv-x="333" d="M217 491 C217 550 220 587 230 613 C239 632 252 640 269 646 C280 650 289 652 303 653 L303 673 L30 673 L30 653 C43 652 56 649 64 646 C82 640 93 632 103 613 C114 587 116 550 116 491 L116 182 C116 124 114 88 103 62 C94 42 81 33 63 27 C54 24 43 21 30 20 L30 0 L303 0 L303 20 C290 21 279 24 269 28 C253 33 240 42 230 60 C220 84 217 124 217 182 Z " />
<glyph glyph-name="J" unicode="J" horiz-adv-x="432" d="M227 489 L227 155 C227 121 226 72 210 44 C197 21 180 14 158 14 C140 14 120 22 116 38 C113 48 113 53 113 66 C114 80 114 95 109 109 C103 128 86 141 63 141 C32 141 10 119 10 85 C10 57 25 32 41 17 C68 -6 110 -14 145 -14 C197 -14 242 3 273 35 C300 64 327 108 327 202 L327 489 C327 548 330 586 341 612 C350 632 364 640 380 646 C390 650 400 652 413 653 L413 673 L140 673 L140 653 C154 652 164 650 175 646 C192 640 204 631 213 613 C225 586 227 548 227 489 Z " />
<glyph glyph-name="K" unicode="K" horiz-adv-x="653" d="M302 20 C289 22 278 23 267 28 C251 34 238 42 229 61 C217 85 215 125 215 182 L215 296 L245 327 C263 346 287 361 314 361 C355 361 376 345 398 299 C412 270 422 225 428 155 C437 76 460 21 481 0 L646 0 L646 20 C632 23 605 31 590 41 C568 58 549 83 537 172 C523 266 498 309 466 342 C433 379 381 394 314 392 L314 398 L462 545 C501 585 534 611 560 628 C582 641 607 650 626 653 L626 673 L405 673 L405 653 C418 652 429 650 439 647 C453 641 464 636 464 615 C464 588 439 563 404 527 L215 337 L215 492 C215 552 218 586 229 613 C238 632 251 641 268 647 C277 650 289 652 302 653 L302 673 L28 673 L28 653 C43 652 54 650 61 647 C79 641 92 632 101 613 C112 588 114 550 114 492 L114 183 C114 124 112 87 101 61 C92 43 80 33 62 27 C53 23 42 21 28 20 L28 0 L302 0 Z " />
<glyph glyph-name="L" unicode="L" horiz-adv-x="590" d="M30 0 L539 0 L567 201 L546 201 C529 159 507 112 465 71 C440 46 412 26 349 26 L300 26 C270 26 244 32 230 56 C220 73 217 94 217 135 L217 502 C217 556 219 587 230 613 C239 632 253 641 268 646 C279 650 290 652 302 653 L302 673 L30 673 L30 653 C42 652 54 651 63 647 C82 641 94 632 103 613 C113 588 116 557 116 502 L116 171 C116 118 113 86 104 62 C95 43 82 33 63 27 C54 24 43 22 30 21 Z " />
<glyph glyph-name="M" unicode="M" horiz-adv-x="859" d="M829 673 L636 673 L440 144 L433 144 L238 673 L31 673 L31 653 C43 652 57 651 68 646 C84 640 98 632 108 612 C118 587 121 560 121 503 L121 147 C121 97 114 74 101 56 C90 39 79 32 62 26 C53 23 42 21 29 20 L29 0 L242 0 L242 20 C227 22 218 24 207 27 C192 32 180 41 170 57 C159 74 153 97 153 147 L153 581 L161 581 L381 -4 L420 -4 L636 582 L643 582 L643 182 C643 123 641 86 629 60 C622 41 607 31 590 26 C581 23 567 21 555 20 L555 0 L829 0 L829 20 C817 21 805 24 798 26 C779 32 764 41 757 59 C746 85 745 123 745 181 L745 491 C745 553 746 587 757 612 C766 631 780 640 795 646 C804 650 817 652 829 653 Z " />
<glyph glyph-name="N" unicode="N" horiz-adv-x="710" d="M604 -8 L604 525 C604 577 609 598 620 616 C629 631 642 641 657 646 C668 650 677 652 692 654 L692 673 L476 673 L476 654 C487 653 503 651 512 647 C531 640 541 634 553 619 C565 601 571 577 571 525 L571 166 L566 166 L216 673 L27 673 L27 654 C40 652 49 650 59 645 C85 633 99 619 109 599 C120 577 129 544 129 474 L129 147 C129 96 121 74 109 56 C98 39 86 31 69 26 C60 23 48 21 36 20 L36 0 L249 0 L249 20 C235 21 226 23 215 26 C199 32 187 39 177 57 C167 74 161 96 161 147 L161 562 L168 562 L566 -8 Z " />
<glyph glyph-name="O" unicode="O" horiz-adv-x="710" d="M355 686 C174 686 35 536 35 336 C35 136 174 -14 355 -14 C536 -14 675 136 675 336 C675 536 536 686 355 686 Z M355 14 C305 14 267 29 235 57 C181 106 147 192 147 336 C147 480 181 566 234 613 C267 642 306 657 355 657 C404 657 443 642 475 614 C529 565 562 477 562 336 C562 190 528 103 475 57 C442 29 404 14 355 14 Z " />
<glyph glyph-name="P" unicode="P" horiz-adv-x="571" d="M217 600 C217 620 218 629 226 637 C233 645 242 647 258 647 L309 647 C404 647 453 601 453 498 C453 463 449 419 427 390 C405 361 369 336 289 336 C267 336 233 339 217 343 Z M305 20 C293 21 280 23 271 26 C252 32 240 42 230 61 C220 85 217 117 217 172 L217 314 C231 312 262 309 288 309 C381 309 437 328 473 350 C521 378 556 430 556 504 C556 619 461 673 322 673 L30 673 L30 653 C45 652 55 650 63 647 C80 641 93 632 103 613 C114 588 116 557 116 502 L116 172 C116 118 114 85 103 60 C93 40 81 32 65 27 C54 23 43 21 32 20 L32 0 L305 0 Z " />
<glyph glyph-name="Q" unicode="Q" horiz-adv-x="707" d="M559 -126 C627 -126 675 -89 698 -27 L683 -18 C670 -40 651 -73 602 -73 C558 -73 530 -39 498 21 C604 76 675 193 675 336 C675 536 536 686 355 686 C174 686 35 536 35 336 C35 136 174 -14 355 -14 C372 -14 388 -13 404 -10 C441 -85 486 -126 559 -126 Z M326 159 C267 159 225 131 207 88 C170 140 147 219 147 336 C147 480 181 566 234 613 C267 642 306 657 355 657 C404 657 443 642 475 614 C529 565 562 477 562 336 C562 192 529 106 477 59 C442 115 394 159 326 159 Z M355 14 C305 14 267 29 235 57 L225 66 C235 99 262 119 294 119 C340 119 368 74 392 17 C380 15 368 14 355 14 Z " />
<glyph glyph-name="R" unicode="R" horiz-adv-x="662" d="M316 647 C411 647 450 599 450 505 C450 457 441 422 421 396 C399 368 375 355 293 355 L216 355 L216 599 C216 622 218 631 226 638 C232 644 242 647 255 647 Z M304 20 C292 21 279 23 269 26 C251 32 237 42 229 60 C218 86 216 123 216 182 L216 329 L286 329 C337 329 371 324 393 296 C423 261 429 213 439 141 C449 73 467 26 489 0 L654 0 L654 20 C632 23 611 31 596 42 C574 59 555 95 538 185 C524 255 500 288 468 309 C445 324 415 333 383 337 L383 342 C428 350 460 362 482 377 C524 404 555 445 555 505 C555 616 469 673 332 673 L29 673 L29 654 C41 653 53 652 61 649 C79 642 93 632 101 616 C112 588 114 550 114 491 L114 182 C114 124 113 85 101 60 C92 41 80 33 62 26 C53 23 41 21 29 20 L29 0 L304 0 Z " />
<glyph glyph-name="S" unicode="S" horiz-adv-x="515" d="M482 186 C482 306 401 346 284 400 C207 436 133 464 133 557 C133 627 188 658 245 658 C296 658 325 641 349 618 C382 590 409 542 426 490 L447 490 L430 675 L410 675 L391 637 L386 637 C354 666 315 686 245 686 C130 686 50 612 50 512 C50 396 138 347 233 304 C336 257 399 232 399 134 C399 67 353 14 259 14 C161 14 89 115 56 225 L36 225 L45 6 L60 6 L87 52 L93 52 C127 18 186 -14 260 -14 C376 -14 482 58 482 186 Z " />
<glyph glyph-name="T" unicode="T" horiz-adv-x="639" d="M370 183 L370 646 L413 646 C458 646 490 638 528 611 C576 576 598 532 614 500 L633 500 L602 673 L37 673 L6 500 L25 500 C42 533 63 573 109 608 C147 638 181 646 225 646 L268 646 L268 182 C268 124 266 86 255 61 C245 42 233 33 214 27 C206 24 196 21 182 20 L182 0 L455 0 L455 20 C441 22 434 24 423 27 C406 32 393 41 384 60 C372 84 370 124 370 183 Z " />
<glyph glyph-name="U" unicode="U" horiz-adv-x="691" d="M590 226 L590 526 C590 578 595 599 605 615 C616 632 628 642 645 647 C655 651 665 652 679 654 L679 673 L460 673 L460 654 C472 653 487 651 499 647 C517 641 527 634 539 619 C551 602 558 578 558 526 L558 225 C558 164 547 120 529 89 C502 44 447 19 366 19 C288 19 231 47 211 114 C201 148 199 184 199 215 L199 492 C199 554 200 591 212 613 C221 630 235 640 251 646 C260 650 271 652 285 653 L285 673 L13 673 L13 653 C27 652 39 650 48 646 C64 641 77 634 85 615 C95 591 97 560 97 491 L97 251 C97 209 100 149 116 106 C150 22 247 -14 354 -14 C453 -14 526 22 557 73 C582 114 590 161 590 226 Z " />
<glyph glyph-name="V" unicode="V" horiz-adv-x="633" d="M236 517 C228 544 216 575 216 600 C216 625 234 636 249 643 C261 648 273 651 292 653 L292 673 L8 673 L8 653 C19 651 31 647 43 642 C59 634 73 624 86 605 C98 587 110 558 126 506 L297 -5 L333 -5 L521 525 C535 562 546 590 556 607 C566 623 576 634 587 640 C598 647 612 651 630 653 L630 673 L436 673 L436 653 C451 652 469 648 478 644 C494 638 507 626 507 598 C507 577 501 560 491 531 L356 146 L350 146 Z " />
<glyph glyph-name="W" unicode="W" horiz-adv-x="966" d="M644 -5 L682 -5 L855 526 C867 564 878 593 888 609 C900 627 908 634 920 641 C931 648 944 651 962 654 L962 673 L769 673 L769 654 C786 652 801 649 812 644 C826 637 838 623 838 601 C838 582 832 561 822 526 L703 151 L697 151 L587 518 C578 549 568 578 568 605 C568 629 583 638 601 645 C611 649 626 652 644 654 L644 673 L368 673 L368 654 C386 651 399 646 411 638 C429 626 440 607 455 576 C459 568 469 542 474 529 L350 151 L345 151 L235 518 C223 554 214 580 214 605 C214 626 227 638 243 643 C253 648 270 652 289 654 L289 673 L11 673 L11 654 C29 651 42 647 61 632 C74 622 84 607 98 582 C107 566 115 544 126 511 L292 -5 L329 -5 L487 475 L491 475 Z " />
<glyph glyph-name="X" unicode="X" horiz-adv-x="660" d="M226 0 L226 20 C211 22 197 25 185 30 C170 36 156 48 156 68 C156 90 167 109 189 141 L294 296 L298 296 L400 138 C423 103 433 83 433 66 C433 35 402 24 364 20 L364 0 L654 0 L654 20 C597 30 557 82 511 153 L370 371 L483 534 C509 572 528 595 543 610 C557 623 570 632 584 639 C596 645 612 651 624 653 L624 673 L411 673 L411 653 C428 652 443 649 454 644 C468 638 478 627 478 607 C478 583 467 563 445 530 L356 399 L352 399 L257 547 C241 573 229 593 229 614 C229 640 256 650 300 654 L300 673 L12 673 L12 653 C77 646 98 607 154 520 L278 327 L152 144 C128 109 104 78 92 68 C78 53 62 40 46 33 C32 27 18 22 8 20 L8 0 Z " />
<glyph glyph-name="Y" unicode="Y" horiz-adv-x="639" d="M265 289 L265 167 C265 114 263 82 251 61 C242 42 230 34 214 28 C204 24 193 21 180 20 L180 0 L452 0 L452 20 C439 21 428 23 417 27 C400 32 388 41 379 60 C368 85 366 113 366 167 L366 295 L499 529 C544 609 567 644 627 653 L627 673 L434 673 L434 653 C443 653 460 651 472 647 C486 642 496 633 496 613 C496 589 489 571 465 530 L355 334 L350 334 L225 553 C199 598 191 632 230 646 C239 649 255 652 273 653 L273 673 L6 673 L6 653 C45 645 68 626 105 560 Z " />
<glyph glyph-name="Z" unicode="Z" horiz-adv-x="601" d="M557 673 L93 673 L51 496 L73 496 C102 546 131 584 166 609 C205 636 245 645 313 645 L435 645 L38 20 L38 0 L527 0 L580 192 L558 192 C530 146 504 96 439 59 C396 35 352 28 263 28 L160 28 L557 653 Z " />
<glyph glyph-name="bracketleft" unicode="&#x5b;" horiz-adv-x="305" d="M295 -110 L295 -87 L167 -87 L167 684 L295 684 L295 707 L86 707 L86 -110 Z " />
<glyph glyph-name="backslash" unicode="&#x5c;" horiz-adv-x="365" d="M-7 704 L363 -133 L397 -119 L26 719 Z " />
<glyph glyph-name="bracketright" unicode="&#x5d;" horiz-adv-x="305" d="M219 707 L10 707 L10 684 L138 684 L138 -87 L10 -87 L10 -110 L219 -110 Z " />
<glyph glyph-name="asciicircum" unicode="&#x5e;" horiz-adv-x="397" d="M198 644 L305 427 L339 427 L215 677 L183 677 L58 427 L92 427 Z " />
<glyph glyph-name="underscore" unicode="&#x5f;" horiz-adv-x="295" d="M300 -164 L300 -130 L-5 -130 L-5 -164 Z " />
<glyph glyph-name="grave" unicode="&#x60;" horiz-adv-x="376" d="M276 541 L186 657 C161 688 144 710 117 710 C95 710 78 694 78 670 C78 647 94 630 127 612 C163 590 189 576 265 527 Z " />
<glyph glyph-name="a" unicode="a" horiz-adv-x="453" d="M449 14 L443 31 C434 26 421 23 411 23 C398 23 388 27 383 36 C375 47 372 64 372 112 L372 380 C372 452 310 481 219 481 C163 481 102 458 78 431 C64 418 56 401 56 382 C56 356 75 341 99 341 C127 341 143 354 146 388 C149 416 156 434 171 444 C184 452 201 457 221 457 C264 457 282 439 282 388 L282 312 C277 288 247 262 184 244 C132 227 96 220 62 189 C39 166 30 136 30 109 C30 32 83 -9 159 -9 C229 -9 267 30 281 61 L288 61 C290 28 298 12 313 2 C323 -5 338 -9 361 -9 C401 -9 436 4 449 14 Z M282 270 L282 107 C276 59 232 30 193 30 C151 30 120 53 120 115 C120 148 128 169 142 185 C155 201 178 212 210 226 C238 239 268 253 282 270 Z " />
<glyph glyph-name="b" unicode="b" horiz-adv-x="537" d="M158 712 L2 712 L2 694 C19 693 37 691 49 682 C57 676 63 668 67 657 C70 647 71 627 71 607 L71 94 C71 66 70 31 68 -2 L87 -2 L139 60 L148 60 C175 19 229 -9 284 -9 C383 -9 506 59 506 235 C506 415 407 481 310 481 C246 481 197 453 168 395 L162 395 L162 578 C162 632 166 678 166 705 C166 710 162 712 158 712 Z M291 447 C360 447 408 394 408 234 C408 96 364 18 282 18 C248 18 213 30 191 61 C169 91 162 127 162 187 L162 294 C162 356 184 388 200 408 C226 437 255 447 291 447 Z " />
<glyph glyph-name="c" unicode="c" horiz-adv-x="453" d="M255 456 C301 456 318 439 330 388 C338 354 352 333 383 333 C409 333 427 347 427 378 C427 395 419 415 402 431 C379 455 341 481 255 481 C131 481 31 378 31 236 C31 143 64 78 113 39 C149 9 193 -9 252 -9 C352 -9 414 51 438 134 L415 142 C398 90 359 25 262 25 C233 25 203 37 184 55 C151 89 127 143 127 241 C127 338 150 401 185 431 C204 446 229 456 255 456 Z " />
<glyph glyph-name="d" unicode="d" horiz-adv-x="544" d="M371 170 C371 89 329 23 259 23 C187 23 128 76 128 235 C128 387 188 452 261 452 C296 452 318 441 338 420 C359 396 371 364 371 314 Z M527 -1 L527 18 C517 19 502 22 492 28 C476 35 468 47 465 65 C462 80 462 101 462 119 L462 552 C462 612 464 673 465 704 C465 710 464 712 459 712 L301 712 L301 694 C319 692 334 690 347 683 C357 677 364 671 367 656 C370 641 371 596 371 570 L371 421 L367 421 C350 451 318 481 250 481 C144 481 31 404 31 236 C31 74 131 -9 232 -9 C303 -9 351 28 372 79 L378 79 L378 32 C378 22 378 11 379 4 C380 0 382 -2 387 -2 C391 -2 518 -1 527 -1 Z " />
<glyph glyph-name="e" unicode="e" horiz-adv-x="476" d="M447 139 L425 147 C404 83 362 26 274 26 C233 26 200 39 177 64 C145 99 130 164 130 236 L130 258 L441 258 C443 271 444 291 444 307 C444 384 389 481 254 481 C133 481 31 377 31 235 C31 163 52 96 102 49 C140 12 191 -9 256 -9 C355 -9 419 50 447 139 Z M184 428 C204 446 229 455 255 455 C287 455 307 446 324 430 C343 410 352 382 352 333 C352 293 344 284 316 284 L132 284 C139 357 161 406 184 428 Z " />
<glyph glyph-name="f" unicode="f" horiz-adv-x="300" d="M253 0 L253 19 C243 20 228 22 218 26 C198 33 191 46 187 66 C183 81 182 109 182 126 L182 440 L300 440 L300 469 L182 469 L182 569 C182 608 184 635 195 657 C205 678 222 691 245 691 C262 691 272 687 278 678 C285 668 287 659 290 642 C293 626 296 615 302 605 C312 593 322 586 342 586 C368 586 384 604 384 630 C384 659 368 682 342 697 C320 710 293 717 254 717 C212 717 174 705 142 674 C113 646 91 604 91 526 L91 469 L23 469 L23 440 L91 440 L91 126 C91 103 91 84 88 67 C84 45 74 33 57 26 C48 22 35 20 26 19 L26 0 Z " />
<glyph glyph-name="g" unicode="g" horiz-adv-x="506" d="M135 321 C135 419 174 458 227 458 C280 458 321 419 321 321 C321 222 279 183 225 183 C173 183 135 222 135 321 Z M469 -38 C469 62 410 87 321 87 C286 87 191 80 160 80 C123 80 103 95 103 120 C103 151 141 163 172 163 C190 163 210 160 226 160 C315 160 409 216 409 321 C409 334 407 347 403 357 C399 372 396 384 396 395 C396 417 406 436 420 436 C433 436 436 425 444 412 C452 398 464 391 479 391 C500 391 517 405 517 431 C517 461 498 483 464 483 C426 483 390 457 381 415 L375 415 C339 460 283 481 228 481 C139 481 47 423 47 321 C47 252 87 206 137 181 L137 176 C96 167 49 141 49 87 C49 40 86 10 133 3 L133 -2 C56 -14 7 -48 7 -100 C7 -170 80 -208 216 -208 C334 -208 469 -156 469 -38 Z M406 -70 C406 -154 315 -183 221 -183 C127 -183 75 -158 75 -99 C75 -23 153 -10 201 -6 C234 -4 282 -1 313 -2 C369 -2 406 -12 406 -70 Z " />
<glyph glyph-name="h" unicode="h" horiz-adv-x="565" d="M480 126 L480 349 C480 399 466 431 440 453 C418 472 389 481 352 481 C312 481 276 470 250 451 C225 436 204 413 189 383 L183 383 L183 607 C183 637 184 696 184 705 C184 711 182 712 177 712 L25 712 L25 693 C42 692 56 689 70 682 C78 677 86 667 88 653 C90 641 92 619 92 595 L92 130 C92 105 92 81 89 66 C84 44 73 34 55 26 C48 23 36 20 25 19 L25 0 L246 0 L246 19 C236 20 225 23 217 26 C201 34 192 45 187 70 C184 85 182 104 182 130 L182 264 C182 303 188 338 202 366 C224 411 266 437 312 437 C338 437 359 430 372 412 C385 396 390 374 390 344 L390 130 C390 104 390 84 386 69 C381 44 372 33 357 26 C350 22 338 20 326 19 L326 0 L546 0 L546 19 C535 20 524 22 516 26 C497 34 489 45 484 65 C482 80 480 102 480 126 Z " />
<glyph glyph-name="i" unicode="i" horiz-adv-x="271" d="M137 568 C172 568 196 593 196 625 C196 657 173 683 137 683 C103 683 81 658 81 625 C81 593 103 568 137 568 Z M182 371 C182 414 184 439 185 462 C185 467 182 469 178 469 L28 469 L28 451 C49 448 60 444 70 437 C80 431 84 423 88 410 C91 398 92 363 92 347 L92 115 C92 94 92 77 88 61 C84 45 74 34 58 27 C51 23 38 20 28 19 L28 0 L248 0 L248 19 C237 20 224 23 217 27 C203 34 191 42 187 61 C184 74 182 95 182 115 Z " />
<glyph glyph-name="j" unicode="j" horiz-adv-x="255" d="M133 568 C168 568 191 593 191 625 C191 657 168 683 133 683 C99 683 76 658 76 625 C76 593 99 568 133 568 Z M90 -61 C90 -109 83 -139 72 -158 C60 -176 45 -181 23 -181 C-3 -181 -16 -171 -16 -151 C-16 -146 -15 -142 -14 -135 C-12 -127 -9 -121 -9 -109 C-9 -82 -27 -66 -56 -66 C-82 -66 -103 -84 -103 -115 C-103 -144 -89 -168 -62 -184 C-41 -198 -15 -205 20 -205 C67 -205 96 -190 119 -170 C149 -144 180 -99 180 20 L180 370 C180 411 182 438 182 462 C182 467 180 469 175 469 L25 469 L25 451 C44 448 57 444 68 438 C77 432 83 423 86 410 C89 397 90 366 90 348 Z " />
<glyph glyph-name="k" unicode="k" horiz-adv-x="518" d="M244 19 C233 20 222 23 212 27 C198 35 188 45 183 65 C180 78 180 98 180 119 L180 206 L236 258 C292 243 313 192 329 126 C349 45 361 14 376 0 L514 0 L514 19 C482 24 468 35 455 53 C437 77 424 114 407 178 C391 243 341 282 276 295 L339 349 C384 388 411 410 434 424 C459 439 477 446 496 451 L496 469 L282 469 L282 451 C297 449 310 447 319 442 C332 436 339 426 339 413 C339 389 319 369 288 341 L180 239 L180 612 C180 648 181 683 182 705 C182 710 179 712 174 712 L25 712 L25 693 C44 692 56 690 68 683 C77 677 84 667 86 654 C88 644 90 609 90 593 L90 119 C90 97 90 81 85 62 C80 44 72 34 57 27 C49 23 38 20 27 19 L27 0 L244 0 Z " />
<glyph glyph-name="l" unicode="l" horiz-adv-x="266" d="M179 609 C179 648 181 683 181 705 C181 710 179 712 174 712 L24 712 L24 693 C43 692 56 690 67 683 C76 676 81 668 85 654 C89 642 89 608 89 593 L89 119 C89 97 89 78 85 63 C80 44 70 34 55 27 C47 23 36 20 25 19 L25 0 L242 0 L242 19 C231 20 220 23 211 27 C197 34 187 44 182 65 C179 80 179 98 179 119 Z " />
<glyph glyph-name="m" unicode="m" horiz-adv-x="833" d="M247 19 C231 20 220 24 210 30 C197 38 191 48 187 64 C183 80 182 103 182 130 L182 259 C182 302 188 336 203 365 C223 410 256 438 302 438 C331 438 347 430 360 411 C371 396 376 374 376 345 L376 130 C376 103 375 78 370 62 C367 46 360 36 346 28 C338 24 326 20 312 19 L312 0 L528 0 L528 18 C515 20 504 23 496 27 C481 36 475 47 470 64 C466 79 466 102 466 128 L466 259 C466 304 471 339 484 365 C506 412 541 438 585 438 C611 438 627 430 639 415 C652 398 656 376 656 346 L656 130 C656 103 656 80 653 64 C649 48 643 37 628 29 C620 24 608 21 594 19 L594 0 L813 0 L813 18 C802 19 790 22 782 26 C764 34 757 45 752 65 C748 80 747 102 747 126 L747 349 C747 398 735 430 710 452 C688 471 663 481 620 481 C582 481 551 470 525 451 C502 436 483 415 466 380 L461 380 C457 412 446 434 428 451 C408 471 379 481 339 481 C297 481 266 469 241 449 C218 434 201 411 187 380 L180 380 C181 402 183 448 183 463 C183 467 182 469 177 469 L28 469 L28 451 C44 448 58 444 69 437 C79 432 85 422 88 410 C91 397 91 370 91 347 L91 130 C91 105 92 82 89 66 C84 44 75 34 56 26 C48 23 35 19 25 18 L25 0 L247 0 Z " />
<glyph glyph-name="n" unicode="n" horiz-adv-x="564" d="M481 126 L481 351 C481 400 464 433 439 453 C417 471 388 481 353 481 C312 481 277 470 251 451 C226 436 203 412 187 379 L181 379 C182 400 183 447 183 463 C183 468 181 469 176 469 L28 469 L28 451 C44 449 59 444 71 437 C81 431 87 423 90 410 C93 396 93 369 93 347 L93 134 C93 107 93 81 91 68 C86 44 76 34 55 26 C48 23 35 20 25 19 L25 0 L247 0 L247 19 C237 20 228 23 219 26 C199 35 191 46 188 64 C184 79 184 103 184 130 L184 263 C184 306 189 335 203 365 C224 413 268 437 313 437 C338 437 356 430 368 417 C383 401 390 381 390 344 L390 130 C390 103 390 80 385 63 C380 44 375 34 357 26 C349 23 336 20 327 19 L327 0 L545 0 L545 19 C536 20 523 23 516 26 C495 35 488 47 485 65 C482 79 481 102 481 126 Z " />
<glyph glyph-name="o" unicode="o" horiz-adv-x="521" d="M31 236 C31 84 138 -9 260 -9 C382 -9 489 84 489 237 C489 388 382 481 260 481 C138 481 31 388 31 236 Z M129 236 C129 337 149 395 185 428 C206 447 234 456 260 456 C286 456 314 448 335 428 C371 394 391 336 391 236 C391 137 370 77 335 44 C314 24 287 16 260 16 C233 16 206 24 184 45 C149 77 129 137 129 236 Z " />
<glyph glyph-name="p" unicode="p" horiz-adv-x="545" d="M418 234 C418 83 370 15 291 15 C255 15 227 28 207 53 C186 78 175 112 175 174 L175 294 C175 339 193 382 214 406 C237 431 265 448 303 448 C367 448 418 398 418 234 Z M84 -81 C84 -104 85 -125 81 -141 C76 -162 65 -172 51 -179 C44 -182 31 -185 19 -186 L19 -204 L243 -204 L243 -186 C228 -185 216 -182 207 -179 C193 -173 183 -160 179 -141 C176 -125 175 -104 175 -81 L175 34 L181 34 C211 3 254 -10 298 -10 C406 -10 515 69 515 235 C515 412 420 481 321 481 C255 481 208 446 177 391 L172 391 L173 462 C173 467 170 469 166 469 L17 469 L17 451 C33 449 50 444 63 435 C73 428 78 419 81 406 C84 394 84 367 84 351 Z " />
<glyph glyph-name="q" unicode="q" horiz-adv-x="527" d="M395 408 C365 451 322 481 254 481 C147 481 32 396 32 234 C32 78 126 -10 236 -10 C300 -10 350 17 373 61 L379 61 L379 -81 C379 -104 378 -125 375 -141 C370 -162 359 -172 343 -179 C333 -183 321 -185 310 -186 L310 -204 L530 -204 L530 -186 C520 -184 509 -182 499 -178 C482 -172 473 -160 470 -141 C467 -125 467 -104 467 -81 L467 348 C467 387 469 437 474 477 L451 477 L400 408 Z M372 179 C372 125 362 91 344 66 C327 40 297 23 263 23 C187 23 129 86 129 242 C129 384 185 453 258 453 C295 453 321 440 340 418 C364 392 372 357 372 313 Z " />
<glyph glyph-name="r" unicode="r" horiz-adv-x="381" d="M182 365 L176 365 C176 368 179 460 179 463 C179 466 177 469 172 469 L23 469 L23 451 C39 448 53 445 66 437 C75 432 83 421 86 409 C89 396 89 363 89 347 L89 127 C89 104 89 81 85 64 C79 43 71 34 55 26 C46 23 33 20 23 19 L23 0 L247 0 L247 19 C236 20 225 22 214 26 C202 30 195 41 190 55 C183 72 179 92 179 130 L179 232 C179 258 180 290 181 300 C190 372 236 430 265 430 C277 430 286 422 293 406 C301 385 312 368 341 368 C372 368 386 392 386 418 C386 439 379 453 370 462 C357 474 338 481 317 481 C281 481 256 467 238 452 C217 433 199 410 182 365 Z " />
<glyph glyph-name="s" unicode="s" horiz-adv-x="385" d="M369 136 C369 219 306 250 224 283 C144 315 112 336 112 387 C112 428 145 455 191 455 C223 455 247 446 264 431 C289 411 305 378 319 338 L338 338 L332 473 L318 473 L299 442 L293 442 C275 460 244 481 191 481 C98 481 41 425 41 355 C41 264 96 236 180 202 C263 167 299 148 299 91 C299 40 263 16 210 16 C135 16 81 76 55 168 L34 168 L38 1 L55 1 L77 40 L84 40 C114 10 162 -9 210 -9 C294 -9 369 36 369 136 Z " />
<glyph glyph-name="t" unicode="t" horiz-adv-x="322" d="M310 66 C290 43 264 30 234 30 C187 30 173 53 173 92 L174 440 L295 440 L295 469 L174 469 L174 630 L155 630 C117 510 77 472 9 460 L9 442 C19 441 72 440 84 440 C83 421 83 106 83 100 C83 59 90 36 110 18 C133 -1 159 -9 201 -9 C251 -9 294 13 321 52 Z " />
<glyph glyph-name="u" unicode="u" horiz-adv-x="553" d="M466 119 L466 341 C466 398 468 435 468 462 C468 468 465 469 460 469 L308 469 L308 451 C324 450 340 446 352 439 C363 431 369 422 372 408 C375 396 375 368 375 353 L375 218 C375 183 374 153 369 128 C362 95 347 71 326 53 C307 35 284 26 260 26 C233 26 213 33 197 49 C179 68 173 93 173 132 L173 343 C173 393 174 435 176 462 C176 468 173 469 168 469 L16 469 L16 451 C35 450 50 446 61 438 C68 432 75 424 78 409 C81 397 82 376 82 353 L82 139 C82 85 92 58 109 36 C141 -2 186 -10 225 -10 C268 -10 301 2 325 21 C344 37 357 51 372 83 L379 83 C379 60 378 17 378 8 C378 2 381 -1 386 -1 C390 -1 522 0 533 0 L533 19 C521 20 505 22 496 27 C479 34 473 47 469 66 C466 82 466 101 466 119 Z " />
<glyph glyph-name="v" unicode="v" horiz-adv-x="473" d="M479 451 L479 469 L318 469 L318 451 C328 451 344 448 355 443 C365 438 375 427 375 406 C375 390 371 372 354 330 L270 107 L265 107 L182 335 C169 372 161 394 161 412 C161 428 169 437 178 443 C186 448 202 450 219 451 L219 469 L-6 469 L-6 451 C6 450 21 448 32 440 C44 431 50 420 60 398 C67 384 77 359 94 316 L214 -3 L253 -3 L386 337 C401 376 414 402 423 415 C431 429 438 435 447 441 C457 447 469 450 479 451 Z " />
<glyph glyph-name="w" unicode="w" horiz-adv-x="715" d="M473 -4 L514 -4 L636 334 C652 382 663 403 672 416 C681 429 687 435 696 441 C706 447 718 450 727 451 L727 469 L573 469 L573 451 C585 450 596 449 606 443 C617 436 625 427 625 407 C625 390 620 373 607 331 L527 108 L522 108 L447 336 C436 373 428 394 428 412 C428 428 436 438 446 443 C454 448 466 450 481 451 L481 469 L266 469 L266 451 C274 450 288 447 299 440 C311 432 318 421 328 399 C330 395 344 355 348 346 L259 108 L254 108 L178 339 C167 374 161 394 161 412 C161 428 168 437 177 442 C186 448 200 450 214 451 L214 469 L-6 469 L-6 451 C3 450 14 449 23 444 C33 439 37 434 45 421 C55 410 66 388 87 328 L206 -4 L246 -4 L361 314 L364 314 Z " />
<glyph glyph-name="x" unicode="x" horiz-adv-x="471" d="M175 0 L175 19 C163 20 153 23 142 29 C133 34 124 42 124 55 C124 70 133 87 155 119 L209 197 L213 197 L284 90 C296 71 302 60 302 48 C302 35 293 29 285 25 C277 23 266 20 253 19 L253 0 L473 0 L473 19 C458 21 442 28 432 35 C416 46 394 73 372 108 L273 262 L324 337 C359 389 374 415 409 437 C419 442 435 449 448 452 L448 469 L284 469 L284 451 C298 449 310 447 319 442 C327 438 333 430 333 417 C333 400 326 385 302 350 L261 286 L257 286 L197 380 C185 397 178 408 178 422 C178 434 186 440 197 444 C206 447 214 449 226 451 L226 469 L7 469 L7 451 C25 448 38 441 47 435 C64 423 80 398 103 364 L197 221 L133 131 C96 77 76 53 48 35 C37 29 24 22 8 19 L8 0 Z " />
<glyph glyph-name="y" unicode="y" horiz-adv-x="482" d="M233 -65 C244 -38 376 285 395 337 C409 374 423 403 431 416 C440 430 449 437 457 442 C467 448 477 450 486 451 L486 469 L331 469 L331 451 C341 450 354 449 365 443 C376 437 384 427 384 407 C384 385 380 370 365 332 L280 117 L273 117 L191 336 C178 371 171 392 171 410 C171 428 178 436 188 441 C197 446 214 450 227 451 L227 469 L5 469 L5 451 C14 450 28 447 39 441 C52 432 58 422 67 401 C75 386 87 356 103 314 L213 38 C219 23 221 16 221 3 C221 -22 205 -58 200 -70 C182 -115 162 -155 138 -155 C129 -155 123 -153 118 -148 C114 -143 109 -135 103 -128 C91 -112 79 -104 57 -104 C33 -104 14 -124 14 -150 C14 -184 45 -208 86 -208 C132 -208 162 -189 184 -157 C206 -128 216 -106 233 -65 Z " />
<glyph glyph-name="z" unicode="z" horiz-adv-x="432" d="M413 152 L395 152 C385 132 355 85 335 60 C315 37 296 24 251 24 L134 24 L134 27 L401 455 L401 469 L71 469 L33 333 L53 333 C68 357 96 396 111 411 C133 436 151 445 181 445 L295 445 L295 441 L25 12 L25 0 L386 0 Z " />
<glyph glyph-name="braceleft" unicode="&#x7b;" horiz-adv-x="357" d="M348 -133 L348 -110 C287 -103 234 -88 234 0 C234 35 241 80 241 118 C241 222 177 272 92 286 L92 290 C177 306 241 355 241 458 C241 498 234 542 234 577 C234 665 287 681 348 687 L348 710 C233 708 150 678 150 554 C150 512 164 454 164 425 C164 360 139 330 92 313 C76 307 55 303 34 300 L34 277 C55 274 74 271 90 265 C140 248 164 217 164 151 C164 123 150 64 150 22 C150 -102 233 -131 348 -133 Z " />
<glyph glyph-name="bar" unicode="&#x7c;" horiz-adv-x="182" d="M108 -130 L108 718 L73 718 L73 -130 Z " />
<glyph glyph-name="braceright" unicode="&#x7d;" horiz-adv-x="357" d="M8 -133 C124 -131 208 -102 208 22 C208 64 193 123 193 151 C193 217 218 250 267 265 C284 270 302 274 323 277 L323 300 C302 303 282 307 265 313 C218 329 193 360 193 425 C193 454 208 512 208 554 C208 678 124 708 8 710 L8 687 C69 681 122 665 122 577 C122 542 116 498 116 458 C116 355 179 307 266 291 L266 287 C179 272 116 222 116 118 C116 80 122 35 122 0 C122 -88 70 -103 8 -110 Z " />
<glyph glyph-name="asciitilde" unicode="&#x7e;" horiz-adv-x="377" d="M346 352 L326 360 C306 326 287 315 259 315 C208 315 184 343 129 343 C82 343 48 295 31 244 L50 235 C69 269 91 282 113 282 C166 282 193 253 247 253 C299 253 332 301 346 352 Z " />
<glyph glyph-name="uni00A0" unicode="&#xa0;" horiz-adv-x="193" />
<glyph glyph-name="exclamdown" unicode="&#xa1;" horiz-adv-x="234" d="M177 489 C177 523 153 549 116 549 C81 549 57 523 57 489 C57 456 81 429 116 429 C152 429 177 456 177 489 Z M117 -150 C149 -150 171 -129 171 -82 C171 -33 165 11 156 93 C145 217 137 298 130 369 L103 369 C97 297 90 216 78 92 C68 12 61 -33 61 -82 C61 -130 83 -150 117 -150 Z " />
<glyph glyph-name="cent" unicode="&#xa2;" horiz-adv-x="440" d="M177 55 C142 88 120 143 120 241 C120 338 142 401 177 431 C193 445 216 454 239 456 L239 26 C215 30 193 40 177 55 Z M432 134 L408 142 C392 92 355 30 267 25 L267 455 C299 450 313 433 324 388 C332 354 345 333 377 333 C401 333 420 347 420 378 C420 395 412 415 396 431 C374 453 340 477 267 481 L267 567 L239 567 L239 481 C120 475 23 374 23 236 C23 143 58 80 106 39 C141 10 184 -8 239 -9 L239 -96 L267 -96 L267 -8 C354 0 410 57 432 134 Z " />
<glyph glyph-name="sterling" unicode="&#xa3;" horiz-adv-x="663" d="M441 -27 C553 -27 600 65 612 144 L588 148 C571 97 546 64 461 64 C412 64 350 81 295 101 C315 140 330 197 340 262 L525 262 L525 290 L344 290 L347 317 C360 429 370 519 397 579 C413 621 446 651 494 651 C545 651 580 624 580 561 C580 497 547 474 506 474 C477 474 448 493 434 525 L412 512 C429 469 463 442 517 442 C583 442 642 482 642 561 C642 636 584 679 498 679 C370 679 265 553 244 327 L241 290 L124 290 L124 262 L239 262 C236 203 237 158 232 124 C200 135 163 146 126 146 C55 146 8 113 8 62 C8 14 45 -14 110 -14 C163 -14 219 13 256 48 C310 13 384 -27 441 -27 Z M119 12 C79 12 54 33 54 62 C54 92 72 113 113 113 C149 113 186 95 216 75 C197 39 164 12 119 12 Z " />
<glyph glyph-name="currency" unicode="&#xa4;" horiz-adv-x="500" />
<glyph glyph-name="yen" unicode="&#xa5;" horiz-adv-x="589" d="M426 19 C409 21 392 26 383 30 C369 36 361 43 354 60 C349 74 345 103 345 135 L345 195 L511 195 L511 224 L345 224 L345 303 L511 303 L511 331 L357 331 L459 524 C506 613 537 639 586 646 L586 665 L395 665 L395 646 C405 645 422 643 433 639 C447 632 455 625 455 605 C455 587 449 567 429 530 L332 348 L328 348 L216 547 C190 595 183 624 221 638 C232 642 243 644 262 646 L262 665 L3 665 L3 646 C42 636 64 621 102 553 L231 331 L80 331 L80 303 L246 303 L246 224 L80 224 L80 195 L246 195 L246 135 C246 101 243 78 237 60 C231 44 225 38 210 31 C200 25 182 21 166 19 L166 0 L426 0 Z " />
<glyph glyph-name="brokenbar" unicode="&#xa6;" horiz-adv-x="182" d="M108 349 L108 718 L73 718 L73 349 Z M108 -130 L108 239 L73 239 L73 -130 Z " />
<glyph glyph-name="section" unicode="&#xa7;" horiz-adv-x="476" d="M248 161 C133 264 92 299 92 364 C92 405 112 425 140 439 C165 408 197 381 229 352 C344 248 391 210 391 144 C391 110 368 83 343 70 C317 102 282 131 248 161 Z M228 -195 C316 -195 386 -140 386 -40 C386 -6 375 23 358 49 C410 73 455 123 455 186 C455 275 402 316 290 416 C222 479 163 522 163 595 C163 650 207 679 253 679 C282 679 295 669 302 653 C308 639 305 623 311 607 C317 589 331 576 354 576 C380 576 395 596 395 619 C395 666 347 705 253 705 C163 705 95 647 95 559 C95 520 107 488 125 459 C77 437 29 390 29 322 C29 233 76 197 187 97 C257 34 319 -8 319 -80 C319 -138 276 -168 232 -168 C202 -168 184 -157 176 -138 C170 -124 173 -106 168 -90 C162 -70 148 -57 124 -57 C97 -57 81 -78 81 -101 C81 -149 132 -195 228 -195 Z " />
<glyph glyph-name="dieresis" unicode="&#xa8;" horiz-adv-x="411" d="M293 576 C319 576 341 596 341 625 C341 654 319 675 293 675 C266 675 243 654 243 625 C243 597 266 576 293 576 Z M119 576 C146 576 168 596 168 625 C168 654 146 675 119 675 C93 675 71 654 71 625 C71 597 93 576 119 576 Z " />
<glyph glyph-name="copyright" unicode="&#xa9;" horiz-adv-x="933" d="M467 690 C231 690 41 502 41 267 C41 32 231 -158 467 -158 C702 -158 892 31 892 266 C892 500 702 690 467 690 Z M467 661 C685 661 857 488 857 266 C857 45 685 -128 467 -128 C248 -128 76 45 76 267 C76 488 248 661 467 661 Z M678 197 L653 205 C627 118 580 57 486 57 C448 57 414 68 385 95 C355 123 328 179 328 268 C328 375 361 433 408 465 C427 479 455 489 482 489 C539 489 572 465 598 431 C622 399 635 361 644 317 L666 317 L666 496 L651 496 L629 460 L623 460 C598 487 557 514 482 514 C348 514 228 419 228 263 C228 184 259 121 309 79 C350 44 407 22 473 22 C604 22 655 113 678 197 Z " />
<glyph glyph-name="ordfeminine" unicode="&#xaa;" horiz-adv-x="374" d="M129 295 C185 295 216 325 232 352 L237 352 C238 322 245 311 259 303 C266 299 278 295 295 295 C329 295 353 305 363 313 L360 326 C352 323 345 321 336 321 C329 321 323 323 319 328 C311 336 309 349 309 389 C309 417 310 585 310 601 C310 661 253 683 184 683 C139 683 89 667 68 643 C58 632 52 619 52 603 C52 580 67 570 86 570 C110 570 124 582 127 609 C129 636 133 645 143 653 C154 659 167 663 184 663 C222 663 237 648 237 604 C237 591 236 565 236 558 C225 534 201 515 150 497 C114 482 80 472 55 447 C41 431 33 411 33 388 C33 323 77 295 129 295 Z M236 520 L235 410 C235 359 199 328 165 328 C131 328 108 349 108 394 C108 418 110 430 121 445 C129 457 146 468 166 476 C187 487 218 504 236 520 Z " />
<glyph glyph-name="guillemotleft" unicode="&#xab;" horiz-adv-x="437" d="M42 266 L42 248 L219 99 L237 117 L128 257 L236 398 L219 415 Z M220 265 L220 248 L389 102 L407 120 L302 257 L407 394 L389 412 Z " />
<glyph glyph-name="registered" unicode="&#xae;" horiz-adv-x="588" d="M552 429 C552 571 435 687 293 687 C151 687 35 571 35 429 C35 287 151 171 293 171 C435 171 552 287 552 429 Z M63 429 C63 557 164 663 293 663 C423 663 525 557 525 429 C525 301 423 196 293 196 C164 196 63 301 63 429 Z M340 510 C340 472 326 452 284 452 L255 452 L255 565 L289 565 C327 565 340 549 340 510 Z M443 297 L443 309 C434 311 424 313 416 318 C406 325 396 332 388 372 C378 429 359 438 322 441 L322 444 C363 450 395 473 395 512 C395 558 358 583 305 583 L168 583 L168 570 C174 570 182 568 185 567 C191 564 195 561 197 552 C200 543 201 527 201 503 L201 376 C201 352 200 337 198 327 C196 319 192 315 186 313 C181 312 172 310 168 310 L168 297 L290 297 L290 310 C286 310 276 312 271 314 C266 316 261 319 259 327 C256 336 255 353 255 376 L255 435 L272 435 C298 435 308 434 318 422 C329 407 332 386 336 357 C339 328 349 307 358 297 Z " />
<glyph glyph-name="macron" unicode="&#xaf;" horiz-adv-x="390" d="M315 582 L315 620 L74 620 L74 582 Z " />
<glyph glyph-name="degree" unicode="&#xb0;" horiz-adv-x="318" d="M283 557 C283 629 227 680 158 680 C91 680 35 629 35 557 C35 485 91 433 158 433 C227 433 283 485 283 557 Z M237 557 C237 495 207 461 158 461 C112 461 80 495 80 557 C80 619 112 652 158 652 C207 652 237 619 237 557 Z " />
<glyph glyph-name="acute" unicode="&#xb4;" horiz-adv-x="372" d="M96 541 L108 527 C184 574 209 590 247 612 C279 630 294 647 294 670 C294 694 280 710 257 710 C230 710 212 688 187 657 Z " />
<glyph glyph-name="mu" unicode="&#xb5;" horiz-adv-x="500" />
<glyph glyph-name="paragraph" unicode="&#xb6;" horiz-adv-x="550" d="M538 647 L538 673 L264 673 C118 673 35 577 35 469 C35 358 121 265 266 265 L294 265 L294 -135 L325 -135 L325 647 L422 647 L422 -135 L450 -135 L450 647 Z " />
<glyph glyph-name="periodcentered" unicode="&#xb7;" horiz-adv-x="248" d="M65 266 C65 233 89 206 124 206 C158 206 182 233 182 266 C182 297 158 325 124 325 C89 325 65 297 65 266 Z " />
<glyph glyph-name="cedilla" unicode="&#xb8;" horiz-adv-x="358" d="M273 -114 C273 -69 242 -39 187 -39 C170 -39 150 -44 140 -50 L159 6 L131 6 L108 -65 L131 -76 C139 -69 151 -64 164 -64 C189 -64 207 -80 207 -115 C207 -156 178 -171 143 -171 C121 -171 96 -164 80 -155 L68 -173 C87 -185 118 -196 152 -196 C219 -196 273 -173 273 -114 Z " />
<glyph glyph-name="ordmasculine" unicode="&#xba;" horiz-adv-x="420" d="M395 489 C395 616 307 683 211 683 C114 683 26 615 26 488 C26 361 114 294 211 294 C307 294 395 362 395 489 Z M312 488 C312 410 297 358 267 334 C249 318 230 315 211 315 C192 315 170 320 153 334 C123 361 108 410 108 488 C108 568 121 618 153 643 C171 658 191 662 211 662 C230 662 249 658 268 642 C299 618 312 566 312 488 Z " />
<glyph glyph-name="guillemotright" unicode="&#xbb;" horiz-adv-x="437" d="M395 266 L218 415 L200 398 L309 256 L200 117 L218 99 L395 248 Z M217 266 L48 412 L30 394 L135 257 L30 120 L48 102 L217 249 Z " />
<glyph glyph-name="questiondown" unicode="&#xbf;" horiz-adv-x="424" d="M243 489 C243 457 267 430 303 430 C339 430 363 457 363 489 C363 523 339 550 303 550 C267 550 243 523 243 489 Z M23 44 C23 -39 61 -84 115 -116 C148 -136 195 -148 250 -148 C341 -148 406 -103 406 -62 C406 -29 388 -11 358 -11 C326 -11 308 -34 301 -69 C293 -107 274 -124 243 -124 C168 -124 123 -64 123 20 C123 132 165 203 264 203 L318 203 L318 352 L293 352 L293 227 L249 227 C149 227 23 167 23 44 Z " />
<glyph glyph-name="Agrave" unicode="&#xc0;" horiz-adv-x="632" d="M274 522 L280 522 L371 259 L180 259 Z M195 20 C181 21 163 25 153 29 C136 35 124 50 124 75 C124 94 127 109 138 141 L170 231 L380 231 L407 153 C418 121 427 99 427 71 C427 46 409 34 396 29 C385 25 375 22 358 20 L358 0 L629 0 L629 20 C618 22 610 25 596 31 C581 39 567 50 553 73 C543 91 529 120 510 173 L333 678 L300 678 L106 148 C92 109 80 84 72 67 C62 50 52 39 42 33 C29 25 18 22 1 20 L1 0 L195 0 Z M420 748 C368 784 333 810 297 834 C268 853 252 865 227 865 C204 865 187 848 187 825 C187 790 218 780 252 770 C275 765 375 737 414 729 Z " />
<glyph glyph-name="Aacute" unicode="&#xc1;" horiz-adv-x="632" d="M274 522 L280 522 L371 259 L180 259 Z M195 20 C181 21 163 25 153 29 C136 35 124 50 124 75 C124 94 127 109 138 141 L170 231 L380 231 L407 153 C418 121 427 99 427 71 C427 46 409 34 396 29 C385 25 375 22 358 20 L358 0 L629 0 L629 20 C618 22 610 25 596 31 C581 39 567 50 553 73 C543 91 529 120 510 173 L333 678 L300 678 L106 148 C92 109 80 84 72 67 C62 50 52 39 42 33 C29 25 18 22 1 20 L1 0 L195 0 Z M209 748 L215 730 C260 739 355 766 377 770 C412 779 443 790 443 825 C443 848 426 865 402 865 C377 865 362 853 332 833 C297 809 265 786 209 748 Z " />
<glyph glyph-name="Acircumflex" unicode="&#xc2;" horiz-adv-x="632" d="M274 522 L280 522 L371 259 L180 259 Z M195 20 C181 21 163 25 153 29 C136 35 124 50 124 75 C124 94 127 109 138 141 L170 231 L380 231 L407 153 C418 121 427 99 427 71 C427 46 409 34 396 29 C385 25 375 22 358 20 L358 0 L629 0 L629 20 C618 22 610 25 596 31 C581 39 567 50 553 73 C543 91 529 120 510 173 L333 678 L300 678 L106 148 C92 109 80 84 72 67 C62 50 52 39 42 33 C29 25 18 22 1 20 L1 0 L195 0 Z M448 744 C423 769 359 833 338 857 L289 857 C268 833 204 769 181 744 L193 728 L313 794 L436 728 Z " />
<glyph glyph-name="Atilde" unicode="&#xc3;" horiz-adv-x="632" d="M274 522 L280 522 L371 259 L180 259 Z M195 20 C181 21 163 25 153 29 C136 35 124 50 124 75 C124 94 127 109 138 141 L170 231 L380 231 L407 153 C418 121 427 99 427 71 C427 46 409 34 396 29 C385 25 375 22 358 20 L358 0 L629 0 L629 20 C618 22 610 25 596 31 C581 39 567 50 553 73 C543 91 529 120 510 173 L333 678 L300 678 L106 148 C92 109 80 84 72 67 C62 50 52 39 42 33 C29 25 18 22 1 20 L1 0 L195 0 Z M477 835 L459 840 C443 811 426 799 397 799 C352 799 315 828 268 828 C222 828 191 776 175 730 L193 725 C208 751 230 767 253 767 C300 767 335 739 385 739 C432 739 463 786 477 835 Z " />
<glyph glyph-name="Adieresis" unicode="&#xc4;" horiz-adv-x="632" d="M274 522 L280 522 L371 259 L180 259 Z M195 20 C181 21 163 25 153 29 C136 35 124 50 124 75 C124 94 127 109 138 141 L170 231 L380 231 L407 153 C418 121 427 99 427 71 C427 46 409 34 396 29 C385 25 375 22 358 20 L358 0 L629 0 L629 20 C618 22 610 25 596 31 C581 39 567 50 553 73 C543 91 529 120 510 173 L333 678 L300 678 L106 148 C92 109 80 84 72 67 C62 50 52 39 42 33 C29 25 18 22 1 20 L1 0 L195 0 Z M421 736 C450 736 473 758 473 789 C473 821 450 843 421 843 C392 843 369 821 369 790 C369 758 392 736 421 736 Z M212 736 C240 736 264 758 264 789 C264 821 241 843 212 843 C183 843 160 821 160 790 C160 758 183 736 212 736 Z " />
<glyph glyph-name="Aring" unicode="&#xc5;" horiz-adv-x="632" d="M274 522 L280 522 L371 259 L180 259 Z M195 20 C181 21 163 25 153 29 C136 35 124 50 124 75 C124 94 127 109 138 141 L170 231 L380 231 L407 153 C418 121 427 99 427 71 C427 46 409 34 396 29 C385 25 375 22 358 20 L358 0 L629 0 L629 20 C618 22 610 25 596 31 C581 39 567 50 553 73 C543 91 529 120 510 173 L333 678 L300 678 L106 148 C92 109 80 84 72 67 C62 50 52 39 42 33 C29 25 18 22 1 20 L1 0 L195 0 Z M395 800 C395 850 358 884 313 884 C269 884 231 850 231 800 C231 750 269 718 313 718 C357 718 394 750 395 800 Z M260 800 C260 837 280 862 313 862 C345 862 367 837 367 800 C367 763 345 738 313 738 C281 738 260 763 260 800 Z " />
<glyph glyph-name="AE" unicode="&#xc6;" horiz-adv-x="898" d="M422 622 L422 290 L229 290 L417 622 Z M184 20 C170 21 156 24 144 28 C126 34 117 46 117 67 C117 88 126 108 146 143 L213 262 L422 262 L422 162 C422 103 420 82 408 59 C399 42 387 32 368 25 C360 23 348 21 336 20 L336 0 L835 0 L862 185 L844 185 C826 148 808 108 766 70 C740 45 709 26 653 26 L611 26 C586 26 562 31 548 43 C525 60 524 105 524 146 L524 336 L586 336 C627 336 650 329 667 312 C691 290 698 256 702 227 L722 227 L722 470 L702 470 C698 442 691 407 667 386 C650 369 628 362 586 362 L524 362 L524 551 C524 580 523 615 546 635 C558 645 574 647 588 647 L640 647 C689 647 722 629 739 614 C773 587 795 548 817 504 L837 504 L810 673 L335 673 L335 654 C347 652 358 651 367 648 C376 644 384 641 391 637 L114 148 C94 113 80 93 68 76 C54 57 46 48 32 37 C20 29 7 23 -11 20 L-11 0 L184 0 Z " />
<glyph glyph-name="Ccedilla" unicode="&#xc7;" horiz-adv-x="638" d="M419 -123 C419 -78 388 -48 333 -48 C316 -48 296 -53 286 -59 L302 -10 C318 -12 334 -14 350 -14 C491 -14 577 63 619 181 L597 191 C553 71 465 32 380 32 C327 32 290 39 250 68 C197 107 147 178 147 338 C147 490 192 571 241 613 C280 649 320 658 360 658 C431 658 469 637 505 597 C535 562 560 513 578 442 L599 442 L599 665 L583 665 L557 623 L552 623 C518 654 457 686 359 686 C190 686 35 546 35 337 C35 153 135 27 276 -5 L254 -74 L277 -85 C285 -78 297 -73 310 -73 C335 -73 353 -89 353 -124 C353 -165 324 -180 289 -180 C267 -180 242 -173 226 -164 L214 -182 C233 -194 264 -205 298 -205 C365 -205 419 -182 419 -123 Z " />
<glyph glyph-name="Egrave" unicode="&#xc8;" horiz-adv-x="604" d="M417 748 C365 784 330 810 294 834 C265 853 249 865 224 865 C201 865 184 848 184 825 C184 790 215 780 249 770 C272 765 372 737 411 729 Z M570 185 L552 185 C534 148 516 108 474 70 C449 45 420 26 355 26 L306 26 C281 26 255 30 242 41 C217 61 217 105 217 146 L217 336 L286 336 C327 336 350 329 367 312 C391 290 398 256 402 227 L422 227 L422 470 L402 470 C398 442 391 408 367 386 C350 369 328 362 286 362 L217 362 L217 551 C217 579 220 616 241 635 C251 644 269 647 283 647 L348 647 C397 647 431 629 447 614 C481 587 503 548 525 504 L545 504 L519 673 L30 673 L30 654 C43 653 54 651 63 648 C81 641 94 632 104 613 C114 587 117 550 117 492 L117 182 C117 123 115 85 103 59 C94 42 81 34 62 27 C54 24 43 21 30 20 L30 0 L544 0 Z " />
<glyph glyph-name="Eacute" unicode="&#xc9;" horiz-adv-x="604" d="M216 748 L222 730 C267 739 362 766 384 770 C419 779 450 790 450 825 C450 848 433 865 409 865 C384 865 369 853 339 833 C304 809 272 786 216 748 Z M570 185 L552 185 C534 148 516 108 474 70 C449 45 420 26 355 26 L306 26 C281 26 255 30 242 41 C217 61 217 105 217 146 L217 336 L286 336 C327 336 350 329 367 312 C391 290 398 256 402 227 L422 227 L422 470 L402 470 C398 442 391 408 367 386 C350 369 328 362 286 362 L217 362 L217 551 C217 579 220 616 241 635 C251 644 269 647 283 647 L348 647 C397 647 431 629 447 614 C481 587 503 548 525 504 L545 504 L519 673 L30 673 L30 654 C43 653 54 651 63 648 C81 641 94 632 104 613 C114 587 117 550 117 492 L117 182 C117 123 115 85 103 59 C94 42 81 34 62 27 C54 24 43 21 30 20 L30 0 L544 0 Z " />
<glyph glyph-name="Ecircumflex" unicode="&#xca;" horiz-adv-x="604" d="M443 744 C418 769 354 833 333 857 L284 857 C263 833 199 769 176 744 L188 728 L308 794 L431 728 Z M570 185 L552 185 C534 148 516 108 474 70 C449 45 420 26 355 26 L306 26 C281 26 255 30 242 41 C217 61 217 105 217 146 L217 336 L286 336 C327 336 350 329 367 312 C391 290 398 256 402 227 L422 227 L422 470 L402 470 C398 442 391 408 367 386 C350 369 328 362 286 362 L217 362 L217 551 C217 579 220 616 241 635 C251 644 269 647 283 647 L348 647 C397 647 431 629 447 614 C481 587 503 548 525 504 L545 504 L519 673 L30 673 L30 654 C43 653 54 651 63 648 C81 641 94 632 104 613 C114 587 117 550 117 492 L117 182 C117 123 115 85 103 59 C94 42 81 34 62 27 C54 24 43 21 30 20 L30 0 L544 0 Z " />
<glyph glyph-name="Edieresis" unicode="&#xcb;" horiz-adv-x="604" d="M570 185 L552 185 C534 148 516 108 474 70 C449 45 420 26 355 26 L306 26 C281 26 255 30 242 41 C217 61 217 105 217 146 L217 336 L286 336 C327 336 350 329 367 312 C391 290 398 256 402 227 L422 227 L422 470 L402 470 C398 442 391 408 367 386 C350 369 328 362 286 362 L217 362 L217 551 C217 579 220 616 241 635 C251 644 269 647 283 647 L348 647 C397 647 431 629 447 614 C481 587 503 548 525 504 L545 504 L519 673 L30 673 L30 654 C43 653 54 651 63 648 C81 641 94 632 104 613 C114 587 117 550 117 492 L117 182 C117 123 115 85 103 59 C94 42 81 34 62 27 C54 24 43 21 30 20 L30 0 L544 0 Z M400 736 C429 736 452 758 452 789 C452 821 429 843 400 843 C371 843 348 821 348 790 C348 758 371 736 400 736 Z M191 736 C219 736 243 758 243 789 C243 821 220 843 191 843 C162 843 139 821 139 790 C139 758 162 736 191 736 Z " />
<glyph glyph-name="Igrave" unicode="&#xcc;" horiz-adv-x="333" d="M217 491 C217 550 220 587 230 613 C239 632 252 640 269 646 C280 650 289 652 303 653 L303 673 L30 673 L30 653 C43 652 56 649 64 646 C82 640 93 632 103 613 C114 587 116 550 116 491 L116 182 C116 124 114 88 103 62 C94 42 81 33 63 27 C54 24 43 21 30 20 L30 0 L303 0 L303 20 C290 21 279 24 269 28 C253 33 240 42 230 60 C220 84 217 124 217 182 Z M283 748 C231 784 196 810 160 834 C131 853 115 865 90 865 C67 865 50 848 50 825 C50 790 81 780 115 770 C138 765 238 737 277 729 Z " />
<glyph glyph-name="Iacute" unicode="&#xcd;" horiz-adv-x="333" d="M217 491 C217 550 220 587 230 613 C239 632 252 640 269 646 C280 650 289 652 303 653 L303 673 L30 673 L30 653 C43 652 56 649 64 646 C82 640 93 632 103 613 C114 587 116 550 116 491 L116 182 C116 124 114 88 103 62 C94 42 81 33 63 27 C54 24 43 21 30 20 L30 0 L303 0 L303 20 C290 21 279 24 269 28 C253 33 240 42 230 60 C220 84 217 124 217 182 Z M58 748 L64 730 C109 739 204 766 226 770 C261 779 292 790 292 825 C292 848 275 865 251 865 C226 865 211 853 181 833 C146 809 114 786 58 748 Z " />
<glyph glyph-name="Icircumflex" unicode="&#xce;" horiz-adv-x="333" d="M217 491 C217 550 220 587 230 613 C239 632 252 640 269 646 C280 650 289 652 303 653 L303 673 L30 673 L30 653 C43 652 56 649 64 646 C82 640 93 632 103 613 C114 587 116 550 116 491 L116 182 C116 124 114 88 103 62 C94 42 81 33 63 27 C54 24 43 21 30 20 L30 0 L303 0 L303 20 C290 21 279 24 269 28 C253 33 240 42 230 60 C220 84 217 124 217 182 Z M301 744 C276 769 212 833 191 857 L142 857 C121 833 57 769 34 744 L46 728 L166 794 L289 728 Z " />
<glyph glyph-name="Idieresis" unicode="&#xcf;" horiz-adv-x="333" d="M217 491 C217 550 220 587 230 613 C239 632 252 640 269 646 C280 650 289 652 303 653 L303 673 L30 673 L30 653 C43 652 56 649 64 646 C82 640 93 632 103 613 C114 587 116 550 116 491 L116 182 C116 124 114 88 103 62 C94 42 81 33 63 27 C54 24 43 21 30 20 L30 0 L303 0 L303 20 C290 21 279 24 269 28 C253 33 240 42 230 60 C220 84 217 124 217 182 Z M271 736 C300 736 323 758 323 789 C323 821 300 843 271 843 C242 843 219 821 219 790 C219 758 242 736 271 736 Z M62 736 C90 736 114 758 114 789 C114 821 91 843 62 843 C33 843 10 821 10 790 C10 758 33 736 62 736 Z " />
<glyph glyph-name="Eth" unicode="&#xd0;" horiz-adv-x="701" d="M32 331 L117 331 L117 182 C117 123 115 86 103 60 C95 42 83 34 64 27 C55 24 43 22 30 20 L30 0 L345 0 C409 0 467 18 509 40 C601 91 670 188 670 337 C670 484 600 583 507 632 C464 657 406 673 325 673 L30 673 L30 654 C43 653 54 651 64 648 C82 642 96 634 104 615 C114 590 117 550 117 491 L117 360 L32 360 Z M563 336 C563 209 526 130 476 80 C438 41 388 26 333 26 L300 26 C270 26 249 30 237 43 C220 60 219 89 219 134 L219 331 L382 331 L382 360 L219 360 L219 592 C219 611 219 628 229 636 C236 643 248 647 273 647 L319 647 C377 647 429 634 470 599 C525 550 563 461 563 336 Z " />
<glyph glyph-name="Ntilde" unicode="&#xd1;" horiz-adv-x="704" d="M528 835 L510 840 C494 811 477 799 448 799 C403 799 366 828 319 828 C273 828 242 776 226 730 L244 725 C259 751 281 767 304 767 C351 767 386 739 436 739 C483 739 514 786 528 835 Z M604 -8 L604 525 C604 577 609 598 620 616 C629 631 642 641 657 646 C668 650 677 652 692 654 L692 673 L476 673 L476 654 C487 653 503 651 512 647 C531 640 541 634 553 619 C565 601 571 577 571 525 L571 166 L566 166 L216 673 L27 673 L27 654 C40 652 49 650 59 645 C85 633 99 619 109 599 C120 577 129 544 129 474 L129 147 C129 96 121 74 109 56 C98 39 86 31 69 26 C60 23 48 21 36 20 L36 0 L249 0 L249 20 C235 21 226 23 215 26 C199 32 187 39 177 57 C167 74 161 96 161 147 L161 562 L168 562 L566 -8 Z " />
<glyph glyph-name="Ograve" unicode="&#xd2;" horiz-adv-x="705" d="M462 748 C410 784 375 810 339 834 C310 853 294 865 269 865 C246 865 229 848 229 825 C229 790 260 780 294 770 C317 765 417 737 456 729 Z M355 686 C174 686 35 536 35 336 C35 136 174 -14 355 -14 C536 -14 675 136 675 336 C675 536 536 686 355 686 Z M355 14 C305 14 267 29 235 57 C181 106 147 192 147 336 C147 480 181 566 234 613 C267 642 306 657 355 657 C404 657 443 642 475 614 C529 565 562 477 562 336 C562 190 528 103 475 57 C442 29 404 14 355 14 Z " />
<glyph glyph-name="Oacute" unicode="&#xd3;" horiz-adv-x="705" d="M231 748 L237 730 C282 739 377 766 399 770 C434 779 465 790 465 825 C465 848 448 865 424 865 C399 865 384 853 354 833 C319 809 287 786 231 748 Z M355 686 C174 686 35 536 35 336 C35 136 174 -14 355 -14 C536 -14 675 136 675 336 C675 536 536 686 355 686 Z M355 14 C305 14 267 29 235 57 C181 106 147 192 147 336 C147 480 181 566 234 613 C267 642 306 657 355 657 C404 657 443 642 475 614 C529 565 562 477 562 336 C562 190 528 103 475 57 C442 29 404 14 355 14 Z " />
<glyph glyph-name="Ocircumflex" unicode="&#xd4;" horiz-adv-x="705" d="M483 744 C458 769 394 833 373 857 L324 857 C303 833 239 769 216 744 L228 728 L348 794 L471 728 Z M355 686 C174 686 35 536 35 336 C35 136 174 -14 355 -14 C536 -14 675 136 675 336 C675 536 536 686 355 686 Z M355 14 C305 14 267 29 235 57 C181 106 147 192 147 336 C147 480 181 566 234 613 C267 642 306 657 355 657 C404 657 443 642 475 614 C529 565 562 477 562 336 C562 190 528 103 475 57 C442 29 404 14 355 14 Z " />
<glyph glyph-name="Otilde" unicode="&#xd5;" horiz-adv-x="705" d="M511 835 L493 840 C477 811 460 799 431 799 C386 799 349 828 302 828 C256 828 225 776 209 730 L227 725 C242 751 264 767 287 767 C334 767 369 739 419 739 C466 739 497 786 511 835 Z M355 686 C174 686 35 536 35 336 C35 136 174 -14 355 -14 C536 -14 675 136 675 336 C675 536 536 686 355 686 Z M355 14 C305 14 267 29 235 57 C181 106 147 192 147 336 C147 480 181 566 234 613 C267 642 306 657 355 657 C404 657 443 642 475 614 C529 565 562 477 562 336 C562 190 528 103 475 57 C442 29 404 14 355 14 Z " />
<glyph glyph-name="Odieresis" unicode="&#xd6;" horiz-adv-x="705" d="M454 736 C483 736 506 758 506 789 C506 821 483 843 454 843 C425 843 402 821 402 790 C402 758 425 736 454 736 Z M245 736 C273 736 297 758 297 789 C297 821 274 843 245 843 C216 843 193 821 193 790 C193 758 216 736 245 736 Z M355 686 C174 686 35 536 35 336 C35 136 174 -14 355 -14 C536 -14 675 136 675 336 C675 536 536 686 355 686 Z M355 14 C305 14 267 29 235 57 C181 106 147 192 147 336 C147 480 181 566 234 613 C267 642 306 657 355 657 C404 657 443 642 475 614 C529 565 562 477 562 336 C562 190 528 103 475 57 C442 29 404 14 355 14 Z " />
<glyph glyph-name="multiply" unicode="&#xd7;" horiz-adv-x="441" d="M361 115 L382 137 L243 276 L382 415 L361 436 L222 297 L82 436 L61 415 L201 276 L61 136 L82 116 L221 255 Z " />
<glyph glyph-name="Oslash" unicode="&#xd8;" horiz-adv-x="705" d="M355 -14 C536 -14 675 136 675 336 C675 461 620 567 535 629 L589 721 L564 734 L511 644 C465 671 412 686 355 686 C174 686 35 536 35 336 C35 216 85 115 164 52 L106 -46 L131 -59 L187 36 C235 4 292 -14 355 -14 Z M355 14 C305 14 267 29 235 57 C227 64 220 72 213 81 L505 579 C541 527 562 448 562 336 C562 190 528 103 475 57 C442 29 404 14 355 14 Z M147 336 C147 480 181 566 234 613 C267 642 306 657 355 657 C404 657 443 642 475 614 L487 602 L195 106 C165 158 147 232 147 336 Z " />
<glyph glyph-name="Ugrave" unicode="&#xd9;" horiz-adv-x="686" d="M474 748 C422 784 387 810 351 834 C322 853 306 865 281 865 C258 865 241 848 241 825 C241 790 272 780 306 770 C329 765 429 737 468 729 Z M590 226 L590 526 C590 578 595 599 605 615 C616 632 628 642 645 647 C655 651 665 652 679 654 L679 673 L460 673 L460 654 C472 653 487 651 499 647 C517 641 527 634 539 619 C551 602 558 578 558 526 L558 225 C558 164 547 120 529 89 C502 44 447 19 366 19 C288 19 231 47 211 114 C201 148 199 184 199 215 L199 492 C199 554 200 591 212 613 C221 630 235 640 251 646 C260 650 271 652 285 653 L285 673 L13 673 L13 653 C27 652 39 650 48 646 C64 641 77 634 85 615 C95 591 97 560 97 491 L97 251 C97 209 100 149 116 106 C150 22 247 -14 354 -14 C453 -14 526 22 557 73 C582 114 590 161 590 226 Z " />
<glyph glyph-name="Uacute" unicode="&#xda;" horiz-adv-x="686" d="M270 748 L276 730 C321 739 416 766 438 770 C473 779 504 790 504 825 C504 848 487 865 463 865 C438 865 423 853 393 833 C358 809 326 786 270 748 Z M590 226 L590 526 C590 578 595 599 605 615 C616 632 628 642 645 647 C655 651 665 652 679 654 L679 673 L460 673 L460 654 C472 653 487 651 499 647 C517 641 527 634 539 619 C551 602 558 578 558 526 L558 225 C558 164 547 120 529 89 C502 44 447 19 366 19 C288 19 231 47 211 114 C201 148 199 184 199 215 L199 492 C199 554 200 591 212 613 C221 630 235 640 251 646 C260 650 271 652 285 653 L285 673 L13 673 L13 653 C27 652 39 650 48 646 C64 641 77 634 85 615 C95 591 97 560 97 491 L97 251 C97 209 100 149 116 106 C150 22 247 -14 354 -14 C453 -14 526 22 557 73 C582 114 590 161 590 226 Z " />
<glyph glyph-name="Ucircumflex" unicode="&#xdb;" horiz-adv-x="686" d="M503 744 C478 769 414 833 393 857 L344 857 C323 833 259 769 236 744 L248 728 L368 794 L491 728 Z M590 226 L590 526 C590 578 595 599 605 615 C616 632 628 642 645 647 C655 651 665 652 679 654 L679 673 L460 673 L460 654 C472 653 487 651 499 647 C517 641 527 634 539 619 C551 602 558 578 558 526 L558 225 C558 164 547 120 529 89 C502 44 447 19 366 19 C288 19 231 47 211 114 C201 148 199 184 199 215 L199 492 C199 554 200 591 212 613 C221 630 235 640 251 646 C260 650 271 652 285 653 L285 673 L13 673 L13 653 C27 652 39 650 48 646 C64 641 77 634 85 615 C95 591 97 560 97 491 L97 251 C97 209 100 149 116 106 C150 22 247 -14 354 -14 C453 -14 526 22 557 73 C582 114 590 161 590 226 Z " />
<glyph glyph-name="Udieresis" unicode="&#xdc;" horiz-adv-x="686" d="M590 226 L590 526 C590 578 595 599 605 615 C616 632 628 642 645 647 C655 651 665 652 679 654 L679 673 L460 673 L460 654 C472 653 487 651 499 647 C517 641 527 634 539 619 C551 602 558 578 558 526 L558 225 C558 164 547 120 529 89 C502 44 447 19 366 19 C288 19 231 47 211 114 C201 148 199 184 199 215 L199 492 C199 554 200 591 212 613 C221 630 235 640 251 646 C260 650 271 652 285 653 L285 673 L13 673 L13 653 C27 652 39 650 48 646 C64 641 77 634 85 615 C95 591 97 560 97 491 L97 251 C97 209 100 149 116 106 C150 22 247 -14 354 -14 C453 -14 526 22 557 73 C582 114 590 161 590 226 Z M475 736 C504 736 527 758 527 789 C527 821 504 843 475 843 C446 843 423 821 423 790 C423 758 446 736 475 736 Z M266 736 C294 736 318 758 318 789 C318 821 295 843 266 843 C237 843 214 821 214 790 C214 758 237 736 266 736 Z " />
<glyph glyph-name="Yacute" unicode="&#xdd;" horiz-adv-x="630" d="M265 289 L265 167 C265 114 263 82 251 61 C242 42 230 34 214 28 C204 24 193 21 180 20 L180 0 L452 0 L452 20 C439 21 428 23 417 27 C400 32 388 41 379 60 C368 85 366 113 366 167 L366 295 L499 529 C544 609 567 644 627 653 L627 673 L434 673 L434 653 C443 653 460 651 472 647 C486 642 496 633 496 613 C496 589 489 571 465 530 L355 334 L350 334 L225 553 C199 598 191 632 230 646 C239 649 255 652 273 653 L273 673 L6 673 L6 653 C45 645 68 626 105 560 Z M247 748 L253 730 C298 739 393 766 415 770 C450 779 481 790 481 825 C481 848 464 865 440 865 C415 865 400 853 370 833 C335 809 303 786 247 748 Z " />
<glyph glyph-name="Thorn" unicode="&#xde;" horiz-adv-x="560" d="M214 454 C214 469 217 481 224 490 C231 497 242 500 258 500 L297 500 C393 500 437 459 437 358 C437 319 432 280 408 250 C383 221 340 209 284 209 L214 209 Z M299 20 C287 21 276 23 265 28 C249 34 236 42 227 60 C216 84 214 123 214 181 L280 181 C369 181 427 195 465 219 C516 250 540 292 540 365 C540 479 444 525 306 525 L214 525 C216 564 219 592 227 612 C236 632 250 640 265 646 C275 650 286 652 299 653 L299 673 L27 673 L27 653 C40 652 52 650 60 646 C78 639 90 632 99 612 C110 587 113 549 113 489 L113 182 C113 124 111 87 99 61 C91 42 80 34 60 27 C51 23 40 21 27 20 L27 0 L299 0 Z " />
<glyph glyph-name="germandbls" unicode="&#xdf;" horiz-adv-x="580" d="M571 132 C571 209 510 241 434 284 C369 322 339 339 339 386 C339 417 355 438 380 461 C419 498 476 528 476 600 C476 664 420 717 301 717 C252 717 201 704 161 675 C117 642 87 589 87 513 L87 469 L19 469 L19 440 L87 440 L87 123 C87 90 86 81 82 63 C78 43 69 33 53 26 C45 22 33 20 23 19 L23 0 L241 0 L241 19 C231 20 219 23 211 27 C197 34 190 43 185 58 C180 71 178 90 178 124 L178 550 C178 647 227 691 301 691 C386 691 402 646 402 585 C402 535 384 504 356 478 C318 442 270 411 270 343 C270 278 320 239 386 202 C461 161 500 140 500 92 C500 49 475 16 420 16 C357 16 313 65 288 164 L270 164 L273 1 L289 1 L306 37 L312 37 C338 9 375 -9 420 -9 C502 -9 571 46 571 132 Z " />
<glyph glyph-name="agrave" unicode="&#xe0;" horiz-adv-x="452" d="M449 14 L443 31 C434 26 421 23 411 23 C398 23 388 27 383 36 C375 47 372 64 372 112 L372 380 C372 452 310 481 219 481 C163 481 102 458 78 431 C64 418 56 401 56 382 C56 356 75 341 99 341 C127 341 143 354 146 388 C149 416 156 434 171 444 C184 452 201 457 221 457 C264 457 282 439 282 388 L282 312 C277 288 247 262 184 244 C132 227 96 220 62 189 C39 166 30 136 30 109 C30 32 83 -9 159 -9 C229 -9 267 30 281 61 L288 61 C290 28 298 12 313 2 C323 -5 338 -9 361 -9 C401 -9 436 4 449 14 Z M282 270 L282 107 C276 59 232 30 193 30 C151 30 120 53 120 115 C120 148 128 169 142 185 C155 201 178 212 210 226 C238 239 268 253 282 270 Z M314 540 L224 656 C199 687 182 709 155 709 C133 709 116 693 116 669 C116 646 132 629 165 611 C201 589 227 575 303 526 Z " />
<glyph glyph-name="aacute" unicode="&#xe1;" horiz-adv-x="453" d="M449 14 L443 31 C434 26 421 23 411 23 C398 23 388 27 383 36 C375 47 372 64 372 112 L372 380 C372 452 310 481 219 481 C163 481 102 458 78 431 C64 418 56 401 56 382 C56 356 75 341 99 341 C127 341 143 354 146 388 C149 416 156 434 171 444 C184 452 201 457 221 457 C264 457 282 439 282 388 L282 312 C277 288 247 262 184 244 C132 227 96 220 62 189 C39 166 30 136 30 109 C30 32 83 -9 159 -9 C229 -9 267 30 281 61 L288 61 C290 28 298 12 313 2 C323 -5 338 -9 361 -9 C401 -9 436 4 449 14 Z M282 270 L282 107 C276 59 232 30 193 30 C151 30 120 53 120 115 C120 148 128 169 142 185 C155 201 178 212 210 226 C238 239 268 253 282 270 Z M129 541 L141 527 C217 574 242 590 280 612 C312 630 327 647 327 670 C327 694 313 710 290 710 C263 710 245 688 220 657 Z " />
<glyph glyph-name="acircumflex" unicode="&#xe2;" horiz-adv-x="453" d="M449 14 L443 31 C434 26 421 23 411 23 C398 23 388 27 383 36 C375 47 372 64 372 112 L372 380 C372 452 310 481 219 481 C163 481 102 458 78 431 C64 418 56 401 56 382 C56 356 75 341 99 341 C127 341 143 354 146 388 C149 416 156 434 171 444 C184 452 201 457 221 457 C264 457 282 439 282 388 L282 312 C277 288 247 262 184 244 C132 227 96 220 62 189 C39 166 30 136 30 109 C30 32 83 -9 159 -9 C229 -9 267 30 281 61 L288 61 C290 28 298 12 313 2 C323 -5 338 -9 361 -9 C401 -9 436 4 449 14 Z M282 270 L282 107 C276 59 232 30 193 30 C151 30 120 53 120 115 C120 148 128 169 142 185 C155 201 178 212 210 226 C238 239 268 253 282 270 Z M347 549 C310 604 258 667 239 695 L194 695 C175 666 124 604 85 549 L101 535 L216 627 L332 535 Z " />
<glyph glyph-name="atilde" unicode="&#xe3;" horiz-adv-x="453" d="M449 14 L443 31 C434 26 421 23 411 23 C398 23 388 27 383 36 C375 47 372 64 372 112 L372 380 C372 452 310 481 219 481 C163 481 102 458 78 431 C64 418 56 401 56 382 C56 356 75 341 99 341 C127 341 143 354 146 388 C149 416 156 434 171 444 C184 452 201 457 221 457 C264 457 282 439 282 388 L282 312 C277 288 247 262 184 244 C132 227 96 220 62 189 C39 166 30 136 30 109 C30 32 83 -9 159 -9 C229 -9 267 30 281 61 L288 61 C290 28 298 12 313 2 C323 -5 338 -9 361 -9 C401 -9 436 4 449 14 Z M282 270 L282 107 C276 59 232 30 193 30 C151 30 120 53 120 115 C120 148 128 169 142 185 C155 201 178 212 210 226 C238 239 268 253 282 270 Z M366 664 L348 670 C333 641 318 628 287 628 C246 628 210 659 166 659 C119 659 90 609 75 564 L92 558 C108 584 127 599 151 599 C191 599 223 568 273 568 C319 568 351 611 366 664 Z " />
<glyph glyph-name="adieresis" unicode="&#xe4;" horiz-adv-x="453" d="M449 14 L443 31 C434 26 421 23 411 23 C398 23 388 27 383 36 C375 47 372 64 372 112 L372 380 C372 452 310 481 219 481 C163 481 102 458 78 431 C64 418 56 401 56 382 C56 356 75 341 99 341 C127 341 143 354 146 388 C149 416 156 434 171 444 C184 452 201 457 221 457 C264 457 282 439 282 388 L282 312 C277 288 247 262 184 244 C132 227 96 220 62 189 C39 166 30 136 30 109 C30 32 83 -9 159 -9 C229 -9 267 30 281 61 L288 61 C290 28 298 12 313 2 C323 -5 338 -9 361 -9 C401 -9 436 4 449 14 Z M282 270 L282 107 C276 59 232 30 193 30 C151 30 120 53 120 115 C120 148 128 169 142 185 C155 201 178 212 210 226 C238 239 268 253 282 270 Z M304 568 C330 568 352 588 352 617 C352 646 330 667 304 667 C277 667 254 646 254 617 C254 589 277 568 304 568 Z M130 568 C157 568 179 588 179 617 C179 646 157 667 130 667 C104 667 82 646 82 617 C82 589 104 568 130 568 Z " />
<glyph glyph-name="aring" unicode="&#xe5;" horiz-adv-x="453" d="M449 14 L443 31 C434 26 421 23 411 23 C398 23 388 27 383 36 C375 47 372 64 372 112 L372 380 C372 452 310 481 219 481 C163 481 102 458 78 431 C64 418 56 401 56 382 C56 356 75 341 99 341 C127 341 143 354 146 388 C149 416 156 434 171 444 C184 452 201 457 221 457 C264 457 282 439 282 388 L282 312 C277 288 247 262 184 244 C132 227 96 220 62 189 C39 166 30 136 30 109 C30 32 83 -9 159 -9 C229 -9 267 30 281 61 L288 61 C290 28 298 12 313 2 C323 -5 338 -9 361 -9 C401 -9 436 4 449 14 Z M282 270 L282 107 C276 59 232 30 193 30 C151 30 120 53 120 115 C120 148 128 169 142 185 C155 201 178 212 210 226 C238 239 268 253 282 270 Z M296 621 C296 671 260 704 215 704 C170 704 133 671 133 621 C133 571 170 538 215 538 C258 538 295 571 296 621 Z M162 621 C162 658 182 683 215 683 C247 683 268 658 268 621 C268 584 247 559 215 559 C182 559 162 584 162 621 Z " />
<glyph glyph-name="ae" unicode="&#xe6;" horiz-adv-x="712" d="M496 -9 C594 -9 655 49 683 137 L661 147 C640 83 603 26 515 26 C475 26 446 39 422 65 C390 99 376 179 378 258 L677 258 C679 271 680 291 680 306 C680 384 625 480 495 480 C437 480 383 451 352 409 L345 409 C329 457 278 480 215 480 C161 480 103 459 77 431 C64 418 56 402 56 382 C56 357 74 341 97 341 C125 341 143 353 146 388 C148 416 152 433 167 443 C180 452 197 457 217 457 C258 457 282 439 282 390 L282 312 C275 286 247 262 184 244 C133 228 96 220 62 189 C39 168 30 137 30 109 C30 33 86 -9 157 -9 C228 -9 282 32 305 102 L311 102 C322 82 333 66 349 50 C383 16 431 -9 496 -9 Z M589 333 C589 293 581 283 550 283 L381 283 C386 355 403 407 428 430 C447 448 470 457 495 457 C528 457 545 448 561 432 C580 413 589 381 589 333 Z M282 269 L282 112 C277 68 230 29 191 29 C149 29 120 54 120 116 C120 146 127 167 141 183 C154 198 177 211 209 225 C236 237 268 252 282 269 Z " />
<glyph glyph-name="ccedilla" unicode="&#xe7;" horiz-adv-x="453" d="M321 -114 C321 -69 290 -39 235 -39 C218 -39 198 -44 188 -50 L203 -4 C218 -7 234 -9 252 -9 C352 -9 414 51 438 134 L415 142 C398 90 359 25 262 25 C233 25 203 37 184 55 C151 89 127 143 127 241 C127 338 150 401 185 431 C204 446 229 456 255 456 C301 456 318 439 330 388 C338 354 352 333 383 333 C409 333 427 347 427 378 C427 395 419 415 402 431 C379 455 341 481 255 481 C131 481 31 378 31 236 C31 143 64 78 113 39 C132 23 153 11 178 2 L156 -65 L179 -76 C187 -69 199 -64 212 -64 C237 -64 255 -80 255 -115 C255 -156 226 -171 191 -171 C169 -171 144 -164 128 -155 L116 -173 C135 -185 166 -196 200 -196 C267 -196 321 -173 321 -114 Z " />
<glyph glyph-name="egrave" unicode="&#xe8;" horiz-adv-x="476" d="M447 139 L425 147 C404 83 362 26 274 26 C233 26 200 39 177 64 C145 99 130 164 130 236 L130 258 L441 258 C443 271 444 291 444 307 C444 384 389 481 254 481 C133 481 31 377 31 235 C31 163 52 96 102 49 C140 12 191 -9 256 -9 C355 -9 419 50 447 139 Z M184 428 C204 446 229 455 255 455 C287 455 307 446 324 430 C343 410 352 382 352 333 C352 293 344 284 316 284 L132 284 C139 357 161 406 184 428 Z M330 541 L240 657 C215 688 198 710 171 710 C149 710 132 694 132 670 C132 647 148 630 181 612 C217 590 243 576 319 527 Z " />
<glyph glyph-name="eacute" unicode="&#xe9;" horiz-adv-x="476" d="M447 139 L425 147 C404 83 362 26 274 26 C233 26 200 39 177 64 C145 99 130 164 130 236 L130 258 L441 258 C443 271 444 291 444 307 C444 384 389 481 254 481 C133 481 31 377 31 235 C31 163 52 96 102 49 C140 12 191 -9 256 -9 C355 -9 419 50 447 139 Z M184 428 C204 446 229 455 255 455 C287 455 307 446 324 430 C343 410 352 382 352 333 C352 293 344 284 316 284 L132 284 C139 357 161 406 184 428 Z M154 541 L166 527 C242 574 267 590 305 612 C337 630 352 647 352 670 C352 694 338 710 315 710 C288 710 270 688 245 657 Z " />
<glyph glyph-name="ecircumflex" unicode="&#xea;" horiz-adv-x="476" d="M447 139 L425 147 C404 83 362 26 274 26 C233 26 200 39 177 64 C145 99 130 164 130 236 L130 258 L441 258 C443 271 444 291 444 307 C444 384 389 481 254 481 C133 481 31 377 31 235 C31 163 52 96 102 49 C140 12 191 -9 256 -9 C355 -9 419 50 447 139 Z M184 428 C204 446 229 455 255 455 C287 455 307 446 324 430 C343 410 352 382 352 333 C352 293 344 284 316 284 L132 284 C139 357 161 406 184 428 Z M378 549 C341 604 289 667 270 695 L225 695 C206 666 155 604 116 549 L132 535 L247 627 L363 535 Z " />
<glyph glyph-name="edieresis" unicode="&#xeb;" horiz-adv-x="476" d="M447 139 L425 147 C404 83 362 26 274 26 C233 26 200 39 177 64 C145 99 130 164 130 236 L130 258 L441 258 C443 271 444 291 444 307 C444 384 389 481 254 481 C133 481 31 377 31 235 C31 163 52 96 102 49 C140 12 191 -9 256 -9 C355 -9 419 50 447 139 Z M184 428 C204 446 229 455 255 455 C287 455 307 446 324 430 C343 410 352 382 352 333 C352 293 344 284 316 284 L132 284 C139 357 161 406 184 428 Z M336 568 C362 568 384 588 384 617 C384 646 362 667 336 667 C309 667 286 646 286 617 C286 589 309 568 336 568 Z M162 568 C189 568 211 588 211 617 C211 646 189 667 162 667 C136 667 114 646 114 617 C114 589 136 568 162 568 Z " />
<glyph glyph-name="igrave" unicode="&#xec;" horiz-adv-x="271" d="M182 370 C182 412 184 439 185 462 C185 467 182 469 178 469 L28 469 L28 451 C49 448 60 445 70 438 C80 431 85 423 88 410 C91 398 92 363 92 347 L92 115 C92 94 92 77 88 61 C83 44 73 34 58 27 C51 24 38 20 28 19 L28 0 L248 0 L248 19 C237 20 225 23 217 27 C201 34 193 44 187 65 C182 79 182 93 182 115 Z M203 541 L113 657 C88 688 71 710 44 710 C22 710 5 694 5 670 C5 647 21 630 54 612 C90 590 116 576 192 527 Z " />
<glyph glyph-name="iacute" unicode="&#xed;" horiz-adv-x="271" d="M182 370 C182 412 184 439 185 462 C185 467 182 469 178 469 L28 469 L28 451 C49 448 60 445 70 438 C80 431 85 423 88 410 C91 398 92 363 92 347 L92 115 C92 94 92 77 88 61 C83 44 73 34 58 27 C51 24 38 20 28 19 L28 0 L248 0 L248 19 C237 20 225 23 217 27 C201 34 193 44 187 65 C182 79 182 93 182 115 Z M33 542 L45 528 C121 575 146 591 184 613 C216 631 231 648 231 671 C231 695 217 711 194 711 C167 711 149 689 124 658 Z " />
<glyph glyph-name="icircumflex" unicode="&#xee;" horiz-adv-x="271" d="M251 549 C214 604 162 667 143 695 L98 695 C79 666 28 604 -11 549 L5 535 L120 627 L236 535 Z M182 370 C182 412 184 439 185 462 C185 467 182 469 178 469 L28 469 L28 451 C49 448 60 445 70 438 C80 431 85 423 88 410 C91 398 92 363 92 347 L92 115 C92 94 92 77 88 61 C83 44 73 34 58 27 C51 24 38 20 28 19 L28 0 L248 0 L248 19 C237 20 225 23 217 27 C201 34 193 44 187 65 C182 79 182 93 182 115 Z " />
<glyph glyph-name="idieresis" unicode="&#xef;" horiz-adv-x="271" d="M182 370 C182 412 184 439 185 462 C185 467 182 469 178 469 L28 469 L28 451 C49 448 60 445 70 438 C80 431 85 423 88 410 C91 398 92 363 92 347 L92 115 C92 94 92 77 88 61 C83 44 73 34 58 27 C51 24 38 20 28 19 L28 0 L248 0 L248 19 C237 20 225 23 217 27 C201 34 193 44 187 65 C182 79 182 93 182 115 Z M204 560 C230 560 252 580 252 609 C252 638 230 659 204 659 C177 659 154 638 154 609 C154 581 177 560 204 560 Z M30 560 C57 560 79 580 79 609 C79 638 57 659 30 659 C4 659 -18 638 -18 609 C-18 581 4 560 30 560 Z " />
<glyph glyph-name="eth" unicode="&#xf0;" horiz-adv-x="501" d="M255 -9 C377 -9 485 79 485 264 C485 424 419 531 336 605 L443 659 L435 685 L314 624 C264 664 210 693 162 715 L149 698 C198 669 240 640 274 603 L162 546 L170 520 L292 582 C324 543 348 495 366 431 L363 431 C336 465 299 479 253 479 C133 479 27 385 27 235 C27 92 124 -9 255 -9 Z M386 240 C385 152 363 86 333 48 C311 20 282 16 255 16 C229 16 202 23 177 50 C145 86 126 150 126 235 C126 321 144 389 178 425 C199 447 229 455 253 455 C282 455 310 449 334 421 C367 385 387 323 386 240 Z " />
<glyph glyph-name="ntilde" unicode="&#xf1;" horiz-adv-x="564" d="M481 126 L481 351 C481 400 464 433 439 453 C417 471 388 481 353 481 C312 481 277 470 251 451 C226 436 203 412 187 379 L181 379 C182 400 183 447 183 463 C183 468 181 469 176 469 L28 469 L28 451 C44 449 59 444 71 437 C81 431 87 423 90 410 C93 396 93 369 93 347 L93 134 C93 107 93 81 91 68 C86 44 76 34 55 26 C48 23 35 20 25 19 L25 0 L247 0 L247 19 C237 20 228 23 219 26 C199 35 191 46 188 64 C184 79 184 103 184 130 L184 263 C184 306 189 335 203 365 C224 413 268 437 313 437 C338 437 356 430 368 417 C383 401 390 381 390 344 L390 130 C390 103 390 80 385 63 C380 44 375 34 357 26 C349 23 336 20 327 19 L327 0 L545 0 L545 19 C536 20 523 23 516 26 C495 35 488 47 485 65 C482 79 481 102 481 126 Z M431 664 L413 670 C398 641 383 628 352 628 C311 628 275 659 231 659 C184 659 155 609 140 564 L157 558 C173 584 192 599 216 599 C256 599 288 568 338 568 C384 568 416 611 431 664 Z " />
<glyph glyph-name="ograve" unicode="&#xf2;" horiz-adv-x="521" d="M31 236 C31 84 138 -9 260 -9 C382 -9 489 84 489 237 C489 388 382 481 260 481 C138 481 31 388 31 236 Z M129 236 C129 337 149 395 185 428 C206 447 234 456 260 456 C286 456 314 448 335 428 C371 394 391 336 391 236 C391 137 370 77 335 44 C314 24 287 16 260 16 C233 16 206 24 184 45 C149 77 129 137 129 236 Z M333 541 L243 657 C218 688 201 710 174 710 C152 710 135 694 135 670 C135 647 151 630 184 612 C220 590 246 576 322 527 Z " />
<glyph glyph-name="oacute" unicode="&#xf3;" horiz-adv-x="521" d="M31 236 C31 84 138 -9 260 -9 C382 -9 489 84 489 237 C489 388 382 481 260 481 C138 481 31 388 31 236 Z M129 236 C129 337 149 395 185 428 C206 447 234 456 260 456 C286 456 314 448 335 428 C371 394 391 336 391 236 C391 137 370 77 335 44 C314 24 287 16 260 16 C233 16 206 24 184 45 C149 77 129 137 129 236 Z M163 541 L175 527 C251 574 276 590 314 612 C346 630 361 647 361 670 C361 694 347 710 324 710 C297 710 279 688 254 657 Z " />
<glyph glyph-name="ocircumflex" unicode="&#xf4;" horiz-adv-x="521" d="M385 549 C348 604 296 667 277 695 L232 695 C213 666 162 604 123 549 L139 535 L254 627 L370 535 Z M31 236 C31 84 138 -9 260 -9 C382 -9 489 84 489 237 C489 388 382 481 260 481 C138 481 31 388 31 236 Z M129 236 C129 337 149 395 185 428 C206 447 234 456 260 456 C286 456 314 448 335 428 C371 394 391 336 391 236 C391 137 370 77 335 44 C314 24 287 16 260 16 C233 16 206 24 184 45 C149 77 129 137 129 236 Z " />
<glyph glyph-name="otilde" unicode="&#xf5;" horiz-adv-x="521" d="M31 236 C31 84 138 -9 260 -9 C382 -9 489 84 489 237 C489 388 382 481 260 481 C138 481 31 388 31 236 Z M129 236 C129 337 149 395 185 428 C206 447 234 456 260 456 C286 456 314 448 335 428 C371 394 391 336 391 236 C391 137 370 77 335 44 C314 24 287 16 260 16 C233 16 206 24 184 45 C149 77 129 137 129 236 Z M409 664 L391 670 C376 641 361 628 330 628 C289 628 253 659 209 659 C162 659 133 609 118 564 L135 558 C151 584 170 599 194 599 C234 599 266 568 316 568 C362 568 394 611 409 664 Z " />
<glyph glyph-name="odieresis" unicode="&#xf6;" horiz-adv-x="520" d="M342 568 C368 568 390 588 390 617 C390 646 368 667 342 667 C315 667 292 646 292 617 C292 589 315 568 342 568 Z M168 568 C195 568 217 588 217 617 C217 646 195 667 168 667 C142 667 120 646 120 617 C120 589 142 568 168 568 Z M31 236 C31 84 138 -9 260 -9 C382 -9 489 84 489 237 C489 388 382 481 260 481 C138 481 31 388 31 236 Z M129 236 C129 337 149 395 185 428 C206 447 234 456 260 456 C286 456 314 448 335 428 C371 394 391 336 391 236 C391 137 370 77 335 44 C314 24 287 16 260 16 C233 16 206 24 184 45 C149 77 129 137 129 236 Z " />
<glyph glyph-name="divide" unicode="&#xf7;" horiz-adv-x="460" d="M281 404 C281 433 259 454 231 454 C203 454 182 433 182 404 C182 376 203 355 232 355 C259 355 281 377 281 404 Z M414 263 L414 292 L48 292 L48 263 Z M281 156 C281 184 259 206 231 206 C203 206 182 184 182 156 C182 128 203 106 232 106 C259 106 281 128 281 156 Z " />
<glyph glyph-name="oslash" unicode="&#xf8;" horiz-adv-x="519" d="M31 236 C31 139 74 66 137 26 L95 -53 L119 -64 L159 13 C190 -1 224 -9 260 -9 C382 -9 489 84 489 237 C489 332 446 404 384 444 L425 521 L403 533 L363 457 C331 472 296 481 260 481 C138 481 31 388 31 236 Z M129 236 C129 337 149 395 185 428 C206 447 234 456 260 456 C286 456 314 448 335 428 L343 419 L161 73 C140 108 129 160 129 236 Z M391 236 C391 137 370 77 335 44 C314 24 287 16 260 16 C233 16 206 24 184 45 L178 50 L359 396 C380 361 391 310 391 236 Z " />
<glyph glyph-name="ugrave" unicode="&#xf9;" horiz-adv-x="553" d="M466 119 L466 341 C466 398 468 435 468 462 C468 468 465 469 460 469 L308 469 L308 451 C324 450 340 446 352 439 C363 431 369 422 372 408 C375 396 375 368 375 353 L375 218 C375 183 374 153 369 128 C362 95 347 71 326 53 C307 35 284 26 260 26 C233 26 213 33 197 49 C179 68 173 93 173 132 L173 343 C173 393 174 435 176 462 C176 468 173 469 168 469 L16 469 L16 451 C35 450 50 446 61 438 C68 432 75 424 78 409 C81 397 82 376 82 353 L82 139 C82 85 92 58 109 36 C141 -2 186 -10 225 -10 C268 -10 301 2 325 21 C344 37 357 51 372 83 L379 83 C379 60 378 17 378 8 C378 2 381 -1 386 -1 C390 -1 522 0 533 0 L533 19 C521 20 505 22 496 27 C479 34 473 47 469 66 C466 82 466 101 466 119 Z M334 541 L244 657 C219 688 202 710 175 710 C153 710 136 694 136 670 C136 647 152 630 185 612 C221 590 247 576 323 527 Z " />
<glyph glyph-name="uacute" unicode="&#xfa;" horiz-adv-x="553" d="M466 119 L466 341 C466 398 468 435 468 462 C468 468 465 469 460 469 L308 469 L308 451 C324 450 340 446 352 439 C363 431 369 422 372 408 C375 396 375 368 375 353 L375 218 C375 183 374 153 369 128 C362 95 347 71 326 53 C307 35 284 26 260 26 C233 26 213 33 197 49 C179 68 173 93 173 132 L173 343 C173 393 174 435 176 462 C176 468 173 469 168 469 L16 469 L16 451 C35 450 50 446 61 438 C68 432 75 424 78 409 C81 397 82 376 82 353 L82 139 C82 85 92 58 109 36 C141 -2 186 -10 225 -10 C268 -10 301 2 325 21 C344 37 357 51 372 83 L379 83 C379 60 378 17 378 8 C378 2 381 -1 386 -1 C390 -1 522 0 533 0 L533 19 C521 20 505 22 496 27 C479 34 473 47 469 66 C466 82 466 101 466 119 Z M175 541 L187 527 C263 574 288 590 326 612 C358 630 373 647 373 670 C373 694 359 710 336 710 C309 710 291 688 266 657 Z " />
<glyph glyph-name="ucircumflex" unicode="&#xfb;" horiz-adv-x="553" d="M378 549 C341 604 289 667 270 695 L225 695 C206 666 155 604 116 549 L132 535 L247 627 L363 535 Z M466 119 L466 341 C466 398 468 435 468 462 C468 468 465 469 460 469 L308 469 L308 451 C324 450 340 446 352 439 C363 431 369 422 372 408 C375 396 375 368 375 353 L375 218 C375 183 374 153 369 128 C362 95 347 71 326 53 C307 35 284 26 260 26 C233 26 213 33 197 49 C179 68 173 93 173 132 L173 343 C173 393 174 435 176 462 C176 468 173 469 168 469 L16 469 L16 451 C35 450 50 446 61 438 C68 432 75 424 78 409 C81 397 82 376 82 353 L82 139 C82 85 92 58 109 36 C141 -2 186 -10 225 -10 C268 -10 301 2 325 21 C344 37 357 51 372 83 L379 83 C379 60 378 17 378 8 C378 2 381 -1 386 -1 C390 -1 522 0 533 0 L533 19 C521 20 505 22 496 27 C479 34 473 47 469 66 C466 82 466 101 466 119 Z " />
<glyph glyph-name="udieresis" unicode="&#xfc;" horiz-adv-x="553" d="M341 568 C367 568 389 588 389 617 C389 646 367 667 341 667 C314 667 291 646 291 617 C291 589 314 568 341 568 Z M167 568 C194 568 216 588 216 617 C216 646 194 667 167 667 C141 667 119 646 119 617 C119 589 141 568 167 568 Z M466 119 L466 341 C466 398 468 435 468 462 C468 468 465 469 460 469 L308 469 L308 451 C324 450 340 446 352 439 C363 431 369 422 372 408 C375 396 375 368 375 353 L375 218 C375 183 374 153 369 128 C362 95 347 71 326 53 C307 35 284 26 260 26 C233 26 213 33 197 49 C179 68 173 93 173 132 L173 343 C173 393 174 435 176 462 C176 468 173 469 168 469 L16 469 L16 451 C35 450 50 446 61 438 C68 432 75 424 78 409 C81 397 82 376 82 353 L82 139 C82 85 92 58 109 36 C141 -2 186 -10 225 -10 C268 -10 301 2 325 21 C344 37 357 51 372 83 L379 83 C379 60 378 17 378 8 C378 2 381 -1 386 -1 C390 -1 522 0 533 0 L533 19 C521 20 505 22 496 27 C479 34 473 47 469 66 C466 82 466 101 466 119 Z " />
<glyph glyph-name="yacute" unicode="&#xfd;" horiz-adv-x="482" d="M233 -65 C244 -38 376 285 395 337 C409 374 423 403 431 416 C440 430 449 437 457 442 C467 448 477 450 486 451 L486 469 L331 469 L331 451 C341 450 354 449 365 443 C376 437 384 427 384 407 C384 385 380 370 365 332 L280 117 L273 117 L191 336 C178 371 171 392 171 410 C171 428 178 436 188 441 C197 446 214 450 227 451 L227 469 L5 469 L5 451 C14 450 28 447 39 441 C52 432 58 422 67 401 C75 386 87 356 103 314 L213 38 C219 23 221 16 221 3 C221 -22 205 -58 200 -70 C182 -115 162 -155 138 -155 C129 -155 123 -153 118 -148 C114 -143 109 -135 103 -128 C91 -112 79 -104 57 -104 C33 -104 14 -124 14 -150 C14 -184 45 -208 86 -208 C132 -208 162 -189 184 -157 C206 -128 216 -106 233 -65 Z M180 541 L192 527 C268 574 293 590 331 612 C363 630 378 647 378 670 C378 694 364 710 341 710 C314 710 296 688 271 657 Z " />
<glyph glyph-name="thorn" unicode="&#xfe;" horiz-adv-x="539" d="M412 233 C412 84 363 15 286 15 C250 15 222 27 201 52 C181 77 170 112 170 174 L170 293 C170 339 188 386 212 410 C235 433 262 447 296 447 C361 447 412 398 412 233 Z M80 -81 C80 -103 79 -125 75 -141 C70 -163 61 -173 45 -179 C38 -182 24 -184 13 -185 L13 -204 L238 -204 L238 -185 C223 -184 210 -182 202 -179 C186 -173 177 -161 173 -140 C170 -123 170 -102 170 -81 L170 34 L176 34 C207 3 248 -10 293 -10 C401 -10 509 69 509 235 C509 412 414 480 316 480 C249 480 204 450 173 395 L169 395 L169 641 C169 643 170 692 170 705 C170 710 168 712 163 712 L11 712 L11 693 C28 692 45 688 58 680 C68 673 74 663 77 650 C79 636 80 609 80 593 Z " />
<glyph glyph-name="ydieresis" unicode="&#xff;" horiz-adv-x="482" d="M233 -65 C244 -38 376 285 395 337 C409 374 423 403 431 416 C440 430 449 437 457 442 C467 448 477 450 486 451 L486 469 L331 469 L331 451 C341 450 354 449 365 443 C376 437 384 427 384 407 C384 385 380 370 365 332 L280 117 L273 117 L191 336 C178 371 171 392 171 410 C171 428 178 436 188 441 C197 446 214 450 227 451 L227 469 L5 469 L5 451 C14 450 28 447 39 441 C52 432 58 422 67 401 C75 386 87 356 103 314 L213 38 C219 23 221 16 221 3 C221 -22 205 -58 200 -70 C182 -115 162 -155 138 -155 C129 -155 123 -153 118 -148 C114 -143 109 -135 103 -128 C91 -112 79 -104 57 -104 C33 -104 14 -124 14 -150 C14 -184 45 -208 86 -208 C132 -208 162 -189 184 -157 C206 -128 216 -106 233 -65 Z M353 568 C379 568 401 588 401 617 C401 646 379 667 353 667 C326 667 303 646 303 617 C303 589 326 568 353 568 Z M179 568 C206 568 228 588 228 617 C228 646 206 667 179 667 C153 667 131 646 131 617 C131 589 153 568 179 568 Z " />
<glyph glyph-name="dotlessi" unicode="&#x131;" horiz-adv-x="271" d="M182 370 C182 412 184 439 185 462 C185 467 182 469 178 469 L28 469 L28 451 C49 448 60 445 70 438 C80 431 85 423 88 410 C91 398 92 363 92 347 L92 115 C92 94 92 77 88 61 C83 44 73 34 58 27 C51 24 38 20 28 19 L28 0 L248 0 L248 19 C237 20 225 23 217 27 C201 34 193 44 187 65 C182 79 182 93 182 115 Z " />
<glyph glyph-name="Lslash" unicode="&#x141;" horiz-adv-x="578" d="M30 236 L117 272 L117 171 C117 118 114 86 105 62 C96 43 83 33 64 27 C55 24 44 22 31 21 L31 0 L540 0 L568 201 L547 201 C530 159 508 112 466 71 C441 46 413 26 350 26 L301 26 C271 26 245 32 231 56 C221 73 218 94 218 135 L218 314 L415 396 L415 426 L218 344 L218 502 C218 556 220 587 231 613 C240 632 254 641 269 646 C280 650 291 652 303 653 L303 673 L31 673 L31 653 C43 652 55 651 64 647 C83 641 95 632 104 613 C114 588 117 557 117 502 L117 302 L30 266 Z " />
<glyph glyph-name="lslash" unicode="&#x142;" horiz-adv-x="267" d="M177 609 C177 648 179 683 179 705 C179 710 177 712 172 712 L22 712 L22 693 C41 692 54 690 65 683 C74 676 79 668 83 654 C87 642 87 608 87 593 L87 342 L18 301 L18 269 L87 310 L87 119 C87 97 87 78 83 63 C78 44 68 34 53 27 C45 23 34 20 23 19 L23 0 L240 0 L240 19 C229 20 218 23 209 27 C195 34 185 44 180 65 C177 80 177 98 177 119 L177 364 L243 404 L243 436 L177 396 Z " />
<glyph glyph-name="OE" unicode="&#x152;" horiz-adv-x="989" d="M349 646 C483 646 505 625 505 335 C505 58 481 27 349 27 C306 27 272 35 240 57 C171 106 147 195 147 336 C147 470 172 565 239 614 C268 635 303 646 349 646 Z M953 185 L935 185 C917 148 894 104 857 69 C829 44 802 27 740 27 L699 27 C661 27 639 32 624 50 C608 70 606 113 606 149 L606 336 L673 336 C715 336 737 329 753 312 C776 290 785 256 789 227 L807 227 L807 470 L789 470 C785 442 777 409 753 386 C737 369 714 362 673 362 L606 362 L606 551 C606 584 609 609 622 628 C634 641 650 647 675 647 L732 647 C781 647 812 629 829 614 C863 587 888 549 910 504 L930 504 L904 673 L350 673 C163 673 34 536 34 336 C34 136 163 0 350 0 L927 0 Z " />
<glyph glyph-name="oe" unicode="&#x153;" horiz-adv-x="809" d="M779 137 L758 147 C737 83 696 26 606 26 C567 26 536 39 512 64 C479 99 470 164 470 236 L470 258 L769 258 C771 271 772 291 772 307 C772 384 722 481 587 481 C516 481 458 444 423 384 L419 384 C384 445 325 481 251 481 C129 481 32 388 32 237 C32 84 130 -9 251 -9 C321 -9 378 26 414 83 L419 83 C425 73 432 63 441 54 C475 16 521 -9 590 -9 C688 -9 752 49 779 137 Z M130 236 C130 336 142 397 179 429 C200 449 225 456 251 456 C277 456 302 449 323 429 C359 397 372 336 372 236 C372 137 359 76 323 42 C302 22 278 16 251 16 C224 16 200 22 179 42 C143 76 130 137 130 236 Z M520 428 C539 446 561 455 588 455 C620 455 641 446 658 430 C677 410 680 382 680 333 C680 293 672 284 644 284 L472 284 C477 357 496 406 520 428 Z " />
<glyph glyph-name="Scaron" unicode="&#x160;" horiz-adv-x="515" d="M381 843 L369 857 L247 792 L126 857 L114 843 C141 812 206 747 222 730 L270 730 C287 747 353 812 381 843 Z M482 186 C482 306 401 346 284 400 C207 436 133 464 133 557 C133 627 188 658 245 658 C296 658 325 641 349 618 C382 590 409 542 426 490 L447 490 L430 675 L410 675 L391 637 L386 637 C354 666 315 686 245 686 C130 686 50 612 50 512 C50 396 138 347 233 304 C336 257 399 232 399 134 C399 67 353 14 259 14 C161 14 89 115 56 225 L36 225 L45 6 L60 6 L87 52 L93 52 C127 18 186 -14 260 -14 C376 -14 482 58 482 186 Z " />
<glyph glyph-name="scaron" unicode="&#x161;" horiz-adv-x="385" d="M323 677 L307 691 L192 596 L76 691 L60 677 C100 622 150 560 169 532 L214 532 C233 559 284 621 323 677 Z M369 136 C369 219 306 250 224 283 C144 315 112 336 112 387 C112 428 145 455 191 455 C223 455 247 446 264 431 C289 411 305 378 319 338 L338 338 L332 473 L318 473 L299 442 L293 442 C275 460 244 481 191 481 C98 481 41 425 41 355 C41 264 96 236 180 202 C263 167 299 148 299 91 C299 40 263 16 210 16 C135 16 81 76 55 168 L34 168 L38 1 L55 1 L77 40 L84 40 C114 10 162 -9 210 -9 C294 -9 369 36 369 136 Z " />
<glyph glyph-name="Ydieresis" unicode="&#x178;" horiz-adv-x="639" d="M265 289 L265 167 C265 114 263 82 251 61 C242 42 230 34 214 28 C204 24 193 21 180 20 L180 0 L452 0 L452 20 C439 21 428 23 417 27 C400 32 388 41 379 60 C368 85 366 113 366 167 L366 295 L499 529 C544 609 567 644 627 653 L627 673 L434 673 L434 653 C443 653 460 651 472 647 C486 642 496 633 496 613 C496 589 489 571 465 530 L355 334 L350 334 L225 553 C199 598 191 632 230 646 C239 649 255 652 273 653 L273 673 L6 673 L6 653 C45 645 68 626 105 560 Z M449 736 C478 736 501 758 501 789 C501 821 478 843 449 843 C420 843 397 821 397 790 C397 758 420 736 449 736 Z M240 736 C268 736 292 758 292 789 C292 821 269 843 240 843 C211 843 188 821 188 790 C188 758 211 736 240 736 Z " />
<glyph glyph-name="Zcaron" unicode="&#x17d;" horiz-adv-x="601" d="M444 847 L432 861 L310 796 L189 861 L177 847 C204 816 269 751 285 734 L333 734 C350 751 416 816 444 847 Z M557 673 L93 673 L51 496 L73 496 C102 546 131 584 166 609 C205 636 245 645 313 645 L435 645 L38 20 L38 0 L527 0 L580 192 L558 192 C530 146 504 96 439 59 C396 35 352 28 263 28 L160 28 L557 653 Z " />
<glyph glyph-name="zcaron" unicode="&#x17e;" horiz-adv-x="432" d="M371 677 L355 691 L240 596 L124 691 L108 677 C148 622 198 560 217 532 L262 532 C281 559 332 621 371 677 Z M413 152 L395 152 C385 132 355 85 335 60 C315 37 296 24 251 24 L134 24 L134 27 L401 455 L401 469 L71 469 L33 333 L53 333 C68 357 96 396 111 411 C133 436 151 445 181 445 L295 445 L295 441 L25 12 L25 0 L386 0 Z " />
<glyph glyph-name="uni0192" unicode="&#x192;" horiz-adv-x="423" d="M-62 -182 C18 -182 84 -119 128 23 C169 158 204 314 223 401 L324 401 L331 429 L229 429 C253 534 273 595 291 623 C304 649 320 653 336 653 C347 653 357 647 357 634 C357 623 353 614 353 601 C353 574 371 561 398 561 C423 561 441 577 441 606 C441 651 396 678 338 678 C238 678 179 583 137 429 L55 429 L48 401 L129 401 C87 236 57 63 7 -91 C-12 -146 -34 -158 -57 -158 C-71 -158 -78 -151 -80 -140 C-83 -124 -81 -112 -83 -96 C-86 -76 -101 -62 -124 -62 C-147 -62 -168 -78 -168 -108 C-168 -152 -123 -182 -62 -182 Z " />
<glyph glyph-name="circumflex" unicode="&#x2c6;" horiz-adv-x="386" d="M323 553 C286 608 234 671 215 699 L170 699 C151 670 100 608 61 553 L77 539 L192 631 L308 539 Z " />
<glyph glyph-name="caron" unicode="&#x2c7;" horiz-adv-x="386" d="M324 681 L308 695 L193 600 L77 695 L61 681 C101 626 151 564 170 536 L215 536 C234 563 285 625 324 681 Z " />
<glyph glyph-name="breve" unicode="&#x2d8;" horiz-adv-x="402" d="M200 542 C270 542 310 595 317 672 L299 677 C280 616 246 604 200 604 C156 604 122 616 102 677 L83 672 C91 595 132 542 200 542 Z " />
<glyph glyph-name="dotaccent" unicode="&#x2d9;" horiz-adv-x="344" d="M171 567 C207 567 230 592 230 624 C230 656 207 682 171 682 C137 682 114 657 114 624 C114 592 137 567 171 567 Z " />
<glyph glyph-name="ring" unicode="&#x2da;" horiz-adv-x="360" d="M261 621 C261 671 225 704 180 704 C135 704 98 671 98 621 C98 571 135 538 180 538 C223 538 260 571 261 621 Z M127 621 C127 658 147 683 180 683 C212 683 233 658 233 621 C233 584 212 559 180 559 C147 559 127 584 127 621 Z " />
<glyph glyph-name="ogonek" unicode="&#x2db;" horiz-adv-x="345" d="M243 -212 L243 -192 C193 -187 160 -166 160 -123 C160 -75 185 -34 233 1 L208 1 C136 -34 85 -76 85 -125 C85 -180 141 -219 243 -212 Z " />
<glyph glyph-name="tilde" unicode="&#x2dc;" horiz-adv-x="408" d="M348 664 L330 670 C315 641 300 628 269 628 C228 628 192 659 148 659 C101 659 72 609 57 564 L74 558 C90 584 109 599 133 599 C173 599 205 568 255 568 C301 568 333 611 348 664 Z " />
<glyph glyph-name="hungarumlaut" unicode="&#x2dd;" horiz-adv-x="419" d="M183 717 C160 716 146 700 132 670 L62 532 L77 522 C105 548 170 617 183 628 C203 648 216 661 216 684 C216 703 202 717 183 717 Z M340 717 C317 716 303 700 288 670 L219 532 L233 522 C262 548 327 617 339 628 C360 648 372 662 372 684 C372 703 358 717 340 717 Z " />
<glyph glyph-name="endash" unicode="&#x2013;" horiz-adv-x="500" d="M466 267 L466 307 L34 307 L34 267 Z " />
<glyph glyph-name="emdash" unicode="&#x2014;" horiz-adv-x="822" d="M789 267 L789 307 L34 307 L34 267 Z " />
<glyph glyph-name="quoteleft" unicode="&#x2018;" horiz-adv-x="218" d="M43 534 C43 487 72 463 107 463 C139 463 166 485 166 519 C166 550 150 567 117 579 C107 583 100 588 100 598 C100 627 126 647 184 669 L176 689 C102 663 43 621 43 534 Z " />
<glyph glyph-name="quoteright" unicode="&#x2019;" horiz-adv-x="218" d="M172 618 C172 664 142 689 107 689 C76 689 49 666 49 633 C49 601 66 584 99 573 C110 569 115 564 115 554 C115 526 88 505 31 482 L39 463 C113 489 172 531 172 618 Z " />
<glyph glyph-name="quotesinglbase" unicode="&#x201a;" horiz-adv-x="222" d="M173 27 C173 75 143 98 108 98 C77 98 50 75 50 42 C50 8 68 -8 100 -19 C110 -22 115 -26 115 -36 C115 -65 89 -86 31 -110 L40 -129 C113 -102 173 -59 173 27 Z " />
<glyph glyph-name="quotedblleft" unicode="&#x201c;" horiz-adv-x="386" d="M43 534 C43 487 73 463 108 463 C139 463 166 485 166 519 C166 550 149 568 117 579 C106 583 100 588 100 598 C100 627 127 647 185 669 L177 689 C103 663 43 621 43 534 Z M211 534 C211 487 240 463 275 463 C306 463 333 485 333 519 C333 550 317 567 285 579 C274 583 268 588 268 598 C268 627 294 647 352 669 L344 689 C270 663 211 621 211 534 Z " />
<glyph glyph-name="quotedblright" unicode="&#x201d;" horiz-adv-x="386" d="M172 618 C172 664 142 689 107 689 C76 689 49 666 49 633 C49 601 66 584 99 573 C109 569 115 564 115 554 C115 526 88 505 31 482 L39 463 C113 489 172 531 172 618 Z M339 618 C339 664 310 689 275 689 C243 689 216 666 216 633 C216 601 234 584 267 573 C277 569 282 564 282 554 C282 526 256 505 199 482 L206 463 C281 489 339 531 339 618 Z " />
<glyph glyph-name="quotedblbase" unicode="&#x201e;" horiz-adv-x="385" d="M174 27 C174 75 144 98 109 98 C77 98 51 75 51 42 C51 8 69 -8 101 -19 C111 -22 115 -26 115 -36 C115 -65 90 -86 32 -110 L40 -129 C114 -102 174 -59 174 27 Z M336 27 C336 75 306 98 272 98 C240 98 213 75 213 42 C213 8 232 -8 264 -19 C274 -22 278 -26 278 -36 C278 -65 253 -86 194 -110 L203 -129 C277 -102 336 -59 336 27 Z " />
<glyph glyph-name="dagger" unicode="&#x2020;" horiz-adv-x="456" d="M242 -147 L279 393 L246 457 C271 447 315 423 360 423 C401 423 439 449 439 500 C439 524 426 547 396 547 C373 547 358 531 358 508 C358 499 362 489 365 483 C370 476 376 470 376 462 C376 455 370 449 353 449 C316 449 275 471 247 482 C248 545 278 570 278 633 C278 664 259 686 228 686 C198 686 179 664 179 633 C179 570 209 545 210 482 C182 471 141 449 103 449 C87 449 80 455 80 462 C80 470 86 477 90 483 C93 490 98 499 98 508 C98 531 84 547 59 547 C31 547 17 524 17 500 C17 449 57 423 97 423 C142 423 187 447 211 457 L177 393 L216 -147 Z " />
<glyph glyph-name="daggerdbl" unicode="&#x2021;" horiz-adv-x="460" d="M244 283 L281 401 L248 458 C273 448 317 425 362 425 C403 425 441 448 441 501 C441 525 428 547 398 547 C375 547 360 531 360 509 C360 499 364 489 367 485 C372 478 378 470 378 464 C378 455 372 449 355 449 C320 449 276 472 249 483 C250 545 280 570 280 633 C280 664 261 686 230 686 C200 686 181 664 181 633 C181 570 211 545 212 483 C184 472 141 449 105 449 C89 449 82 455 82 464 C82 470 88 478 92 485 C95 490 100 499 100 509 C100 531 86 547 61 547 C33 547 19 525 19 501 C19 448 59 425 99 425 C144 425 189 448 213 458 L179 401 L218 283 Z M244 255 L218 255 L179 136 L213 80 C189 90 144 114 99 114 C59 114 19 90 19 37 C19 13 33 -9 61 -9 C86 -9 100 7 100 29 C100 39 95 48 92 54 C88 60 82 68 82 75 C82 83 89 88 105 88 C143 88 184 67 212 55 C211 -8 181 -32 181 -95 C181 -126 200 -147 230 -147 C261 -147 280 -126 280 -95 C280 -32 250 -8 249 55 C276 67 318 88 355 88 C372 88 378 83 378 75 C378 68 372 61 367 54 C364 49 360 39 360 29 C360 7 375 -9 398 -9 C428 -9 441 13 441 37 C441 90 403 114 362 114 C317 114 273 90 248 80 L281 136 Z " />
<glyph glyph-name="bullet" unicode="&#x2022;" horiz-adv-x="433" d="M215 440 C153 440 101 388 101 326 C101 262 153 213 215 213 C278 213 330 262 330 326 C330 388 279 440 215 440 Z " />
<glyph glyph-name="ellipsis" unicode="&#x2026;" horiz-adv-x="704" d="M575 -14 C609 -14 634 13 634 46 C634 78 609 105 575 105 C541 105 515 78 515 46 C515 13 540 -14 575 -14 Z M352 -14 C386 -14 411 13 411 46 C411 78 386 105 352 105 C317 105 292 78 292 46 C292 13 317 -14 352 -14 Z M129 -14 C162 -14 189 13 189 46 C189 78 163 105 129 105 C95 105 69 78 69 46 C69 13 94 -14 129 -14 Z " />
<glyph glyph-name="perthousand" unicode="&#x2030;" horiz-adv-x="1023" d="M319 510 C319 604 260 679 175 679 C91 679 32 603 32 508 C32 413 90 337 174 337 C258 337 319 415 319 510 Z M534 662 L510 676 L157 -3 L181 -16 Z M175 659 C224 659 249 608 249 510 C249 411 225 357 175 357 C125 357 102 411 102 508 C102 606 125 659 175 659 Z M520 328 C436 328 376 253 376 158 C376 64 434 -13 520 -13 C603 -13 663 64 663 159 C663 254 604 328 520 328 Z M853 328 C769 328 710 253 710 158 C710 64 768 -13 853 -13 C937 -13 996 64 996 159 C996 254 939 328 853 328 Z M591 159 C591 62 569 7 520 7 C469 7 447 58 447 158 C447 257 470 308 520 308 C568 308 591 256 591 159 Z M925 159 C925 62 903 7 853 7 C803 7 781 58 781 158 C781 257 804 308 853 308 C901 308 925 256 925 159 Z " />
<glyph glyph-name="guilsinglleft" unicode="&#x2039;" horiz-adv-x="267" d="M42 266 L42 248 L219 99 L237 117 L128 257 L236 398 L219 415 Z " />
<glyph glyph-name="guilsinglright" unicode="&#x203a;" horiz-adv-x="267" d="M225 266 L48 415 L30 398 L139 256 L30 117 L48 99 L225 248 Z " />
<glyph glyph-name="fraction" unicode="&#x2044;" horiz-adv-x="424" d="M464 715 L438 733 L-39 -7 L-15 -25 Z " />
<glyph glyph-name="Euro" unicode="&#x20ac;" horiz-adv-x="579" d="M565 219 L539 223 C511 96 460 26 363 26 C263 26 212 121 198 254 L325 254 L325 283 L196 283 C195 299 194 317 194 334 C194 350 194 366 195 381 L374 381 L374 409 L197 409 C211 558 266 653 361 653 C432 653 461 622 461 591 C461 581 459 572 455 558 C452 547 449 538 449 526 C449 493 469 472 504 472 C534 472 557 495 557 533 C557 606 485 678 362 678 C216 678 116 565 92 409 L12 409 L12 381 L88 381 C87 366 86 350 86 334 C86 316 87 299 88 283 L12 283 L12 254 L92 254 C115 91 210 -14 341 -14 C478 -14 542 82 565 219 Z " />
<glyph glyph-name="trademark" unicode="&#x2122;" horiz-adv-x="740" d="M306 697 L42 697 L27 603 L43 603 C53 624 61 645 85 664 C101 677 115 679 128 679 L145 679 L145 503 C145 472 144 460 141 449 C138 440 135 437 123 432 C118 431 110 428 101 427 L101 411 L249 411 L249 427 C241 428 231 430 226 432 C214 437 210 441 207 449 C205 459 203 472 203 503 L203 679 L220 679 C233 679 246 677 262 664 C285 645 294 624 304 603 L321 603 Z M719 411 L719 427 C712 428 706 429 698 432 C687 437 684 441 681 448 C677 457 677 471 677 503 L677 605 C677 635 677 652 681 661 C684 669 689 673 698 677 C703 679 712 681 719 682 L719 697 L603 697 L534 489 L530 489 L464 697 L343 697 L343 682 C349 681 360 678 365 676 C374 673 378 667 382 659 C386 649 387 634 387 600 L387 506 C387 472 385 457 382 448 C379 441 376 437 365 432 C359 429 350 428 343 427 L343 410 L454 410 L454 427 C445 428 439 429 432 432 C422 437 418 441 415 448 C412 457 410 472 410 506 L410 657 L414 657 L498 409 L531 409 L615 655 L619 655 L619 503 C619 481 618 461 615 448 C613 441 608 436 597 432 C594 431 582 428 574 427 L574 411 Z " />
<glyph glyph-name="minus" unicode="&#x2212;" horiz-adv-x="464" d="M421 263 L421 292 L44 292 L44 263 Z " />
<glyph glyph-name="Dcroat" unicode="&#x110;" horiz-adv-x="701" d="M32 331 L117 331 L117 182 C117 123 115 86 103 60 C95 42 83 34 64 27 C55 24 43 22 30 20 L30 0 L345 0 C409 0 467 18 509 40 C601 91 670 188 670 337 C670 484 600 583 507 632 C464 657 406 673 325 673 L30 673 L30 654 C43 653 54 651 64 648 C82 642 96 634 104 615 C114 590 117 550 117 491 L117 360 L32 360 Z M563 336 C563 209 526 130 476 80 C438 41 388 26 333 26 L300 26 C270 26 249 30 237 43 C220 60 219 89 219 134 L219 331 L382 331 L382 360 L219 360 L219 592 C219 611 219 628 229 636 C236 643 248 647 273 647 L319 647 C377 647 429 634 470 599 C525 550 563 461 563 336 Z " />
<glyph glyph-name="Eng" unicode="&#x14a;" horiz-adv-x="710" d="M458 -199 C507 -199 538 -185 563 -157 C586 -131 604 -88 604 -38 L604 525 C604 577 609 598 620 616 C630 634 642 641 657 646 C668 650 677 652 692 654 L692 673 L476 673 L476 654 C487 653 503 651 512 647 C529 641 541 634 553 619 C565 601 571 577 571 525 L571 172 L566 172 L216 673 L27 673 L27 654 C40 652 49 650 59 645 C83 635 99 619 109 599 C120 577 129 544 129 474 L129 147 C129 96 122 74 109 56 C98 39 86 31 69 26 C59 23 48 21 36 20 L36 0 L249 0 L249 20 C235 21 226 23 215 26 C199 31 187 39 177 57 C167 74 161 96 161 147 L161 562 L168 562 L571 -5 L571 -36 C571 -80 559 -116 536 -143 C518 -161 493 -171 467 -171 C448 -171 433 -164 428 -150 C426 -143 426 -134 428 -121 C430 -108 430 -95 427 -83 C424 -60 403 -43 377 -43 C347 -43 323 -64 323 -101 C323 -128 336 -148 350 -162 C374 -186 419 -199 458 -199 Z " />
<glyph glyph-name="IJ" unicode="&#x132;" horiz-adv-x="752" d="M217 491 C217 550 220 587 230 613 C239 632 252 640 269 646 C280 650 289 652 303 653 L303 673 L30 673 L30 653 C43 652 56 649 64 646 C82 640 93 632 103 613 C114 587 116 550 116 491 L116 182 C116 124 114 88 103 62 C94 42 81 33 63 27 C54 24 43 21 30 20 L30 0 L303 0 L303 20 C290 21 279 24 269 28 C253 33 240 42 230 60 C220 84 217 124 217 182 Z M546 489 L546 155 C546 121 545 72 529 44 C516 21 499 14 477 14 C459 14 439 22 435 38 C432 48 432 53 432 66 C433 80 433 95 428 109 C422 128 405 141 382 141 C351 141 329 119 329 85 C329 57 344 32 360 17 C387 -6 429 -14 464 -14 C516 -14 561 3 592 35 C619 64 646 108 646 202 L646 489 C646 548 649 586 660 612 C669 632 683 640 699 646 C709 650 719 652 732 653 L732 673 L459 673 L459 653 C473 652 483 650 494 646 C511 640 523 631 532 613 C544 586 546 548 546 489 Z " />
<glyph glyph-name="dcroat" unicode="&#x111;" horiz-adv-x="544" d="M243 570 L371 570 L371 421 L367 421 C350 451 318 481 250 481 C144 481 31 404 31 236 C31 74 131 -9 232 -9 C303 -9 351 28 372 79 L378 79 L378 32 C378 22 378 11 379 4 C380 0 382 -2 387 -2 C391 -2 518 -1 527 -1 L527 18 C517 19 502 22 492 28 C476 35 468 47 465 65 C462 80 462 101 462 119 L462 552 L462 570 L538 570 L538 595 L462 595 C462 639 464 680 465 704 C465 710 464 712 459 712 L301 712 L301 694 C319 692 334 690 347 683 C357 677 364 671 367 656 C369 645 370 618 371 595 L243 595 Z M371 170 C371 89 329 23 259 23 C187 23 128 76 128 235 C128 387 188 452 261 452 C296 452 318 441 338 420 C359 396 371 364 371 314 Z " />
<glyph glyph-name="eng" unicode="&#x14b;" horiz-adv-x="544" d="M390 -61 C390 -109 384 -139 372 -158 C361 -176 346 -181 324 -181 C298 -181 284 -171 284 -151 C284 -147 285 -142 287 -134 C289 -125 290 -115 290 -108 C290 -81 274 -66 244 -66 C218 -66 197 -84 197 -115 C197 -144 212 -168 238 -184 C260 -198 286 -205 321 -205 C368 -205 398 -190 421 -170 C450 -144 481 -99 481 20 L481 348 C481 397 465 431 440 452 C417 470 388 480 353 480 C312 480 276 469 250 450 C226 435 203 412 187 379 L181 379 C181 399 183 458 183 463 C183 468 181 469 176 469 L28 469 L28 451 C44 449 59 444 71 437 C82 430 87 423 90 410 C93 396 93 369 93 347 L93 134 C93 107 93 81 91 68 C86 44 76 34 55 26 C48 23 35 20 25 19 L25 0 L248 0 L248 19 C238 20 228 23 219 26 C199 35 192 44 188 64 C184 79 184 103 184 130 L184 262 C184 305 189 336 203 365 C225 412 268 436 313 436 C338 436 356 429 368 417 C383 400 390 379 390 343 Z " />
<glyph glyph-name="ij" unicode="&#x133;" horiz-adv-x="492" d="M135 568 C170 568 194 593 194 625 C194 657 171 683 135 683 C101 683 79 658 79 625 C79 593 101 568 135 568 Z M180 371 C180 414 182 439 183 462 C183 467 180 469 176 469 L26 469 L26 451 C47 448 58 444 68 437 C78 431 82 423 86 410 C89 398 90 363 90 347 L90 115 C90 94 90 77 86 61 C82 45 72 34 56 27 C49 23 36 20 26 19 L26 0 L246 0 L246 19 C235 20 222 23 215 27 C201 34 189 42 185 61 C182 74 180 95 180 115 Z M372 568 C407 568 430 593 430 625 C430 657 407 683 372 683 C338 683 315 658 315 625 C315 593 338 568 372 568 Z M329 -61 C329 -109 322 -139 311 -158 C299 -176 284 -181 262 -181 C236 -181 223 -171 223 -151 C223 -146 224 -142 225 -135 C227 -127 230 -121 230 -109 C230 -82 212 -66 183 -66 C157 -66 136 -84 136 -115 C136 -144 150 -168 177 -184 C198 -198 224 -205 259 -205 C306 -205 335 -190 358 -170 C388 -144 419 -99 419 20 L419 370 C419 411 421 438 421 462 C421 467 419 469 414 469 L264 469 L264 451 C283 448 296 444 307 438 C316 432 322 423 325 410 C328 397 329 366 329 348 Z " />
<glyph glyph-name="Abreve" unicode="&#x102;" horiz-adv-x="615" d="M274 522 L280 522 L371 259 L180 259 Z M195 20 C181 21 163 25 153 29 C136 35 124 50 124 75 C124 94 127 109 138 141 L170 231 L380 231 L407 153 C418 121 427 99 427 71 C427 46 409 34 396 29 C385 25 375 22 358 20 L358 0 L629 0 L629 20 C618 22 610 25 596 31 C581 39 567 50 553 73 C543 91 529 120 510 173 L333 678 L300 678 L106 148 C92 109 80 84 72 67 C62 50 52 39 42 33 C29 25 18 22 1 20 L1 0 L195 0 Z M314 728 C381 728 426 770 447 852 L428 858 C400 806 357 790 313 790 C270 790 230 803 199 858 L181 852 C200 770 247 728 314 728 Z " />
<glyph glyph-name="Amacron" unicode="&#x100;" horiz-adv-x="615" d="M274 522 L280 522 L371 259 L180 259 Z M195 20 C181 21 163 25 153 29 C136 35 124 50 124 75 C124 94 127 109 138 141 L170 231 L380 231 L407 153 C418 121 427 99 427 71 C427 46 409 34 396 29 C385 25 375 22 358 20 L358 0 L629 0 L629 20 C618 22 610 25 596 31 C581 39 567 50 553 73 C543 91 529 120 510 173 L333 678 L300 678 L106 148 C92 109 80 84 72 67 C62 50 52 39 42 33 C29 25 18 22 1 20 L1 0 L195 0 Z M445 746 L445 790 L190 790 L190 746 Z " />
<glyph glyph-name="Aogonek" unicode="&#x104;" horiz-adv-x="634" d="M425 91 C430 77 435 63 435 52 C435 22 417 7 380 -15 C334 -44 287 -79 287 -127 C287 -183 352 -218 451 -212 L451 -192 C398 -187 365 -167 365 -121 C365 -86 375 -46 408 -22 C429 -6 449 -1 511 0 L625 0 L625 20 C614 22 604 26 592 31 C576 37 563 47 548 73 C537 91 525 119 507 173 L332 678 L298 678 L107 148 C91 106 81 82 73 65 C63 48 52 38 42 31 C29 24 18 22 2 20 L2 0 L195 0 L195 20 C181 21 163 25 153 29 C136 35 124 51 124 75 C124 93 129 111 138 140 L171 238 L376 238 Z M272 522 L279 522 L366 266 L182 266 Z " />
<glyph glyph-name="Aringacute" unicode="&#x1fa;" horiz-adv-x="614" d="M274 522 L280 522 L371 259 L180 259 Z M195 20 C181 21 163 25 153 29 C136 35 124 50 124 75 C124 94 127 109 138 141 L170 231 L380 231 L407 153 C418 121 427 99 427 71 C427 46 409 34 396 29 C385 25 375 22 358 20 L358 0 L629 0 L629 20 C618 22 610 25 596 31 C581 39 567 50 553 73 C543 91 529 120 510 173 L333 678 L300 678 L106 148 C92 109 80 84 72 67 C62 50 52 39 42 33 C29 25 18 22 1 20 L1 0 L195 0 Z M201 910 L207 892 C252 901 347 928 369 932 C404 941 435 952 435 987 C435 1010 418 1027 394 1027 C369 1027 354 1015 324 995 C289 971 257 948 201 910 Z M397 798 C397 848 360 882 315 882 C271 882 233 848 233 798 C233 748 271 716 315 716 C359 716 396 748 397 798 Z M262 798 C262 835 282 860 315 860 C347 860 369 835 369 798 C369 761 347 736 315 736 C283 736 262 761 262 798 Z " />
<glyph glyph-name="AEacute" unicode="&#x1fc;" horiz-adv-x="898" d="M489 748 L495 730 C540 739 635 766 657 770 C692 779 723 790 723 825 C723 848 706 865 682 865 C657 865 642 853 612 833 C577 809 545 786 489 748 Z M422 622 L422 290 L229 290 L417 622 Z M184 20 C170 21 156 24 144 28 C126 34 117 46 117 67 C117 88 126 108 146 143 L213 262 L422 262 L422 162 C422 103 420 82 408 59 C399 42 387 32 368 25 C360 23 348 21 336 20 L336 0 L835 0 L862 185 L844 185 C826 148 808 108 766 70 C740 45 709 26 653 26 L611 26 C586 26 562 31 548 43 C525 60 524 105 524 146 L524 336 L586 336 C627 336 650 329 667 312 C691 290 698 256 702 227 L722 227 L722 470 L702 470 C698 442 691 407 667 386 C650 369 628 362 586 362 L524 362 L524 551 C524 580 523 615 546 635 C558 645 574 647 588 647 L640 647 C689 647 722 629 739 614 C773 587 795 548 817 504 L837 504 L810 673 L335 673 L335 654 C347 652 358 651 367 648 C376 644 384 641 391 637 L114 148 C94 113 80 93 68 76 C54 57 46 48 32 37 C20 29 7 23 -11 20 L-11 0 L184 0 Z " />
<glyph glyph-name="Cacute" unicode="&#x106;" horiz-adv-x="642" d="M360 658 C431 658 469 637 505 597 C535 562 560 513 578 442 L599 442 L599 665 L583 665 L557 623 L552 623 C518 654 457 686 359 686 C190 686 35 546 35 337 C35 122 171 -14 350 -14 C491 -14 577 63 619 181 L597 191 C553 71 465 32 380 32 C327 32 290 39 250 68 C197 107 147 178 147 338 C147 490 192 571 241 613 C280 649 320 658 360 658 Z M270 750 L276 732 C321 741 416 768 438 772 C473 781 504 792 504 827 C504 850 487 867 463 867 C438 867 423 855 393 835 C358 811 326 788 270 750 Z " />
<glyph glyph-name="Ccaron" unicode="&#x10c;" horiz-adv-x="642" d="M487 843 L475 857 L353 792 L232 857 L220 843 C247 812 312 747 328 730 L376 730 C393 747 459 812 487 843 Z M360 658 C431 658 469 637 505 597 C535 562 560 513 578 442 L599 442 L599 665 L583 665 L557 623 L552 623 C518 654 457 686 359 686 C190 686 35 546 35 337 C35 122 171 -14 350 -14 C491 -14 577 63 619 181 L597 191 C553 71 465 32 380 32 C327 32 290 39 250 68 C197 107 147 178 147 338 C147 490 192 571 241 613 C280 649 320 658 360 658 Z " />
<glyph glyph-name="Ccircumflex" unicode="&#x108;" horiz-adv-x="642" d="M485 744 C460 769 396 833 375 857 L326 857 C305 833 241 769 218 744 L230 728 L350 794 L473 728 Z M360 658 C431 658 469 637 505 597 C535 562 560 513 578 442 L599 442 L599 665 L583 665 L557 623 L552 623 C518 654 457 686 359 686 C190 686 35 546 35 337 C35 122 171 -14 350 -14 C491 -14 577 63 619 181 L597 191 C553 71 465 32 380 32 C327 32 290 39 250 68 C197 107 147 178 147 338 C147 490 192 571 241 613 C280 649 320 658 360 658 Z " />
<glyph glyph-name="Cdotaccent" unicode="&#x10a;" horiz-adv-x="642" d="M360 658 C431 658 469 637 505 597 C535 562 560 513 578 442 L599 442 L599 665 L583 665 L557 623 L552 623 C518 654 457 686 359 686 C190 686 35 546 35 337 C35 122 171 -14 350 -14 C491 -14 577 63 619 181 L597 191 C553 71 465 32 380 32 C327 32 290 39 250 68 C197 107 147 178 147 338 C147 490 192 571 241 613 C280 649 320 658 360 658 Z M352 739 C386 739 410 763 410 793 C410 824 387 848 352 848 C318 848 295 824 295 793 C295 763 318 739 352 739 Z " />
<glyph glyph-name="Dcaron" unicode="&#x10e;" horiz-adv-x="704" d="M454 843 L442 857 L320 792 L199 857 L187 843 C214 812 279 747 295 730 L343 730 C360 747 426 812 454 843 Z M30 673 L30 654 C43 653 54 651 64 648 C82 642 96 634 104 615 C114 590 117 550 117 491 L117 182 C117 123 115 86 103 60 C95 42 83 34 64 27 C55 24 43 22 30 20 L30 0 L345 0 C409 0 467 18 509 40 C601 91 670 188 670 337 C670 484 600 583 507 632 C464 657 406 673 325 673 Z M563 336 C563 209 526 130 476 80 C438 41 388 26 333 26 L300 26 C270 26 249 30 237 43 C220 60 219 89 219 134 L219 592 C219 611 219 628 229 636 C236 643 248 647 273 647 L319 647 C377 647 429 634 470 599 C525 550 563 461 563 336 Z " />
<glyph glyph-name="Ebreve" unicode="&#x114;" horiz-adv-x="606" d="M570 185 L552 185 C534 148 516 108 474 70 C449 45 420 26 355 26 L306 26 C281 26 255 30 242 41 C217 61 217 105 217 146 L217 336 L286 336 C327 336 350 329 367 312 C391 290 398 256 402 227 L422 227 L422 470 L402 470 C398 442 391 408 367 386 C350 369 328 362 286 362 L217 362 L217 551 C217 579 220 616 241 635 C251 644 269 647 283 647 L348 647 C397 647 431 629 447 614 C481 587 503 548 525 504 L545 504 L519 673 L30 673 L30 654 C43 653 54 651 63 648 C81 641 94 632 104 613 C114 587 117 550 117 492 L117 182 C117 123 115 85 103 59 C94 42 81 34 62 27 C54 24 43 21 30 20 L30 0 L544 0 Z M304 728 C371 728 416 770 437 852 L418 858 C390 806 347 790 303 790 C260 790 220 803 189 858 L171 852 C190 770 237 728 304 728 Z " />
<glyph glyph-name="Ecaron" unicode="&#x11a;" horiz-adv-x="606" d="M442 843 L430 857 L308 792 L187 857 L175 843 C202 812 267 747 283 730 L331 730 C348 747 414 812 442 843 Z M570 185 L552 185 C534 148 516 108 474 70 C449 45 420 26 355 26 L306 26 C281 26 255 30 242 41 C217 61 217 105 217 146 L217 336 L286 336 C327 336 350 329 367 312 C391 290 398 256 402 227 L422 227 L422 470 L402 470 C398 442 391 408 367 386 C350 369 328 362 286 362 L217 362 L217 551 C217 579 220 616 241 635 C251 644 269 647 283 647 L348 647 C397 647 431 629 447 614 C481 587 503 548 525 504 L545 504 L519 673 L30 673 L30 654 C43 653 54 651 63 648 C81 641 94 632 104 613 C114 587 117 550 117 492 L117 182 C117 123 115 85 103 59 C94 42 81 34 62 27 C54 24 43 21 30 20 L30 0 L544 0 Z " />
<glyph glyph-name="Edotaccent" unicode="&#x116;" horiz-adv-x="606" d="M307 739 C341 739 365 763 365 793 C365 824 342 848 307 848 C273 848 250 824 250 793 C250 763 273 739 307 739 Z M570 185 L552 185 C534 148 516 108 474 70 C449 45 420 26 355 26 L306 26 C281 26 255 30 242 41 C217 61 217 105 217 146 L217 336 L286 336 C327 336 350 329 367 312 C391 290 398 256 402 227 L422 227 L422 470 L402 470 C398 442 391 408 367 386 C350 369 328 362 286 362 L217 362 L217 551 C217 579 220 616 241 635 C251 644 269 647 283 647 L348 647 C397 647 431 629 447 614 C481 587 503 548 525 504 L545 504 L519 673 L30 673 L30 654 C43 653 54 651 63 648 C81 641 94 632 104 613 C114 587 117 550 117 492 L117 182 C117 123 115 85 103 59 C94 42 81 34 62 27 C54 24 43 21 30 20 L30 0 L544 0 Z " />
<glyph glyph-name="Emacron" unicode="&#x112;" horiz-adv-x="606" d="M570 185 L552 185 C534 148 516 108 474 70 C449 45 420 26 355 26 L306 26 C281 26 255 30 242 41 C217 61 217 105 217 146 L217 336 L286 336 C327 336 350 329 367 312 C391 290 398 256 402 227 L422 227 L422 470 L402 470 C398 442 391 408 367 386 C350 369 328 362 286 362 L217 362 L217 551 C217 579 220 616 241 635 C251 644 269 647 283 647 L348 647 C397 647 431 629 447 614 C481 587 503 548 525 504 L545 504 L519 673 L30 673 L30 654 C43 653 54 651 63 648 C81 641 94 632 104 613 C114 587 117 550 117 492 L117 182 C117 123 115 85 103 59 C94 42 81 34 62 27 C54 24 43 21 30 20 L30 0 L544 0 Z M429 746 L429 790 L174 790 L174 746 Z " />
<glyph glyph-name="Eogonek" unicode="&#x118;" horiz-adv-x="606" d="M434 0 C363 -35 312 -73 312 -125 C312 -183 377 -218 475 -212 L475 -192 C426 -187 390 -165 390 -123 C390 -73 415 -36 462 0 L541 0 L567 185 L549 185 C531 148 513 108 472 70 C445 45 415 26 350 26 L307 26 C281 26 254 32 241 44 C216 63 217 105 217 146 L217 336 L283 336 C325 336 347 329 364 312 C388 290 395 256 399 227 L418 227 L418 470 L399 470 C395 442 388 408 364 386 C347 369 324 362 283 362 L217 362 L217 551 C217 589 220 618 239 634 C250 645 270 647 286 647 L345 647 C394 647 427 629 444 614 C478 587 500 548 522 504 L542 504 L516 673 L31 673 L31 654 C42 653 54 651 63 648 C82 642 96 632 104 614 C114 587 117 551 117 491 L117 147 C117 105 114 81 103 59 C94 42 79 31 62 25 C54 22 42 21 31 20 L31 0 Z " />
<glyph glyph-name="Gbreve" unicode="&#x11e;" horiz-adv-x="704" d="M368 728 C435 728 480 770 501 852 L482 858 C454 806 411 790 367 790 C324 790 284 803 253 858 L235 852 C254 770 301 728 368 728 Z M501 189 L501 135 C501 79 492 53 482 42 C465 26 432 16 373 16 C327 16 296 25 260 47 C193 86 150 169 150 337 C150 498 198 582 245 619 C279 645 313 658 360 658 C441 658 481 634 518 585 C544 550 562 505 577 446 L598 446 L598 665 L581 665 L556 622 L551 622 C527 648 466 686 357 686 C194 686 36 552 36 337 C36 126 167 -14 374 -14 C420 -14 486 -5 524 3 C559 11 584 20 600 27 L600 154 C600 211 602 243 612 261 C621 278 633 286 650 292 C659 296 670 298 683 299 L683 319 L416 319 L416 299 C427 298 438 295 447 292 C466 286 476 280 486 263 C497 242 501 225 501 189 Z " />
<glyph glyph-name="Gcircumflex" unicode="&#x11c;" horiz-adv-x="704" d="M507 744 C482 769 418 833 397 857 L348 857 C327 833 263 769 240 744 L252 728 L372 794 L495 728 Z M501 189 L501 135 C501 79 492 53 482 42 C465 26 432 16 373 16 C327 16 296 25 260 47 C193 86 150 169 150 337 C150 498 198 582 245 619 C279 645 313 658 360 658 C441 658 481 634 518 585 C544 550 562 505 577 446 L598 446 L598 665 L581 665 L556 622 L551 622 C527 648 466 686 357 686 C194 686 36 552 36 337 C36 126 167 -14 374 -14 C420 -14 486 -5 524 3 C559 11 584 20 600 27 L600 154 C600 211 602 243 612 261 C621 278 633 286 650 292 C659 296 670 298 683 299 L683 319 L416 319 L416 299 C427 298 438 295 447 292 C466 286 476 280 486 263 C497 242 501 225 501 189 Z " />
<glyph glyph-name="uni0122" unicode="&#x122;" horiz-adv-x="704" d="M420 -115 C420 -74 396 -51 363 -51 C329 -51 310 -73 310 -100 C310 -129 327 -143 356 -153 C364 -155 369 -159 369 -168 C369 -195 339 -212 296 -227 L304 -245 C372 -223 420 -179 420 -115 Z M501 189 L501 135 C501 79 492 53 482 42 C465 26 432 16 373 16 C327 16 296 25 260 47 C193 86 150 169 150 337 C150 498 198 582 245 619 C279 645 313 658 360 658 C441 658 481 634 518 585 C544 550 562 505 577 446 L598 446 L598 665 L581 665 L556 622 L551 622 C527 648 466 686 357 686 C194 686 36 552 36 337 C36 126 167 -14 374 -14 C420 -14 486 -5 524 3 C559 11 584 20 600 27 L600 154 C600 211 602 243 612 261 C621 278 633 286 650 292 C659 296 670 298 683 299 L683 319 L416 319 L416 299 C427 298 438 295 447 292 C466 286 476 280 486 263 C497 242 501 225 501 189 Z " />
<glyph glyph-name="Gdotaccent" unicode="&#x120;" horiz-adv-x="704" d="M363 739 C397 739 421 763 421 793 C421 824 398 848 363 848 C329 848 306 824 306 793 C306 763 329 739 363 739 Z M501 189 L501 135 C501 79 492 53 482 42 C465 26 432 16 373 16 C327 16 296 25 260 47 C193 86 150 169 150 337 C150 498 198 582 245 619 C279 645 313 658 360 658 C441 658 481 634 518 585 C544 550 562 505 577 446 L598 446 L598 665 L581 665 L556 622 L551 622 C527 648 466 686 357 686 C194 686 36 552 36 337 C36 126 167 -14 374 -14 C420 -14 486 -5 524 3 C559 11 584 20 600 27 L600 154 C600 211 602 243 612 261 C621 278 633 286 650 292 C659 296 670 298 683 299 L683 319 L416 319 L416 299 C427 298 438 295 447 292 C466 286 476 280 486 263 C497 242 501 225 501 189 Z " />
<glyph glyph-name="Hbar" unicode="&#x126;" horiz-adv-x="739" d="M20 467 L119 467 L119 182 C119 124 118 87 106 61 C97 43 85 33 65 26 C58 24 46 21 33 20 L33 0 L302 0 L302 20 C292 21 283 23 275 26 C257 31 243 43 234 61 C222 87 220 123 220 182 L220 328 L526 328 L526 182 C526 124 523 88 512 61 C504 41 491 33 473 27 C464 23 456 21 444 20 L444 0 L713 0 L713 20 C700 21 690 23 680 27 C662 33 650 43 641 60 C629 83 627 125 627 182 L627 467 L720 467 L720 494 L627 494 C627 550 629 588 641 613 C650 632 662 640 677 646 C689 650 701 652 713 653 L713 673 L444 673 L444 653 C456 652 464 649 472 647 C484 642 504 632 512 613 C523 587 526 551 526 494 L220 494 C220 551 223 587 234 614 C243 632 256 642 275 648 C283 650 291 652 302 653 L302 673 L33 673 L33 653 C46 652 56 650 67 646 C83 641 96 632 106 613 C118 588 119 551 119 494 L20 494 Z M220 357 L220 467 L526 467 L526 357 Z " />
<glyph glyph-name="Hcircumflex" unicode="&#x124;" horiz-adv-x="739" d="M299 20 C289 21 280 23 272 26 C254 31 240 43 231 61 C219 87 217 123 217 182 L217 328 L523 328 L523 182 C523 124 520 88 509 61 C501 41 488 33 470 27 C461 23 453 21 441 20 L441 0 L710 0 L710 20 C697 21 687 23 677 27 C659 33 647 43 638 60 C626 83 624 125 624 182 L624 490 C624 549 626 588 638 613 C647 632 659 640 674 646 C686 650 698 652 710 653 L710 673 L441 673 L441 653 C453 652 461 649 469 647 C481 642 501 632 509 613 C520 587 523 550 523 492 L523 357 L217 357 L217 492 C217 550 220 587 231 614 C240 632 253 642 272 648 C280 650 288 652 299 653 L299 673 L30 673 L30 653 C43 652 53 650 64 646 C80 641 93 632 103 613 C115 588 116 550 116 491 L116 182 C116 124 115 87 103 61 C94 43 82 33 62 26 C55 24 43 21 30 20 L30 0 L299 0 Z M504 744 C479 769 415 833 394 857 L345 857 C324 833 260 769 237 744 L249 728 L369 794 L492 728 Z " />
<glyph glyph-name="Ibreve" unicode="&#x12c;" horiz-adv-x="333" d="M217 491 C217 550 220 587 230 613 C239 632 252 640 269 646 C280 650 289 652 303 653 L303 673 L30 673 L30 653 C43 652 56 649 64 646 C82 640 93 632 103 613 C114 587 116 550 116 491 L116 182 C116 124 114 88 103 62 C94 42 81 33 63 27 C54 24 43 21 30 20 L30 0 L303 0 L303 20 C290 21 279 24 269 28 C253 33 240 42 230 60 C220 84 217 124 217 182 Z M168 728 C235 728 280 770 301 852 L282 858 C254 806 211 790 167 790 C124 790 84 803 53 858 L35 852 C54 770 101 728 168 728 Z " />
<glyph glyph-name="Idotaccent" unicode="&#x130;" horiz-adv-x="333" d="M217 491 C217 550 220 587 230 613 C239 632 252 640 269 646 C280 650 289 652 303 653 L303 673 L30 673 L30 653 C43 652 56 649 64 646 C82 640 93 632 103 613 C114 587 116 550 116 491 L116 182 C116 124 114 88 103 62 C94 42 81 33 63 27 C54 24 43 21 30 20 L30 0 L303 0 L303 20 C290 21 279 24 269 28 C253 33 240 42 230 60 C220 84 217 124 217 182 Z M168 738 C202 738 226 762 226 792 C226 823 203 847 168 847 C134 847 111 823 111 792 C111 762 134 738 168 738 Z " />
<glyph glyph-name="Imacron" unicode="&#x12a;" horiz-adv-x="333" d="M217 491 C217 550 220 587 230 613 C239 632 252 640 269 646 C280 650 289 652 303 653 L303 673 L30 673 L30 653 C43 652 56 649 64 646 C82 640 93 632 103 613 C114 587 116 550 116 491 L116 182 C116 124 114 88 103 62 C94 42 81 33 63 27 C54 24 43 21 30 20 L30 0 L303 0 L303 20 C290 21 279 24 269 28 C253 33 240 42 230 60 C220 84 217 124 217 182 Z M295 746 L295 790 L40 790 L40 746 Z " />
<glyph glyph-name="Iogonek" unicode="&#x12e;" horiz-adv-x="334" d="M206 0 C131 -40 90 -75 90 -125 C90 -180 150 -218 254 -212 L254 -192 C202 -188 169 -165 169 -122 C169 -78 185 -40 232 0 L303 0 L303 20 C291 21 281 23 269 27 C253 33 241 43 232 60 C220 83 218 122 218 183 L218 488 C218 550 220 586 231 614 C241 632 253 641 270 646 C280 650 290 652 303 653 L303 673 L31 673 L31 653 C43 652 55 650 63 646 C82 641 93 633 103 614 C115 588 117 550 117 488 L117 183 C117 122 114 87 103 60 C94 42 81 33 63 27 C54 24 43 21 31 20 L31 0 Z " />
<glyph glyph-name="Itilde" unicode="&#x128;" horiz-adv-x="333" d="M217 491 C217 550 220 587 230 613 C239 632 252 640 269 646 C280 650 289 652 303 653 L303 673 L30 673 L30 653 C43 652 56 649 64 646 C82 640 93 632 103 613 C114 587 116 550 116 491 L116 182 C116 124 114 88 103 62 C94 42 81 33 63 27 C54 24 43 21 30 20 L30 0 L303 0 L303 20 C290 21 279 24 269 28 C253 33 240 42 230 60 C220 84 217 124 217 182 Z M321 835 L303 840 C287 811 270 799 241 799 C196 799 159 828 112 828 C66 828 35 776 19 730 L37 725 C52 751 74 767 97 767 C144 767 179 739 229 739 C276 739 307 786 321 835 Z " />
<glyph glyph-name="Jcircumflex" unicode="&#x134;" horiz-adv-x="432" d="M410 744 C385 769 321 833 300 857 L251 857 C230 833 166 769 143 744 L155 728 L275 794 L398 728 Z M227 489 L227 155 C227 121 226 72 210 44 C197 21 180 14 158 14 C140 14 120 22 116 38 C113 48 113 53 113 66 C114 80 114 95 109 109 C103 128 86 141 63 141 C32 141 10 119 10 85 C10 57 25 32 41 17 C68 -6 110 -14 145 -14 C197 -14 242 3 273 35 C300 64 327 108 327 202 L327 489 C327 548 330 586 341 612 C350 632 364 640 380 646 C390 650 400 652 413 653 L413 673 L140 673 L140 653 C154 652 164 650 175 646 C192 640 204 631 213 613 C225 586 227 548 227 489 Z " />
<glyph glyph-name="uni0136" unicode="&#x136;" horiz-adv-x="653" d="M418 -111 C418 -70 394 -47 361 -47 C327 -47 308 -69 308 -96 C308 -125 325 -139 354 -149 C362 -151 367 -155 367 -164 C367 -191 337 -208 294 -223 L302 -241 C370 -219 418 -175 418 -111 Z M302 20 C289 22 278 23 267 28 C251 34 238 42 229 61 C217 85 215 125 215 182 L215 296 L245 327 C263 346 287 361 314 361 C355 361 376 345 398 299 C412 270 422 225 428 155 C437 76 460 21 481 0 L646 0 L646 20 C632 23 605 31 590 41 C568 58 549 83 537 172 C523 266 498 309 466 342 C433 379 381 394 314 392 L314 398 L462 545 C501 585 534 611 560 628 C582 641 607 650 626 653 L626 673 L405 673 L405 653 C418 652 429 650 439 647 C453 641 464 636 464 615 C464 588 439 563 404 527 L215 337 L215 492 C215 552 218 586 229 613 C238 632 251 641 268 647 C277 650 289 652 302 653 L302 673 L28 673 L28 653 C43 652 54 650 61 647 C79 641 92 632 101 613 C112 588 114 550 114 492 L114 183 C114 124 112 87 101 61 C92 43 80 33 62 27 C53 23 42 21 28 20 L28 0 L302 0 Z " />
<glyph glyph-name="Lacute" unicode="&#x139;" horiz-adv-x="590" d="M47 748 L53 730 C98 739 193 766 215 770 C250 779 281 790 281 825 C281 848 264 865 240 865 C215 865 200 853 170 833 C135 809 103 786 47 748 Z M30 0 L539 0 L567 201 L546 201 C529 159 507 112 465 71 C440 46 412 26 349 26 L300 26 C270 26 244 32 230 56 C220 73 217 94 217 135 L217 502 C217 556 219 587 230 613 C239 632 253 641 268 646 C279 650 290 652 302 653 L302 673 L30 673 L30 653 C42 652 54 651 63 647 C82 641 94 632 103 613 C113 588 116 557 116 502 L116 171 C116 118 113 86 104 62 C95 43 82 33 63 27 C54 24 43 22 30 21 Z " />
<glyph glyph-name="Lcaron" unicode="&#x13d;" horiz-adv-x="590" d="M386 495 L410 495 C432 558 460 633 478 687 L405 687 Z M30 0 L539 0 L567 201 L546 201 C529 159 507 112 465 71 C440 46 412 26 349 26 L300 26 C270 26 244 32 230 56 C220 73 217 94 217 135 L217 502 C217 556 219 587 230 613 C239 632 253 641 268 646 C279 650 290 652 302 653 L302 673 L30 673 L30 653 C42 652 54 651 63 647 C82 641 94 632 103 613 C113 588 116 557 116 502 L116 171 C116 118 113 86 104 62 C95 43 82 33 63 27 C54 24 43 22 30 21 Z " />
<glyph glyph-name="uni013B" unicode="&#x13b;" horiz-adv-x="590" d="M367 -111 C367 -70 343 -47 310 -47 C276 -47 257 -69 257 -96 C257 -125 274 -139 303 -149 C311 -151 316 -155 316 -164 C316 -191 286 -208 243 -223 L251 -241 C319 -219 367 -175 367 -111 Z M30 0 L539 0 L567 201 L546 201 C529 159 507 112 465 71 C440 46 412 26 349 26 L300 26 C270 26 244 32 230 56 C220 73 217 94 217 135 L217 502 C217 556 219 587 230 613 C239 632 253 641 268 646 C279 650 290 652 302 653 L302 673 L30 673 L30 653 C42 652 54 651 63 647 C82 641 94 632 103 613 C113 588 116 557 116 502 L116 171 C116 118 113 86 104 62 C95 43 82 33 63 27 C54 24 43 22 30 21 Z " />
<glyph glyph-name="Ldot" unicode="&#x13f;" horiz-adv-x="577" d="M451 355 C451 362 445 367 441 367 C437 367 431 362 431 355 C431 348 437 344 440 344 C445 344 451 348 451 355 Z M30 0 L539 0 L567 201 L546 201 C529 159 507 112 465 71 C440 46 412 26 349 26 L300 26 C270 26 244 32 230 56 C220 73 217 94 217 135 L217 502 C217 556 219 587 230 613 C239 632 253 641 268 646 C279 650 290 652 302 653 L302 673 L30 673 L30 653 C42 652 54 651 63 647 C82 641 94 632 103 613 C113 588 116 557 116 502 L116 171 C116 118 113 86 104 62 C95 43 82 33 63 27 C54 24 43 22 30 21 Z " />
<glyph glyph-name="Nacute" unicode="&#x143;" horiz-adv-x="710" d="M283 748 L289 730 C334 739 429 766 451 770 C486 779 517 790 517 825 C517 848 500 865 476 865 C451 865 436 853 406 833 C371 809 339 786 283 748 Z M604 -8 L604 525 C604 577 609 598 620 616 C629 631 642 641 657 646 C668 650 677 652 692 654 L692 673 L476 673 L476 654 C487 653 503 651 512 647 C531 640 541 634 553 619 C565 601 571 577 571 525 L571 166 L566 166 L216 673 L27 673 L27 654 C40 652 49 650 59 645 C85 633 99 619 109 599 C120 577 129 544 129 474 L129 147 C129 96 121 74 109 56 C98 39 86 31 69 26 C60 23 48 21 36 20 L36 0 L249 0 L249 20 C235 21 226 23 215 26 C199 32 187 39 177 57 C167 74 161 96 161 147 L161 562 L168 562 L566 -8 Z " />
<glyph glyph-name="Ncaron" unicode="&#x147;" horiz-adv-x="710" d="M500 843 L488 857 L366 792 L245 857 L233 843 C260 812 325 747 341 730 L389 730 C406 747 472 812 500 843 Z M604 -8 L604 525 C604 577 609 598 620 616 C629 631 642 641 657 646 C668 650 677 652 692 654 L692 673 L476 673 L476 654 C487 653 503 651 512 647 C531 640 541 634 553 619 C565 601 571 577 571 525 L571 166 L566 166 L216 673 L27 673 L27 654 C40 652 49 650 59 645 C85 633 99 619 109 599 C120 577 129 544 129 474 L129 147 C129 96 121 74 109 56 C98 39 86 31 69 26 C60 23 48 21 36 20 L36 0 L249 0 L249 20 C235 21 226 23 215 26 C199 32 187 39 177 57 C167 74 161 96 161 147 L161 562 L168 562 L566 -8 Z " />
<glyph glyph-name="uni0145" unicode="&#x145;" horiz-adv-x="710" d="M418 -111 C418 -70 394 -47 361 -47 C327 -47 308 -69 308 -96 C308 -125 325 -139 354 -149 C362 -151 367 -155 367 -164 C367 -191 337 -208 294 -223 L302 -241 C370 -219 418 -175 418 -111 Z M604 -8 L604 525 C604 577 609 598 620 616 C629 631 642 641 657 646 C668 650 677 652 692 654 L692 673 L476 673 L476 654 C487 653 503 651 512 647 C531 640 541 634 553 619 C565 601 571 577 571 525 L571 166 L566 166 L216 673 L27 673 L27 654 C40 652 49 650 59 645 C85 633 99 619 109 599 C120 577 129 544 129 474 L129 147 C129 96 121 74 109 56 C98 39 86 31 69 26 C60 23 48 21 36 20 L36 0 L249 0 L249 20 C235 21 226 23 215 26 C199 32 187 39 177 57 C167 74 161 96 161 147 L161 562 L168 562 L566 -8 Z " />
<glyph glyph-name="Obreve" unicode="&#x14e;" horiz-adv-x="710" d="M352 728 C419 728 464 770 485 852 L466 858 C438 806 395 790 351 790 C308 790 268 803 237 858 L219 852 C238 770 285 728 352 728 Z M355 686 C174 686 35 536 35 336 C35 136 174 -14 355 -14 C536 -14 675 136 675 336 C675 536 536 686 355 686 Z M355 14 C305 14 267 29 235 57 C181 106 147 192 147 336 C147 480 181 566 234 613 C267 642 306 657 355 657 C404 657 443 642 475 614 C529 565 562 477 562 336 C562 190 528 103 475 57 C442 29 404 14 355 14 Z " />
<glyph glyph-name="Ohungarumlaut" unicode="&#x150;" horiz-adv-x="710" d="M531 897 C508 897 492 880 473 848 C464 831 423 760 402 726 L424 726 C477 766 502 786 526 806 C550 827 564 841 564 864 C564 884 550 897 531 897 Z M368 897 C346 897 329 880 310 848 C301 831 262 765 239 726 L260 726 C315 766 339 786 363 806 C387 827 401 841 401 864 C401 884 388 897 368 897 Z M355 686 C174 686 35 536 35 336 C35 136 174 -14 355 -14 C536 -14 675 136 675 336 C675 536 536 686 355 686 Z M355 14 C305 14 267 29 235 57 C181 106 147 192 147 336 C147 480 181 566 234 613 C267 642 306 657 355 657 C404 657 443 642 475 614 C529 565 562 477 562 336 C562 190 528 103 475 57 C442 29 404 14 355 14 Z " />
<glyph glyph-name="Omacron" unicode="&#x14c;" horiz-adv-x="710" d="M481 746 L481 790 L226 790 L226 746 Z M355 686 C174 686 35 536 35 336 C35 136 174 -14 355 -14 C536 -14 675 136 675 336 C675 536 536 686 355 686 Z M355 14 C305 14 267 29 235 57 C181 106 147 192 147 336 C147 480 181 566 234 613 C267 642 306 657 355 657 C404 657 443 642 475 614 C529 565 562 477 562 336 C562 190 528 103 475 57 C442 29 404 14 355 14 Z " />
<glyph glyph-name="Oslashacute" unicode="&#x1fe;" horiz-adv-x="710" d="M355 -14 C536 -14 675 136 675 336 C675 461 620 567 535 629 L589 721 L564 734 L511 644 C465 671 412 686 355 686 C174 686 35 536 35 336 C35 216 85 115 164 52 L106 -46 L131 -59 L187 36 C235 4 292 -14 355 -14 Z M355 14 C305 14 267 29 235 57 C227 64 220 72 213 81 L505 579 C541 527 562 448 562 336 C562 190 528 103 475 57 C442 29 404 14 355 14 Z M147 336 C147 480 181 566 234 613 C267 642 306 657 355 657 C404 657 443 642 475 614 L487 602 L195 106 C165 158 147 232 147 336 Z M261 748 L267 730 C312 739 407 766 429 770 C464 779 495 790 495 825 C495 848 478 865 454 865 C429 865 414 853 384 833 C349 809 317 786 261 748 Z " />
<glyph glyph-name="Racute" unicode="&#x154;" horiz-adv-x="662" d="M191 748 L197 730 C242 739 337 766 359 770 C394 779 425 790 425 825 C425 848 408 865 384 865 C359 865 344 853 314 833 C279 809 247 786 191 748 Z M316 647 C411 647 450 599 450 505 C450 457 441 422 421 396 C399 368 375 355 293 355 L216 355 L216 599 C216 622 218 631 226 638 C232 644 242 647 255 647 Z M304 20 C292 21 279 23 269 26 C251 32 237 42 229 60 C218 86 216 123 216 182 L216 329 L286 329 C337 329 371 324 393 296 C423 261 429 213 439 141 C449 73 467 26 489 0 L654 0 L654 20 C632 23 611 31 596 42 C574 59 555 95 538 185 C524 255 500 288 468 309 C445 324 415 333 383 337 L383 342 C428 350 460 362 482 377 C524 404 555 445 555 505 C555 616 469 673 332 673 L29 673 L29 654 C41 653 53 652 61 649 C79 642 93 632 101 616 C112 588 114 550 114 491 L114 182 C114 124 113 85 101 60 C92 41 80 33 62 26 C53 23 41 21 29 20 L29 0 L304 0 Z " />
<glyph glyph-name="Rcaron" unicode="&#x158;" horiz-adv-x="662" d="M437 843 L425 857 L303 792 L182 857 L170 843 C197 812 262 747 278 730 L326 730 C343 747 409 812 437 843 Z M316 647 C411 647 450 599 450 505 C450 457 441 422 421 396 C399 368 375 355 293 355 L216 355 L216 599 C216 622 218 631 226 638 C232 644 242 647 255 647 Z M304 20 C292 21 279 23 269 26 C251 32 237 42 229 60 C218 86 216 123 216 182 L216 329 L286 329 C337 329 371 324 393 296 C423 261 429 213 439 141 C449 73 467 26 489 0 L654 0 L654 20 C632 23 611 31 596 42 C574 59 555 95 538 185 C524 255 500 288 468 309 C445 324 415 333 383 337 L383 342 C428 350 460 362 482 377 C524 404 555 445 555 505 C555 616 469 673 332 673 L29 673 L29 654 C41 653 53 652 61 649 C79 642 93 632 101 616 C112 588 114 550 114 491 L114 182 C114 124 113 85 101 60 C92 41 80 33 62 26 C53 23 41 21 29 20 L29 0 L304 0 Z " />
<glyph glyph-name="uni0156" unicode="&#x156;" horiz-adv-x="662" d="M429 -110 C429 -69 405 -46 372 -46 C338 -46 319 -68 319 -95 C319 -124 336 -138 365 -148 C373 -150 378 -154 378 -163 C378 -190 348 -207 305 -222 L313 -240 C381 -218 429 -174 429 -110 Z M316 647 C411 647 450 599 450 505 C450 457 441 422 421 396 C399 368 375 355 293 355 L216 355 L216 599 C216 622 218 631 226 638 C232 644 242 647 255 647 Z M304 20 C292 21 279 23 269 26 C251 32 237 42 229 60 C218 86 216 123 216 182 L216 329 L286 329 C337 329 371 324 393 296 C423 261 429 213 439 141 C449 73 467 26 489 0 L654 0 L654 20 C632 23 611 31 596 42 C574 59 555 95 538 185 C524 255 500 288 468 309 C445 324 415 333 383 337 L383 342 C428 350 460 362 482 377 C524 404 555 445 555 505 C555 616 469 673 332 673 L29 673 L29 654 C41 653 53 652 61 649 C79 642 93 632 101 616 C112 588 114 550 114 491 L114 182 C114 124 113 85 101 60 C92 41 80 33 62 26 C53 23 41 21 29 20 L29 0 L304 0 Z " />
<glyph glyph-name="Sacute" unicode="&#x15a;" horiz-adv-x="515" d="M482 186 C482 306 401 346 284 400 C207 436 133 464 133 557 C133 627 188 658 245 658 C296 658 325 641 349 618 C382 590 409 542 426 490 L447 490 L430 675 L410 675 L391 637 L386 637 C354 666 315 686 245 686 C130 686 50 612 50 512 C50 396 138 347 233 304 C336 257 399 232 399 134 C399 67 353 14 259 14 C161 14 89 115 56 225 L36 225 L45 6 L60 6 L87 52 L93 52 C127 18 186 -14 260 -14 C376 -14 482 58 482 186 Z M134 748 L140 730 C185 739 280 766 302 770 C337 779 368 790 368 825 C368 848 351 865 327 865 C302 865 287 853 257 833 C222 809 190 786 134 748 Z " />
<glyph glyph-name="uni015E" unicode="&#x15e;" horiz-adv-x="515" d="M352 -123 C352 -78 321 -48 266 -48 C249 -48 229 -53 219 -59 L234 -12 C242 -13 251 -14 260 -14 C376 -14 482 58 482 186 C482 306 401 346 284 400 C207 436 133 464 133 557 C133 627 188 658 245 658 C296 658 325 641 349 618 C382 590 409 542 426 490 L447 490 L430 675 L410 675 L391 637 L386 637 C354 666 315 686 245 686 C130 686 50 612 50 512 C50 396 138 347 233 304 C336 257 399 232 399 134 C399 67 353 14 259 14 C161 14 89 115 56 225 L36 225 L45 6 L60 6 L87 52 L93 52 C118 26 158 2 208 -8 L187 -74 L210 -85 C218 -78 230 -73 243 -73 C268 -73 286 -89 286 -124 C286 -165 257 -180 222 -180 C200 -180 175 -173 159 -164 L147 -182 C166 -194 197 -205 231 -205 C298 -205 352 -182 352 -123 Z " />
<glyph glyph-name="Scircumflex" unicode="&#x15c;" horiz-adv-x="515" d="M381 744 C356 769 292 833 271 857 L222 857 C201 833 137 769 114 744 L126 728 L246 794 L369 728 Z M482 186 C482 306 401 346 284 400 C207 436 133 464 133 557 C133 627 188 658 245 658 C296 658 325 641 349 618 C382 590 409 542 426 490 L447 490 L430 675 L410 675 L391 637 L386 637 C354 666 315 686 245 686 C130 686 50 612 50 512 C50 396 138 347 233 304 C336 257 399 232 399 134 C399 67 353 14 259 14 C161 14 89 115 56 225 L36 225 L45 6 L60 6 L87 52 L93 52 C127 18 186 -14 260 -14 C376 -14 482 58 482 186 Z " />
<glyph glyph-name="uni0218" unicode="&#x218;" horiz-adv-x="515" d="M318 -111 C318 -70 294 -47 261 -47 C227 -47 208 -69 208 -96 C208 -125 225 -139 254 -149 C262 -151 267 -155 267 -164 C267 -191 237 -208 194 -223 L202 -241 C270 -219 318 -175 318 -111 Z M482 186 C482 306 401 346 284 400 C207 436 133 464 133 557 C133 627 188 658 245 658 C296 658 325 641 349 618 C382 590 409 542 426 490 L447 490 L430 675 L410 675 L391 637 L386 637 C354 666 315 686 245 686 C130 686 50 612 50 512 C50 396 138 347 233 304 C336 257 399 232 399 134 C399 67 353 14 259 14 C161 14 89 115 56 225 L36 225 L45 6 L60 6 L87 52 L93 52 C127 18 186 -14 260 -14 C376 -14 482 58 482 186 Z " />
<glyph glyph-name="Tcaron" unicode="&#x164;" horiz-adv-x="639" d="M455 843 L443 857 L321 792 L200 857 L188 843 C215 812 280 747 296 730 L344 730 C361 747 427 812 455 843 Z M370 183 L370 646 L413 646 C458 646 490 638 528 611 C576 576 598 532 614 500 L633 500 L602 673 L37 673 L6 500 L25 500 C42 533 63 573 109 608 C147 638 181 646 225 646 L268 646 L268 182 C268 124 266 86 255 61 C245 42 233 33 214 27 C206 24 196 21 182 20 L182 0 L455 0 L455 20 C441 22 434 24 423 27 C406 32 393 41 384 60 C372 84 370 124 370 183 Z " />
<glyph glyph-name="Tcommaaccent" unicode="&#x162;" horiz-adv-x="639" d="M379 -111 C379 -70 355 -47 322 -47 C288 -47 269 -69 269 -96 C269 -125 286 -139 315 -149 C323 -151 328 -155 328 -164 C328 -191 298 -208 255 -223 L263 -241 C331 -219 379 -175 379 -111 Z M370 183 L370 646 L413 646 C458 646 490 638 528 611 C576 576 598 532 614 500 L633 500 L602 673 L37 673 L6 500 L25 500 C42 533 63 573 109 608 C147 638 181 646 225 646 L268 646 L268 182 C268 124 266 86 255 61 C245 42 233 33 214 27 C206 24 196 21 182 20 L182 0 L455 0 L455 20 C441 22 434 24 423 27 C406 32 393 41 384 60 C372 84 370 124 370 183 Z " />
<glyph glyph-name="uni021A" unicode="&#x21a;" horiz-adv-x="639" d="M379 -111 C379 -70 355 -47 322 -47 C288 -47 269 -69 269 -96 C269 -125 286 -139 315 -149 C323 -151 328 -155 328 -164 C328 -191 298 -208 255 -223 L263 -241 C331 -219 379 -175 379 -111 Z M370 183 L370 646 L413 646 C458 646 490 638 528 611 C576 576 598 532 614 500 L633 500 L602 673 L37 673 L6 500 L25 500 C42 533 63 573 109 608 C147 638 181 646 225 646 L268 646 L268 182 C268 124 266 86 255 61 C245 42 233 33 214 27 C206 24 196 21 182 20 L182 0 L455 0 L455 20 C441 22 434 24 423 27 C406 32 393 41 384 60 C372 84 370 124 370 183 Z " />
<glyph glyph-name="Tbar" unicode="&#x166;" horiz-adv-x="639" d="M370 183 L370 381 L524 381 L524 408 L370 408 L370 646 L413 646 C458 646 490 638 528 611 C576 576 598 532 614 500 L633 500 L602 673 L37 673 L6 500 L25 500 C42 533 63 573 109 608 C147 638 181 646 225 646 L268 646 L268 408 L114 408 L114 381 L268 381 L268 182 C268 124 266 86 255 61 C245 42 233 33 214 27 C206 24 196 21 182 20 L182 0 L455 0 L455 20 C441 22 434 24 423 27 C406 32 393 41 384 60 C372 84 370 124 370 183 Z " />
<glyph glyph-name="Ubreve" unicode="&#x16c;" horiz-adv-x="691" d="M590 226 L590 526 C590 578 595 599 605 615 C616 632 628 642 645 647 C655 651 665 652 679 654 L679 673 L460 673 L460 654 C472 653 487 651 499 647 C517 641 527 634 539 619 C551 602 558 578 558 526 L558 225 C558 164 547 120 529 89 C502 44 447 19 366 19 C288 19 231 47 211 114 C201 148 199 184 199 215 L199 492 C199 554 200 591 212 613 C221 630 235 640 251 646 C260 650 271 652 285 653 L285 673 L13 673 L13 653 C27 652 39 650 48 646 C64 641 77 634 85 615 C95 591 97 560 97 491 L97 251 C97 209 100 149 116 106 C150 22 247 -14 354 -14 C453 -14 526 22 557 73 C582 114 590 161 590 226 Z M367 728 C434 728 479 770 500 852 L481 858 C453 806 410 790 366 790 C323 790 283 803 252 858 L234 852 C253 770 300 728 367 728 Z " />
<glyph glyph-name="Uhungarumlaut" unicode="&#x170;" horiz-adv-x="691" d="M538 897 C515 897 499 880 480 848 C471 831 430 760 409 726 L431 726 C484 766 509 786 533 806 C557 827 571 841 571 864 C571 884 557 897 538 897 Z M375 897 C353 897 336 880 317 848 C308 831 269 765 246 726 L267 726 C322 766 346 786 370 806 C394 827 408 841 408 864 C408 884 395 897 375 897 Z M590 226 L590 526 C590 578 595 599 605 615 C616 632 628 642 645 647 C655 651 665 652 679 654 L679 673 L460 673 L460 654 C472 653 487 651 499 647 C517 641 527 634 539 619 C551 602 558 578 558 526 L558 225 C558 164 547 120 529 89 C502 44 447 19 366 19 C288 19 231 47 211 114 C201 148 199 184 199 215 L199 492 C199 554 200 591 212 613 C221 630 235 640 251 646 C260 650 271 652 285 653 L285 673 L13 673 L13 653 C27 652 39 650 48 646 C64 641 77 634 85 615 C95 591 97 560 97 491 L97 251 C97 209 100 149 116 106 C150 22 247 -14 354 -14 C453 -14 526 22 557 73 C582 114 590 161 590 226 Z " />
<glyph glyph-name="Umacron" unicode="&#x16a;" horiz-adv-x="691" d="M590 226 L590 526 C590 578 595 599 605 615 C616 632 628 642 645 647 C655 651 665 652 679 654 L679 673 L460 673 L460 654 C472 653 487 651 499 647 C517 641 527 634 539 619 C551 602 558 578 558 526 L558 225 C558 164 547 120 529 89 C502 44 447 19 366 19 C288 19 231 47 211 114 C201 148 199 184 199 215 L199 492 C199 554 200 591 212 613 C221 630 235 640 251 646 C260 650 271 652 285 653 L285 673 L13 673 L13 653 C27 652 39 650 48 646 C64 641 77 634 85 615 C95 591 97 560 97 491 L97 251 C97 209 100 149 116 106 C150 22 247 -14 354 -14 C453 -14 526 22 557 73 C582 114 590 161 590 226 Z M498 746 L498 790 L243 790 L243 746 Z " />
<glyph glyph-name="Uogonek" unicode="&#x172;" horiz-adv-x="691" d="M450 -212 L450 -192 C400 -187 366 -165 366 -121 C366 -71 397 -21 450 2 C499 24 528 39 550 74 C576 115 583 161 583 226 L583 525 C583 578 590 599 599 615 C610 633 623 641 640 647 C651 650 659 652 674 654 L674 673 L452 673 L452 654 C465 653 484 650 494 647 C511 642 521 634 533 619 C545 601 552 578 552 525 L552 221 C552 161 543 119 524 87 C496 44 441 21 360 21 C283 21 233 48 211 116 C200 149 199 185 199 216 L199 490 C199 554 200 590 212 614 C220 633 232 641 251 647 C260 650 272 652 285 653 L285 673 L12 673 L12 653 C25 652 37 650 46 647 C63 640 76 632 84 614 C97 588 97 559 97 489 L97 251 C97 192 103 148 119 106 C147 31 240 -12 344 -13 C365 -13 385 -9 401 -6 C324 -43 287 -83 287 -125 C287 -180 347 -218 450 -212 Z " />
<glyph glyph-name="Uring" unicode="&#x16e;" horiz-adv-x="691" d="M590 226 L590 526 C590 578 595 599 605 615 C616 632 628 642 645 647 C655 651 665 652 679 654 L679 673 L460 673 L460 654 C472 653 487 651 499 647 C517 641 527 634 539 619 C551 602 558 578 558 526 L558 225 C558 164 547 120 529 89 C502 44 447 19 366 19 C288 19 231 47 211 114 C201 148 199 184 199 215 L199 492 C199 554 200 591 212 613 C221 630 235 640 251 646 C260 650 271 652 285 653 L285 673 L13 673 L13 653 C27 652 39 650 48 646 C64 641 77 634 85 615 C95 591 97 560 97 491 L97 251 C97 209 100 149 116 106 C150 22 247 -14 354 -14 C453 -14 526 22 557 73 C582 114 590 161 590 226 Z M453 796 C453 846 416 880 371 880 C327 880 289 846 289 796 C289 746 327 714 371 714 C415 714 452 746 453 796 Z M318 796 C318 833 338 858 371 858 C403 858 425 833 425 796 C425 759 403 734 371 734 C339 734 318 759 318 796 Z " />
<glyph glyph-name="Utilde" unicode="&#x168;" horiz-adv-x="691" d="M590 226 L590 526 C590 578 595 599 605 615 C616 632 628 642 645 647 C655 651 665 652 679 654 L679 673 L460 673 L460 654 C472 653 487 651 499 647 C517 641 527 634 539 619 C551 602 558 578 558 526 L558 225 C558 164 547 120 529 89 C502 44 447 19 366 19 C288 19 231 47 211 114 C201 148 199 184 199 215 L199 492 C199 554 200 591 212 613 C221 630 235 640 251 646 C260 650 271 652 285 653 L285 673 L13 673 L13 653 C27 652 39 650 48 646 C64 641 77 634 85 615 C95 591 97 560 97 491 L97 251 C97 209 100 149 116 106 C150 22 247 -14 354 -14 C453 -14 526 22 557 73 C582 114 590 161 590 226 Z M523 835 L505 840 C489 811 472 799 443 799 C398 799 361 828 314 828 C268 828 237 776 221 730 L239 725 C254 751 276 767 299 767 C346 767 381 739 431 739 C478 739 509 786 523 835 Z " />
<glyph glyph-name="Wacute" unicode="&#x1e82;" horiz-adv-x="966" d="M391 751 L397 733 C442 742 537 769 559 773 C594 782 625 793 625 828 C625 851 608 868 584 868 C559 868 544 856 514 836 C479 812 447 789 391 751 Z M644 -5 L682 -5 L855 526 C867 564 878 593 888 609 C900 627 908 634 920 641 C931 648 944 651 962 654 L962 673 L769 673 L769 654 C786 652 801 649 812 644 C826 637 838 623 838 601 C838 582 832 561 822 526 L703 151 L697 151 L587 518 C578 549 568 578 568 605 C568 629 583 638 601 645 C611 649 626 652 644 654 L644 673 L368 673 L368 654 C386 651 399 646 411 638 C429 626 440 607 455 576 C459 568 469 542 474 529 L350 151 L345 151 L235 518 C223 554 214 580 214 605 C214 626 227 638 243 643 C253 648 270 652 289 654 L289 673 L11 673 L11 654 C29 651 42 647 61 632 C74 622 84 607 98 582 C107 566 115 544 126 511 L292 -5 L329 -5 L487 475 L491 475 Z " />
<glyph glyph-name="Wcircumflex" unicode="&#x174;" horiz-adv-x="961" d="M641 744 C616 769 552 833 531 857 L482 857 C461 833 397 769 374 744 L386 728 L506 794 L629 728 Z M644 -5 L682 -5 L855 526 C867 564 878 593 888 609 C900 627 908 634 920 641 C931 648 944 651 962 654 L962 673 L769 673 L769 654 C786 652 801 649 812 644 C826 637 838 623 838 601 C838 582 832 561 822 526 L703 151 L697 151 L587 518 C578 549 568 578 568 605 C568 629 583 638 601 645 C611 649 626 652 644 654 L644 673 L368 673 L368 654 C386 651 399 646 411 638 C429 626 440 607 455 576 C459 568 469 542 474 529 L350 151 L345 151 L235 518 C223 554 214 580 214 605 C214 626 227 638 243 643 C253 648 270 652 289 654 L289 673 L11 673 L11 654 C29 651 42 647 61 632 C74 622 84 607 98 582 C107 566 115 544 126 511 L292 -5 L329 -5 L487 475 L491 475 Z " />
<glyph glyph-name="Wdieresis" unicode="&#x1e84;" horiz-adv-x="966" d="M609 736 C638 736 661 758 661 789 C661 821 638 843 609 843 C580 843 557 821 557 790 C557 758 580 736 609 736 Z M400 736 C428 736 452 758 452 789 C452 821 429 843 400 843 C371 843 348 821 348 790 C348 758 371 736 400 736 Z M644 -5 L682 -5 L855 526 C867 564 878 593 888 609 C900 627 908 634 920 641 C931 648 944 651 962 654 L962 673 L769 673 L769 654 C786 652 801 649 812 644 C826 637 838 623 838 601 C838 582 832 561 822 526 L703 151 L697 151 L587 518 C578 549 568 578 568 605 C568 629 583 638 601 645 C611 649 626 652 644 654 L644 673 L368 673 L368 654 C386 651 399 646 411 638 C429 626 440 607 455 576 C459 568 469 542 474 529 L350 151 L345 151 L235 518 C223 554 214 580 214 605 C214 626 227 638 243 643 C253 648 270 652 289 654 L289 673 L11 673 L11 654 C29 651 42 647 61 632 C74 622 84 607 98 582 C107 566 115 544 126 511 L292 -5 L329 -5 L487 475 L491 475 Z " />
<glyph glyph-name="Wgrave" unicode="&#x1e80;" horiz-adv-x="966" d="M618 748 C566 784 531 810 495 834 C466 853 450 865 425 865 C402 865 385 848 385 825 C385 790 416 780 450 770 C473 765 573 737 612 729 Z M644 -5 L682 -5 L855 526 C867 564 878 593 888 609 C900 627 908 634 920 641 C931 648 944 651 962 654 L962 673 L769 673 L769 654 C786 652 801 649 812 644 C826 637 838 623 838 601 C838 582 832 561 822 526 L703 151 L697 151 L587 518 C578 549 568 578 568 605 C568 629 583 638 601 645 C611 649 626 652 644 654 L644 673 L368 673 L368 654 C386 651 399 646 411 638 C429 626 440 607 455 576 C459 568 469 542 474 529 L350 151 L345 151 L235 518 C223 554 214 580 214 605 C214 626 227 638 243 643 C253 648 270 652 289 654 L289 673 L11 673 L11 654 C29 651 42 647 61 632 C74 622 84 607 98 582 C107 566 115 544 126 511 L292 -5 L329 -5 L487 475 L491 475 Z " />
<glyph glyph-name="Ycircumflex" unicode="&#x176;" horiz-adv-x="639" d="M265 289 L265 167 C265 114 263 82 251 61 C242 42 230 34 214 28 C204 24 193 21 180 20 L180 0 L452 0 L452 20 C439 21 428 23 417 27 C400 32 388 41 379 60 C368 85 366 113 366 167 L366 295 L499 529 C544 609 567 644 627 653 L627 673 L434 673 L434 653 C443 653 460 651 472 647 C486 642 496 633 496 613 C496 589 489 571 465 530 L355 334 L350 334 L225 553 C199 598 191 632 230 646 C239 649 255 652 273 653 L273 673 L6 673 L6 653 C45 645 68 626 105 560 Z M477 744 C452 769 388 833 367 857 L318 857 C297 833 233 769 210 744 L222 728 L342 794 L465 728 Z " />
<glyph glyph-name="Ygrave" unicode="&#x1ef2;" horiz-adv-x="638" d="M265 289 L265 167 C265 114 263 82 251 61 C242 42 230 34 214 28 C204 24 193 21 180 20 L180 0 L452 0 L452 20 C439 21 428 23 417 27 C400 32 388 41 379 60 C368 85 366 113 366 167 L366 295 L499 529 C544 609 567 644 627 653 L627 673 L434 673 L434 653 C443 653 460 651 472 647 C486 642 496 633 496 613 C496 589 489 571 465 530 L355 334 L350 334 L225 553 C199 598 191 632 230 646 C239 649 255 652 273 653 L273 673 L6 673 L6 653 C45 645 68 626 105 560 Z M429 748 C377 784 342 810 306 834 C277 853 261 865 236 865 C213 865 196 848 196 825 C196 790 227 780 261 770 C284 765 384 737 423 729 Z " />
<glyph glyph-name="Zacute" unicode="&#x179;" horiz-adv-x="601" d="M232 748 L238 730 C283 739 378 766 400 770 C435 779 466 790 466 825 C466 848 449 865 425 865 C400 865 385 853 355 833 C320 809 288 786 232 748 Z M557 673 L93 673 L51 496 L73 496 C102 546 131 584 166 609 C205 636 245 645 313 645 L435 645 L38 20 L38 0 L527 0 L580 192 L558 192 C530 146 504 96 439 59 C396 35 352 28 263 28 L160 28 L557 653 Z " />
<glyph glyph-name="Zdotaccent" unicode="&#x17b;" horiz-adv-x="601" d="M557 673 L93 673 L51 496 L73 496 C102 546 131 584 166 609 C205 636 245 645 313 645 L435 645 L38 20 L38 0 L527 0 L580 192 L558 192 C530 146 504 96 439 59 C396 35 352 28 263 28 L160 28 L557 653 Z M317 739 C351 739 375 763 375 793 C375 824 352 848 317 848 C283 848 260 824 260 793 C260 763 283 739 317 739 Z " />
<glyph glyph-name="abreve" unicode="&#x103;" horiz-adv-x="453" d="M449 14 L443 31 C434 26 421 23 411 23 C398 23 388 27 383 36 C375 47 372 64 372 112 L372 380 C372 452 310 481 219 481 C163 481 102 458 78 431 C64 418 56 401 56 382 C56 356 75 341 99 341 C127 341 143 354 146 388 C149 416 156 434 171 444 C184 452 201 457 221 457 C264 457 282 439 282 388 L282 312 C277 288 247 262 184 244 C132 227 96 220 62 189 C39 166 30 136 30 109 C30 32 83 -9 159 -9 C229 -9 267 30 281 61 L288 61 C290 28 298 12 313 2 C323 -5 338 -9 361 -9 C401 -9 436 4 449 14 Z M282 270 L282 107 C276 59 232 30 193 30 C151 30 120 53 120 115 C120 148 128 169 142 185 C155 201 178 212 210 226 C238 239 268 253 282 270 Z M219 542 C289 542 329 595 336 672 L318 677 C299 616 265 604 219 604 C175 604 141 616 121 677 L102 672 C110 595 151 542 219 542 Z " />
<glyph glyph-name="amacron" unicode="&#x101;" horiz-adv-x="453" d="M449 14 L443 31 C434 26 421 23 411 23 C398 23 388 27 383 36 C375 47 372 64 372 112 L372 380 C372 452 310 481 219 481 C163 481 102 458 78 431 C64 418 56 401 56 382 C56 356 75 341 99 341 C127 341 143 354 146 388 C149 416 156 434 171 444 C184 452 201 457 221 457 C264 457 282 439 282 388 L282 312 C277 288 247 262 184 244 C132 227 96 220 62 189 C39 166 30 136 30 109 C30 32 83 -9 159 -9 C229 -9 267 30 281 61 L288 61 C290 28 298 12 313 2 C323 -5 338 -9 361 -9 C401 -9 436 4 449 14 Z M282 270 L282 107 C276 59 232 30 193 30 C151 30 120 53 120 115 C120 148 128 169 142 185 C155 201 178 212 210 226 C238 239 268 253 282 270 Z M340 582 L340 620 L99 620 L99 582 Z " />
<glyph glyph-name="aogonek" unicode="&#x105;" horiz-adv-x="453" d="M429 -212 L429 -192 C378 -187 346 -166 346 -123 C346 -75 372 -32 421 -2 C433 4 445 11 449 14 L443 31 C434 27 421 23 411 23 C398 23 389 27 383 36 C375 47 372 64 372 112 L372 380 C372 452 310 481 219 481 C163 481 102 458 78 431 C64 418 56 401 56 382 C56 356 75 340 98 340 C128 340 143 354 146 388 C148 416 156 433 171 444 C184 451 201 457 220 457 C264 457 282 439 282 388 L282 312 C276 287 247 262 184 244 C132 227 96 220 62 189 C39 166 30 136 30 109 C30 32 83 -9 159 -9 C229 -9 267 30 281 61 L288 61 C290 28 298 12 313 3 C323 -4 335 -8 355 -8 C363 -8 376 -7 384 -5 C321 -37 270 -79 270 -125 C270 -180 326 -219 429 -212 Z M282 270 L282 107 C276 59 232 30 193 30 C151 30 120 53 120 115 C120 148 128 169 142 185 C155 200 177 212 209 225 C237 238 268 253 282 270 Z " />
<glyph glyph-name="aringacute" unicode="&#x1fb;" horiz-adv-x="453" d="M449 14 L443 31 C434 26 421 23 411 23 C398 23 388 27 383 36 C375 47 372 64 372 112 L372 380 C372 452 310 481 219 481 C163 481 102 458 78 431 C64 418 56 401 56 382 C56 356 75 341 99 341 C127 341 143 354 146 388 C149 416 156 434 171 444 C184 452 201 457 221 457 C264 457 282 439 282 388 L282 312 C277 288 247 262 184 244 C132 227 96 220 62 189 C39 166 30 136 30 109 C30 32 83 -9 159 -9 C229 -9 267 30 281 61 L288 61 C290 28 298 12 313 2 C323 -5 338 -9 361 -9 C401 -9 436 4 449 14 Z M282 270 L282 107 C276 59 232 30 193 30 C151 30 120 53 120 115 C120 148 128 169 142 185 C155 201 178 212 210 226 C238 239 268 253 282 270 Z M301 587 C301 637 265 670 220 670 C175 670 138 637 138 587 C138 537 175 504 220 504 C263 504 300 537 301 587 Z M167 587 C167 624 187 649 220 649 C252 649 273 624 273 587 C273 550 252 525 220 525 C187 525 167 550 167 587 Z M111 696 L117 678 C162 687 257 714 279 718 C314 727 345 738 345 773 C345 796 328 813 304 813 C279 813 264 801 234 781 C199 757 167 734 111 696 Z " />
<glyph glyph-name="aeacute" unicode="&#x1fd;" horiz-adv-x="712" d="M496 -9 C594 -9 655 49 683 137 L661 147 C640 83 603 26 515 26 C475 26 446 39 422 65 C390 99 376 179 378 258 L677 258 C679 271 680 291 680 306 C680 384 625 480 495 480 C437 480 383 451 352 409 L345 409 C329 457 278 480 215 480 C161 480 103 459 77 431 C64 418 56 402 56 382 C56 357 74 341 97 341 C125 341 143 353 146 388 C148 416 152 433 167 443 C180 452 197 457 217 457 C258 457 282 439 282 390 L282 312 C275 286 247 262 184 244 C133 228 96 220 62 189 C39 168 30 137 30 109 C30 33 86 -9 157 -9 C228 -9 282 32 305 102 L311 102 C322 82 333 66 349 50 C383 16 431 -9 496 -9 Z M589 333 C589 293 581 283 550 283 L381 283 C386 355 403 407 428 430 C447 448 470 457 495 457 C528 457 545 448 561 432 C580 413 589 381 589 333 Z M282 269 L282 112 C277 68 230 29 191 29 C149 29 120 54 120 116 C120 146 127 167 141 183 C154 198 177 211 209 225 C236 237 268 252 282 269 Z M290 541 L302 527 C378 574 403 590 441 612 C473 630 488 647 488 670 C488 694 474 710 451 710 C424 710 406 688 381 657 Z " />
<glyph glyph-name="cacute" unicode="&#x107;" horiz-adv-x="453" d="M255 456 C301 456 318 439 330 388 C338 354 352 333 383 333 C409 333 427 347 427 378 C427 395 419 415 402 431 C379 455 341 481 255 481 C131 481 31 378 31 236 C31 143 64 78 113 39 C149 9 193 -9 252 -9 C352 -9 414 51 438 134 L415 142 C398 90 359 25 262 25 C233 25 203 37 184 55 C151 89 127 143 127 241 C127 338 150 401 185 431 C204 446 229 456 255 456 Z M169 541 L181 527 C257 574 282 590 320 612 C352 630 367 647 367 670 C367 694 353 710 330 710 C303 710 285 688 260 657 Z " />
<glyph glyph-name="ccaron" unicode="&#x10d;" horiz-adv-x="453" d="M386 677 L370 691 L255 596 L139 691 L123 677 C163 622 213 560 232 532 L277 532 C296 559 347 621 386 677 Z M255 456 C301 456 318 439 330 388 C338 354 352 333 383 333 C409 333 427 347 427 378 C427 395 419 415 402 431 C379 455 341 481 255 481 C131 481 31 378 31 236 C31 143 64 78 113 39 C149 9 193 -9 252 -9 C352 -9 414 51 438 134 L415 142 C398 90 359 25 262 25 C233 25 203 37 184 55 C151 89 127 143 127 241 C127 338 150 401 185 431 C204 446 229 456 255 456 Z " />
<glyph glyph-name="ccircumflex" unicode="&#x109;" horiz-adv-x="453" d="M380 549 C343 604 291 667 272 695 L227 695 C208 666 157 604 118 549 L134 535 L249 627 L365 535 Z M255 456 C301 456 318 439 330 388 C338 354 352 333 383 333 C409 333 427 347 427 378 C427 395 419 415 402 431 C379 455 341 481 255 481 C131 481 31 378 31 236 C31 143 64 78 113 39 C149 9 193 -9 252 -9 C352 -9 414 51 438 134 L415 142 C398 90 359 25 262 25 C233 25 203 37 184 55 C151 89 127 143 127 241 C127 338 150 401 185 431 C204 446 229 456 255 456 Z " />
<glyph glyph-name="cdotaccent" unicode="&#x10b;" horiz-adv-x="453" d="M255 456 C301 456 318 439 330 388 C338 354 352 333 383 333 C409 333 427 347 427 378 C427 395 419 415 402 431 C379 455 341 481 255 481 C131 481 31 378 31 236 C31 143 64 78 113 39 C149 9 193 -9 252 -9 C352 -9 414 51 438 134 L415 142 C398 90 359 25 262 25 C233 25 203 37 184 55 C151 89 127 143 127 241 C127 338 150 401 185 431 C204 446 229 456 255 456 Z M250 559 C286 559 309 584 309 616 C309 648 286 674 250 674 C216 674 193 649 193 616 C193 584 216 559 250 559 Z " />
<glyph glyph-name="dcaron" unicode="&#x10f;" horiz-adv-x="562" d="M525 522 L549 522 C571 585 599 660 617 714 L544 714 Z M372 170 C372 89 330 23 260 23 C188 23 129 76 129 235 C129 387 189 452 262 452 C297 452 319 441 339 420 C360 396 372 364 372 314 Z M528 -1 L528 18 C518 19 503 22 493 28 C477 35 469 47 466 65 C463 80 463 101 463 119 L463 552 C463 612 465 673 466 704 C466 710 465 712 460 712 L302 712 L302 694 C320 692 335 690 348 683 C358 677 365 671 368 656 C371 641 372 596 372 570 L372 421 L368 421 C351 451 319 481 251 481 C145 481 32 404 32 236 C32 74 132 -9 233 -9 C304 -9 352 28 373 79 L379 79 L379 32 C379 22 379 11 380 4 C381 0 383 -2 388 -2 C392 -2 519 -1 528 -1 Z " />
<glyph glyph-name="ebreve" unicode="&#x115;" horiz-adv-x="476" d="M447 139 L425 147 C404 83 362 26 274 26 C233 26 200 39 177 64 C145 99 130 164 130 236 L130 258 L441 258 C443 271 444 291 444 307 C444 384 389 481 254 481 C133 481 31 377 31 235 C31 163 52 96 102 49 C140 12 191 -9 256 -9 C355 -9 419 50 447 139 Z M184 428 C204 446 229 455 255 455 C287 455 307 446 324 430 C343 410 352 382 352 333 C352 293 344 284 316 284 L132 284 C139 357 161 406 184 428 Z M253 542 C323 542 363 595 370 672 L352 677 C333 616 299 604 253 604 C209 604 175 616 155 677 L136 672 C144 595 185 542 253 542 Z " />
<glyph glyph-name="ecaron" unicode="&#x11b;" horiz-adv-x="476" d="M447 139 L425 147 C404 83 362 26 274 26 C233 26 200 39 177 64 C145 99 130 164 130 236 L130 258 L441 258 C443 271 444 291 444 307 C444 384 389 481 254 481 C133 481 31 377 31 235 C31 163 52 96 102 49 C140 12 191 -9 256 -9 C355 -9 419 50 447 139 Z M184 428 C204 446 229 455 255 455 C287 455 307 446 324 430 C343 410 352 382 352 333 C352 293 344 284 316 284 L132 284 C139 357 161 406 184 428 Z M384 677 L368 691 L253 596 L137 691 L121 677 C161 622 211 560 230 532 L275 532 C294 559 345 621 384 677 Z " />
<glyph glyph-name="edotaccent" unicode="&#x117;" horiz-adv-x="476" d="M447 139 L425 147 C404 83 362 26 274 26 C233 26 200 39 177 64 C145 99 130 164 130 236 L130 258 L441 258 C443 271 444 291 444 307 C444 384 389 481 254 481 C133 481 31 377 31 235 C31 163 52 96 102 49 C140 12 191 -9 256 -9 C355 -9 419 50 447 139 Z M184 428 C204 446 229 455 255 455 C287 455 307 446 324 430 C343 410 352 382 352 333 C352 293 344 284 316 284 L132 284 C139 357 161 406 184 428 Z M249 559 C285 559 308 584 308 616 C308 648 285 674 249 674 C215 674 192 649 192 616 C192 584 215 559 249 559 Z " />
<glyph glyph-name="emacron" unicode="&#x113;" horiz-adv-x="476" d="M447 139 L425 147 C404 83 362 26 274 26 C233 26 200 39 177 64 C145 99 130 164 130 236 L130 258 L441 258 C443 271 444 291 444 307 C444 384 389 481 254 481 C133 481 31 377 31 235 C31 163 52 96 102 49 C140 12 191 -9 256 -9 C355 -9 419 50 447 139 Z M184 428 C204 446 229 455 255 455 C287 455 307 446 324 430 C343 410 352 382 352 333 C352 293 344 284 316 284 L132 284 C139 357 161 406 184 428 Z M370 582 L370 620 L129 620 L129 582 Z " />
<glyph glyph-name="eogonek" unicode="&#x119;" horiz-adv-x="476" d="M360 -212 L360 -192 C310 -187 277 -169 277 -121 C277 -61 321 -16 366 21 C401 49 430 85 447 139 L425 147 C404 83 364 26 274 26 C234 26 200 39 177 64 C145 99 130 164 130 234 C130 240 130 253 131 259 L441 259 C443 271 444 290 444 306 C444 383 389 480 254 480 C133 480 31 376 31 234 C31 162 53 95 104 47 C141 11 192 -9 256 -9 C276 -9 297 -5 314 0 C261 -32 201 -80 201 -125 C201 -180 258 -219 360 -212 Z M184 427 C204 446 228 454 255 454 C287 454 307 446 324 429 C343 409 352 382 352 333 C352 293 344 284 316 284 L133 284 C139 359 160 406 184 427 Z " />
<glyph glyph-name="gbreve" unicode="&#x11f;" horiz-adv-x="506" d="M135 321 C135 419 174 458 227 458 C280 458 321 419 321 321 C321 222 279 183 225 183 C173 183 135 222 135 321 Z M469 -38 C469 62 410 87 321 87 C286 87 191 80 160 80 C123 80 103 95 103 120 C103 151 141 163 172 163 C190 163 210 160 226 160 C315 160 409 216 409 321 C409 334 407 347 403 357 C399 372 396 384 396 395 C396 417 406 436 420 436 C433 436 436 425 444 412 C452 398 464 391 479 391 C500 391 517 405 517 431 C517 461 498 483 464 483 C426 483 390 457 381 415 L375 415 C339 460 283 481 228 481 C139 481 47 423 47 321 C47 252 87 206 137 181 L137 176 C96 167 49 141 49 87 C49 40 86 10 133 3 L133 -2 C56 -14 7 -48 7 -100 C7 -170 80 -208 216 -208 C334 -208 469 -156 469 -38 Z M406 -70 C406 -154 315 -183 221 -183 C127 -183 75 -158 75 -99 C75 -23 153 -10 201 -6 C234 -4 282 -1 313 -2 C369 -2 406 -12 406 -70 Z M229 542 C299 542 339 595 346 672 L328 677 C309 616 275 604 229 604 C185 604 151 616 131 677 L112 672 C120 595 161 542 229 542 Z " />
<glyph glyph-name="gcircumflex" unicode="&#x11d;" horiz-adv-x="506" d="M368 549 C331 604 279 667 260 695 L215 695 C196 666 145 604 106 549 L122 535 L237 627 L353 535 Z M135 321 C135 419 174 458 227 458 C280 458 321 419 321 321 C321 222 279 183 225 183 C173 183 135 222 135 321 Z M469 -38 C469 62 410 87 321 87 C286 87 191 80 160 80 C123 80 103 95 103 120 C103 151 141 163 172 163 C190 163 210 160 226 160 C315 160 409 216 409 321 C409 334 407 347 403 357 C399 372 396 384 396 395 C396 417 406 436 420 436 C433 436 436 425 444 412 C452 398 464 391 479 391 C500 391 517 405 517 431 C517 461 498 483 464 483 C426 483 390 457 381 415 L375 415 C339 460 283 481 228 481 C139 481 47 423 47 321 C47 252 87 206 137 181 L137 176 C96 167 49 141 49 87 C49 40 86 10 133 3 L133 -2 C56 -14 7 -48 7 -100 C7 -170 80 -208 216 -208 C334 -208 469 -156 469 -38 Z M406 -70 C406 -154 315 -183 221 -183 C127 -183 75 -158 75 -99 C75 -23 153 -10 201 -6 C234 -4 282 -1 313 -2 C369 -2 406 -12 406 -70 Z " />
<glyph glyph-name="uni0123" unicode="&#x123;" horiz-adv-x="506" d="M171 598 C171 557 196 536 229 536 C260 536 279 556 279 585 C279 612 262 621 230 634 C223 636 219 641 219 648 C219 671 243 690 287 705 L280 724 C208 702 171 658 171 598 Z M135 321 C135 419 174 458 227 458 C280 458 321 419 321 321 C321 222 279 183 225 183 C173 183 135 222 135 321 Z M469 -38 C469 62 410 87 321 87 C286 87 191 80 160 80 C123 80 103 95 103 120 C103 151 141 163 172 163 C190 163 210 160 226 160 C315 160 409 216 409 321 C409 334 407 347 403 357 C399 372 396 384 396 395 C396 417 406 436 420 436 C433 436 436 425 444 412 C452 398 464 391 479 391 C500 391 517 405 517 431 C517 461 498 483 464 483 C426 483 390 457 381 415 L375 415 C339 460 283 481 228 481 C139 481 47 423 47 321 C47 252 87 206 137 181 L137 176 C96 167 49 141 49 87 C49 40 86 10 133 3 L133 -2 C56 -14 7 -48 7 -100 C7 -170 80 -208 216 -208 C334 -208 469 -156 469 -38 Z M406 -70 C406 -154 315 -183 221 -183 C127 -183 75 -158 75 -99 C75 -23 153 -10 201 -6 C234 -4 282 -1 313 -2 C369 -2 406 -12 406 -70 Z " />
<glyph glyph-name="gdotaccent" unicode="&#x121;" horiz-adv-x="506" d="M135 321 C135 419 174 458 227 458 C280 458 321 419 321 321 C321 222 279 183 225 183 C173 183 135 222 135 321 Z M469 -38 C469 62 410 87 321 87 C286 87 191 80 160 80 C123 80 103 95 103 120 C103 151 141 163 172 163 C190 163 210 160 226 160 C315 160 409 216 409 321 C409 334 407 347 403 357 C399 372 396 384 396 395 C396 417 406 436 420 436 C433 436 436 425 444 412 C452 398 464 391 479 391 C500 391 517 405 517 431 C517 461 498 483 464 483 C426 483 390 457 381 415 L375 415 C339 460 283 481 228 481 C139 481 47 423 47 321 C47 252 87 206 137 181 L137 176 C96 167 49 141 49 87 C49 40 86 10 133 3 L133 -2 C56 -14 7 -48 7 -100 C7 -170 80 -208 216 -208 C334 -208 469 -156 469 -38 Z M406 -70 C406 -154 315 -183 221 -183 C127 -183 75 -158 75 -99 C75 -23 153 -10 201 -6 C234 -4 282 -1 313 -2 C369 -2 406 -12 406 -70 Z M225 559 C261 559 284 584 284 616 C284 648 261 674 225 674 C191 674 168 649 168 616 C168 584 191 559 225 559 Z " />
<glyph glyph-name="hbar" unicode="&#x127;" horiz-adv-x="565" d="M20 570 L92 570 L92 130 C92 105 92 81 89 66 C84 44 73 34 55 26 C48 23 36 20 25 19 L25 0 L246 0 L246 19 C236 20 225 23 217 26 C201 34 192 45 187 70 C184 85 182 104 182 130 L182 264 C182 303 188 338 202 366 C224 411 266 437 312 437 C338 437 359 430 372 412 C385 396 390 374 390 344 L390 130 C390 104 390 84 386 69 C381 44 372 33 357 26 C350 22 338 20 326 19 L326 0 L546 0 L546 19 C535 20 524 22 516 26 C497 34 489 45 484 65 C482 80 480 102 480 126 L480 349 C480 399 466 431 440 453 C418 472 389 481 352 481 C312 481 276 470 250 451 C225 436 204 413 189 383 L183 383 L183 570 L315 570 L315 595 L183 595 L183 607 C183 637 184 696 184 705 C184 711 182 712 177 712 L25 712 L25 693 C42 692 56 689 70 682 C78 677 86 667 88 653 C90 641 92 619 92 595 L20 595 Z " />
<glyph glyph-name="hcircumflex" unicode="&#x125;" horiz-adv-x="565" d="M481 126 L481 349 C481 399 467 431 441 453 C419 472 390 481 353 481 C313 481 277 470 251 451 C226 436 205 413 190 383 L184 383 L184 607 C184 637 185 696 185 705 C185 711 183 712 178 712 L26 712 L26 693 C43 692 57 689 71 682 C79 677 87 667 89 653 C91 641 93 619 93 595 L93 130 C93 105 93 81 90 66 C85 44 74 34 56 26 C49 23 37 20 26 19 L26 0 L247 0 L247 19 C237 20 226 23 218 26 C202 34 193 45 188 70 C185 85 183 104 183 130 L183 264 C183 303 189 338 203 366 C225 411 267 437 313 437 C339 437 360 430 373 412 C386 396 391 374 391 344 L391 130 C391 104 391 84 387 69 C382 44 373 33 358 26 C351 22 339 20 327 19 L327 0 L547 0 L547 19 C536 20 525 22 517 26 C498 34 490 45 485 65 C483 80 481 102 481 126 Z M409 757 C384 782 320 846 299 870 L250 870 C229 846 165 782 142 757 L154 741 L274 807 L397 741 Z " />
<glyph glyph-name="ibreve" unicode="&#x12d;" horiz-adv-x="271" d="M182 370 C182 412 184 439 185 462 C185 467 182 469 178 469 L28 469 L28 451 C49 448 60 445 70 438 C80 431 85 423 88 410 C91 398 92 363 92 347 L92 115 C92 94 92 77 88 61 C83 44 73 34 58 27 C51 24 38 20 28 19 L28 0 L248 0 L248 19 C237 20 225 23 217 27 C201 34 193 44 187 65 C182 79 182 93 182 115 Z M114 542 C184 542 224 595 231 672 L213 677 C194 616 160 604 114 604 C70 604 36 616 16 677 L-3 672 C5 595 46 542 114 542 Z " />
<glyph glyph-name="idotaccent" horiz-adv-x="246" d="M137 568 C172 568 196 593 196 625 C196 657 173 683 137 683 C103 683 81 658 81 625 C81 593 103 568 137 568 Z M182 371 C182 414 184 439 185 462 C185 467 182 469 178 469 L28 469 L28 451 C49 448 60 444 70 437 C80 431 84 423 88 410 C91 398 92 363 92 347 L92 115 C92 94 92 77 88 61 C84 45 74 34 58 27 C51 23 38 20 28 19 L28 0 L248 0 L248 19 C237 20 224 23 217 27 C203 34 191 42 187 61 C184 74 182 95 182 115 Z " />
<glyph glyph-name="imacron" unicode="&#x12b;" horiz-adv-x="271" d="M182 370 C182 412 184 439 185 462 C185 467 182 469 178 469 L28 469 L28 451 C49 448 60 445 70 438 C80 431 85 423 88 410 C91 398 92 363 92 347 L92 115 C92 94 92 77 88 61 C83 44 73 34 58 27 C51 24 38 20 28 19 L28 0 L248 0 L248 19 C237 20 225 23 217 27 C201 34 193 44 187 65 C182 79 182 93 182 115 Z M222 582 L222 620 L-6 620 L-6 582 Z " />
<glyph glyph-name="iogonek" unicode="&#x12f;" horiz-adv-x="269" d="M137 570 C171 570 194 593 194 625 C194 656 171 680 137 680 C104 680 81 657 81 625 C81 593 104 570 137 570 Z M170 0 C105 -34 55 -73 55 -125 C55 -181 115 -217 218 -212 L218 -192 C168 -187 134 -166 134 -122 C134 -73 153 -35 197 0 L248 0 L248 19 C237 20 223 23 216 27 C201 34 192 44 186 65 C182 79 182 95 182 115 L182 369 C182 411 184 439 184 461 C184 466 181 469 176 469 L28 469 L28 450 C48 447 59 444 70 436 C78 430 85 422 88 408 C91 397 92 363 92 347 L92 115 C92 94 91 77 88 61 C84 45 74 34 58 27 C51 24 37 20 27 19 L27 0 Z " />
<glyph glyph-name="itilde" unicode="&#x129;" horiz-adv-x="271" d="M182 370 C182 412 184 439 185 462 C185 467 182 469 178 469 L28 469 L28 451 C49 448 60 445 70 438 C80 431 85 423 88 410 C91 398 92 363 92 347 L92 115 C92 94 92 77 88 61 C83 44 73 34 58 27 C51 24 38 20 28 19 L28 0 L248 0 L248 19 C237 20 225 23 217 27 C201 34 193 44 187 65 C182 79 182 93 182 115 Z M261 664 L243 670 C228 641 213 628 182 628 C141 628 105 659 61 659 C14 659 -15 609 -30 564 L-13 558 C3 584 22 599 46 599 C86 599 118 568 168 568 C214 568 246 611 261 664 Z " />
<glyph glyph-name="jcircumflex" unicode="&#x135;" horiz-adv-x="246" d="M90 -66 C90 -112 84 -141 72 -160 C61 -177 46 -186 24 -186 C0 -186 -14 -176 -14 -158 C-14 -153 -14 -148 -12 -141 C-10 -132 -8 -124 -8 -118 C-8 -92 -26 -75 -55 -75 C-80 -75 -101 -92 -101 -122 C-101 -151 -86 -174 -60 -190 C-39 -204 -12 -209 22 -209 C67 -209 95 -193 119 -173 C148 -146 180 -107 180 8 L180 358 C180 399 182 425 182 449 C182 453 180 455 176 455 L28 455 L28 436 C44 434 57 430 68 423 C77 417 84 409 87 396 C90 383 90 356 90 338 Z M242 549 C205 604 153 667 134 695 L89 695 C70 666 19 604 -20 549 L-4 535 L111 627 L227 535 Z " />
<glyph glyph-name="uni0137" unicode="&#x137;" horiz-adv-x="518" d="M347 -99 C347 -58 323 -35 290 -35 C256 -35 237 -57 237 -84 C237 -113 254 -127 283 -137 C291 -139 296 -143 296 -152 C296 -179 266 -196 223 -211 L231 -229 C299 -207 347 -163 347 -99 Z M244 19 C233 20 222 23 212 27 C198 35 188 45 183 65 C180 78 180 98 180 119 L180 206 L236 258 C292 243 313 192 329 126 C349 45 361 14 376 0 L514 0 L514 19 C482 24 468 35 455 53 C437 77 424 114 407 178 C391 243 341 282 276 295 L339 349 C384 388 411 410 434 424 C459 439 477 446 496 451 L496 469 L282 469 L282 451 C297 449 310 447 319 442 C332 436 339 426 339 413 C339 389 319 369 288 341 L180 239 L180 612 C180 648 181 683 182 705 C182 710 179 712 174 712 L25 712 L25 693 C44 692 56 690 68 683 C77 677 84 667 86 654 C88 644 90 609 90 593 L90 119 C90 97 90 81 85 62 C80 44 72 34 57 27 C49 23 38 20 27 19 L27 0 L244 0 Z " />
<glyph glyph-name="lacute" unicode="&#x13a;" horiz-adv-x="266" d="M6 761 L12 743 C57 752 152 779 174 783 C209 792 240 803 240 838 C240 861 223 878 199 878 C174 878 159 866 129 846 C94 822 62 799 6 761 Z M179 609 C179 648 181 683 181 705 C181 710 179 712 174 712 L24 712 L24 693 C43 692 56 690 67 683 C76 676 81 668 85 654 C89 642 89 608 89 593 L89 119 C89 97 89 78 85 63 C80 44 70 34 55 27 C47 23 36 20 25 19 L25 0 L242 0 L242 19 C231 20 220 23 211 27 C197 34 187 44 182 65 C179 80 179 98 179 119 Z " />
<glyph glyph-name="lcaron" unicode="&#x13e;" horiz-adv-x="288" d="M242 522 L266 522 C288 585 316 660 334 714 L261 714 Z M184 609 C184 648 186 683 186 705 C186 710 184 712 179 712 L29 712 L29 693 C48 692 61 690 72 683 C81 676 86 668 90 654 C94 642 94 608 94 593 L94 119 C94 97 94 78 90 63 C85 44 75 34 60 27 C52 23 41 20 30 19 L30 0 L247 0 L247 19 C236 20 225 23 216 27 C202 34 192 44 187 65 C184 80 184 98 184 119 Z " />
<glyph glyph-name="uni013C" unicode="&#x13c;" horiz-adv-x="259" d="M192 -99 C192 -58 168 -35 135 -35 C101 -35 82 -57 82 -84 C82 -113 99 -127 128 -137 C136 -139 141 -143 141 -152 C141 -179 111 -196 68 -211 L76 -229 C144 -207 192 -163 192 -99 Z M184 609 C184 648 186 683 186 705 C186 710 184 712 179 712 L29 712 L29 693 C48 692 61 690 72 683 C81 676 86 668 90 654 C94 642 94 608 94 593 L94 119 C94 97 94 78 90 63 C85 44 75 34 60 27 C52 23 41 20 30 19 L30 0 L247 0 L247 19 C236 20 225 23 216 27 C202 34 192 44 187 65 C184 80 184 98 184 119 Z " />
<glyph glyph-name="ldot" unicode="&#x140;" horiz-adv-x="343" d="M179 609 C179 648 181 683 181 705 C181 710 179 712 174 712 L24 712 L24 693 C43 692 56 690 67 683 C76 676 81 668 85 654 C89 642 89 608 89 593 L89 119 C89 97 89 78 85 63 C80 44 70 34 55 27 C47 23 36 20 25 19 L25 0 L242 0 L242 19 C231 20 220 23 211 27 C197 34 187 44 182 65 C179 80 179 98 179 119 Z M293 276 C328 276 350 300 350 331 C350 361 328 386 293 386 C261 386 239 362 239 331 C239 300 261 276 293 276 Z " />
<glyph glyph-name="nacute" unicode="&#x144;" horiz-adv-x="564" d="M481 126 L481 351 C481 400 464 433 439 453 C417 471 388 481 353 481 C312 481 277 470 251 451 C226 436 203 412 187 379 L181 379 C182 400 183 447 183 463 C183 468 181 469 176 469 L28 469 L28 451 C44 449 59 444 71 437 C81 431 87 423 90 410 C93 396 93 369 93 347 L93 134 C93 107 93 81 91 68 C86 44 76 34 55 26 C48 23 35 20 25 19 L25 0 L247 0 L247 19 C237 20 228 23 219 26 C199 35 191 46 188 64 C184 79 184 103 184 130 L184 263 C184 306 189 335 203 365 C224 413 268 437 313 437 C338 437 356 430 368 417 C383 401 390 381 390 344 L390 130 C390 103 390 80 385 63 C380 44 375 34 357 26 C349 23 336 20 327 19 L327 0 L545 0 L545 19 C536 20 523 23 516 26 C495 35 488 47 485 65 C482 79 481 102 481 126 Z M201 541 L213 527 C289 574 314 590 352 612 C384 630 399 647 399 670 C399 694 385 710 362 710 C335 710 317 688 292 657 Z " />
<glyph glyph-name="napostrophe" unicode="&#x149;" horiz-adv-x="590" d="M97 634 C97 680 67 705 32 705 C1 705 -26 682 -26 649 C-26 617 -9 600 24 589 C35 585 40 580 40 570 C40 542 13 521 -44 498 L-36 479 C38 505 97 547 97 634 Z M522 126 L522 351 C522 400 505 433 480 453 C458 471 429 481 394 481 C353 481 318 470 292 451 C267 436 244 412 228 379 L222 379 C223 400 224 447 224 463 C224 468 222 469 217 469 L69 469 L69 451 C85 449 100 444 112 437 C122 431 128 423 131 410 C134 396 134 369 134 347 L134 134 C134 107 134 81 132 68 C127 44 117 34 96 26 C89 23 76 20 66 19 L66 0 L288 0 L288 19 C278 20 269 23 260 26 C240 35 232 46 229 64 C225 79 225 103 225 130 L225 263 C225 306 230 335 244 365 C265 413 309 437 354 437 C379 437 397 430 409 417 C424 401 431 381 431 344 L431 130 C431 103 431 80 426 63 C421 44 416 34 398 26 C390 23 377 20 368 19 L368 0 L586 0 L586 19 C577 20 564 23 557 26 C536 35 529 47 526 65 C523 79 522 102 522 126 Z " />
<glyph glyph-name="ncaron" unicode="&#x148;" horiz-adv-x="564" d="M417 677 L401 691 L286 596 L170 691 L154 677 C194 622 244 560 263 532 L308 532 C327 559 378 621 417 677 Z M481 126 L481 351 C481 400 464 433 439 453 C417 471 388 481 353 481 C312 481 277 470 251 451 C226 436 203 412 187 379 L181 379 C182 400 183 447 183 463 C183 468 181 469 176 469 L28 469 L28 451 C44 449 59 444 71 437 C81 431 87 423 90 410 C93 396 93 369 93 347 L93 134 C93 107 93 81 91 68 C86 44 76 34 55 26 C48 23 35 20 25 19 L25 0 L247 0 L247 19 C237 20 228 23 219 26 C199 35 191 46 188 64 C184 79 184 103 184 130 L184 263 C184 306 189 335 203 365 C224 413 268 437 313 437 C338 437 356 430 368 417 C383 401 390 381 390 344 L390 130 C390 103 390 80 385 63 C380 44 375 34 357 26 C349 23 336 20 327 19 L327 0 L545 0 L545 19 C536 20 523 23 516 26 C495 35 488 47 485 65 C482 79 481 102 481 126 Z " />
<glyph glyph-name="uni0146" unicode="&#x146;" horiz-adv-x="564" d="M346 -99 C346 -58 322 -35 289 -35 C255 -35 236 -57 236 -84 C236 -113 253 -127 282 -137 C290 -139 295 -143 295 -152 C295 -179 265 -196 222 -211 L230 -229 C298 -207 346 -163 346 -99 Z M481 126 L481 351 C481 400 464 433 439 453 C417 471 388 481 353 481 C312 481 277 470 251 451 C226 436 203 412 187 379 L181 379 C182 400 183 447 183 463 C183 468 181 469 176 469 L28 469 L28 451 C44 449 59 444 71 437 C81 431 87 423 90 410 C93 396 93 369 93 347 L93 134 C93 107 93 81 91 68 C86 44 76 34 55 26 C48 23 35 20 25 19 L25 0 L247 0 L247 19 C237 20 228 23 219 26 C199 35 191 46 188 64 C184 79 184 103 184 130 L184 263 C184 306 189 335 203 365 C224 413 268 437 313 437 C338 437 356 430 368 417 C383 401 390 381 390 344 L390 130 C390 103 390 80 385 63 C380 44 375 34 357 26 C349 23 336 20 327 19 L327 0 L545 0 L545 19 C536 20 523 23 516 26 C495 35 488 47 485 65 C482 79 481 102 481 126 Z " />
<glyph glyph-name="obreve" unicode="&#x14f;" horiz-adv-x="521" d="M31 236 C31 84 138 -9 260 -9 C382 -9 489 84 489 237 C489 388 382 481 260 481 C138 481 31 388 31 236 Z M129 236 C129 337 149 395 185 428 C206 447 234 456 260 456 C286 456 314 448 335 428 C371 394 391 336 391 236 C391 137 370 77 335 44 C314 24 287 16 260 16 C233 16 206 24 184 45 C149 77 129 137 129 236 Z M259 542 C329 542 369 595 376 672 L358 677 C339 616 305 604 259 604 C215 604 181 616 161 677 L142 672 C150 595 191 542 259 542 Z " />
<glyph glyph-name="ohungarumlaut" unicode="&#x151;" horiz-adv-x="521" d="M31 236 C31 84 138 -9 260 -9 C382 -9 489 84 489 237 C489 388 382 481 260 481 C138 481 31 388 31 236 Z M129 236 C129 337 149 395 185 428 C206 447 234 456 260 456 C286 456 314 448 335 428 C371 394 391 336 391 236 C391 137 370 77 335 44 C314 24 287 16 260 16 C233 16 206 24 184 45 C149 77 129 137 129 236 Z M269 717 C246 716 232 700 218 670 L148 532 L163 522 C191 548 256 617 269 628 C289 648 302 661 302 684 C302 703 288 717 269 717 Z M426 717 C403 716 389 700 374 670 L305 532 L319 522 C348 548 413 617 425 628 C446 648 458 662 458 684 C458 703 444 717 426 717 Z " />
<glyph glyph-name="omacron" unicode="&#x14d;" horiz-adv-x="521" d="M381 582 L381 620 L140 620 L140 582 Z M31 236 C31 84 138 -9 260 -9 C382 -9 489 84 489 237 C489 388 382 481 260 481 C138 481 31 388 31 236 Z M129 236 C129 337 149 395 185 428 C206 447 234 456 260 456 C286 456 314 448 335 428 C371 394 391 336 391 236 C391 137 370 77 335 44 C314 24 287 16 260 16 C233 16 206 24 184 45 C149 77 129 137 129 236 Z " />
<glyph glyph-name="oslashacute" unicode="&#x1ff;" horiz-adv-x="521" d="M31 236 C31 139 74 66 137 26 L95 -53 L119 -64 L159 13 C190 -1 224 -9 260 -9 C382 -9 489 84 489 237 C489 332 446 404 384 444 L425 521 L403 533 L363 457 C331 472 296 481 260 481 C138 481 31 388 31 236 Z M129 236 C129 337 149 395 185 428 C206 447 234 456 260 456 C286 456 314 448 335 428 L343 419 L161 73 C140 108 129 160 129 236 Z M391 236 C391 137 370 77 335 44 C314 24 287 16 260 16 C233 16 206 24 184 45 L178 50 L359 396 C380 361 391 310 391 236 Z M173 541 L185 527 C261 574 286 590 324 612 C356 630 371 647 371 670 C371 694 357 710 334 710 C307 710 289 688 264 657 Z " />
<glyph glyph-name="racute" unicode="&#x155;" horiz-adv-x="381" d="M182 365 L176 365 C176 368 179 460 179 463 C179 466 177 469 172 469 L23 469 L23 451 C39 448 53 445 66 437 C75 432 83 421 86 409 C89 396 89 363 89 347 L89 127 C89 104 89 81 85 64 C79 43 71 34 55 26 C46 23 33 20 23 19 L23 0 L247 0 L247 19 C236 20 225 22 214 26 C202 30 195 41 190 55 C183 72 179 92 179 130 L179 232 C179 258 180 290 181 300 C190 372 236 430 265 430 C277 430 286 422 293 406 C301 385 312 368 341 368 C372 368 386 392 386 418 C386 439 379 453 370 462 C357 474 338 481 317 481 C281 481 256 467 238 452 C217 433 199 410 182 365 Z M120 541 L132 527 C208 574 233 590 271 612 C303 630 318 647 318 670 C318 694 304 710 281 710 C254 710 236 688 211 657 Z " />
<glyph glyph-name="rcaron" unicode="&#x159;" horiz-adv-x="381" d="M345 677 L329 691 L214 596 L98 691 L82 677 C122 622 172 560 191 532 L236 532 C255 559 306 621 345 677 Z M182 365 L176 365 C176 368 179 460 179 463 C179 466 177 469 172 469 L23 469 L23 451 C39 448 53 445 66 437 C75 432 83 421 86 409 C89 396 89 363 89 347 L89 127 C89 104 89 81 85 64 C79 43 71 34 55 26 C46 23 33 20 23 19 L23 0 L247 0 L247 19 C236 20 225 22 214 26 C202 30 195 41 190 55 C183 72 179 92 179 130 L179 232 C179 258 180 290 181 300 C190 372 236 430 265 430 C277 430 286 422 293 406 C301 385 312 368 341 368 C372 368 386 392 386 418 C386 439 379 453 370 462 C357 474 338 481 317 481 C281 481 256 467 238 452 C217 433 199 410 182 365 Z " />
<glyph glyph-name="uni0157" unicode="&#x157;" horiz-adv-x="381" d="M185 -99 C185 -58 161 -35 128 -35 C94 -35 75 -57 75 -84 C75 -113 92 -127 121 -137 C129 -139 134 -143 134 -152 C134 -179 104 -196 61 -211 L69 -229 C137 -207 185 -163 185 -99 Z M182 365 L176 365 C176 368 179 460 179 463 C179 466 177 469 172 469 L23 469 L23 451 C39 448 53 445 66 437 C75 432 83 421 86 409 C89 396 89 363 89 347 L89 127 C89 104 89 81 85 64 C79 43 71 34 55 26 C46 23 33 20 23 19 L23 0 L247 0 L247 19 C236 20 225 22 214 26 C202 30 195 41 190 55 C183 72 179 92 179 130 L179 232 C179 258 180 290 181 300 C190 372 236 430 265 430 C277 430 286 422 293 406 C301 385 312 368 341 368 C372 368 386 392 386 418 C386 439 379 453 370 462 C357 474 338 481 317 481 C281 481 256 467 238 452 C217 433 199 410 182 365 Z " />
<glyph glyph-name="sacute" unicode="&#x15b;" horiz-adv-x="386" d="M370 137 C370 220 307 251 225 284 C145 316 113 337 113 388 C113 429 146 456 192 456 C224 456 248 447 265 432 C290 412 306 379 320 339 L339 339 L333 474 L319 474 L300 443 L294 443 C276 461 245 482 192 482 C99 482 42 426 42 356 C42 265 97 237 181 203 C264 168 300 149 300 92 C300 41 264 17 211 17 C136 17 82 77 56 169 L35 169 L39 2 L56 2 L78 41 L85 41 C115 11 163 -8 211 -8 C295 -8 370 37 370 137 Z M105 541 L117 527 C193 574 218 590 256 612 C288 630 303 647 303 670 C303 694 289 710 266 710 C239 710 221 688 196 657 Z " />
<glyph glyph-name="uni015F" unicode="&#x15f;" horiz-adv-x="386" d="M293 -114 C293 -69 262 -39 207 -39 C190 -39 170 -44 160 -50 L175 -4 C187 -7 199 -8 211 -8 C295 -8 370 37 370 137 C370 220 307 251 225 284 C145 316 113 337 113 388 C113 429 146 456 192 456 C224 456 248 447 265 432 C290 412 306 379 320 339 L339 339 L333 474 L319 474 L300 443 L294 443 C276 461 245 482 192 482 C99 482 42 426 42 356 C42 265 97 237 181 203 C264 168 300 149 300 92 C300 41 264 17 211 17 C136 17 82 77 56 169 L35 169 L39 2 L56 2 L78 41 L85 41 C102 24 124 10 149 2 L128 -65 L151 -76 C159 -69 171 -64 184 -64 C209 -64 227 -80 227 -115 C227 -156 198 -171 163 -171 C141 -171 116 -164 100 -155 L88 -173 C107 -185 138 -196 172 -196 C239 -196 293 -173 293 -114 Z " />
<glyph glyph-name="scircumflex" unicode="&#x15d;" horiz-adv-x="385" d="M328 549 C291 604 239 667 220 695 L175 695 C156 666 105 604 66 549 L82 535 L197 627 L313 535 Z M369 136 C369 219 306 250 224 283 C144 315 112 336 112 387 C112 428 145 455 191 455 C223 455 247 446 264 431 C289 411 305 378 319 338 L338 338 L332 473 L318 473 L299 442 L293 442 C275 460 244 481 191 481 C98 481 41 425 41 355 C41 264 96 236 180 202 C263 167 299 148 299 91 C299 40 263 16 210 16 C135 16 81 76 55 168 L34 168 L38 1 L55 1 L77 40 L84 40 C114 10 162 -9 210 -9 C294 -9 369 36 369 136 Z " />
<glyph glyph-name="uni0219" unicode="&#x219;" horiz-adv-x="385" d="M253 -99 C253 -58 229 -35 196 -35 C162 -35 143 -57 143 -84 C143 -113 160 -127 189 -137 C197 -139 202 -143 202 -152 C202 -179 172 -196 129 -211 L137 -229 C205 -207 253 -163 253 -99 Z M369 136 C369 219 306 250 224 283 C144 315 112 336 112 387 C112 428 145 455 191 455 C223 455 247 446 264 431 C289 411 305 378 319 338 L338 338 L332 473 L318 473 L299 442 L293 442 C275 460 244 481 191 481 C98 481 41 425 41 355 C41 264 96 236 180 202 C263 167 299 148 299 91 C299 40 263 16 210 16 C135 16 81 76 55 168 L34 168 L38 1 L55 1 L77 40 L84 40 C114 10 162 -9 210 -9 C294 -9 369 36 369 136 Z " />
<glyph glyph-name="tbar" unicode="&#x167;" horiz-adv-x="322" d="M11 315 L83 315 L83 100 C83 59 90 36 110 18 C133 -1 159 -9 201 -9 C251 -9 294 13 321 52 L310 66 C290 43 264 30 234 30 C187 30 173 53 173 92 L173 315 L295 315 L295 344 L173 344 L174 440 L295 440 L295 469 L174 469 L174 630 L155 630 C117 510 77 472 9 460 L9 442 C19 441 72 440 84 440 C83 434 83 392 83 344 L11 344 Z " />
<glyph glyph-name="tcaron" unicode="&#x165;" horiz-adv-x="322" d="M235 517 L259 517 C281 580 309 655 327 709 L254 709 Z M310 66 C290 43 264 30 234 30 C187 30 173 53 173 92 L174 440 L295 440 L295 469 L174 469 L174 630 L155 630 C117 510 77 472 9 460 L9 442 C19 441 72 440 84 440 C83 421 83 106 83 100 C83 59 90 36 110 18 C133 -1 159 -9 201 -9 C251 -9 294 13 321 52 Z " />
<glyph glyph-name="tcommaaccent" unicode="&#x163;" horiz-adv-x="322" d="M249 -99 C249 -58 225 -35 192 -35 C158 -35 139 -57 139 -84 C139 -113 156 -127 185 -137 C193 -139 198 -143 198 -152 C198 -179 168 -196 125 -211 L133 -229 C201 -207 249 -163 249 -99 Z M310 66 C290 43 264 30 234 30 C187 30 173 53 173 92 L174 440 L295 440 L295 469 L174 469 L174 630 L155 630 C117 510 77 472 9 460 L9 442 C19 441 72 440 84 440 C83 421 83 106 83 100 C83 59 90 36 110 18 C133 -1 159 -9 201 -9 C251 -9 294 13 321 52 Z " />
<glyph glyph-name="uni021B" unicode="&#x21b;" horiz-adv-x="322" d="M249 -99 C249 -58 225 -35 192 -35 C158 -35 139 -57 139 -84 C139 -113 156 -127 185 -137 C193 -139 198 -143 198 -152 C198 -179 168 -196 125 -211 L133 -229 C201 -207 249 -163 249 -99 Z M310 66 C290 43 264 30 234 30 C187 30 173 53 173 92 L174 440 L295 440 L295 469 L174 469 L174 630 L155 630 C117 510 77 472 9 460 L9 442 C19 441 72 440 84 440 C83 421 83 106 83 100 C83 59 90 36 110 18 C133 -1 159 -9 201 -9 C251 -9 294 13 321 52 Z " />
<glyph glyph-name="ubreve" unicode="&#x16d;" horiz-adv-x="553" d="M466 119 L466 341 C466 398 468 435 468 462 C468 468 465 469 460 469 L308 469 L308 451 C324 450 340 446 352 439 C363 431 369 422 372 408 C375 396 375 368 375 353 L375 218 C375 183 374 153 369 128 C362 95 347 71 326 53 C307 35 284 26 260 26 C233 26 213 33 197 49 C179 68 173 93 173 132 L173 343 C173 393 174 435 176 462 C176 468 173 469 168 469 L16 469 L16 451 C35 450 50 446 61 438 C68 432 75 424 78 409 C81 397 82 376 82 353 L82 139 C82 85 92 58 109 36 C141 -2 186 -10 225 -10 C268 -10 301 2 325 21 C344 37 357 51 372 83 L379 83 C379 60 378 17 378 8 C378 2 381 -1 386 -1 C390 -1 522 0 533 0 L533 19 C521 20 505 22 496 27 C479 34 473 47 469 66 C466 82 466 101 466 119 Z M245 542 C315 542 355 595 362 672 L344 677 C325 616 291 604 245 604 C201 604 167 616 147 677 L128 672 C136 595 177 542 245 542 Z " />
<glyph glyph-name="uhungarumlaut" unicode="&#x171;" horiz-adv-x="553" d="M466 119 L466 341 C466 398 468 435 468 462 C468 468 465 469 460 469 L308 469 L308 451 C324 450 340 446 352 439 C363 431 369 422 372 408 C375 396 375 368 375 353 L375 218 C375 183 374 153 369 128 C362 95 347 71 326 53 C307 35 284 26 260 26 C233 26 213 33 197 49 C179 68 173 93 173 132 L173 343 C173 393 174 435 176 462 C176 468 173 469 168 469 L16 469 L16 451 C35 450 50 446 61 438 C68 432 75 424 78 409 C81 397 82 376 82 353 L82 139 C82 85 92 58 109 36 C141 -2 186 -10 225 -10 C268 -10 301 2 325 21 C344 37 357 51 372 83 L379 83 C379 60 378 17 378 8 C378 2 381 -1 386 -1 C390 -1 522 0 533 0 L533 19 C521 20 505 22 496 27 C479 34 473 47 469 66 C466 82 466 101 466 119 Z M267 717 C244 716 230 700 216 670 L146 532 L161 522 C189 548 254 617 267 628 C287 648 300 661 300 684 C300 703 286 717 267 717 Z M424 717 C401 716 387 700 372 670 L303 532 L317 522 C346 548 411 617 423 628 C444 648 456 662 456 684 C456 703 442 717 424 717 Z " />
<glyph glyph-name="umacron" unicode="&#x16b;" horiz-adv-x="553" d="M466 119 L466 341 C466 398 468 435 468 462 C468 468 465 469 460 469 L308 469 L308 451 C324 450 340 446 352 439 C363 431 369 422 372 408 C375 396 375 368 375 353 L375 218 C375 183 374 153 369 128 C362 95 347 71 326 53 C307 35 284 26 260 26 C233 26 213 33 197 49 C179 68 173 93 173 132 L173 343 C173 393 174 435 176 462 C176 468 173 469 168 469 L16 469 L16 451 C35 450 50 446 61 438 C68 432 75 424 78 409 C81 397 82 376 82 353 L82 139 C82 85 92 58 109 36 C141 -2 186 -10 225 -10 C268 -10 301 2 325 21 C344 37 357 51 372 83 L379 83 C379 60 378 17 378 8 C378 2 381 -1 386 -1 C390 -1 522 0 533 0 L533 19 C521 20 505 22 496 27 C479 34 473 47 469 66 C466 82 466 101 466 119 Z M371 582 L371 620 L130 620 L130 582 Z " />
<glyph glyph-name="uogonek" unicode="&#x173;" horiz-adv-x="553" d="M481 0 L533 0 L533 19 C521 20 506 22 496 27 C479 34 472 48 469 66 C466 82 466 101 466 119 L466 341 C466 398 468 434 468 462 C468 468 465 469 460 469 L308 469 L308 451 C324 450 340 446 352 439 C363 431 369 422 372 408 C375 396 375 368 375 353 L375 218 C375 183 374 153 369 128 C362 95 347 70 326 53 C307 35 284 26 260 26 C233 26 214 33 197 50 C178 68 173 93 173 132 L173 343 C173 393 174 434 176 462 C176 468 173 469 168 469 L16 469 L16 451 C35 450 49 446 60 438 C68 433 74 424 78 409 C81 397 82 376 82 353 L82 136 C82 82 92 58 109 36 C141 -2 186 -10 225 -10 C268 -10 302 1 325 21 C346 38 357 51 372 83 L379 83 L379 -15 C321 -38 271 -78 271 -125 C271 -180 327 -219 430 -212 L430 -192 C379 -187 347 -166 347 -123 C347 -44 423 0 481 0 Z " />
<glyph glyph-name="uring" unicode="&#x16f;" horiz-adv-x="553" d="M337 619 C337 669 301 702 256 702 C211 702 174 669 174 619 C174 569 211 536 256 536 C299 536 336 569 337 619 Z M203 619 C203 656 223 681 256 681 C288 681 309 656 309 619 C309 582 288 557 256 557 C223 557 203 582 203 619 Z M466 119 L466 341 C466 398 468 435 468 462 C468 468 465 469 460 469 L308 469 L308 451 C324 450 340 446 352 439 C363 431 369 422 372 408 C375 396 375 368 375 353 L375 218 C375 183 374 153 369 128 C362 95 347 71 326 53 C307 35 284 26 260 26 C233 26 213 33 197 49 C179 68 173 93 173 132 L173 343 C173 393 174 435 176 462 C176 468 173 469 168 469 L16 469 L16 451 C35 450 50 446 61 438 C68 432 75 424 78 409 C81 397 82 376 82 353 L82 139 C82 85 92 58 109 36 C141 -2 186 -10 225 -10 C268 -10 301 2 325 21 C344 37 357 51 372 83 L379 83 C379 60 378 17 378 8 C378 2 381 -1 386 -1 C390 -1 522 0 533 0 L533 19 C521 20 505 22 496 27 C479 34 473 47 469 66 C466 82 466 101 466 119 Z " />
<glyph glyph-name="utilde" unicode="&#x169;" horiz-adv-x="553" d="M466 119 L466 341 C466 398 468 435 468 462 C468 468 465 469 460 469 L308 469 L308 451 C324 450 340 446 352 439 C363 431 369 422 372 408 C375 396 375 368 375 353 L375 218 C375 183 374 153 369 128 C362 95 347 71 326 53 C307 35 284 26 260 26 C233 26 213 33 197 49 C179 68 173 93 173 132 L173 343 C173 393 174 435 176 462 C176 468 173 469 168 469 L16 469 L16 451 C35 450 50 446 61 438 C68 432 75 424 78 409 C81 397 82 376 82 353 L82 139 C82 85 92 58 109 36 C141 -2 186 -10 225 -10 C268 -10 301 2 325 21 C344 37 357 51 372 83 L379 83 C379 60 378 17 378 8 C378 2 381 -1 386 -1 C390 -1 522 0 533 0 L533 19 C521 20 505 22 496 27 C479 34 473 47 469 66 C466 82 466 101 466 119 Z M397 664 L379 670 C364 641 349 628 318 628 C277 628 241 659 197 659 C150 659 121 609 106 564 L123 558 C139 584 158 599 182 599 C222 599 254 568 304 568 C350 568 382 611 397 664 Z " />
</font>
</svg>
